<?xml version="1.0" encoding="utf-8"?>
<!DOCTYPE svg PUBLIC "-//W3C//DTD SVG 1.1//EN" "http://www.w3.org/Graphics/SVG/1.1/DTD/svg11.dtd">
<svg viewBox="0 0 800 800" preserveAspectRatio="xMinYMin meet" xmlns="http://www.w3.org/2000/svg" version="1.1">
<g fill="none" stroke="black" stroke-linecap="round" stroke-linejoin="round" stroke-width="1.8049">
<g transform="translate(87.52,242.0979) scale(1.6621) translate(-121,-97)">
<path id="0" d="M126 129 C126 129 126.7408 179.2144 125 229 C124.2493 250.4699 121 271.9999 121 272 C121 272 120.491 269.509 121 269 C127.2778 262.7222 130.5397 259.6709 141 252 C152.8349 243.3211 155.3123 245.0846 166 236 C174.3896 228.8688 180.3433 218.0286 181 218 C181.3021 217.9869 183.889 227.9724 189 235 C195.1902 243.5115 196.2529 246.7306 205 251 C234.4647 265.3816 238.7558 265.1041 273 276 C293.3703 282.4815 294.2345 284.0965 315 286 C352.7851 289.4636 354.7078 287.8062 393 287 C401.379 286.8236 401.9032 286.3438 410 284 C420.5652 280.9416 421.0093 280.7575 431 276 C441.7577 270.8773 442.3403 270.8325 452 264 C462.4907 256.5798 464.0493 256.4549 472 247 C481.7087 235.4546 482.5144 233.7819 489 220 C494.0577 209.2524 494.2414 207.8704 496 196 C498.1176 181.7064 497.9981 179.9741 497 166 C496.5903 160.2636 495.9176 159.0571 493 154 C488.8511 146.8085 488.3696 145.5734 482 140 C465.1514 125.2575 464.2388 122.8851 445 112 C427.7109 102.218 424.6965 99.1813 406 97 C368.89 92.6705 364.6011 94.8571 325 98 C302.6721 99.7721 301.7351 100.9942 280 107 C264.2934 111.34 263.8939 112.1047 249 119 C237.1769 124.4736 236.9642 124.8234 226 132 C209.6264 142.7172 209.2649 142.8504 194 155 C184.9773 162.1813 177.6717 170.936 177 171 C176.9033 171.0092 176.2651 162.671 173 157 C167.4651 147.3867 166.3468 146.1212 158 138 C148.3934 128.6531 146.4749 128.2518 136 121 C134.5445 119.9923 132.0843 119.8524 132 120 C130.2574 123.0496 124 142 124 142 "/>
<path id="1" d="M443 135 C443 135 440.9065 132.4766 439 132 C434.0832 130.7708 431.8378 129.8322 427 131 C419.2112 132.88 417.7365 134.7449 410 139 C408.3189 139.9246 407.22 140.7531 407 142 C406.1272 146.9459 405.5654 150.5005 407 156 C408.0827 160.1502 410.5814 163.0212 413 165 C413.9049 165.7404 416.147 165.7802 418 165 C424.4366 162.2899 426.2722 161.6368 432 157 C435.9962 153.765 437.5791 152.2626 439 148 C440.9223 142.233 440.6066 134.2999 440 133 C439.8442 132.6661 432 133 432 133 "/>
<path id="2" d="M438 153 C438 153 437.6251 149.341 437 149 C434.8209 147.8114 427.6407 146.7437 427 147 C426.8329 147.0669 426.2002 151.667 427 153 C428.013 154.6884 433 157 433 157 "/>
<path id="3" d="M470 250 C470 250 459.8879 253.4184 450 254 C426.545 255.3797 418.2112 260.1031 402 254 C385.4351 247.7638 382.2874 238.5517 365 222 C359.2629 216.5071 355 209 355 209 "/>
</g>
</g>
</svg>
