<?xml version="1.0" encoding="utf-8"?>
<!DOCTYPE svg PUBLIC "-//W3C//DTD SVG 1.1//EN" "http://www.w3.org/Graphics/SVG/1.1/DTD/svg11.dtd">
<svg viewBox="0 0 800 800" preserveAspectRatio="xMinYMin meet" xmlns="http://www.w3.org/2000/svg" version="1.1">
<g fill="none" stroke="black" stroke-linecap="round" stroke-linejoin="round" stroke-width="1.5793">
<g transform="translate(87.52,160.6536) scale(1.8996) translate(-95,-119)">
<path id="0" d="M113 211 C113 211 116.8544 204.1497 122 200 C131.5854 192.2699 134.0616 193.5395 144 186 C147.9817 182.9794 146.9975 180.488 151 178 C164.1458 169.8283 166.1138 168.1529 181 163 C190.7452 159.6267 192.0615 160.3907 203 160 C233.6773 158.9044 237.0439 154.5398 265 160 C296.9614 166.2425 301.9377 169.0024 331 185 C353.6876 197.4886 368.242 217.0059 374 220 C374.2183 220.1135 379.513 215.2752 381 211 C382.8659 205.6357 380.5968 203.5481 382 197 C383.4878 190.057 383.2486 188.7977 387 183 C398.9969 164.4594 400.5589 163.5635 415 146 C418.7052 141.4937 423.9875 137.9266 424 138 C424.0943 138.5523 424.3055 162.9565 422 187 C420.8527 198.9648 417.6105 199.1562 417 211 C415.1628 246.6421 415.1163 248.586 417 284 C417.5488 294.3166 420.4693 294.5404 422 305 C423.419 314.6966 423.4952 321.5334 423 325 C422.9608 325.2743 419.9028 326.4514 419 326 C415.3889 324.1944 413.1732 322.5645 409 318 C397.5306 305.4553 396.455 305.0393 387 291 C380.3506 281.1266 376.0246 269.0179 376 269 C375.9907 268.9933 378.3146 279.2388 376 283 C369.4251 293.6843 363.0037 304.9486 352 308 C317.4165 317.5904 303.6158 309.5702 257 316 C231.9442 319.456 231.6536 325.4714 207 328 C174.7578 331.3069 167.416 332.3616 140 328 C130.4955 326.4879 128.545 321.7867 119 314 C109.9121 306.5862 106.0426 304.3718 102 297 C99.8499 293.0792 103.2505 289.4312 102 283 C99.9133 272.2686 96.5043 271.7449 95 261 C93.1671 247.9079 94.007 246.5711 95 233 C95.4688 226.5927 95.3567 225.2866 98 220 C101.2813 213.4374 102.4097 211.348 108 207 C114.4551 201.9794 125 199 125 199 "/>
<path id="1" d="M317 175 C317 175 327.4042 174.1737 335 177 C347.2419 181.5551 348.2167 183.8458 360 191 C361.6959 192.0297 363.0309 193.9946 363 194 C362.6736 194.0568 337 195 337 195 "/>
<path id="2" d="M314 315 C314 315 324.9084 322.0676 335 324 C346.5467 326.2111 359.7692 324.2564 361 324 C361.0454 323.9905 360.12 319.48 359 319 C351.16 315.64 333 312 333 312 "/>
<path id="3" d="M173 163 C173 163 172.6887 158.5735 174 157 C178.5414 151.5503 180.5891 149.3593 188 145 C196.6943 139.8857 197.914 139.7507 208 137 C219.4087 133.8885 221.0847 136.7071 232 133 C246.5294 128.0655 248.3882 123.5542 261 119 C263.4586 118.1122 268.0277 119.9562 268 120 C267.7573 120.3843 252.4866 131.0268 249 138 C247.0982 141.8036 248.9455 149.8909 251 154 C251.9668 155.9337 259 158 259 158 "/>
<path id="4" d="M177 339 C177 339 184.5444 341.2701 191 345 C206.7284 354.0875 206.3504 357.7341 222 365 C232.7938 370.0114 234.6854 369.1054 247 371 C253.6506 372.0232 257.5973 372.3233 261 371 C262.6338 370.3646 265.2067 364.2584 265 364 C263.8685 362.5856 254.8363 360.8636 249 356 C244.3653 352.1377 242.2603 349.5137 241 344 C238.9039 334.8294 241 321 241 321 "/>
<path id="5" d="M186 345 L176 335 "/>
<path id="6" d="M123 242 C123 242 123.7413 240.0431 124 240 C124.9379 239.8437 128.9885 240.9195 129 241 C129.0364 241.255 126.5107 245.4893 125 247 C124.6979 247.3021 123.0037 247.0258 123 247 C122.9115 246.3808 123.3486 240.6514 124 240 C124.4886 239.5114 129.9331 239.8329 130 240 C130.2563 240.6407 129.012 248.7351 128 250 C127.5813 250.5234 123.5893 250.596 122 250 C121.1722 249.6896 120.0947 248.2316 120 247 C119.7019 243.1249 120.1689 237.8311 121 237 C121.68 236.32 129.3716 236.4414 130 237 C130.4966 237.4414 130.6653 242.7825 130 245 C129.7588 245.8038 127.003 247.004 127 247 C126.9286 246.9048 127.079 241.1976 127 241 C126.9974 240.9934 125 242 125 242 "/>
<path id="7" d="M105 285 C105 285 123 286 123 286 C123 286 106 286 106 286 "/>
<path id="8" d="M180 187 C180 187 186.2874 196.5059 189 206 C192 216.5001 191.536 217.5549 192 229 C193.0234 254.2448 194.6934 257.4427 192 280 C191.1046 287.4993 184 296 184 296 "/>
<path id="9" d="M191 199 C191 199 195.3516 206.1923 196 213 C198.1989 236.0881 197 262 197 262 "/>
<path id="10" d="M200 213 C200 213 202.7766 218.1974 203 223 C203.726 238.6083 202 256 202 256 "/>
<path id="11" d="M394 211 L408 173 "/>
<path id="12" d="M400 223 C400 223 399.2642 219.3913 400 217 C401.0094 213.7196 401.4927 212.6744 404 210 C408.5044 205.1953 415 201 415 201 "/>
<path id="13" d="M395 237 L414 241 "/>
<path id="14" d="M402 248 L417 279 "/>
<path id="15" d="M394 264 C394 264 401.4464 272.0908 406 281 C412.6183 293.9488 417 309 417 309 "/>
</g>
</g>
</svg>
