<?xml version="1.0" encoding="utf-8"?>
<!DOCTYPE svg PUBLIC "-//W3C//DTD SVG 1.1//EN" "http://www.w3.org/Graphics/SVG/1.1/DTD/svg11.dtd">
<svg viewBox="0 0 800 800" preserveAspectRatio="xMinYMin meet" xmlns="http://www.w3.org/2000/svg" version="1.1">
<g fill="none" stroke="black" stroke-linecap="round" stroke-linejoin="round" stroke-width="1.6945">
<g transform="translate(87.52,204.368) scale(1.7704) translate(-112,-74.1333)">
<path id="0" d="M432 150.1333 C432 150.1333 430.1405 144.8086 427 142.1333 C417.7557 134.2586 416.0192 131.4546 405 127.1333 C392.7642 122.335 389.5253 126.0782 376 122.1333 C366.3972 119.3325 365.5242 118.5794 357 113.1333 C348.0644 107.4245 347.0331 106.9702 340 99.1333 C330.1068 88.1095 327.2734 79.636 322 74.1333 C321.5267 73.6395 317.4539 74.42 317 75.1333 C315.7764 77.0561 315.3807 80.1838 315 85.1333 C314.4001 92.9326 314.0696 93.4574 315 101.1333 C316.0168 109.5217 319.1933 118.06 319 118.1333 C313.9558 120.0467 287.4311 119.4222 257 123.1333 C246.9828 124.3549 245.0546 123.7558 237 128.1333 C223.9276 135.2379 221.0094 136.8184 211 148.1333 C199.4328 161.2093 192.9276 178.8897 191 180.1333 C190.8455 180.233 184.1582 174.5785 180 168.1333 C174.5986 159.7611 176.2878 156.7712 171 149.1333 C168.2271 145.1281 165.7938 142.5191 162 142.1333 C142.5077 140.1511 112.1373 143.0598 112 143.1333 C111.9606 143.1544 128.2624 148.9572 134 157.1333 C144.8427 172.5842 145.3124 191.6755 152 200.1333 C153.4783 202.0029 167.9852 200.0963 168 200.1333 C168.012 200.1634 158.0994 205.1937 156 210.1333 C151.5336 220.6424 152.2626 225.2347 151 240.1333 C149.7965 254.3347 153.4851 259.6901 151 269.1333 C150.0033 272.9209 140.979 278.1188 141 278.1333 C141.1281 278.222 155.2705 279.6384 164 278.1333 C166.6045 277.6843 169.3577 275.5311 170 273.1333 C175.1918 253.7505 173.4526 246.3042 179 222.1333 C180.1654 217.0557 181.9941 212.7462 184 212.1333 C191.7953 209.7514 207.6167 207.1061 215 211.1333 C224.9179 216.5431 226.3194 230.0566 239 242.1333 C245.2952 248.1287 248.3793 249.869 257 251.1333 C282.5645 254.8828 289.5304 254.2456 314 253.1333 C317.9675 252.953 318.7006 248.915 323 248.1333 C333.492 246.2257 345.1604 244.9164 347 247.1333 C352.8788 254.2181 361.9869 295.1287 362 295.1333 C362.0053 295.1352 359.9213 256.9854 364 253.1333 C369.9222 247.5401 391.274 250.038 416 244.1333 C423.6127 242.3154 424.2483 241.2431 431 237.1333 C435.2979 234.5172 435.8881 233.9633 439 230.1333 C442.011 226.4274 442.9674 225.559 444 221.1333 C446.1804 211.7887 442.8926 204.7205 446 200.1333 C449.1792 195.4403 462.3694 192.7639 465 190.1333 C465.4535 189.6798 464.4859 184.322 463 183.1333 C459.6764 180.4744 451.7217 179.7116 450 178.1333 C449.5594 177.7294 449.8218 174.1531 451 172.1333 C452.7002 169.2187 455.6886 168.7561 457 166.1333 C457.8743 164.3848 457.6881 160.6838 457 160.1333 C454.1617 157.8627 447.5838 158.2694 442 154.1333 C435.576 149.3748 430 140.1333 430 140.1333 "/>
<path id="1" d="M417 144.1333 C417 144.1333 411.3486 143.6852 411 144.1333 C410.2697 145.0724 409.3529 152.4274 410 153.1333 C411.1208 154.356 416.8465 155.847 422 156.1333 C424.4944 156.2719 427.3243 155.0342 428 154.1333 C428.6237 153.3018 428.7537 150.0175 428 148.1333 C427.2966 146.3748 425.7485 144.7162 424 144.1333 C421.3772 143.2591 416 144.1333 416 144.1333 "/>
<path id="2" d="M419 150.1333 C419 150.1333 416.9536 153.0754 417 153.1333 C417.2251 153.4148 422.7195 155.2268 423 155.1333 C423.0701 155.11 423.1169 151.2502 423 151.1333 C422.9416 151.0749 420 152.1333 420 152.1333 "/>
<path id="3" d="M397 200.1333 C397 200.1333 398.1105 211.7464 396 219.1333 C394.7962 223.3466 389 228.1333 389 228.1333 "/>
<path id="4" d="M404 205.1333 C404 205.1333 405.568 212.4531 405 218.1333 C404.6786 221.3477 402 225.1333 402 225.1333 "/>
<path id="5" d="M411 209.1333 C411 209.1333 412.7027 219.1515 412 223.1333 C411.8116 224.2008 408 226.1333 408 226.1333 "/>
<path id="6" d="M343 169.1333 C343 169.1333 335.7843 166.6359 329 166.1333 C322.8341 165.6766 320.9631 165.3286 316 167.1333 C311.7122 168.6925 309.7316 170.3511 307 174.1333 C304.1897 178.0245 305.4364 182.0324 303 185.1333 C301.5357 186.997 296.0239 187.8704 296 188.1333 C295.951 188.6723 298.6037 192.9634 302 196.1333 C305.6822 199.57 306.3361 199.9124 311 202.1333 C316.4693 204.7378 317.1507 205.1161 323 206.1333 C328.0681 207.0147 329.6084 207.289 334 206.1333 C337.7192 205.1546 340.6935 203.4559 342 201.1333 C343.5901 198.3065 341.6604 192.8126 343 190.1333 C343.6989 188.7355 349 187.1333 349 187.1333 "/>
</g>
</g>
</svg>
