<?xml version="1.0" encoding="utf-8"?>
<!DOCTYPE svg PUBLIC "-//W3C//DTD SVG 1.1//EN" "http://www.w3.org/Graphics/SVG/1.1/DTD/svg11.dtd">
<svg viewBox="0 0 800 800" preserveAspectRatio="xMinYMin meet" xmlns="http://www.w3.org/2000/svg" version="1.1">
<g fill="none" stroke="black" stroke-linecap="round" stroke-linejoin="round" stroke-width="0.95046">
<g transform="translate(87.52,164.8509) scale(3.1564) translate(-113,-23.7)">
<path id="0" d="M114 66.7 L113 155.7 "/>
<path id="1" d="M115 66.7 C115 66.7 118.629 65.8059 120 66.7 C127.618 71.6683 129.5899 76.0933 138 81.7 C140.0024 83.0349 142.6374 81.4131 144 82.7 C149.3198 87.7242 151.1605 90.7494 156 98.7 C157.7065 101.5035 156.3874 102.8332 158 105.7 C160.5677 110.2648 162.1985 112.4079 165 114.7 C165.7802 115.3383 168.3462 114.1188 169 114.7 C170.9797 116.4597 174 122.7 174 122.7 "/>
<path id="2" d="M174 122.7 C174 122.7 169.2217 122.8647 167 124.7 C159.2855 131.0728 159.5539 134.183 151 141.7 C143.3845 148.3924 142.2517 150.491 134 153.7 C126.4677 156.6293 115 155.7 115 155.7 "/>
<path id="3" d="M168 113.7 C168 113.7 168.1359 108.8799 170 105.7 C176.0547 95.3714 176.319 93.3811 185 84.7 C198.9861 70.7139 201.1811 69.0167 217 58.7 C222.3666 55.2 224.4888 57.4624 231 54.7 C240.6412 50.6098 240.7163 47.0703 250 44.7 C262.2805 41.5646 268.7285 39.4971 278 42.7 C289.6295 46.7175 294.5166 53.5661 305 63.7 C307.3789 65.9996 307.4313 67.7191 308 71.7 C310.323 87.961 310.1224 88.7338 311 105.7 C311.6166 117.6217 312.0272 118.4013 311 129.7 C310.6031 134.0654 310.195 134.728 308 138.7 C299.9786 153.2149 299.3173 155.0285 290 167.7 C287.7615 170.7443 286.0226 172.4601 283 172.7 C260.1167 174.5161 253.8652 174.5152 227 172.7 C218.2027 172.1056 216.2476 171.9278 209 167.7 C193.9561 158.9244 190.0247 157.263 179 144.7 C170.6391 135.1725 166 118.7 166 118.7 "/>
<path id="4" d="M258 135.7 C258 135.7 248.1816 145.4039 238 153.7 C234.9869 156.1552 234.2829 156.9276 231 157.7 C226.866 158.6727 221.8389 158.2873 221 157.7 C220.5889 157.4123 219.8382 152.6363 221 150.7 C224.3525 145.1124 229.0502 143.7766 233 137.7 C234.4527 135.4651 234 130.7 234 130.7 "/>
<path id="5" d="M263 39.7 C263 39.7 254.6525 33.6076 246 29.7 C239.6436 26.8294 238.8358 26.1883 232 25.7 C211.9028 24.2645 195.2381 25.9494 190 25.7 C189.9881 25.6994 189.8846 23.7769 190 23.7 C190.2596 23.5269 192.775 23.3523 193 23.7 C195.5703 27.6722 199.3897 32.4695 201 40.7 C203.5324 53.6433 202 69.7 202 69.7 "/>
<path id="6" d="M288 81.7 L288 91.7 "/>
</g>
</g>
</svg>
