<?xml version="1.0" encoding="utf-8"?>
<!DOCTYPE svg PUBLIC "-//W3C//DTD SVG 1.1//EN" "http://www.w3.org/Graphics/SVG/1.1/DTD/svg11.dtd">
<svg viewBox="0 0 800 800" preserveAspectRatio="xMinYMin meet" xmlns="http://www.w3.org/2000/svg" version="1.1">
<g fill="none" stroke="black" stroke-linecap="round" stroke-linejoin="round" stroke-width="2.2753">
<g transform="translate(87.52,280.0182) scale(1.3185) translate(-22,-139.1333)">
<path id="0" d="M320 174.1333 C320 174.1333 317.8878 166.6189 314 163.1333 C305.0666 155.1241 302.8629 153.5052 291 148.1333 C277.4317 141.9892 261.3627 138.6869 261 139.1333 C260.1094 140.2295 265 180.1333 265 180.1333 "/>
<path id="1" d="M116 223.1333 C116 223.1333 119.8507 223.96 122 223.1333 C125.1964 221.904 125.2917 219.3921 129 218.1333 C177.1224 201.7982 180.9474 193.0232 231 186.1333 C299.3371 176.7266 304.0678 183.7151 376 184.1333 C389.404 184.2113 390.2572 183.8352 403 187.1333 C431.8642 194.6041 432.8091 195.8099 461 206.1333 C467.7543 208.6067 468.3307 209.0102 474 213.1333 C478.8716 216.6763 479.6312 217.3208 483 222.1333 C486.1926 226.6942 486.4876 227.5373 488 233.1333 C491.3492 245.5254 494.4066 256.7644 493 259.1333 C491.7633 261.2162 480.7129 264.6648 469 265.1333 C420.2157 267.0847 368 264.1333 368 264.1333 "/>
<path id="2" d="M370 264.1333 C370 264.1333 398.0398 268.58 426 270.1333 C460.771 272.0651 496 271.1333 496 271.1333 "/>
<path id="3" d="M496 271.1333 C496 271.1333 497.7155 287.9838 496 297.1333 C495.5299 299.6407 493.2332 301.7352 490 303.1333 C476.7115 308.8797 474.6121 309.8967 459 313.1333 C434.2405 318.2664 433.3655 319.3249 408 320.1333 C308.9451 323.2905 305.6645 324.0058 208 321.1333 C189.3261 320.5841 188.2062 318.7352 170 313.1333 C149.7863 306.9137 143.2179 303.2587 130 297.1333 C129.3337 296.8245 129.5737 294.3447 129 294.1333 C117.8137 290.0121 110.0905 286.5643 92 283.1333 C82.2805 281.29 80.4924 281.4296 71 283.1333 C62.2958 284.6956 61.1729 285.6382 53 290.1333 C41.6851 296.3565 39.8607 296.8443 31 305.1333 C25.5662 310.2166 22.0022 319.1717 22 319.1333 C21.9779 318.7444 21.7756 185.9004 24 182.1333 C24.0552 182.0399 53.9834 200.3908 84 214.1333 C94.3527 218.8731 95.6839 218.5902 107 220.1333 C116.9772 221.4939 128 220.1333 128 220.1333 "/>
<path id="4" d="M317 235.1333 C317 235.1333 314.8796 245.3742 311 253.1333 C308.8755 257.3824 308.04 258.6599 304 261.1333 C285.1652 272.6648 282.9881 275.7875 262 283.1333 C245.066 289.0602 242.8827 287.4672 224 289.1333 C209.2975 290.4306 208.7127 290.0724 194 289.1333 C185.5689 288.5952 183.0151 288.2386 177 286.1333 C175.5337 285.6201 174.1169 283.5361 174 282.1333 C173.7845 279.5478 174.5524 275.4603 176 274.1333 C177.9775 272.3207 181.5986 273.334 186 271.1333 C192.1237 268.0715 191.9131 264.8189 198 263.1333 C221.8798 256.5205 231.2477 260.031 251 253.1333 C255.9617 251.4007 257.0063 247.2775 261 241.1333 C263.148 237.8288 263.1153 233.2502 264 233.1333 C274.8754 231.697 314 234.1333 314 234.1333 "/>
<path id="5" d="M404 211.1333 C404 211.1333 398.5144 211.5332 398 212.1333 C397.4975 212.7195 397.3443 216.1662 398 218.1333 C398.4371 219.4447 399.7054 220.7803 401 221.1333 C403.7125 221.8731 407.0041 221.5769 409 221.1333 C409.3604 221.0533 409.8424 220.079 410 219.1333 C410.291 217.3874 410.4331 215.5664 410 215.1333 C409.1338 214.2671 404 213.1333 404 213.1333 "/>
<path id="6" d="M127 227.1333 C127 227.1333 118.7167 230.0732 117 232.1333 C116.0987 233.2149 116.2208 238.1593 117 239.1333 C118.0463 240.4413 125.0017 242.1233 125 242.1333 C124.9955 242.1605 116.8644 244.0529 116 245.1333 C115.4746 245.7901 116.174 251.032 117 252.1333 C117.5063 252.8084 122 253.1326 122 253.1333 C122 253.1341 118.232 253.2533 117 254.1333 C115.9528 254.8813 115.1565 256.4119 115 258.1333 C114.7414 260.9774 114.736 263.2374 116 265.1333 C117.5937 267.5239 119.6552 269.1777 123 270.1333 C128.6692 271.7531 136.999 271.1314 137 271.1333 C137.0004 271.1341 127.7326 271.9131 125 274.1333 C122.7051 275.998 121.9302 280.1023 121 284.1333 C120.7642 285.1553 121.5541 286.8658 122 287.1333 C122.6369 287.5155 126 287.1333 126 287.1333 "/>
<path id="7" d="M382 191.1333 C382 191.1333 368.4334 190.7358 359 192.1333 C357.1888 192.4017 355.5343 193.7441 355 195.1333 C353.7774 198.3121 353.1421 203.1315 354 205.1333 C354.6274 206.5973 361.0096 209.1121 361 209.1333 C360.8534 209.4559 351.7803 212.9253 349 216.1333 C347.5832 217.7681 347.3331 222.1327 348 224.1333 C348.4929 225.6121 350.59 227.33 353 228.1333 C356.9321 229.444 363 229.1326 363 229.1333 C363 229.1355 356.5002 229.6832 353 232.1333 C347.8798 235.7175 345.5365 238.314 343 243.1333 C341.7523 245.504 342.2602 248.4209 343 251.1333 C343.3531 252.4279 344.3902 253.4555 346 254.1333 C352.8366 257.0119 362.007 258.9802 362 259.1333 C361.971 259.7703 351.728 268.2839 345 276.1333 C343.9649 277.3409 343.6586 278.7679 344 280.1333 C344.8193 283.4104 346.0663 286.6831 348 288.1333 C349.692 289.4023 355.9696 288.931 356 289.1333 C356.2518 290.812 350.2894 306.7121 351 308.1333 C351.4737 309.0808 367 311.1333 367 311.1333 "/>
</g>
</g>
</svg>
