<?xml version="1.0" encoding="utf-8"?>
<!DOCTYPE svg PUBLIC "-//W3C//DTD SVG 1.1//EN" "http://www.w3.org/Graphics/SVG/1.1/DTD/svg11.dtd">
<svg viewBox="0 0 800 800" preserveAspectRatio="xMinYMin meet" xmlns="http://www.w3.org/2000/svg" version="1.1">
<g fill="none" stroke="black" stroke-linecap="round" stroke-linejoin="round" stroke-width="1.7041">
<g transform="translate(87.52,184.3448) scale(1.7605) translate(-98,-115.1333)">
<path id="0" d="M98 253.1333 C98 253.1333 127.2418 236.7234 157 225.1333 C173.8171 218.5835 175.0167 218.865 193 216.1333 C213.9135 212.9566 214.5261 213.8491 236 213.1333 C259.417 212.3528 259.9232 211.2685 283 213.1333 C308.8492 215.2222 309.4037 215.9565 335 221.1333 C353.6287 224.9009 353.8392 225.3219 372 231.1333 C391.1908 237.2744 410 245.1333 410 245.1333 "/>
<path id="1" d="M98 255.1333 C98 255.1333 103.9327 265.3487 111 272.1333 C115.5123 276.4651 120.0174 275.1566 123 279.1333 C127.0078 284.4771 127.0991 287.8963 129 296.1333 C129.9305 300.1657 128.0575 301.8347 129 305.1333 C129.6433 307.3848 130.6908 308.7039 133 310.1333 C140.1444 314.5561 141.8592 317.2288 150 318.1333 C187.468 322.2964 191.1826 321.592 232 321.1333 C279.8338 320.5959 283.3506 322.4616 328 316.1333 C343.1631 313.9842 345.3557 311.3199 359 303.1333 C371.6597 295.5375 370.5632 291.4246 383 283.1333 C390.773 277.9513 392.7979 279.7265 401 275.1333 C404.78 273.0165 407.9884 269.0607 408 269.1333 C408.1183 269.8767 406.276 294.9973 408 319.1333 C408.7019 328.9601 409.4805 329.9285 413 339.1333 C415.74 346.2995 416.3006 348.199 421 353.1333 C425.0059 357.3395 432.9751 360.1946 433 360.1333 C433.4617 358.997 430.2643 338.6444 434 321.1333 C437.7344 303.6282 443.5684 303.1434 449 285.1333 C452.7806 272.5976 452.7618 271.2352 453 258.1333 C453.2459 244.6092 450.6069 244.0922 450 230.1333 C449.1154 209.7883 451.7422 208.298 450 189.1333 C449.3858 182.3768 448.422 181.4509 445 175.1333 C435.7068 157.9766 430.0954 157.203 424 141.1333 C420.459 131.7979 424.1455 124.5791 423 117.1333 C422.8833 116.3745 420.2702 114.9789 420 115.1333 C417.5684 116.5228 413.6324 119.7289 409 125.1333 C404.9467 129.8622 404.3568 130.3592 402 136.1333 C394.6346 154.1785 393.0072 156.1011 389 174.1333 C387.4538 181.0914 388.055 182.7627 390 190.1333 C397.2652 217.6647 407.8927 245.696 408 246.1333 C408.0075 246.1639 403 243.1333 403 243.1333 "/>
<path id="2" d="M135 251.1333 C135 251.1333 135.4134 242.7199 136 242.1333 C136.3519 241.7814 142.1681 242.5391 143 243.1333 C143.3081 243.3534 143.5812 246.4795 143 247.1333 C141.2403 249.113 135 252.1333 135 252.1333 "/>
<path id="3" d="M190 264.1333 C190 264.1333 189.168 271.8024 191 275.1333 C193.2999 279.315 198.2664 283.1082 201 284.1333 C201.9964 284.507 205.0134 283.1199 207 281.1333 C210.7525 277.3809 211.7435 271.4277 214 271.1333 C224.4557 269.7695 240.0643 275.4273 253 275.1333 C254.7001 275.0947 255.8077 270.9163 258 270.1333 C260.9076 269.0949 262.7397 269.403 267 270.1333 C279.7944 272.3267 287.0513 277.6586 293 276.1333 C297.1591 275.0669 303.9208 261.5195 306 260.1333 C306.205 259.9967 310.0705 264.1333 311 264.1333 C311.9295 264.1333 316 260.1333 316 260.1333 "/>
<path id="4" d="M196 258.1333 C196 258.1333 200.0719 266.1813 203 268.1333 C204.714 269.276 208.6069 269.2501 211 268.1333 C214.0711 266.7002 215.6228 261.3634 218 261.1333 C225.3115 260.4258 235.3132 265.5945 242 265.1333 C243.5259 265.0281 245.2351 259.4403 247 259.1333 C252.1551 258.2368 259.1716 262.4285 265 261.1333 C268.5782 260.3382 271.2268 253.688 274 253.1333 C276.6686 252.5996 281.6958 257.8794 285 257.1333 C292.3579 255.4719 305 246.1333 305 246.1333 "/>
<path id="5" d="M202 288.1333 C202 288.1333 209.6835 289.0357 216 288.1333 C219.3516 287.6545 221.3122 284.8737 223 285.1333 C224.7473 285.4022 226.3424 288.8045 229 290.1333 C230.2506 290.7587 231.8343 290.7162 233 290.1333 C234.7485 289.2591 235.0262 287.1202 237 286.1333 C239.1383 285.0642 240.9791 284.5559 243 285.1333 C246.3344 286.086 247.2811 288.9712 251 290.1333 C254.1113 291.1056 256.7822 291.1569 259 290.1333 C261.1538 289.1393 261.8462 285.1274 264 284.1333 C266.2178 283.1097 269.0154 285.1867 272 284.1333 C276.1477 282.6694 276.4192 279.7129 281 278.1333 C289.8476 275.0824 301 274.1333 301 274.1333 "/>
<path id="6" d="M426 223.1333 L453 216.1333 "/>
<path id="7" d="M418 241.1333 C418 241.1333 423.3929 242.0547 428 241.1333 C437.767 239.1799 448 235.1333 448 235.1333 "/>
<path id="8" d="M420 267.1333 L441 265.1333 "/>
<path id="9" d="M227 290.1333 C227 290.1333 225.4314 296.601 222 300.1333 C209.7196 312.7749 192.9877 325.1 193 325.1333 C193.0062 325.1503 214.753 323.4406 229 319.1333 C232.4347 318.0949 233.7117 315.9949 236 312.1333 C241.2001 303.3582 245 292.1333 245 292.1333 "/>
</g>
</g>
</svg>
