<?xml version="1.0" encoding="utf-8"?>
<!DOCTYPE svg PUBLIC "-//W3C//DTD SVG 1.1//EN" "http://www.w3.org/Graphics/SVG/1.1/DTD/svg11.dtd">
<svg viewBox="0 0 800 800" preserveAspectRatio="xMinYMin meet" xmlns="http://www.w3.org/2000/svg" version="1.1">
<g fill="none" stroke="black" stroke-linecap="round" stroke-linejoin="round" stroke-width="1.5841">
<g transform="translate(87.52,275.008) scale(1.8938) translate(-173,-157)">
<path id="0" d="M200 222 C200 222 196.7466 220.6507 195 221 C192.9623 221.4075 191.776 222.0625 190 224 C181.4323 233.3466 173 245 173 245 "/>
<path id="1" d="M173 245 L189 245 "/>
<path id="2" d="M190 246 L178 251 "/>
<path id="3" d="M178 252 C178 252 188.0006 259.316 198 263 C205.9426 265.9262 216 266 216 266 "/>
<path id="4" d="M194 222 C194 222 218.3629 209.0803 239 200 C240.8871 199.1697 244 200 244 200 "/>
<path id="5" d="M211 229 C211 229 211.6393 235.7746 212 236 C212.3858 236.2412 218.5837 234.7632 219 234 C219.6049 232.891 218.7303 225.939 218 225 C217.6514 224.5518 212.8729 224.5012 212 225 C211.522 225.2732 211 229 211 229 "/>
<path id="6" d="M243 199 C243 199 267.0659 195.9533 288 197 C295.1101 197.3555 303 202 303 202 "/>
<path id="7" d="M216 266 C216 266 227.0897 268.881 238 270 C246.2764 270.8489 246.523 270.3083 255 270 C273.985 269.3096 274.6259 270.4499 293 268 C303.9476 266.5403 304.0566 264.0159 315 262 C322.6653 260.588 323.5344 262.6797 331 261 C342.8713 258.329 344.2955 258.5505 355 253 C370.3525 245.0394 385 233 385 233 "/>
<path id="8" d="M296 197 C296 197 298.567 195.6418 300 196 C305.0631 197.2658 305.9115 199.4779 312 201 C325.4406 204.3602 326.1151 204.4572 340 206 C348.2661 206.9185 349.7437 204.3615 357 206 C363.6505 207.5017 363.9878 210.5727 371 213 C376.4193 214.8759 383 215 383 215 "/>
<path id="9" d="M387 216 C387 216 402.1184 204.0787 418 194 C427.8835 187.7278 430.8948 188.286 439 183 C440.3258 182.1353 439.5922 180.1091 441 179 C454.2082 168.5936 471.6247 157.1294 472 157 C472.0597 156.9794 472.0429 163.7225 470 169 C466.3424 178.4488 465.7883 179.2103 460 188 C452.4901 199.404 451.4014 201.2486 443 210 C440.869 212.2198 436 213 436 213 "/>
<path id="10" d="M386 233 C386 233 418.4608 237.5654 449 246 C470.2883 251.8796 470.1176 255.0392 491 262 C496.5883 263.8628 503.0119 264.0395 503 264 C502.942 263.8065 494.9833 250.1681 485 242 C474.6133 233.5018 472.0826 233.352 459 228 C450.9031 224.6876 446.9339 226.5431 441 224 C439.452 223.3366 437.8196 220.1724 438 219 C438.3485 216.7347 443 211 443 211 "/>
<path id="11" d="M405 219 L438 219 "/>
<path id="12" d="M241 200 C241 200 247.8452 195.9005 255 194 C279.2818 187.5501 281.5186 190.3983 305 183 C316.7618 179.2942 317.4221 175.5334 328 171 C329.8793 170.1946 332.4612 171.2155 333 171 C333.0862 170.9655 333.0101 168.9928 333 169 C332.9148 169.0609 329.5302 174.0143 326 176 C322.732 177.8382 320.6095 176.0564 317 178 C308.5961 182.5252 304.0559 185.2284 300 190 C298.7733 191.4432 300 198 300 198 "/>
<path id="13" d="M265 273 C265 273 281.9544 282.1652 298 288 C302.7416 289.7242 309.0015 289.021 309 289 C308.9867 288.8139 301.6431 281.1433 297 274 C295.8494 272.2298 296 269 296 269 "/>
<path id="14" d="M386 217 C386 217 388 218.8578 388 220 C388 225.3303 386 234 386 234 "/>
<path id="15" d="M223 209 C223 209 228.5015 216.668 230 218 C230.111 218.0987 231.9976 216.9947 232 217 C232.5015 218.0865 236.39 225.7355 236 231 C235.6174 236.1649 233.9858 239.8409 230 244 C224.1984 250.0538 213 255 213 255 "/>
</g>
</g>
</svg>
