<?xml version="1.0" encoding="utf-8"?>
<!DOCTYPE svg PUBLIC "-//W3C//DTD SVG 1.1//EN" "http://www.w3.org/Graphics/SVG/1.1/DTD/svg11.dtd">
<svg viewBox="0 0 800 800" preserveAspectRatio="xMinYMin meet" xmlns="http://www.w3.org/2000/svg" version="1.1">
<g fill="none" stroke="black" stroke-linecap="round" stroke-linejoin="round" stroke-width="0.73445">
<g transform="translate(87.52,161.0447) scale(4.0847) translate(-113,-106)">
<path id="0" d="M118 145 C118 145 122.1963 150.076 127 153 C133.1138 156.7214 141.0252 158.9748 141 159 C140.8867 159.1133 113 167 113 167 "/>
<path id="1" d="M118 145 C118 145 124.9447 137.3762 131 136 C143.5679 133.1437 149.2927 131.3485 162 135 C188.2611 142.5463 190.5863 152.7188 218 161 C235.5618 166.3051 258 164 258 164 "/>
<path id="2" d="M114 170 C114 170 122.863 177.5699 132 182 C138.4982 185.1506 139.6293 185.2241 147 186 C157.9932 187.1572 159.5803 187.4885 170 186 C175.76 185.1771 179.4561 182.6959 182 181 C182.3318 180.7788 181.5158 178.6456 182 178 C183.5334 175.9554 184.801 175.1327 188 173 C198.1684 166.2211 198.2879 166.0547 209 160 C221.2236 153.091 221.4275 152.7474 234 147 C238.6203 144.8878 239.3553 144.5464 244 144 C247.0877 143.6367 249.1552 145.9224 251 145 C256.9601 142.02 266.0001 132.9996 266 133 C265.9999 133.0005 257.1726 144.5381 249 152 C247.1379 153.7002 242.9964 153.991 243 154 C243.1079 154.2698 248.5325 159.8977 253 162 C255.2719 163.0691 260 162 260 162 "/>
<path id="3" d="M135 136 C135 136 134.2658 132.0488 135 131 C136.4536 128.9234 139.1034 126.2069 142 126 C155.7235 125.0197 165.2455 131.105 177 128 C184.579 125.998 187.9841 119.7174 195 112 C196.6948 110.1357 196.9987 106.0013 197 106 C197.0007 105.9993 197.7077 108.6934 197 110 C192.2154 118.833 188.4783 121.0433 184 130 C182.986 132.0279 184.7062 135.092 184 136 C183.0061 137.2779 177 139 177 139 "/>
<path id="4" d="M129 178 C129 178 127 179.8426 127 181 C127 187.1729 127.5628 196.2391 129 197 C133.5377 199.4023 154.0078 195.8719 161 199 C163.7018 200.2087 165.1952 206.7807 167 214 C167.9844 217.9378 166.9941 223.0042 167 223 C167.0157 222.9888 172.6714 215.6428 174 209 C175.8117 199.9416 174 188 174 188 "/>
<path id="5" d="M142 141 C142 141 139.7288 149.5932 140 150 C140.1887 150.283 147.2942 150.6274 148 150 C148.7156 149.3639 149.1923 143.7304 149 142 C148.9702 141.7319 147 141 147 141 "/>
<path id="6" d="M143 140 L147 139 "/>
</g>
</g>
</svg>
