<?xml version="1.0" encoding="utf-8"?>
<!DOCTYPE svg PUBLIC "-//W3C//DTD SVG 1.1//EN" "http://www.w3.org/Graphics/SVG/1.1/DTD/svg11.dtd">
<svg viewBox="0 0 800 800" preserveAspectRatio="xMinYMin meet" xmlns="http://www.w3.org/2000/svg" version="1.1">
<g fill="none" stroke="black" stroke-linecap="round" stroke-linejoin="round" stroke-width="2.0785">
<g transform="translate(87.52,191.4394) scale(1.4433) translate(-93,-105)">
<path id="0" d="M138 229 C138 229 138.3557 222.0674 141 219 C148.9763 209.7475 151.2649 207.544 163 200 C178.41 190.0936 179.6352 190.0398 197 183 C216.2241 175.2064 217.5346 172.0244 237 170 C277.0117 165.8388 280.8334 167.4722 322 170 C336.2532 170.8752 337.9187 172.2142 351 177 C357.1868 179.2635 363 185 363 185 "/>
<path id="1" d="M137 230 C137 230 135.2687 232.7281 134 233 C130.1689 233.821 124.2027 232.1982 123 233 C122.3075 233.4616 121.4854 239.7135 122 241 C122.2708 241.6771 126.7181 242.2107 127 243 C127.8936 245.5019 125.9951 253.8276 127 255 C128.0288 256.2003 136.9025 255.1647 139 257 C141.2119 258.9354 140.1111 264.1111 143 269 C146.0809 274.2138 147.7706 275.6769 152 279 C153.4516 280.1406 155.1904 278.8419 157 280 C166.497 286.0781 166.4422 290.2416 177 295 C200.1438 305.431 202.4259 305.936 228 312 C250.0384 317.2256 251.0972 316.6659 274 318 C302.1655 319.6407 307.8593 323.957 331 318 C351.5803 312.7021 375 292 375 292 "/>
<path id="2" d="M364 186 C364 186 370.191 185.7689 371 186 C371.066 186.0189 371 188 371 188 C372.5346 188 379.9555 188.6165 387 186 C413.4711 176.1679 414.1708 171.3902 441 162 C452.7808 157.8767 455.0955 160.8859 467 158 C470.5179 157.1472 470.666 154.5748 474 154 C483.6132 152.3426 485.9643 151.4258 496 153 C509.9726 155.1918 517.9627 158.4813 525 162 C525.8403 162.4201 526.1347 167.9514 526 168 C521.4361 169.6481 506.6402 170.4135 489 175 C482.3838 176.7202 481.8454 177.3196 476 181 C468.7094 185.5904 467.4804 185.8345 462 192 C456.1819 198.5453 455.0564 200.6646 452 208 C450.7875 210.9099 450.7844 213.5687 452 216 C454.2033 220.4067 458.1149 221.0166 461 226 C462.9268 229.328 463.8447 233.6626 463 235 C460.9429 238.2571 452.0322 240.8848 449 245 C447.6567 246.8231 448.0575 250.7013 449 254 C449.6433 256.2515 452.8446 257.0569 453 259 C453.5797 266.2464 449.3005 273.3351 451 279 C452.1651 282.8837 457.4964 283.5483 462 289 C466.6267 294.6007 465.4709 296.6217 470 302 C472.9228 305.4708 475.2756 304.549 478 308 C482.0983 313.1912 484.7437 315.3613 485 321 C486.0165 343.3622 481.3881 351.101 481 374 C480.9565 376.5671 482.3042 378.4926 484 380 C485.5827 381.4069 490.0004 381.9999 490 382 C489.9993 382.0002 483.5642 382.8935 480 381 C469.6775 375.5162 466.9341 374.3664 458 365 C436.9469 342.9282 438.4762 338.4079 418 316 C413.0027 310.5313 409.8047 312.2225 405 307 C399.2234 300.7211 398.1762 298.3053 395 291 C393.9073 288.4869 395.844 287.0596 395 284 C392.0812 273.4195 389.5044 272.6438 387 262 C385.7416 256.6519 387 250 387 250 "/>
<path id="3" d="M378 295 C378 295 385.7215 294.1857 389 292 C391.1857 290.5429 393 285 393 285 "/>
<path id="4" d="M221 174 C221 174 220.2743 171.2094 221 170 C226.4424 160.9293 227.9017 157.3983 236 149 C240.2408 144.6021 242.4843 142.7285 248 142 C265.4973 139.689 269.8291 143.4747 289 142 C294.2873 141.5933 295.2633 140.8069 300 138 C308.1875 133.1482 308.2183 129.4045 316 126 C322.1796 123.2964 325.6385 123.4468 332 124 C334.9535 124.2568 338.7269 126.9076 339 128 C339.5343 130.1372 335.8114 137.1707 336 140 C336.0522 140.7833 339.84 141.88 340 143 C341.12 150.84 338.6188 159.9893 340 168 C340.2686 169.5579 343.8251 170.0419 345 172 C346.1078 173.8463 345.0612 176.498 346 178 C346.6377 179.0203 350 180 350 180 "/>
<path id="5" d="M210 310 C210 310 216.6642 315.4917 218 320 C219.8357 326.1955 216.2303 335.1534 218 337 C221.0232 340.1547 232.1419 338.6851 241 344 C249.8581 349.3149 251.2571 352.3305 258 361 C260.9252 364.761 259.4867 368.9056 262 371 C265.702 374.085 271.4377 372.4295 276 376 C280.8834 379.8218 280.1166 385.1782 285 389 C289.5623 392.5705 292.1987 392.7405 299 394 C304.9237 395.097 311.8304 394.4805 312 394 C313.2435 390.4767 309.6762 375.5542 311 360 C311.524 353.8427 312.5086 352.1344 316 347 C320.2918 340.6885 324.3541 341.1524 328 335 C331.3138 329.408 332 320 332 320 "/>
<path id="6" d="M220 210 C220 210 226.6717 209.8359 231 212 C238.3941 215.6971 240.2467 216.6515 246 223 C253.8807 231.6959 257.5836 234.5202 260 244 C262.9255 255.4771 260.1939 259.6728 259 274 C258.7553 276.9369 258.6122 277.6969 257 280 C252.12 286.9715 245 294 245 294 "/>
<path id="7" d="M189 225 C189 225 195.8957 226.0261 200 225 C202.2387 224.4403 204.4709 222.7637 205 221 C206.5681 215.7731 206.9419 209.7094 206 205 C205.7019 203.5097 203.3658 201.6572 201 201 C195.8597 199.5721 192.1478 199.0783 188 200 C186.0163 200.4408 183.6869 202.7104 183 205 C181.3832 210.3893 181.0798 215.629 182 220 C182.3144 221.4933 184.6342 223.3428 187 224 C192.1403 225.4279 198.0443 225.7823 200 225 C200.745 224.702 202.1951 218.1734 202 218 C201.4507 217.5117 192.4693 216.5102 191 217 C190.6327 217.1224 190 222 190 222 "/>
<path id="8" d="M110 253 C110 253 100.2592 247.0129 96 241 C93.255 237.1247 93.3065 234.8227 93 229 C92.346 216.5732 90.8306 214.093 94 203 C98.1341 188.5308 106.593 186.6397 109 173 C111.7626 157.3451 109.2304 152.7672 106 135 C104.4686 126.5774 101.2352 126.3821 99 118 C97.4282 112.1058 98.4201 106.8203 98 105 C97.9853 104.9365 96 105 96 105 "/>
<path id="9" d="M133 133 C133 133 137 121.7013 137 121 C137 121 133.9668 120.5166 133 121 C132.154 121.423 131.1107 122.7825 131 124 C130.7249 127.0263 131.159 130.4863 132 132 C132.3167 132.5701 136 133 136 133 "/>
</g>
</g>
</svg>
