<?xml version="1.0" encoding="utf-8"?>
<!DOCTYPE svg PUBLIC "-//W3C//DTD SVG 1.1//EN" "http://www.w3.org/Graphics/SVG/1.1/DTD/svg11.dtd">
<svg viewBox="0 0 800 800" preserveAspectRatio="xMinYMin meet" xmlns="http://www.w3.org/2000/svg" version="1.1">
<g fill="none" stroke="black" stroke-linecap="round" stroke-linejoin="round" stroke-width="1.3009">
<g transform="translate(87.52,236.2651) scale(2.3061) translate(-104,-156)">
<path id="0" d="M127 204 C127 204 136.7723 196.3833 147 192 C156.9953 187.7163 158.2379 186.7255 169 186 C201.1837 183.8303 207.913 185.1975 236 186 C237.2816 186.0366 239 188 239 188 "/>
<path id="1" d="M232 206 C232 206 234.4193 195.5095 239 189 C242.8534 183.5241 246.6525 183.9686 251 179 C252.6436 177.1216 251.4351 174.8779 253 173 C255.5855 169.8973 257.7973 170.4162 261 167 C264.9292 162.8088 264.8408 158.5109 268 157 C272.4181 154.887 283.7954 155.4884 284 156 C285.5536 159.8841 284.7993 177.0172 284 197 C283.823 201.4255 283.3836 202.9561 282 206 C281.5303 207.0333 279 208 279 208 "/>
<path id="2" d="M286 190 C286 190 299.5 188.7614 309 192 C319.202 195.478 323.0409 198.9486 330 205 C331.7421 206.5149 332 212 332 212 "/>
<path id="3" d="M320 222 C320 222 322.3385 218.3307 325 217 C330.323 214.3385 332.5754 216.0739 338 213 C346.658 208.0938 348.2415 206.7585 355 200 C357.7034 197.2966 359 192 359 192 "/>
<path id="4" d="M325 254 C325 254 340.0967 252.5109 351 256 C362.6564 259.73 375 270 375 270 "/>
<path id="5" d="M363 192 C363 192 361.2766 217.8725 364 240 C365.0108 248.2129 371 257 371 257 "/>
<path id="6" d="M138 259 C138 259 148.3887 266.8247 158 272 C160.3275 273.2533 161.0147 272.8908 164 273 C201.6211 274.3764 202.6965 276.5288 240 275 C262.7438 274.0679 264.5679 273.591 286 268 C297.5928 264.9758 298.0376 259.2752 309 257 C322.0076 254.3003 339 257 339 257 "/>
<path id="7" d="M193 277 C193 277 200.1793 277.2639 205 280 C217.3894 287.0318 221.0436 292.7497 230 298 C230.86 298.5041 234 297 234 297 "/>
<path id="8" d="M232 277 C232 277 235.8429 281.3929 239 282 C246.5342 283.4489 255.7258 281.5212 258 282 C258.1008 282.0212 258.6156 285.3844 258 286 C254.6142 289.3858 251.15 293.1912 245 295 C236.6305 297.4616 224 296 224 296 "/>
<path id="9" d="M142 261 C142 261 138.5968 261.5988 137 261 C135.6826 260.506 135.2088 259.6693 134 258 C124.8775 245.4023 116 232 116 232 "/>
<path id="10" d="M130 202 C130 202 123.3379 202.0365 120 204 C116.504 206.0565 116.7837 209.1622 113 212 C109.5074 214.6195 104.9595 214.5607 104 216 C103.2963 217.0555 104.1213 222.8703 105 224 C105.5672 224.7293 108.7871 224.0165 111 225 C112.488 225.6613 113.5629 226.6886 114 228 C114.6557 229.9671 113.3661 232.9857 114 234 C114.5415 234.8664 119 236 119 236 "/>
<path id="11" d="M154 206 C154 206 148.3468 204.6532 148 205 C147.237 205.763 145.7317 213.7317 146 214 C146.4216 214.4216 155.9403 214.578 157 214 C157.3153 213.828 157.7998 209.333 157 208 C155.987 206.3116 151 204 151 204 "/>
<path id="12" d="M332 232 C332 232 341.4298 229.9156 349 226 C355.2717 222.756 361 217 361 217 "/>
<path id="13" d="M339 239 C339 239 344.6295 239.8148 349 242 C354.1306 244.5653 359 249 359 249 "/>
<path id="14" d="M251 202 C251 202 256.2864 200.7136 259 198 C266.2362 190.7638 267.4311 188.539 273 180 C274.1602 178.221 274 175 274 175 "/>
<path id="15" d="M228 286 L243 287 "/>
<path id="16" d="M124 219 L105 219 "/>
<path id="17" d="M152 201 L161 201 "/>
<path id="18" d="M155 237 C155 237 161.504 238.9056 163 241 C164.76 243.464 165 251 165 251 "/>
<path id="19" d="M150 209 C150 209 152.865 208.82 153 209 C153.24 209.32 153 213 153 213 "/>
</g>
</g>
</svg>
