<?xml version="1.0" encoding="utf-8"?>
<!DOCTYPE svg PUBLIC "-//W3C//DTD SVG 1.1//EN" "http://www.w3.org/Graphics/SVG/1.1/DTD/svg11.dtd">
<svg viewBox="0 0 800 800" preserveAspectRatio="xMinYMin meet" xmlns="http://www.w3.org/2000/svg" version="1.1">
<g fill="none" stroke="black" stroke-linecap="round" stroke-linejoin="round" stroke-width="1.0369">
<g transform="translate(126.58,87.52) scale(2.8933) translate(-97,-203)">
<path id="0" d="M190,268C190,268 194.9778997520434,272.1310607116255 198,277C203.67110169986918,286.1367749609003 205.8889091870589,287.50009134176514 208,297C210.37497716455871,307.6873972405142 209.30656206644278,309.9796289887264 208,322C206.87408434100453,332.35842406275833 204.2948266046179,332.6413871630568 203,343C201.86234887917965,352.1012089665628 201.9759942468685,352.7839482218166 203,362C204.43121271928905,374.88091447360136 203.56434427775082,376.9108606943771 208,388C211.83367387422965,397.5841846855741 213.53977956156868,400.74954503807106 221,407C229.78493247890043,414.36034883367335 233.82211769811383,416.49067948325006 245,419C255.37457883370783,421.32898708511805 260.07602567635876,420.90457785082185 270,418C277.5410720993532,415.7928569465308 285.7655615737776,409.90703648515835 286,407C286.9559057615133,395.146768557235 276.86153380045993,381.0272877617394 275,356C272.4906405611663,322.26305643345756 278.8337284742013,316.80663836658186 277,286C276.62169588036494,279.64449079013104 274.4006502766831,277.9313112424859 270,272C263.3805344577624,263.07811166046235 262.62391211800223,262.10204527364885 254,255C246.2215694621941,248.5942336747481 245.37672603418468,247.97318899753588 236,244C216.5802884153647,235.77130865057828 214.957284802562,232.9104373670403 195,230C169.49795165597112,226.28095128316247 165.09391064671215,232.71285520504995 140,230C130.93659738312854,229.02017269006794 129.30320037798484,227.21363744664163 121,222C108.58137019943218,214.2022557066202 97.49072188831268,203.18402070811726 97,203C96.94087688092618,202.9778288303473 96.16457934885777,208.40518641871776 97,213C98.06326264690828,218.8479445579956 98.16746050520612,219.66816095097624 101,225C106.39561173676443,235.15644562214481 106.709566355891,236.86836247387842 114,245C118.75704766102537,250.30593777575908 120.27484840416197,250.5128843577136 127,254C133.31628493697156,257.27511070805934 134.90385926812814,258.8207017431802 141,259C149.56754913668476,259.25198673931424 160.99822867533945,254.99778584417433 161,255C161.00056091947584,255.0007011493448 151.7901898756713,258.66485081197254 145,264C138.4620772404527,269.13693931107286 138.38809163658945,270.1939895116765 133,277C129.0387548523592,282.0036780812305 128.62264643303658,282.2301778473195 126,288C118.8045341452586,303.8300248804311 113.00021202775996,320.99879850936025 113,321C112.99989327936082,321.0006047502887 116.77607117294674,310.6827176247008 123,305C138.10897209959575,291.2048515612387 143.83242576622655,292.40390281124166 159,279C163.52754483240005,274.9989138690418 163.3164141543593,267.922482634439 166,267C171.9476102028385,264.95550899277424 181.7306075862065,266.6758010837438 191,268C192.2640080564264,268.1805725794895 194,271 194,271"/>
<path id="1" d="M268,395C268,395 272.1274543204424,399.7871167545385 276,402C278.1206797769006,403.21181701537176 282,403 282,403"/>
<path id="2" d="M254,398C254,398 254.0784112392001,402.1568224784002 255,404C255.49624010196916,404.9924802039383 256.61548158409436,405.53849386136477 258,406C259.13278779483187,406.37759593161064 260.8125,406.1875 261,406C261.1875,405.8125 261.4842368756825,403.64564916757666 261,403C259.46658322700545,400.9554443026739 255,398 255,398"/>
</g>
</g>
</svg>
