<?xml version="1.0" encoding="utf-8"?>
<!DOCTYPE svg PUBLIC "-//W3C//DTD SVG 1.1//EN" "http://www.w3.org/Graphics/SVG/1.1/DTD/svg11.dtd">
<svg viewBox="0 0 800 800" preserveAspectRatio="xMinYMin meet" xmlns="http://www.w3.org/2000/svg" version="1.1">
<g fill="none" stroke="black" stroke-linecap="round" stroke-linejoin="round" stroke-width="2.381">
<g transform="translate(87.52,234.94) scale(1.26) translate(-35,-93.1333)">
<path id="0" d="M80 248.1333 C80 248.1333 84.4172 230.1415 92 214.1333 C106.6427 183.221 107.779 180.3043 125 153.1333 C128.7012 147.2936 130.8051 146.1309 137 143.1333 C144.8801 139.3204 146.5704 139.3633 156 138.1333 C169.0179 136.4353 172.339 133.6623 183 137.1333 C210.3543 146.0394 214.1621 149.6957 242 166.1333 C265.9476 180.2738 267.0209 180.9514 288 199.1333 C311.3414 219.3625 309.0141 223.2645 332 244.1333 C346.5707 257.362 348.7896 255.3478 364 268.1333 C383.1186 284.204 382.0582 286.4699 401 302.1333 C407.5284 307.5318 408.1897 307.5832 416 311.1333 C435.3399 319.9242 435.9396 320.4465 456 327.1333 C465.4402 330.2801 476 331.1333 476 331.1333 "/>
<path id="1" d="M85 249.1333 C85 249.1333 87.0325 253.8724 90 256.1333 C96.564 261.1345 97.7323 261.344 106 265.1333 C133.5248 277.7489 133.5711 279.0146 162 289.1333 C192.131 299.8579 192.9954 301.2742 224 307.1333 C255.3518 313.0581 259.7126 316.7152 289 313.1333 C324.0052 308.8521 329.2464 303.7784 363 290.1333 C373.5615 285.8638 374.1318 283.5792 383 275.1333 C405.2074 253.9834 404.1922 252.2819 426 230.1333 C436.1567 219.8179 436.1794 219.2087 447 210.1333 C451.3061 206.5218 451.7959 206.215 457 204.1333 C468.8352 199.3992 469.6668 198.1889 482 196.1333 C495.6602 193.8566 497.9101 194.4061 511 195.1333 C514.2411 195.3134 517.5809 197.5467 518 198.1333 C518.1347 198.3219 517.2589 200.4024 516 202.1333 C513.3774 205.7394 513.4037 206.54 510 209.1333 C503.4356 214.1347 500.5733 212.783 495 218.1333 C489.2476 223.6557 490.811 227.3224 485 233.1333 C478.7241 239.4092 474.3588 237.7822 469 244.1333 C462.3767 251.9832 456.9087 262.7523 458 265.1333 C460.8807 271.4185 475.265 277.9072 491 292.1333 C511.6271 310.7825 531.0228 330.6661 531 331.1333 C530.9975 331.1844 509.7054 333.4378 489 333.1333 C476.1516 332.9444 463 330.1333 463 330.1333 "/>
<path id="2" d="M159 136.1333 C159 136.1333 159.1945 129.0657 161 123.1333 C162.5286 118.1107 162.5805 116.4425 166 113.1333 C176.5665 102.9076 185.3712 96.7685 192 93.1333 C192.6016 92.8034 195.8345 94.3321 197 96.1333 C200.3425 101.2991 199.3604 106.9684 203 110.1333 C207.4494 114.0024 211.8909 115.0663 220 116.1333 C229.5126 117.385 238.7941 113.3359 241 115.1333 C243.7037 117.3364 242.4629 133.3035 247 138.1333 C252.3053 143.7809 259.9487 145.3307 272 148.1333 C279.9385 149.9795 287.5719 146.1908 290 148.1333 C293.1026 150.6154 292.7396 159.2848 297 168.1333 C298.8027 171.8775 299.7797 171.9131 303 175.1333 C307.2111 179.3444 307.1453 180.0767 312 183.1333 C320.1851 188.2869 327.2439 187.2117 330 192.1333 C336.7313 204.1536 332.9328 220.0086 340 233.1333 C343.1527 238.9883 354.1563 238.4513 358 244.1333 C362.3754 250.6014 363 267.1333 363 267.1333 "/>
<path id="3" d="M84 249.1333 C84 249.1333 90.1037 248.3589 95 246.1333 C100.6164 243.5804 101.4581 243.2211 106 239.1333 C110.962 234.6676 115 228.1333 115 228.1333 "/>
<path id="4" d="M160 171.1333 C160 171.1333 149.4463 175.9431 149 177.1333 C148.6418 178.0884 151.9802 185.2972 154 187.1333 C154.86 187.9152 157.737 188.0134 160 187.1333 C165.5528 184.9739 171.5823 181.2472 172 180.1333 C172.2452 179.4796 168.4981 172.8628 166 171.1333 C164.5703 170.1435 159 171.1333 159 171.1333 "/>
<path id="5" d="M104 268.1333 C104 268.1333 89.5461 269.5686 78 274.1333 C69.312 277.5681 67.1699 278.3895 61 285.1333 C47.1078 300.3178 44.0576 305.4567 35 321.1333 C33.4023 323.8986 34.2014 326.6726 35 330.1333 C35.4164 331.9376 37.9688 334.153 38 334.1333 C39.7195 333.0473 45.2161 323.817 54 318.1333 C69.3326 308.2123 73.4856 310.8299 89 301.1333 C96.1834 296.6437 97.6419 294.9126 102 288.1333 C105.7168 282.3516 103.7868 279.8517 107 273.1333 C109.0082 268.9343 113 265.1333 113 265.1333 "/>
<path id="6" d="M74 313.1333 C74 313.1333 70.5622 330.0561 72 342.1333 C72.6915 347.942 77.4077 353.6738 79 355.1333 C79.2665 355.3777 83.2402 354.5104 84 353.1333 C95.3196 332.6165 102.455 323.989 111 297.1333 C115.2755 283.6961 112 265.1333 112 265.1333 "/>
<path id="7" d="M175 299.1333 C175 299.1333 174.0384 303.7678 175 307.1333 C176.7686 313.3236 178.2517 318.9762 181 320.1333 C188.9674 323.488 202.2907 319.3086 213 323.1333 C217.626 324.7855 218.7694 334.2765 223 335.1333 C246.7593 339.9453 261.0074 342.085 292 339.1333 C308.862 337.5274 312.5483 333.503 328 325.1333 C334.5589 321.5806 335.3247 319.4587 340 313.1333 C343.2922 308.6792 342.0004 305.8828 345 302.1333 C346.9197 299.7337 352 298.1333 352 298.1333 "/>
<path id="8" d="M192 164.1333 C192 164.1333 201.4166 177.9211 204 190.1333 C206.3344 201.1688 205.1295 204.5733 203 216.1333 C201.9342 221.9191 200.6863 222.9291 197 228.1333 C192.5102 234.4718 192.148 235.8131 186 240.1333 C174.6616 248.1008 160 254.1333 160 254.1333 "/>
</g>
</g>
</svg>
