<?xml version="1.0" encoding="utf-8"?>
<!DOCTYPE svg PUBLIC "-//W3C//DTD SVG 1.1//EN" "http://www.w3.org/Graphics/SVG/1.1/DTD/svg11.dtd">
<svg viewBox="0 0 800 800" preserveAspectRatio="xMinYMin meet" xmlns="http://www.w3.org/2000/svg" version="1.1">
<g fill="none" stroke="black" stroke-linecap="round" stroke-linejoin="round" stroke-width="2.3618">
<g transform="translate(87.52,209.4634) scale(1.2702) translate(-131,-60)">
<path id="0" d="M145 82 C145 82 165.4994 103.1436 187 121 C194.3138 127.0742 200.8221 126.8875 204 131 C205.6482 133.133 203.0876 137.3431 204 143 C205.506 152.3369 204.2635 157.6582 209 162 C232.2598 183.3215 276 209 276 209 C276 209 270.8355 205 270 205 C269.5822 205 267.0012 209.0008 267 209 C266.9862 208.9908 266.775 203.675 267 203 C267.025 202.925 268.6159 202.6585 269 203 C271.7103 205.4092 275.9491 210.8642 276 211 C276.0072 211.0192 272.7789 210.3942 272 211 C269.9661 212.5819 267.0738 217.3354 267 218 C266.9848 218.1368 271.0118 219.9694 271 220 C270.6318 220.9574 266.8087 226.757 262 231 C259.0361 233.6152 256.0598 232.4988 254 235 C250.5097 239.2382 251.8622 245.0741 248 248 C239.2049 254.663 225.6646 256.7707 221 260 C220.5833 260.2885 222.469 265.567 222 266 C219.9807 267.864 209.7994 270.7543 208 272 C207.8933 272.0739 208.9988 275.0006 209 275 C209.0073 274.9963 210.0127 271.0127 210 271 C209.9958 270.9958 207 272.8384 207 273 C207 273.2423 210.0501 275.883 210 276 C209.8078 276.4485 204.0256 280.0205 204 280 C203.9506 279.9605 205.0441 271.9902 205 272 C204.6557 272.0765 193.916 278.4588 186 284 C185.3066 284.4854 185 286 185 286 C185.0214 286.0107 187.9937 284.9873 188 285 C188.0571 285.1142 188.0928 288.9072 187 290 C183.3572 293.6428 177.3445 294.6786 175 298 C173.7189 299.8149 176.2657 305.6677 175 307 C170.9146 311.3004 164.3839 312.0614 156 318 C153.1054 320.0503 153.1538 323.0059 151 324 C148.7822 325.0236 145.2762 322.7949 143 324 C139.0835 326.0734 136.7187 331.1875 134 333 C133.5771 333.2819 130.9902 332.0883 131 332 C131.2584 329.6748 136 315 136 315 "/>
<path id="1" d="M145 79 C145 79 142 78 142 78 C141.8247 78.526 141.6194 87.6617 142 88 C142.3092 88.2749 150.9526 86.1263 151 86 C151.0331 85.9119 146.6813 82.5219 145 80 C144.4956 79.2434 144.577 77.5076 145 77 C146.0105 75.7873 149.3692 75.2615 150 74 C150.8028 72.3944 149.7874 67.0551 150 67 C153.1624 66.1801 176.4626 67.171 177 67 C177.0552 66.9824 172.0237 60.1657 172 60 C171.9982 59.9877 174.2212 59.5149 176 60 C189.9881 63.8149 197.9627 65.4813 205 69 C205.8403 69.4201 204.7284 72.711 206 75 C211.5823 85.0482 213.1921 89.9485 220 96 C223.265 98.9022 233 99 233 99 C233 99 227.4474 98.5966 227 98 C226.4306 97.2407 227 91 227 91 C228.3352 91 239.314 93.4597 249 98 C254.268 100.4694 258.5008 106.0384 259 106 C259.1964 105.9849 260.6719 98.1953 262 97 C262.8375 96.2462 265.5913 96.7159 269 97 C271.4754 97.2063 273.4635 97.4635 274 98 C274.3577 98.3577 273.587 101.7476 274 102 C277.7636 104.3 291.8435 108.9707 292 109 C292.0223 109.0042 289.9162 105.1397 290 105 C290.1198 104.8004 294.9998 104.0001 295 104 C295.0001 104 293.0308 104.0925 293 104 C292.5684 102.7053 291.6859 95.7067 292 95 C292.0816 94.8164 296.5763 95.4237 297 95 C297.5932 94.4068 297.9929 89.0024 298 89 C298.0008 88.9997 299.9998 94.0005 300 94 C300.0003 93.9991 298.9931 86.0011 299 86 C299.3914 85.9398 310.0592 89.8994 313 92 C313.4595 92.3282 312.3942 95.2211 313 96 C314.5819 98.0339 316.2579 99.4928 320 101 C350.9978 113.4852 382.3184 123.8322 385 125 C385.0602 125.0262 382 127.5114 382 128 C382 128.6514 383.2392 130.9435 385 132 C392.1084 136.265 399.4486 137.1297 402 140 C403.0058 141.1316 400.1668 148.9396 401 150 C402.2142 151.5454 411.7237 152.4916 413 154 C413.7353 154.8689 411.5274 160.1642 412 163 C412.1873 164.1236 414.7353 166.0662 415 166 C415.7353 165.8162 419.241 160.7991 420 161 C426.7518 162.7872 437.6088 168.9247 449 175 C449.6456 175.3443 450 177 450 177 C449.6493 177.1753 443.0056 177.9608 443 178 C442.9856 178.1008 447.0235 180.6646 449 184 C454.5695 193.3986 456.5771 194.7028 459 205 C462.1613 218.4357 458.5247 223.8612 461 235 C461.5962 237.6831 464.681 238.0185 467 241 C467.8213 242.056 468.0468 243.8597 468 244 C467.9883 244.0351 466 244 466 244 "/>
<path id="2" d="M467 244 C467 244 466.4107 251.1786 464 256 C461.9464 260.1071 458.408 261.4187 457 264 C456.7076 264.5361 458.2675 266.699 458 267 C452.1425 273.5897 435.3088 289.2043 433 291 C432.9824 291.0137 431.0652 287.9739 431 288 C430.12 288.352 426.8314 293.197 423 295 C419.7872 296.5119 417.8058 294.4777 414 296 C401.3681 301.0528 400.8765 302.354 388 309 C385.4222 310.3305 383.4524 310.9821 383 312 C382.5187 313.0829 384.3115 317.4549 384 318 C383.7787 318.3873 380.7326 317.8862 379 319 C374.6575 321.7916 370.1376 326.9847 370 327 C369.9892 327.0012 370 320 370 320 C370 320 371.6887 331.1047 371 332 C370.4198 332.7542 364.8634 331.5036 360 333 C352.6222 335.2701 352.6605 337.8868 345 340 C324.4211 345.6769 323.3448 347.3465 302 349 C253.5657 352.7519 229.5453 349.9382 203 351 C202.7106 351.0116 202.2665 352.9667 202 353 C200.5341 353.1832 196.92 351.36 195 352 C193.08 352.64 191.92 356.36 190 357 C188.08 357.64 184.2993 355.5669 183 356 C182.3503 356.2166 181.8378 359.5811 181 360 C179.7433 360.6283 175.5192 360.3462 175 360 C174.7692 359.8462 175.0129 356.0043 175 356 C174.9807 355.9936 173.224 358.8251 172 359 C165.5742 359.918 161.6089 360.5743 154 359 C148.8254 357.9294 147.1192 354.4712 143 353 C142.1717 352.7042 139.9994 353.9988 140 354 C140.0037 354.0073 143.9989 355.0063 144 355 C144.0205 354.8767 140.9914 348.0431 141 348 C141.0016 347.9919 145.0017 350.0034 145 350 C144.9941 349.9881 137 340 137 340 "/>
<path id="3" d="M136 331 C136 331 137.4503 336.7801 138 337 C138.8994 337.3598 146 335 146 335 "/>
<path id="4" d="M462 227 C462 227 465.2279 217.2647 466 208 C466.6756 199.8934 464.1428 197.286 465 191 C465.2819 188.9329 468.9187 186.5694 469 186 C469.0229 185.8394 466.1799 184.6295 466 184 C465.7032 182.9613 465.8223 180.6488 467 179 C472.3587 171.4979 479.1777 166.3133 481 163 C481.1807 162.6715 477.8946 159.2811 478 159 C478.2291 158.3889 482.6351 156.5924 484 155 C484.4479 154.4775 483.6682 152.2212 484 152 C486.5439 150.3041 495.4857 146.9143 496 147 C496.0537 147.009 496 154 496 154 C496 154 494.459 143.6617 496 141 C497.4661 138.4676 506.3382 135.8272 507 135 C507.0715 134.9106 503.9899 131.0063 504 131 C504.2357 130.8527 514.1489 130.5107 515 130 C515.1467 129.912 513.8384 125.1616 514 125 C514.2423 124.7577 519.9995 125.0003 520 125 C520.0003 124.9998 515.995 124.0066 516 124 C516.0206 123.9726 522.0986 122.2877 523 121 C523.7987 119.859 522.484 114.4128 523 114 C523.9951 113.2039 533 113 533 113 C533 113 530 113 530 113 C530 113 532.9666 113.0836 533 113 C533.1281 112.6797 532.506 108.6325 532 108 C531.7906 107.7383 528.9977 107.9965 529 108 C529.0074 108.0111 533.5052 110.3815 534 111 C534.0848 111.106 533 113 533 113 C533 113 536.3093 105.178 538 105 C558.5478 102.8371 607.5315 104.5769 609 105 C609.1469 105.0423 603.7376 114.4202 597 122 C588.0436 132.0759 584.5173 130.8905 577 141 C571.0761 148.9667 571.1297 151.0419 568 161 C565.8574 167.8173 566.9783 173.9036 566 176 C565.8567 176.307 560.993 175.9937 561 176 C561.0324 176.0292 568.5695 182.1815 576 185 C581.9555 187.259 584.0906 184.5263 590 187 C604.2178 192.9516 605.9132 196.6549 619 203 C620.4241 203.6905 623 203 623 203 C623 203 620.0064 202.9871 620 203 C619.9957 203.0086 622.0142 204.996 622 205 C621.9108 205.0255 614.4941 203.6304 613 205 C607.162 210.3515 605.9106 220.0783 598 227 C592.861 231.4966 589.498 231.1116 581 233 C571.9869 235.0029 564.7231 234.1401 562 235 C561.8248 235.0553 562.3766 238.5293 562 239 C561.6046 239.4942 559.9766 239.887 558 240 C542.8689 240.8646 539.1402 239.0313 527 241 C524.3466 241.4303 523.7084 245.4583 521 246 C511.6365 247.8727 498.0338 246.8652 497 247 C496.9683 247.0041 498.022 248.9956 498 249 C497.596 249.0808 487.1572 249.1347 487 249 C486.9837 248.986 491.0396 243.007 491 243 C490.7245 242.9514 473.5203 246.4592 470 246 C469.5247 245.938 468 240 468 240 "/>
<path id="5" d="M154 84 C154 84 157.551 89.9969 159 96 C160.9182 103.9467 161 104.6033 161 113 C161 138.1901 160.1163 152.3904 159 164 C158.9719 164.2922 156 165 156 165 C156 165 165.9997 162 166 162 C166.0001 162 162.0431 163.9354 162 164 C161.9969 164.0046 164 165 164 165 C164 165 162.0128 163.9808 162 164 C161.6801 164.4798 159.9637 171.0096 160 171 C160.2285 170.9399 180.816 159.1407 181 159 C181.0197 158.9849 177 158.0171 177 158 C177 157.9488 178.8672 156.0664 181 155 C186.6229 152.1885 187.7126 152.8199 193 150 C194.6583 149.1156 196.0202 147.0337 196 147 C195.9056 146.8427 190.04 144.96 190 145 C189.96 145.04 191.9993 151.0013 192 151 C192.0013 150.9974 190.7238 142.8563 192 141 C193.7309 138.4823 201.1002 135.2714 203 135 C203.3891 134.9444 205.7517 137.2 206 139 C207.414 149.2516 208.7492 153.0051 207 164 C205.5725 172.9729 201.3368 173.4579 199 183 C195.5459 197.104 195.9442 198.2073 195 213 C194.4715 221.2806 196.217 228.1558 196 230 C195.9955 230.0386 192.9996 230.0001 193 230 C193.003 229.9991 214.3664 224.2131 216 224 C216.0269 223.9965 216 227 216 227 C216 226.9999 212.8262 215.6891 214 212 C214.8061 209.4667 222.9839 205.145 223 205 C223.0022 204.9799 215 203.0234 215 203 C215 202.9415 221.5961 200.3399 223 198 C224.5185 195.4691 222.8304 192.0935 224 188 C224.5523 186.067 225.4789 184.702 227 184 C230.4285 182.4176 232.6162 183.7048 237 182 C241.0448 180.427 244.9981 177.0019 245 177 C245.0007 176.9993 241 178 241 178 "/>
<path id="6" d="M149 324 C149 324 151.7848 316.6702 152 310 C152.2585 301.9865 149.6935 300.3566 150 293 C150.1291 289.9015 153 288.8229 153 286 C153 281.1607 150.2588 279.435 150 274 C149.8102 270.0143 150.7958 266.7203 152 265 C152.521 264.2557 156.75 264.375 157 264 C157.25 263.625 156.9653 260.287 156 259 C154.8669 257.4892 151.0017 255.9983 151 256 C150.9983 256.0017 153.9683 260.8413 154 261 C154.0023 261.0113 152.0678 261.1356 152 261 C151.5594 260.1187 151.0001 254.9999 151 255 C150.9999 255.0001 150.1359 261.0991 151 263 C151.5695 264.2529 154.9744 264.3334 156 266 C157.9992 269.2487 157.0853 271.8515 159 276 C159.7374 277.5977 161.9807 279.0064 162 279 C162.0129 278.9957 161.988 274.988 162 275 C162.108 275.108 172.0342 286.797 178 295 C178.3772 295.5186 178.0236 296.997 178 297 C177.2563 297.093 170.0395 295.9506 170 296 C169.9795 296.0256 173.4075 302 174 302 C175.6293 302 180.934 299.1277 185 296 C186.322 294.9831 187 292.8662 187 292 C187 291.5669 184.9153 290.207 185 290 C186.7551 285.7097 193.3152 279.6207 196 270 C198.7092 260.292 198.2955 251.2105 197 247 C196.6706 245.9295 187.9963 243.9954 188 244 C188.014 244.017 208.2026 259.4931 211 264 C211.4812 264.7753 205.9359 272.2951 206 273 C206.0191 273.21 211.9999 275.0001 212 275 C212.0001 274.9999 207 272 207 272 "/>
<path id="7" d="M278 141 C278 141 273.1628 135.9225 272 136 C270.0711 136.1286 266.6288 138.6503 263 142 C260.6192 144.1977 259.6188 145.1536 259 148 C257.4491 155.1341 255.8789 160.8904 258 165 C260.9305 170.6779 266.6913 173.887 275 179 C278.3185 181.0421 283.9925 181.0125 284 181 C284.0075 180.9875 277.8845 174.2501 278 174 C278.3149 173.3178 288.3958 170.8646 290 168 C292.5374 163.4689 291.6327 158.1827 292 149 C292.1147 146.1316 292.2311 144.7782 291 143 C288.6935 139.6684 283 136 283 136 "/>
<path id="8" d="M278 157 C278 157 280.1787 163.2854 280 164 C279.945 164.2199 276 165 276 165 "/>
<path id="9" d="M335 110 C335 110 333.6911 112.2279 334 113 C335.7581 117.3953 340.3209 122.4533 341 125 C341.1077 125.404 338 127.0339 338 128 C338 135.0848 340.7977 139.0769 341 150 C342.284 219.3358 345.2469 224.7527 341 290 C340.0986 303.8492 336.4433 305.2348 330 319 C325.6322 328.3312 325.2571 329.9268 319 337 C314.7997 341.7482 311.6558 340.6352 307 345 C304.4781 347.3643 304.2993 351.1338 303 352 C302.3503 352.4331 298 351 298 351 "/>
</g>
</g>
</svg>
