<?xml version="1.0" encoding="utf-8"?>
<!DOCTYPE svg PUBLIC "-//W3C//DTD SVG 1.1//EN" "http://www.w3.org/Graphics/SVG/1.1/DTD/svg11.dtd">
<svg viewBox="0 0 800 800" preserveAspectRatio="xMinYMin meet" xmlns="http://www.w3.org/2000/svg" version="1.1">
<g fill="none" stroke="black" stroke-linecap="round" stroke-linejoin="round" stroke-width="2.525">
<g transform="translate(87.52,262.1761) scale(1.1881) translate(-81,-93)">
<path id="0" d="M95 153 L138 202 "/>
<path id="1" d="M96 154 C96 154 93.4245 157.1702 93 160 C92.0787 166.1423 91.7718 167.859 93 174 C94.0527 179.2637 94.77 180.478 98 185 C101.8 190.3201 107.3935 191.058 108 195 C110.1914 209.2439 104.2924 225.2907 106 237 C106.2994 239.0529 115.066 242.5601 115 243 C114.7758 244.4947 106.5433 249.9135 103 257 C99.4567 264.0865 102.7773 267.9851 99 275 C93.3485 285.4956 87.8377 286.2704 82 296 C80.2038 298.9937 80.9003 304.9644 81 305 C81.6109 305.2182 91.1614 303.9953 96 301 C99.2038 299.0167 98.4453 295.7163 102 292 C109.0675 284.6112 111.4936 284.8679 118 278 C119.5385 276.376 118.5714 274.4286 120 273 C122.6531 270.3469 123.825 269.5507 128 268 C140.6943 263.285 141.4483 263.1056 155 260 C165.1931 257.6641 166.1415 258.9717 176 257 C178.0082 256.5984 179.3359 255.8301 180 255 C180.3831 254.5211 180 252 180 252 "/>
<path id="2" d="M129 199 C129 199 141.6872 210.2731 154 216 C161.2571 219.3754 163.0669 218.4944 172 219 C189.2076 219.974 190.6865 221.212 207 219 C218.692 217.4146 219.446 215.8784 231 211 C264.1991 196.9826 263.8245 193.6067 297 181 C312.8762 174.967 314.2351 174.0551 331 173 C383.9925 169.6648 389.767 168.6261 440 172 C451.8382 172.7951 465 182 465 182 "/>
<path id="3" d="M174 259 C174 259 184.1582 254.8787 194 254 C211.3284 252.4528 212.8113 251.5192 230 254 C260.0901 258.3429 260.3799 261.9288 291 268 C318.2634 273.4057 318.7007 275.5462 346 277 C402.0952 279.9873 405.1395 281.1145 460 277 C482.5698 275.3073 506 265 506 265 "/>
<path id="4" d="M439 170 C439 170 443.4168 169.0341 447 170 C498.6681 183.9279 502.4137 182.6224 554 201 C581.2093 210.6933 606.4732 226.4572 607 227 C607.0776 227.08 587 235 587 235 "/>
<path id="5" d="M601 230 C601 230 597.1351 237.9531 593 241 C589.6081 243.4993 586.7961 241.6019 582 244 C571.4486 249.2757 571.8011 253.1309 561 257 C539.9759 264.531 537.9301 264.1287 515 268 C499.985 270.535 484 270 484 270 "/>
<path id="6" d="M541 209 C541 209 538.0283 208.8938 538 209 C537.4596 211.0265 536.177 222.5368 537 224 C537.3777 224.6714 545.849 225.6714 547 225 C547.8149 224.5247 549 220.4826 549 217 C549 213.9527 548.1028 210.802 547 210 C545.4872 208.8998 538.5559 208.4441 538 209 C537.0271 209.9729 535.7359 216.7746 536 221 C536.0931 222.49 538.1311 224.842 539 225 C540.7803 225.3237 546.7136 223.6684 547 223 C547.588 221.6281 545.9712 212.6649 545 211 C544.7849 210.6312 540.107 210.7646 540 211 C539.482 212.1396 539.422 220.9403 540 222 C540.172 222.3153 546 222 546 222 "/>
<path id="7" d="M484 177 C484 177 480.3208 188.5528 479 200 C477.3689 214.1363 477.3354 215.0426 478 229 C478.3017 235.3359 478.5707 236.0785 481 242 C486.3489 255.0379 487.514 257.5504 494 268 C495.162 269.8721 499 271 499 271 "/>
<path id="8" d="M504 222 C504 222 501.5076 221.577 501 222 C499.7873 223.0105 498.1981 224.8209 498 227 C497.3647 233.9882 497.0989 239.3529 499 244 C499.9034 246.2083 505.0458 246.6115 507 249 C508.1541 250.4105 507.5424 254.8475 508 255 C510.593 255.8643 525 255 525 255 "/>
<path id="9" d="M514 229 C514 229 512.6439 237.1182 514 240 C515.2039 242.5582 522 246 522 246 "/>
<path id="10" d="M361 173 C361 173 372.8662 168.118 374 165 C376.1947 158.9645 374.7085 150.9345 373 140 C372.4821 136.6857 369.6544 136.2722 369 133 C367.9093 127.5464 370.8765 125.0041 369 120 C364.2906 107.4417 353.9775 93.0209 354 93 C354.0358 92.9667 369.8453 98.6082 383 107 C398.1458 116.662 396.8407 120.0595 412 130 C426.838 139.7298 429.8691 137.5794 444 147 C449.6524 150.7682 450.8947 152.5658 454 158 C456.0702 161.6228 456 168 456 168 "/>
<path id="11" d="M360 280 L356 286 "/>
<path id="12" d="M273 263 C273 263 269.1706 262.6976 267 264 C257.9886 269.4068 257.6833 273.6963 248 278 C236.9943 282.8914 231.1338 280.3465 222 284 C219.9417 284.8233 217.9738 289.9981 218 290 C218.1294 290.0092 227.1779 285.8169 236 285 C253.2018 283.4072 255.1892 286.4307 272 285 C277.2956 284.5493 277.6615 282.0169 283 281 C287.5388 280.1355 289.8366 282.5129 293 281 C298.7766 278.2373 306 270 306 270 "/>
<path id="13" d="M445 252 C445 252 446.0026 258.7945 444 263 C437.0117 277.6755 435.4715 280.6727 425 294 C419.9841 300.3838 417.991 301.7375 411 305 C404.6423 307.9669 397.3556 306.675 395 308 C394.5505 308.2528 394.8335 313.9636 395 314 C399.0873 314.8941 417.9698 317.0839 427 315 C429.6457 314.3895 430.0437 307.6903 434 305 C440.525 300.563 445.3554 301.7969 452 298 C453.769 296.9891 454.5655 295.3175 455 293 C455.8593 288.417 453.8636 286.5455 455 282 C456.0589 277.7644 458.7458 277.4794 460 273 C461.9971 265.8675 462 257 462 257 "/>
<path id="14" d="M183 221 C183 221 178.4897 229.5972 176 238 C174.656 242.5359 174.7264 244.7163 175 248 C175.0598 248.7175 177 250 177 250 "/>
<path id="15" d="M169 232 C169 232 151.649 222.4149 139 211 C132.4266 205.0679 128 195 128 195 "/>
<path id="16" d="M164 229 L133 229 "/>
<path id="17" d="M162 228 C162 228 148.4162 232.5264 139 239 C133.8972 242.5082 134.8087 245.757 130 250 C127.0361 252.6152 122 254 122 254 "/>
<path id="18" d="M175 239 C175 239 170.4378 238.5199 168 240 C158.1574 245.9759 157.9174 248.7904 147 256 C131.593 266.1745 115 275 115 275 "/>
<path id="19" d="M157 221 C157 221 140.624 221.515 135 218 C130.1416 214.9635 125 201 125 201 "/>
<path id="20" d="M151 231 C151 231 147.7894 231.7953 146 231 C140.075 228.3667 139.0604 227.4076 133 223 C128.2278 219.5293 127.1889 219.0586 124 215 C122.398 212.9611 122 209 122 209 "/>
<path id="21" d="M470 185 C470 185 466.5624 185.1877 466 186 C463.6931 189.3322 462.0907 192.5464 461 198 C460.3456 201.2722 460.956 204.26 462 206 C462.607 207.0116 467 207.8807 467 208 C467 208.358 463.0124 211.1316 462 214 C460.5198 218.1939 460.3284 223.2539 461 225 C461.2725 225.7086 466.4003 226.1005 467 227 C467.6996 228.0495 467.9053 231.8273 467 234 C466.0839 236.1986 463.5184 236.3429 462 239 C459.9295 242.6234 459.6266 243.614 459 248 C458.2026 253.5821 458.3404 255.0533 459 260 C459.1795 261.3466 459.8514 262.4257 461 263 C467.2351 266.1176 476.1809 269.0512 477 269 C477.0229 268.9986 477 262 477 262 "/>
<path id="22" d="M453 184 C453 184 445.0874 189.6166 443 194 C441.4446 197.2664 441.9126 203.9126 443 205 C444.8783 206.8783 458 208.9038 458 209 C458 209.3126 447.8763 215.4982 443 222 C440.3356 225.5525 439.0921 231.3356 440 233 C441.8598 236.4096 454.2494 241.9358 455 244 C455.3857 245.0606 450.1941 249.985 448 255 C447.2199 256.7831 447.4947 259.5958 448 260 C449.5663 261.2531 458 263 458 263 "/>
<path id="23" d="M437 170 C437 170 428.5167 174.5059 426 179 C423.0649 184.2412 422.086 192.258 423 195 C423.5078 196.5234 428.0893 199.0179 433 200 C444.3392 202.2678 457.9972 201.9772 458 202 C458.0062 202.0494 445.2994 208.3585 435 216 C430.4722 219.3593 427.8278 221.2157 427 225 C425.2457 233.0197 425.7396 238.6757 428 248 C429.1376 252.6925 431.2769 254.7733 435 258 C437.5191 260.1832 442.9522 260.7612 443 261 C443.0602 261.3011 438.5792 264.6161 437 268 C435.6357 270.9235 435.6613 275.6129 436 276 C436.3327 276.3803 444 276 444 276 "/>
<path id="24" d="M422 172 C422 172 419.1657 171.4172 418 172 C416.2515 172.8743 415.4929 173.7607 414 176 C407.7299 185.4051 405.5184 188.3235 402 196 C401.5113 197.0662 402.4503 199.7862 403 200 C406.9073 201.5195 419.9728 202.9184 420 203 C420.0146 203.0439 410.5412 208.7312 407 212 C406.5398 212.4248 406.6169 214.5211 407 215 C407.6641 215.8301 411.0113 216.9718 411 217 C410.5203 218.1993 404.6125 223.2567 401 230 C397.5211 236.494 397.1795 237.6874 396 245 C394.8061 252.4022 394.836 254.0163 396 261 C396.6305 264.7828 397.4067 266.0362 400 269 C403.7772 273.3168 405.5125 275.0056 410 277 C412.6484 278.177 418 277 418 277 "/>
<path id="25" d="M396 178 C396 178 392.4887 176.5038 391 177 C388.2352 177.9216 385.0807 179.5984 384 182 C381.8916 186.6854 381.713 191.5474 382 197 C382.0801 198.5221 383.4715 200.3706 385 201 C390.0113 203.0635 398.8995 203.8852 399 204 C399.0074 204.0085 394.5889 206.1758 392 209 C389.5812 211.6387 389.1847 212.7421 388 216 C387.4395 217.5414 387.6002 219.7335 388 220 C390.1989 221.4659 398.8679 222.2075 400 224 C401.4666 226.3221 401.4587 232.1925 400 239 C397.1867 252.1287 390.3871 260.3306 391 266 C391.2686 268.4844 400.8575 274.4288 404 276 C404.3492 276.1746 407 274 407 274 "/>
<path id="26" d="M376 175 C376 175 365.2534 181.0114 362 186 C359.9552 189.1354 359.7569 196.4461 361 198 C363.3975 200.9968 377.9014 205.831 378 206 C378.0101 206.0173 371.955 207.2315 368 210 C362.7472 213.6769 359.4361 215.8512 358 220 C356.33 224.8244 360.4601 229.2473 359 236 C356.8774 245.8169 353.3325 246.6694 350 257 C348.5609 261.4613 349.2934 262.0128 349 267 C348.7958 270.4706 348.6382 273.8392 349 274 C351.1448 274.9532 365.2866 273.7625 367 275 C367.7931 275.5728 366.9109 286.7996 367 287 C367.0091 287.0204 371 284 371 284 "/>
<path id="27" d="M357 180 C357 180 354.4748 177.0983 353 177 C349.1843 176.7456 345.5974 176.8416 342 179 C337.577 181.6538 336.0646 183.688 333 189 C329.0742 195.8047 329.3208 197.043 327 205 C325.9159 208.717 325.7054 211.6745 326 213 C326.0631 213.284 327.8596 214.2012 329 214 C334.9396 212.9518 342.9974 209.998 343 210 C343.0011 210.0009 336.6575 212.9362 333 217 C328.3825 222.1306 327.9143 224.1713 325 230 C324.4857 231.0286 324.85 232.925 325 233 C325.6 233.3 330.9991 232.9794 331 233 C331.0748 234.6455 326.2702 247.7051 326 255 C325.9409 256.5954 327.8947 258.6602 330 260 C332.4251 261.5433 337 262 337 262 "/>
<path id="28" d="M327 176 C327 176 315.1949 178.3562 307 183 C301.6431 186.0356 298.7394 188.9415 297 193 C295.7129 196.0033 296.8409 202.9237 298 204 C299.5357 205.426 311.001 205.9875 311 206 C310.9884 206.1506 299.8683 213.2492 297 217 C296.3082 217.9047 297.4268 222.6561 298 223 C299.1215 223.6729 306.9204 222.7386 307 223 C307.6504 225.137 303.0661 238.0494 305 246 C306.4325 251.889 310.6053 254.9226 316 260 C317.7589 261.6554 321.6778 262.0537 322 262 C322.0284 261.9953 322 259 322 259 "/>
<path id="29" d="M290 181 C290 181 279.9856 187.7403 272 195 C269.5429 197.2337 268.8527 198.2287 268 201 C267.1745 203.6829 267.6749 207.883 268 208 C271.3182 209.1945 292.9906 209.9893 293 210 C293.0038 210.0044 282.6194 212.3559 275 216 C272.3015 217.2906 270.845 218.8031 270 221 C269.0236 223.5387 268.9959 227.9187 270 229 C272.2682 231.4427 282.683 234.049 283 235 C283.2966 235.8897 277.709 241.3846 276 247 C274.6696 251.3714 275.1825 257.019 276 258 C276.6936 258.8324 286 259 286 259 "/>
<path id="30" d="M258 199 C258 199 253.15 202.2864 251 206 C248.2153 210.81 246.7847 217.8493 247 218 C248.2426 218.8698 270.9925 219.9969 271 220 C271.0033 220.0014 263.9174 220.6707 259 223 C255.3939 224.7082 253.8892 226.571 252 229 C251.5048 229.6367 251.4691 231.3243 252 232 C255.4761 236.4242 260.207 237.8794 263 243 C264.8969 246.4776 263.139 252.9476 264 254 C264.4769 254.5829 272 254 272 254 "/>
<path id="31" d="M233 215 C233 215 229.6943 217.7435 229 220 C228.1086 222.8972 228.1778 225.739 229 228 C229.4578 229.259 231.2268 230.7045 233 231 C238.5168 231.9195 246.9964 230.9819 247 231 C247.0098 231.0491 238.5115 236.408 235 241 C233.5781 242.8593 233.408 247.3541 234 248 C235.5571 249.6987 240.2351 251.5588 246 253 C249.4807 253.8702 254 253 254 253 "/>
<path id="32" d="M220 216 C220 216 216.1824 215.8249 214 217 C210.5852 218.8387 208.7443 220.5081 207 223 C206.3599 223.9145 206.6844 226.8106 207 227 C208.4728 227.8837 216.9788 228.9577 217 229 C217.0015 229.003 212.6641 230.5262 210 233 C206.1814 236.5458 202.7109 241.0913 203 242 C203.7452 244.3419 217 255 217 255 "/>
<path id="33" d="M437 278 C437 278 431.7805 294.1629 424 305 C419.1241 311.7914 416.8692 312.0817 409 317 C401.3056 321.809 391.999 324.996 392 325 C392.0013 325.0051 402.5309 326.8148 411 325 C422.1118 322.6189 422.5696 318.8576 434 316 C443.7328 313.5668 454.4649 315.2672 455 314 C457.0757 309.0839 453 271 453 271 "/>
<path id="34" d="M277 272 L258 281 "/>
<path id="35" d="M385 125 C385 125 393.62 136.05 398 147 C401.0918 154.7294 401 165 401 165 "/>
<path id="36" d="M402 138 C402 138 406.9721 140.494 410 144 C415.9812 150.9256 421 160 421 160 "/>
</g>
</g>
</svg>
