<?xml version="1.0" encoding="utf-8"?>
<!DOCTYPE svg PUBLIC "-//W3C//DTD SVG 1.1//EN" "http://www.w3.org/Graphics/SVG/1.1/DTD/svg11.dtd">
<svg viewBox="0 0 800 800" preserveAspectRatio="xMinYMin meet" xmlns="http://www.w3.org/2000/svg" version="1.1">
<g fill="none" stroke="black" stroke-linecap="round" stroke-linejoin="round" stroke-width="1.4161">
<g transform="translate(87.52,147.8975) scale(2.1185) translate(-112,-105)">
<path id="0" d="M206 191 C206 191 188.8676 183.9119 173 175 C152.5766 163.5293 152.0909 163.3636 133 150 C122.4087 142.5861 113.0275 132.9431 113 133 C112.8287 133.354 116.8602 157.0649 118 181 C119.3468 209.2827 119.0524 209.5854 118 238 C116.0573 290.4535 112.3337 331.3203 112 343 C111.9997 343.0095 114.5719 343.4932 115 343 C129.8498 325.8904 135.3524 312.9807 158 290 C167.6496 280.2085 171.6843 282.9473 183 274 C192.6872 266.3404 192.4276 262.1232 201 256 C204.175 253.7322 207.2968 253.1771 211 254 C218.2773 255.6172 219.2505 259.0149 228 262 C261.3338 273.3727 262.5859 276.6077 296 283 C317.8955 287.1887 324.8528 289.4055 343 284 C364.6195 277.5601 369.2324 270.3966 390 255 C396.4817 250.1946 396.8537 248.256 401 241 C404.4455 234.9704 406.3814 228.2967 406 227 C405.8192 226.3851 400.0656 226.2587 396 224 C391.8569 221.6983 390.2475 219.8093 388 217 C387.4968 216.371 387.7642 214.131 388 214 C389.4303 213.2054 393.2843 213.7486 397 212 C401.0455 210.0962 403.6237 208.8903 405 206 C407.2382 201.2998 408.6028 195.6627 407 191 C404.5958 184.0059 401.3392 181.1296 394 174 C384.4227 164.6964 382.0268 166.142 372 157 C365.3784 150.9627 366.3545 148.0306 360 143 C355.6069 139.5222 354.0482 139.1395 348 138 C320.6578 132.8486 319.0422 132.689 291 130 C283.2796 129.2597 281.8466 128.7709 275 131 C261.9018 135.2645 260.2358 136.5941 248 144 C242.016 147.6219 242.8973 150.2089 237 154 C229.5075 158.8166 226.7248 157.0187 220 162 C214.4594 166.1042 213.6051 167.6912 210 174 C206.0461 180.9194 204 190 204 190 "/>
<path id="1" d="M192 206 C192 206 181.5539 204.8404 172 202 C163.3966 199.4422 162.9043 199.2726 155 195 C144.7213 189.4439 135 182 135 182 "/>
<path id="2" d="M188 219 L137 217 "/>
<path id="3" d="M193 225 C193 225 188.5364 232.0104 183 235 C165.3196 244.5474 162.3561 242.6446 143 252 C132.6429 257.006 123 264 123 264 "/>
<path id="4" d="M195 243 C195 243 169.4165 255.9031 148 271 C140.1142 276.5589 140.1911 278.1204 134 286 C129.4077 291.8447 126 299 126 299 "/>
<path id="5" d="M141 218 L129 218 "/>
<path id="6" d="M138 185 L128 175 "/>
<path id="7" d="M322 135 C322 135 315.66 124.6387 308 118 C301.6552 112.5012 300.1066 112.7415 292 109 C287.4207 106.8865 286.9485 106.5822 282 106 C270.4722 104.6438 267.3328 102.3078 258 105 C245.1626 108.7031 244.2351 115.256 230 121 C216.8521 126.3053 215.2632 125.5648 201 128 C195.3316 128.9678 189.0007 127.9949 189 128 C188.9977 128.0163 195.2855 130.8402 200 135 C211.8831 145.4851 223 158 223 158 "/>
<path id="8" d="M298 128 C298 128 292.023 121.4352 287 120 C280.5727 118.1636 277.7125 118.5977 270 120 C262.2463 121.4098 261.2971 122.3515 254 126 C249.7754 128.1123 250.2317 130.0353 246 132 C236.8779 136.2352 235.9107 136.5223 226 139 C220.4181 140.3955 214 140 214 140 "/>
<path id="9" d="M251 140 L220 150 "/>
<path id="10" d="M311 134 C311 134 311.0265 131.1548 310 130 C304.2608 123.5434 302.6765 121.1177 295 116 C290.3731 112.9154 288.4327 112.1646 283 112 C273.6286 111.716 271.3993 112.0318 262 115 C253.5023 117.6835 253.327 120.5304 245 124 C242.0237 125.2401 240.43 123.785 238 125 C235.57 126.215 235.2924 129.4269 233 130 C224.3804 132.1549 210 132 210 132 "/>
<path id="11" d="M370 171 C370 171 366.6975 167.0375 364 166 C361.6168 165.0834 358.5303 165.3199 357 166 C356.1741 166.3671 355.2507 168.1194 355 170 C354.3535 174.8485 353.9837 176.4266 355 181 C355.7289 184.2799 356.8141 185.8141 359 188 C360.391 189.391 361.9509 190 364 190 C367.2786 190 371.6295 188.88 372 188 C373.1734 185.2133 372 171 372 171 "/>
<path id="12" d="M362 179 C362 179 362.5175 175.4825 363 175 C363.2895 174.7105 365.865 174.82 366 175 C366.24 175.32 366.3822 178.3631 366 179 C365.7325 179.4459 363.0959 180.0959 363 180 C362.7123 179.7123 361.7789 175.6633 362 175 C362.0948 174.7157 364.9883 173.9766 365 174 C365.1636 174.3273 365.3168 180.2608 365 181 C364.9418 181.1358 362.0209 181.073 362 181 C361.8366 180.428 362.562 175.0221 363 174 C363.0505 173.8821 364.95 173.9 365 174 C365.2 174.4 365 178 365 178 "/>
<path id="13" d="M314 191 C314 191 307.8722 190.1702 304 191 C302.2022 191.3852 301.6284 193.7495 300 194 C296.7714 194.4967 293.9207 192.2212 291 193 C288.5475 193.654 286.6588 198 285 198 C281.4059 198 272 193 272 193 "/>
<path id="14" d="M314 200 C314 200 301.2923 202.3483 294 205 C292.9669 205.3757 292.5078 208 292 208 C286.9225 208 272 205 272 205 "/>
<path id="15" d="M315 210 C315 210 307.7614 214.9273 302 218 C301.3327 218.3559 300.0308 218.0925 300 218 C299.5684 216.7053 299.0068 208.999 299 209 C298.6508 209.0499 291.4272 216.2688 286 220 C285.2082 220.5444 283.4197 220.4197 283 220 C281.4611 218.4611 279.6823 213.0975 279 213 C277.7328 212.819 269 218 269 218 "/>
<path id="16" d="M313 191 C313 191 304.3863 195.487 299 196 C296.5017 196.2379 293.5787 192.6617 292 193 C289.9423 193.4409 287.5015 198.3329 285 199 C282.8282 199.5792 277 197 277 197 "/>
<path id="17" d="M313 201 C313 201 310.9615 206.4781 309 209 C308.4116 209.7566 306.2082 210.1735 306 210 C305.2311 209.3593 304.932 205.932 303 204 C300.2093 201.2093 295.5424 198.7288 295 199 C293.5701 199.715 288.3348 211.5785 287 212 C286.0308 212.3061 276 205 276 205 "/>
</g>
</g>
</svg>
