<?xml version="1.0" encoding="utf-8"?>
<!DOCTYPE svg PUBLIC "-//W3C//DTD SVG 1.1//EN" "http://www.w3.org/Graphics/SVG/1.1/DTD/svg11.dtd">
<svg viewBox="0 0 800 800" preserveAspectRatio="xMinYMin meet" xmlns="http://www.w3.org/2000/svg" version="1.1">
<g fill="none" stroke="black" stroke-linecap="round" stroke-linejoin="round" stroke-width="1.8385">
<g transform="translate(87.52,301.2792) scale(1.6317) translate(-87,-169)">
<path id="0" d="M88 227 C88 227 91.5938 226.5625 93 225 C103.3411 213.5098 102.637 205.1885 115 197 C136.4155 182.8157 142.5585 182.6333 170 174 C185.6851 169.0654 187.1096 169.6598 204 169 C250.4304 167.1863 253.8488 164.455 298 169 C318.404 171.1004 320.7905 173.9144 340 183 C356.5667 190.8356 358.4721 192.8395 372 204 C376.9092 208.0501 375.2725 210.9675 380 216 C390.3212 226.987 403 237 403 237 "/>
<path id="1" d="M87 229 C87 229 91.9572 228.5587 95 230 C100.3108 232.5156 101.27 233.5065 106 238 C110.9461 242.6988 109.8882 244.801 115 249 C123.1789 255.7184 124.1006 256.5806 134 261 C151.3966 268.7663 152.2895 269.1647 171 274 C196.305 280.5395 197.233 281.7197 223 284 C252.7209 286.6302 254.0656 285.1663 284 284 C291.909 283.6919 292.5247 283.4185 300 281 C309.0689 278.066 309.4422 275.6332 318 273 C321.3459 271.9705 322.8826 274.2123 326 273 C339.0324 267.9318 344.1839 264.7543 354 259 C354.7479 258.5616 354.5787 256.1109 355 256 C359.3613 254.8523 365.178 256.2349 373 254 C377.9339 252.5903 377.9039 249.9941 383 248 C388.8498 245.711 392.5078 246.4966 396 245 C396.5587 244.7605 396.2634 242.4501 397 242 C402.6902 238.5226 406.3373 238.926 414 234 C426.8783 225.7211 425.9821 223.1681 439 215 C451.0431 207.4435 464.9316 201.8936 465 202 C466.0247 203.5941 464.4491 229.7038 466 257 C466.936 273.4735 470.1706 289.8563 470 290 C469.9377 290.0525 457.8205 282.0658 447 273 C439.5246 266.7368 440.6878 264.4164 433 259 C419.4768 249.4723 413.9833 249.086 403 242 C402.213 241.4923 401.9999 238.9999 402 239 C402.0003 239.0003 405 244 405 244 "/>
</g>
</g>
</svg>
