<?xml version="1.0" encoding="utf-8"?>
<!DOCTYPE svg PUBLIC "-//W3C//DTD SVG 1.1//EN" "http://www.w3.org/Graphics/SVG/1.1/DTD/svg11.dtd">
<svg viewBox="0 0 800 800" preserveAspectRatio="xMinYMin meet" xmlns="http://www.w3.org/2000/svg" version="1.1">
<g fill="none" stroke="black" stroke-linecap="round" stroke-linejoin="round" stroke-width="1.1377">
<g transform="translate(87.52,240.4638) scale(2.637) translate(-133.5,-132.3333)">
<path id="0" d="M133.5 189.3333 C133.5 189.3333 135.4882 189.3863 135.5 189.3333 C135.7382 188.2613 134.5912 184.3319 135.5 180.3333 C136.9274 174.0528 136.847 172.1487 140.5 167.3333 C146.7859 159.0474 148.4727 157.1201 157.5 151.3333 C166.6972 145.4377 169.3064 143.919 179.5 142.3333 C189.3838 140.7958 191.2321 142.7236 202.5 144.3333 C208.5142 145.1925 209.3898 144.7782 214.5 147.3333 C224.5311 152.3489 226.073 152.5859 234.5 160.3333 C256.2461 180.3257 254.3908 184.6807 276.5 204.3333 C289.5233 215.9096 292.3933 219.1361 306.5 224.3333 C316.8317 228.1397 322.0682 226.6035 333.5 225.3333 C337.5625 224.8819 342.5 220.3333 342.5 220.3333 "/>
<path id="1" d="M135.5 190.3333 L157.5 190.3333 "/>
<path id="2" d="M157.5 194.3333 C157.5 194.3333 156.1782 197.4942 154.5 198.3333 C147.7872 201.6897 138.7243 203.2839 137.5 204.3333 C137.3815 204.4349 138.5134 208.3467 140.5 210.3333 C144.2525 214.0858 145.5895 215.9303 150.5 217.3333 C161.0809 220.3564 163.9366 221.0413 175.5 220.3333 C186.8542 219.6382 187.8069 215.5265 199.5 214.3333 C211.3289 213.1263 213.2694 213.6317 224.5 215.3333 C228.3428 215.9156 229.364 216.7508 232.5 219.3333 C237.2856 223.2744 237.8486 226.5246 241.5 229.3333 C242.375 230.0064 244.7283 228.6581 245.5 229.3333 C250.1785 233.427 251.0554 238.1777 257.5 243.3333 C262.4446 247.289 264.0322 248.0651 270.5 249.3333 C288.1947 252.8029 289.5521 252.3739 308.5 253.3333 C328.8354 254.363 330.7138 255.1056 349.5 253.3333 C355.2145 252.7942 356.2686 251.4722 361.5 248.3333 C365.7549 245.7804 367.6455 244.6303 369.5 241.3333 C371.0421 238.5919 370.5607 232.3455 370.5 232.3333 C368.1945 231.8722 339.5449 235.3573 339.5 235.3333 C339.4845 235.3251 350.9478 230.0236 355.5 224.3333 C358.7899 220.221 359.5054 210.335 359.5 210.3333 C359.2535 210.2563 339.5 219.3333 339.5 219.3333 "/>
<path id="3" d="M162.5 166.3333 C162.5 166.3333 162.3346 169.2341 162.5 169.3333 C162.9596 169.6091 167.48 169.3733 167.5 169.3333 C167.52 169.2933 164.5 165.3333 164.5 165.3333 "/>
<path id="4" d="M194.5 141.3333 C194.5 141.3333 203.2704 143.0765 208.5 141.3333 C214.4767 139.3411 216.9029 134.027 221.5 132.3333 C222.9829 131.787 226.2792 132.9769 227.5 134.3333 C229.2652 136.2947 228.3209 139.1484 230.5 142.3333 C234.3677 147.9861 234.983 148.7676 240.5 153.3333 C249.0941 160.4457 259.5 165.9338 259.5 166.3333 C259.5 166.61 240.5 175.3333 240.5 175.3333 "/>
<path id="5" d="M193.5 219.3333 C193.5 219.3333 199.7722 225.0902 202.5 229.3333 C203.1912 230.4085 202.4872 233.3329 202.5 233.3333 C205.7753 233.4357 223.8038 230.0362 234.5 230.3333 C235.8778 230.3716 238.4853 234.3543 238.5 234.3333 C238.6972 234.0516 241.5 220.3333 241.5 220.3333 "/>
<path id="6" d="M180.5 147.3333 C180.5 147.3333 186.4172 153.6484 187.5 159.3333 C189.9519 172.2057 189.3869 174.8471 188.5 189.3333 C187.9299 198.6452 187.755 201.0097 184.5 208.3333 C182.6898 212.4064 176.5 216.3333 176.5 216.3333 "/>
<path id="7" d="M322.5 229.3333 C322.5 229.3333 325.8415 233.5469 326.5 237.3333 C327.6359 243.8649 327.0884 249.1953 326.5 252.3333 C326.4387 252.6602 323.5 253.3333 323.5 253.3333 "/>
</g>
</g>
</svg>
