<?xml version="1.0" encoding="utf-8"?>
<!DOCTYPE svg PUBLIC "-//W3C//DTD SVG 1.1//EN" "http://www.w3.org/Graphics/SVG/1.1/DTD/svg11.dtd">
<svg viewBox="0 0 800 800" preserveAspectRatio="xMinYMin meet" xmlns="http://www.w3.org/2000/svg" version="1.1">
<g fill="none" stroke="black" stroke-linecap="round" stroke-linejoin="round" stroke-width="0.89286">
<g transform="translate(87.52,255.52) scale(3.36) translate(-191,-191.1333)">
<path id="0" d="M222 235.1333 C222 235.1333 214.2403 239.6353 207 241.1333 C200.7589 242.4246 199.2561 241.5243 193 241.1333 C192.0783 241.0757 191.0269 240.4023 191 240.1333 C190.8005 238.1386 190.448 232.3944 192 231.1333 C200.3669 224.3352 207.3755 220.7437 223 214.1333 C232.4565 210.1325 233.6655 209.8412 244 209.1333 C269.1796 207.4087 274.1641 205.2973 296 209.1333 C306.1973 210.9247 318 222.1333 318 222.1333 "/>
<path id="1" d="M195 241.1333 C195 241.1333 192.391 242.83 192 244.1333 C191.2982 246.4727 191.2982 248.7939 192 251.1333 C192.391 252.4367 193.6065 253.8015 195 254.1333 C201.9317 255.7837 205.3542 253.5119 213 256.1333 C221.359 258.9993 222.1962 265.2662 230 266.1333 C265.3803 270.0645 272.3892 268.3459 312 267.1333 C319.791 266.8948 320.9044 265.9099 328 263.1333 C331.618 261.7176 335 258.1333 335 258.1333 "/>
<path id="2" d="M316 222.1333 C316 222.1333 326.0968 225.233 336 226.1333 C347.6716 227.1944 349.5244 227.8793 360 226.1333 C365.6743 225.1876 367.3569 223.6839 372 220.1333 C374.8978 217.9174 376.9957 213.129 377 213.1333 C377.026 213.1594 378.4408 220.8109 377 225.1333 C375.6392 229.2156 373.592 232.4571 370 234.1333 C361.8753 237.9249 347 239.0609 347 239.1333 C347 239.3796 359.6479 247.2091 370 256.1333 C373.5455 259.1898 374.7561 261.3968 376 264.1333 C376.2952 264.7827 375.0178 267.1382 375 267.1333 C372.7056 266.5076 364.4144 260.8609 354 258.1333 C344.4031 255.6198 333 256.1333 333 256.1333 "/>
<path id="3" d="M232 212.1333 C232 212.1333 235.8713 212.13 237 213.1333 C238.9593 214.8749 240.4644 216.8128 241 220.1333 C242.6926 230.6275 242.9261 233.0203 242 244.1333 C241.5224 249.8641 240.6959 251.0112 238 256.1333 C236.0586 259.822 233.751 261.966 232 263.1333 C231.617 263.3887 229 262.1333 229 262.1333 "/>
<path id="4" d="M225 226.1333 C225 226.1333 225 229.1333 225 229.1333 C225.0003 229.1333 226 226.1333 226 226.1333 "/>
<path id="5" d="M255 236.1333 C255 236.1333 282.3244 235.9538 284 236.1333 C284.0392 236.1375 283.6016 238.7991 283 239.1333 C280.9444 240.2753 278.8563 240.9905 275 241.1333 C265.943 241.4688 256 240.1333 256 240.1333 "/>
<path id="6" d="M250 205.1333 C250 205.1333 260.4274 198.6187 271 194.1333 C276.4673 191.8139 277.1119 192.2374 283 191.1333 C284.8748 190.7818 286.9978 191.1089 287 191.1333 C287.0656 191.8555 286.0301 198.5807 284 202.1333 C283.0648 203.7699 281.3309 204.5954 279 205.1333 C275.7242 205.8893 271 205.1333 271 205.1333 "/>
<path id="7" d="M255 270.1333 C255 270.1333 257.9297 273.5982 261 275.1333 C264.2509 276.7588 268.9935 277.1485 269 277.1333 C269.0312 277.0606 264 268.1333 264 268.1333 "/>
<path id="8" d="M308 268.1333 C308 268.1333 323.9126 270.1401 324 270.1333 C324.0153 270.1322 321 267.1333 321 267.1333 "/>
<path id="9" d="M319 221.1333 C319 221.1333 329.9565 219.1333 330 219.1333 C330.0079 219.1333 328 221.1333 328 221.1333 "/>
</g>
</g>
</svg>
