<?xml version="1.0" encoding="utf-8"?>
<!DOCTYPE svg PUBLIC "-//W3C//DTD SVG 1.1//EN" "http://www.w3.org/Graphics/SVG/1.1/DTD/svg11.dtd">
<svg viewBox="0 0 800 800" preserveAspectRatio="xMinYMin meet" xmlns="http://www.w3.org/2000/svg" version="1.1">
<g fill="none" stroke="black" stroke-linecap="round" stroke-linejoin="round" stroke-width="1.2961">
<g transform="translate(87.52,283.1093) scale(2.3147) translate(-111,-213.1333)">
<path id="0" d="M111 261.1333 C111 261.1333 130.2229 247.7321 150 239.1333 C163.6333 233.2058 165.0871 234.1837 180 231.1333 C186.6958 229.7637 187.0312 230.1333 194 230.1333 C215.4041 230.1333 217.2817 227.6693 237 231.1333 C252.1204 233.7896 253.116 236.3115 268 243.1333 C276.8013 247.1672 276.228 249.3739 285 253.1333 C296.7157 258.1543 297.7904 259.2904 310 261.1333 C323.0447 263.1023 325.7905 263.7161 338 261.1333 C349.4799 258.7049 352.6443 257.1501 362 250.1333 C370.7755 243.5517 378 231.1333 378 231.1333 "/>
<path id="1" d="M111 262.1333 C111 262.1333 112.3042 267.9367 115 270.1333 C123.8185 277.3187 126.2002 279.5334 138 284.1333 C154.3819 290.5195 156.7453 292.7412 174 293.1333 C219.6877 294.1717 224.3622 291.739 270 287.1333 C276.3798 286.4895 276.7781 282.6351 283 282.1333 C305.7462 280.299 309.2291 280.0314 332 282.1333 C339.6928 282.8434 341.6911 283.6884 348 288.1333 C362.2269 298.1568 376 313.1333 376 313.1333 "/>
<path id="2" d="M380 231.1333 C380 231.1333 383.7517 247.6119 381 255.1333 C378.3391 262.4064 365 272.1333 365 272.1333 "/>
<path id="3" d="M366 273.1333 C366 273.1333 373.8884 283.3198 377 293.1333 C379.8661 302.1724 379 314.1333 379 314.1333 "/>
<path id="4" d="M115 269.1333 C115 269.1333 131 267.1334 131 267.1333 C131 267.1333 116 267.1333 116 267.1333 "/>
<path id="5" d="M132 255.1333 C132 255.1333 130.9532 258.0983 131 258.1333 C131.187 258.2736 135.9975 258.1408 136 258.1333 C136.0025 258.1258 132.0894 255.1557 132 255.1333 C131.9906 255.131 131.9 257.0833 132 257.1333 C132.4 257.3333 136 257.1333 136 257.1333 "/>
<path id="6" d="M165 264.1333 C165 264.1333 166.9485 276.7931 165 280.1333 C163.0312 283.5084 151 288.1333 151 288.1333 "/>
<path id="7" d="M187 226.1333 C187 226.1333 184.834 221.6275 185 220.1333 C185.0958 219.2713 186.8923 217.3549 188 217.1333 C190.0923 216.7149 192.7462 218.6968 195 218.1333 C197.0034 217.6325 199.6095 214.1333 200 214.1333 C200.1562 214.1333 201.1542 217.5694 202 218.1333 C202.725 218.6167 205.0351 218.6847 206 218.1333 C207.2751 217.4047 207.6982 214.4949 209 214.1333 C213.8378 212.7895 216.9308 212.6097 224 213.1333 C229.7887 213.5621 235.1511 215.7475 236 216.1333 C236.0058 216.136 234.8875 217.9645 235 218.1333 C235.6189 219.0617 239.1421 220.4176 240 222.1333 C240.7919 223.7171 240.596 226.544 240 228.1333 C239.6896 228.9611 237 230.1333 237 230.1333 "/>
<path id="8" d="M174 293.1333 L169 293.1333 "/>
<path id="9" d="M181 295.1333 C181 295.1333 191.0899 302.0609 200 305.1333 C203.9692 306.502 207.1011 306.2929 210 305.1333 C212.1452 304.2752 215.0792 299.2578 215 299.1333 C214.6449 298.5753 203 294.1333 203 294.1333 "/>
<path id="10" d="M251 234.1333 C251 234.1333 254.8843 229.5714 258 228.1333 C259.9136 227.2501 262.3967 227.4208 264 228.1333 C265.2767 228.7008 265.752 231.7173 267 232.1333 C269.592 232.9973 272.1178 231.3569 276 232.1333 C278.8469 232.7027 280.2957 233.2586 282 235.1333 C284.3457 237.7136 286.2522 242.6288 286 243.1333 C285.6216 243.8901 276 247.1333 276 247.1333 "/>
<path id="11" d="M237 292.1333 C237 292.1333 242.8478 291.9594 245 293.1333 C246.4424 293.9201 246.7524 297.2422 248 298.1333 C248.7594 298.6758 251.0332 297.6499 252 298.1333 C252.846 298.5563 253.1842 300.8614 254 301.1333 C255.9035 301.7678 258.8626 302.202 261 301.1333 C264.9695 299.1486 269.9512 293.2115 270 293.1333 C270.009 293.119 266.7594 293.6758 266 293.1333 C264.7524 292.2422 264.2628 288.9226 263 288.1333 C261.9691 287.489 258 288.1333 258 288.1333 "/>
<path id="12" d="M326 266.1333 L333 266.1333 "/>
<path id="13" d="M326 269.1333 L334 269.1333 "/>
<path id="14" d="M325 272.1333 L333 272.1333 "/>
<path id="15" d="M324 276.1333 L333 274.1333 "/>
</g>
</g>
</svg>
