<?xml version="1.0" encoding="utf-8"?>
<!DOCTYPE svg PUBLIC "-//W3C//DTD SVG 1.1//EN" "http://www.w3.org/Graphics/SVG/1.1/DTD/svg11.dtd">
<svg viewBox="0 0 800 800" preserveAspectRatio="xMinYMin meet" xmlns="http://www.w3.org/2000/svg" version="1.1">
<g fill="none" stroke="black" stroke-linecap="round" stroke-linejoin="round" stroke-width="0.94566">
<g transform="translate(87.52,216.0016) scale(3.1724) translate(-161,-215)">
<path id="0" d="M161,241C161,241 159.9641509742991,245.52685914912047 161,249C168.00106731844343,272.47416689125157 171.41431039014802,273.73693301633483 178,298C180.64620834842972,307.7491886521095 179.97271367163904,319.0261493980126 180,319C180.09659987511694,318.9074251196796 190.19809574155514,296.45800774262704 202,275C212.11892325902312,256.60195771086705 211.3401917907526,253.50603023976262 224,239C233.56157451376953,228.0440292029724 236.96626835185887,227.49439569768114 250,220C255.75354978645092,216.6917088727907 257.1138165527943,216.57384862060047 264,216C286.1398805017719,214.15500995818567 291.5066582500465,211.6375742272812 310,215C319.0265120446202,216.64118400811276 322.83808210867693,220.1559946904557 330,228C342.1623111895764,241.32062654096464 343.0062894562085,244.2973947043872 352,261C356.45828876012996,269.27967912595556 356.60730948531846,270.71539656878963 358,280C359.4696734074529,289.7978227163527 359.1907579416733,291.1762469811952 358,301C357.2920746436228,306.84038419011193 356.99864490803696,308.4020778076766 354,313C350.26954294178733,318.7200341559261 348.85924160521347,319.4724042141532 343,324C338.3016803911575,327.63051969774193 337.26257742574967,329.00437724377707 332,330C320.642678116812,332.148682518441 317.94223738906436,332.63913062202846 306,331C293.9491145073202,329.3459568931616 292.86702545195663,328.08586805083854 281,323C261.73844612571866,314.7450483395937 261.02594984608453,314.84747424366145 243,304C204.8989635100752,281.07194264323106 168,255 168,255"/>
<path id="1" d="M317,250L318,251"/>
<path id="2" d="M317,289C317,289 326.33397208011155,303.3240366518533 336,311C341.0278935551032,314.99273899964083 351,316 351,316"/>
</g>
</g>
</svg>
