<?xml version="1.0" encoding="utf-8"?>
<!DOCTYPE svg PUBLIC "-//W3C//DTD SVG 1.1//EN" "http://www.w3.org/Graphics/SVG/1.1/DTD/svg11.dtd">
<svg viewBox="0 0 800 800" preserveAspectRatio="xMinYMin meet" xmlns="http://www.w3.org/2000/svg" version="1.1">
<g fill="none" stroke="black" stroke-linecap="round" stroke-linejoin="round" stroke-width="1.8289">
<g transform="translate(87.52,270.4151) scale(1.6403) translate(-99,-163)">
<path id="0" d="M179 216 C179 216 172.2535 205.469 164 199 C154.8487 191.8274 153.2929 191.65 142 187 C128.2908 181.355 127.1193 181.0994 113 178 C107.5302 176.7993 103.9045 177.1701 101 178 C100.2393 178.2173 98.663 181.4343 99 182 C106.3051 194.2621 115.2395 203.0487 129 225 C136.0182 236.1956 141 240.5283 141 249 C141 260.2957 133.0278 264.8889 129 281 C124.2242 300.1032 122.4004 317.5735 123 321 C123.035 321.2001 130.0316 322.2699 136 321 C152.5864 317.471 155.4289 317.6784 170 311 C177.3642 307.6247 184 299 184 299 "/>
<path id="1" d="M180 214 C180 214 186.482 215.068 192 214 C201.2709 212.2056 203.0805 212.5757 211 208 C224.2384 200.3511 223.4215 195.9002 237 188 C249.9815 180.4471 251.3313 179.4427 266 176 C299.0022 168.2546 300.553 168.795 335 165 C359.1483 162.3396 361.0688 160.3725 384 163 C406.7989 165.6124 410.3653 167.956 431 176 C437.3006 178.4562 437.4281 180.6424 443 186 C450.3267 193.0449 450.9955 193.085 457 201 C461.7034 207.1999 462.1108 207.7143 465 215 C473.4035 236.1915 480.9908 255.4616 480 259 C479.6485 260.2553 451.0013 264.9992 451 265 C450.9992 265.0005 468.4545 263.6863 470 265 C471.2567 266.0682 472.4096 275.8916 471 282 C470.1077 285.8668 467.8796 288.9524 464 291 C452.6821 296.9733 449.5545 296.8868 435 301 C426.8379 303.3067 426.4002 303.8588 418 304 C309.1124 305.83 292.6501 307.4631 197 305 C191.7277 304.8642 185 298 185 298 "/>
<path id="2" d="M302 234 C302 234 295.7925 232.7314 291 234 C279.9413 236.9273 276.5421 237.698 268 243 C264.5378 245.1489 263.1328 247.8464 262 252 C260.6155 257.0766 261.7978 264.9706 262 265 C268.582 265.9554 324 261 324 261 "/>
<path id="3" d="M433 211 C433 211 424.2283 206.8732 424 207 C423.8316 207.0936 423.3562 214.7124 424 216 C424.2504 216.5007 428.1964 217.4018 429 217 C429.9822 216.5089 432 212 432 212 "/>
</g>
</g>
</svg>
