<?xml version="1.0" encoding="utf-8"?>
<!DOCTYPE svg PUBLIC "-//W3C//DTD SVG 1.1//EN" "http://www.w3.org/Graphics/SVG/1.1/DTD/svg11.dtd">
<svg viewBox="0 0 800 800" preserveAspectRatio="xMinYMin meet" xmlns="http://www.w3.org/2000/svg" version="1.1">
<g fill="none" stroke="black" stroke-linecap="round" stroke-linejoin="round" stroke-width="1.7953">
<g transform="translate(87.52,241.2535) scale(1.671) translate(-60,-96)">
<path id="0" d="M103 220 C103 220 111.0327 212.4507 120 207 C136.1836 197.1629 136.7651 196.9791 154 189 C163.4619 184.6195 163.8974 184.4741 174 182 C188.062 178.5562 188.6027 177.6696 203 177 C252.2739 174.7082 253.5339 173.9141 303 176 C335.8283 177.3843 369 184 369 184 "/>
<path id="1" d="M102 220 C102 220 68.5921 243.8748 60 251 C59.8112 251.1566 60.4681 253.8159 61 254 C68.065 256.4456 73.4169 258.0542 86 260 C121.6179 265.5079 122.2613 267.4364 158 269 C201.3999 270.8987 205.5668 274.211 246 267 C279.6973 260.9903 281.6344 255.5772 315 241 C332.5636 233.3266 334.2003 232.4271 349 222 C354.7637 217.9392 353.4006 214.5625 359 210 C366.1198 204.1987 371.1859 205.0548 376 200 C378.5471 197.3256 379.5849 189.7798 379 189 C377.9138 187.5518 364 184 364 184 "/>
<path id="2" d="M169 183 C169 183 173.3767 187.7535 176 193 C180.1778 201.3556 182.0841 202.2988 183 211 C185.8404 237.9835 184 269 184 269 "/>
<path id="3" d="M136 218 C136 218 133.9685 221.8742 134 222 C134.0067 222.027 136.9418 222.1358 137 222 C137.3168 221.2608 137.2781 215.3337 137 215 C136.8742 214.849 132.5365 215.4635 132 216 C131.6423 216.3577 132 220 132 220 "/>
<path id="4" d="M381 190 C381 190 399.1646 201.459 413 215 C421.711 223.5256 421.5343 225.2239 428 236 C431.7932 242.322 433.9987 250.0107 434 250 C434.0062 249.9493 435.515 217.6795 434 187 C433.5624 178.1382 433.3511 177.1768 430 169 C421.1942 147.5138 421.3562 144.9653 409 126 C400.8616 113.5085 387 103 387 103 "/>
<path id="5" d="M378 192 C378 192 379.9622 189.8123 380 188 C380.8595 146.7461 379.9573 96.5067 380 96 C380.0039 95.9537 383.1161 101.8015 387 105 C390.8046 108.1332 397 110 397 110 "/>
<path id="6" d="M396 123 C396 123 392.482 149.8126 388 171 C387.582 172.9761 385 175 385 175 "/>
<path id="7" d="M410 151 C410 151 406.6797 161.5125 402 169 C399.8891 172.3775 398.3991 173.3005 395 175 C392.4507 176.2747 388 176 388 176 "/>
<path id="8" d="M393 180 L433 181 "/>
<path id="9" d="M394 181 C394 181 399.7703 181.6501 404 184 C412.5803 188.7668 413.5454 189.4772 421 196 C425.0323 199.5282 426.2748 200.6871 428 205 C429.6667 209.1667 429 216 429 216 "/>
<path id="10" d="M196 218 C196 218 206.4798 211.4191 217 208 C225.6656 205.1837 230.7557 204.3445 236 205 C237.619 205.2024 240.2096 208.3128 241 211 C242.1638 214.9568 241.8095 219.3692 241 222 C240.7623 222.7727 238.8446 223.881 237 224 C224.9378 224.7782 222.2797 225.5743 210 224 C204.2508 223.2629 198 219 198 219 "/>
<path id="11" d="M216 176 C216 176 206.9751 169.4875 198 165 C194.5627 163.2814 189.9994 163 190 163 C190.0059 163 232.8579 161.5672 271 165 C280.2231 165.8301 280.7897 170.5984 290 172 C302.3935 173.886 317 172 317 172 "/>
<path id="12" d="M233 273 C233 273 209.0379 285.9692 209 286 C208.9912 286.0071 213.0646 286.3858 217 286 C238.3942 283.9025 239.2988 285.3015 260 281 C277.0567 277.4558 278.7795 277.3478 294 270 C306.4701 263.9799 307.5623 262.133 318 253 C322.7322 248.8593 323.8985 246.991 326 242 C327.1701 239.2211 326 234 326 234 "/>
<path id="13" d="M303 174 C303 174 311.954 173.106 320 174 C324.8907 174.5434 330 177 330 177 "/>
<path id="14" d="M131 209 C131 209 138.31 208.1016 144 209 C146.8335 209.4474 149.1542 210.7313 150 212 C150.725 213.0875 150 218 150 218 "/>
<path id="15" d="M76 253 C76 253 92.7353 252.7995 103 250 C105.8178 249.2315 109 244 109 244 "/>
</g>
</g>
</svg>
