<?xml version="1.0" encoding="utf-8"?>
<!DOCTYPE svg PUBLIC "-//W3C//DTD SVG 1.1//EN" "http://www.w3.org/Graphics/SVG/1.1/DTD/svg11.dtd">
<svg viewBox="0 0 800 800" preserveAspectRatio="xMinYMin meet" xmlns="http://www.w3.org/2000/svg" version="1.1">
<g fill="none" stroke="black" stroke-linecap="round" stroke-linejoin="round" stroke-width="1.8337">
<g transform="translate(87.52,278.9345) scale(1.636) translate(-92,-127)">
<path id="0" d="M104 129 C104 129 114.053 148.2915 122 168 C126.4362 179.0019 126.7544 179.772 129 191 C130.1044 196.522 130.3772 198.0814 129 203 C127.2831 209.1319 124.2482 209.5051 122 216 C120.0041 221.7661 121.988 223.0361 120 229 C115.6847 241.946 115.931 243.6133 109 255 C102.5667 265.569 92 275 92 275 "/>
<path id="1" d="M92 275 C92 275 100.4815 274.9839 107 273 C110.9765 271.7898 110.8886 269.3705 115 268 C125.0658 264.6447 126.5411 266.6006 137 263 C156.624 256.2442 159.3518 256.0178 176 247 C181.0352 244.2726 185 237 185 237 "/>
<path id="2" d="M107 127 C107 127 106.463 129.2483 107 130 C110.2473 134.5462 111.4061 136.5536 117 141 C130.3993 151.6508 132.1901 150.4017 146 161 C153.4662 166.7299 153.0659 168.7995 160 174 C162.1897 175.6423 164.622 174.3596 166 176 C172.9682 184.2954 172.9152 188.5572 181 199 C184.4961 203.5158 186.1455 204.628 190 207 C191.1074 207.6815 194 207 194 207 "/>
<path id="3" d="M194 207 C194 207 205.9356 196.9534 219 191 C244.5347 179.3639 246.2309 178.2434 273 171 C287.3334 167.1216 288.5446 168.3801 304 168 C349.2613 166.887 350.8693 164.9448 395 168 C414.2153 169.3303 418.8238 170.8056 434 177 C439.1531 179.1033 438.4832 183.373 444 188 C453.6358 196.0816 455.0398 195.1006 465 203 C469.3432 206.4446 470.3417 207.1603 473 211 C474.1177 212.6144 474 216 474 216 "/>
<path id="4" d="M187 242 C187 242 196.7017 250.821 207 257 C213.6051 260.9631 214.6241 261.9787 222 263 C245.4895 266.2524 247.0439 265.7098 272 266 C332.8446 266.7075 334.088 268.5036 394 265 C418.3098 263.5784 425.3311 264.2123 443 256 C454.015 250.8803 454.8754 244.4108 465 232 C470.1512 225.6856 474 218 474 218 "/>
<path id="5" d="M418 188 C418 188 412.4331 189.1338 412 190 C411.1338 191.7325 410.9072 196.7215 412 200 C412.7286 202.1857 414.8143 204.2714 417 205 C420.2785 206.0928 423.4395 206.1127 427 205 C429.6927 204.1585 431.2913 202.4411 433 200 C434.0587 198.4876 434.4331 195.4331 434 195 C431.6179 192.6179 420 187 420 187 "/>
<path id="6" d="M420 196 C420 196 422.2159 198.6864 423 199 C423.2987 199.1195 425 198.0584 425 198 C425 197.8831 423 196 423 196 "/>
<path id="7" d="M447 252 C447 252 442.1161 252.5581 439 251 C424.7025 243.8513 409 233 409 233 "/>
<path id="8" d="M395 168 C395 168 392.0675 168.0392 391 169 C388.1243 171.5882 387.204 172.7615 385 177 C380.9091 184.8671 378.8891 185.8709 378 194 C375.6478 215.506 376.8435 218.2552 378 241 C378.299 246.881 378.6711 248.3421 381 253 C382.5526 256.1053 385.1085 255.7845 387 259 C389.6504 263.5057 391 270 391 270 "/>
<path id="9" d="M387 170 C387 170 379.4047 171.4566 374 174 C371.8638 175.0053 370.8743 176.2515 370 178 C369.4172 179.1657 369.5669 181.5669 370 182 C370.8662 182.8662 376.0011 183.9983 376 184 C375.9965 184.0052 370.6589 183.5819 368 185 C364.6556 186.7837 361.71 189.4441 361 192 C360.171 194.9845 361.2173 200.943 363 203 C364.8947 205.1862 374 207 374 207 C374 207 368.6091 204.5049 367 205 C365.0225 205.6085 362.4109 208.0018 361 211 C359.0905 215.0576 358.3774 218.0571 359 222 C359.5122 225.2436 361.2093 227.2093 364 230 C365.932 231.932 370.008 232.9904 370 233 C369.9515 233.0583 361.9913 234.1592 359 236 C357.8178 236.7275 356.7622 239.3357 357 241 C357.4827 244.379 358.6124 248.06 361 250 C364.2187 252.6152 372.9429 253.8715 373 254 C373.0088 254.0199 366.0934 257.2819 365 259 C364.4188 259.9132 365.3998 264.4856 366 265 C366.5862 265.5025 372 265 372 265 "/>
<path id="10" d="M360 265 C360 265 356.4522 265.7663 354 265 C349.2745 263.5233 345.7167 262.0601 344 260 C343.0987 258.9185 343.1612 253.8388 344 253 C346.037 250.963 356 248.0146 356 248 C356 247.9942 346.1522 247.7217 344 246 C342.2593 244.6074 340.3908 237.083 341 236 C341.9344 234.3389 348.1097 231.5282 353 230 C354.2997 229.5939 357 230.9999 357 231 C357 231 353.6911 231.638 353 231 C349.5311 227.798 344.8778 222.5112 344 219 C343.5688 217.2752 346.3188 212.2227 348 211 C349.1986 210.1283 354.9978 211.0022 355 211 C355.001 210.999 350.6575 210.1505 350 209 C348.1437 205.7514 346.7263 197.6569 347 197 C347.0849 196.7963 354.9773 197.0378 355 197 C355.0095 196.9842 350.7829 194.1923 350 192 C348.9616 189.0924 349.423 186.1736 350 183 C350.1515 182.1665 351.193 181.1009 352 181 C357.0214 180.3723 365.8378 181.2636 366 181 C366.1753 180.7152 359.9431 168.7961 360 168 C360.0068 167.905 366.3808 166.9115 367 167 C367.0258 167.0037 367 169 367 169 "/>
<path id="11" d="M343 268 C343 268 337.4633 268.2398 333 267 C329.0433 265.9009 326.7052 264.492 325 263 C324.6108 262.6594 324.4863 260.6165 325 260 C327.9681 256.4383 331.5325 252.9814 335 251 C335.7851 250.5514 339.0008 252.0006 339 252 C338.9967 251.9975 327.6856 246.2986 326 244 C325.468 243.2746 326.6305 238.1412 328 237 C330.1853 235.1789 337.9707 234.1612 338 234 C338.0398 233.781 331.375 229.1428 330 226 C329.0958 223.9332 330.2957 218.5122 331 218 C332.033 217.2488 341 218 341 218 C341 217.9714 332.7092 213.279 331 211 C330.499 210.332 331.5149 206.2205 332 206 C333.4821 205.3263 341.7718 206.2608 342 206 C342.1402 205.8398 340.905 200.9936 339 198 C337.9339 196.3247 335.64 196.28 335 195 C334.36 193.72 334.5977 190.3449 335 190 C335.7376 189.3677 342 189.0258 342 189 C342 188.7934 336.7661 184.5323 335 181 C334.0785 179.1571 334.7761 175.0933 335 175 C336.0373 174.5678 347 176 347 176 "/>
<path id="12" d="M321 261 C321 261 313.1054 258.329 310 256 C309.1579 255.3684 308.7986 252.151 309 252 C310.6866 250.7351 321.9799 247.1107 322 247 C322.0109 246.9399 314.5229 244.5229 311 241 C307.8915 237.8915 305.6816 231.6824 306 231 C306.4403 230.0565 317.9499 226.5009 318 226 C318.1131 224.8688 307.7514 211.7459 308 211 C308.2486 210.2541 324.5749 205.5951 325 205 C325.0703 204.9016 320.3017 201.1431 318 197 C315.7413 192.9344 315 190.9037 315 187 C315 184.2674 317.1285 180.747 318 180 C318.3043 179.7391 322 181.0008 322 181 C322 180.9977 318.64 179.28 318 178 C317.36 176.72 317.3557 174.0309 318 173 C318.7893 171.7372 323 170 323 170 "/>
<path id="13" d="M302 261 C302 261 294.9568 262.1638 291 261 C288.3128 260.2096 286.1695 258.144 285 256 C284.1518 254.445 284.2146 250.7854 285 250 C287.3562 247.6438 296.9047 244.262 297 244 C297.0192 243.9471 291.9297 241.9297 289 239 C286.0703 236.0703 285.5282 234.6677 284 231 C283.3938 229.545 283.5166 227.9668 284 227 C284.423 226.154 285.4298 225.5542 287 225 C293.5302 222.6952 300.542 221.4122 301 221 C301.013 220.9883 297.8665 218.4262 297 216 C295.7388 212.4686 295.3912 207.9568 296 207 C296.5162 206.1888 303.9534 205.0931 304 205 C304.0116 204.9767 300.3362 203.1713 299 201 C296.9522 197.6723 295.5103 193.1426 296 192 C296.5622 190.6881 304.957 187.1937 305 187 C305.015 186.9324 300.3075 185.3075 298 183 C296.112 181.112 294.8865 177.1297 295 177 C295.3616 176.5867 304.9306 175.1388 305 175 C305.0297 174.9405 299 169 299 169 "/>
<path id="14" d="M277 267 C277 267 270.1845 264.9571 267 262 C264.5145 259.6921 262.7176 255.318 263 254 C263.2965 252.6161 266.5852 249.8387 270 248 C272.1824 246.8249 276.0023 247.0079 276 247 C275.9738 246.9083 269.5602 243.5353 268 241 C267.0002 239.3753 267.2449 234.6922 268 234 C269.8436 232.31 280 230.1528 280 230 C280 229.5416 271.5132 222.977 268 218 C267.1419 216.7843 267.5799 213.2941 268 213 C269.3683 212.0422 277.8186 211.5443 278 211 C278.4989 209.5032 273.6988 195.9637 274 195 C274.0574 194.8162 283 195 283 195 C283 194.9035 276.45 189.8111 274 186 C273.1715 184.7112 273.5218 181.4184 274 181 C275.0657 180.0675 281.7643 179.4715 282 179 C282.2554 178.4892 278.9173 171.7439 279 171 C279.0156 170.8598 283 170 283 170 "/>
<path id="15" d="M252 266 C252 266 244.2335 261.3503 242 258 C240.934 256.401 241.6787 251.1406 242 251 C243.6787 250.2656 257.9449 251.0085 258 251 C258.0093 250.9986 255.335 249.9214 255 249 C253.985 246.2088 255.3438 242.4957 254 240 C252.9813 238.1081 249.1156 237.6734 248 236 C247.3028 234.9541 247.75 231.125 248 231 C249 230.5 258 231 258 231 C258 231 255.0993 231.1654 255 231 C254.7243 230.5404 255.7004 227.2607 255 226 C254.0506 224.2911 251.0566 223.6906 250 222 C249.4068 221.0509 249.6869 218.1686 250 218 C252.1248 216.8559 262.9934 215.0919 263 215 C263.0169 214.7628 251.053 204.3711 251 204 C250.9934 203.9541 259.4337 202.2531 261 201 C261.5053 200.5958 261.7714 197.2123 261 196 C259.387 193.4652 255.8892 192.429 254 190 C253.5048 189.3633 253.8875 187.0375 254 187 C255.0125 186.6625 262.9503 187.0994 263 187 C263.0607 186.8785 259.7929 182.5859 258 179 C257.6585 178.317 257.9662 177.0084 258 177 C258.2531 176.9367 262 178 262 178 "/>
<path id="16" d="M224 266 C224 266 217.5433 255.3048 218 254 C218.5789 252.346 225.075 248.6333 231 246 C232.7894 245.2047 236.0059 246.0139 236 246 C235.9711 245.9326 230.3065 242.3316 228 239 C226.7689 237.2218 226.6588 233.2792 227 233 C228.2618 231.9676 238.8029 230.2253 239 230 C239.0091 229.9896 234.6381 227.1694 234 225 C232.8167 220.9767 233.4675 214.2781 234 213 C234.0925 212.7781 239.003 213.0075 239 213 C238.9883 212.9708 232.8526 209.8474 232 208 C231.2191 206.308 231.9531 201.4955 233 200 C233.7461 198.9342 238.9915 198.0127 239 198 C239.0024 197.9965 235.373 197.5968 235 197 C234.1874 195.6998 233.5351 191.046 234 190 C234.2994 189.3263 239 188 239 188 "/>
<path id="17" d="M209 260 C209 260 203.89 255.9699 202 253 C201.34 251.9629 201.5061 250.6463 202 249 C202.8519 246.1602 203.3594 244.1932 205 243 C207.1064 241.468 212.9216 241.0627 213 241 C213.0114 240.9909 210.1511 239.7553 210 239 C209.2447 235.2233 209.1156 227.5477 210 226 C210.379 225.3367 217.9707 225.0488 218 225 C218.0051 224.9916 213.5225 222.6721 213 221 C211.8728 217.3928 212.3527 214.5024 213 209 C213.2824 206.5995 213.9386 204.796 215 204 C216.2459 203.0655 220.9999 203 221 203 C221.0001 203 218.0582 203.1358 218 203 C217.6832 202.2608 217.4374 196.9002 218 196 C218.3316 195.4695 223 195 223 195 "/>
</g>
</g>
</svg>
