<?xml version="1.0" encoding="utf-8"?>
<!DOCTYPE svg PUBLIC "-//W3C//DTD SVG 1.1//EN" "http://www.w3.org/Graphics/SVG/1.1/DTD/svg11.dtd">
<svg viewBox="0 0 800 800" preserveAspectRatio="xMinYMin meet" xmlns="http://www.w3.org/2000/svg" version="1.1">
<g fill="none" stroke="black" stroke-linecap="round" stroke-linejoin="round" stroke-width="2.2801">
<g transform="translate(87.52,201.3285) scale(1.3157) translate(-29,-47)">
<path id="0" d="M68 223 C68 223 68.0328 221.0044 68 221 C66.1578 220.7544 54.8952 220.0524 53 221 C52.3683 221.3159 51.3331 226.9994 52 229 C52.4929 230.4787 54.8022 232.6004 57 233 C63.5238 234.1861 66.5013 233.9781 74 233 C76.8192 232.6323 80.0101 230.0404 80 230 C79.9529 229.8114 73.8433 227.6811 72 225 C69.7069 221.6645 71.3292 217.9596 69 214 C67.1538 210.8615 65.3688 209.4739 62 208 C58.6968 206.5548 54.9567 206.3478 53 207 C51.9464 207.3512 50.637 209.6644 50 212 C49.3431 214.4086 49.421 217.421 50 218 C50.9649 218.9649 58 220 58 220 "/>
<path id="1" d="M60 207 C60 207 70.1596 207.78 73 205 C87.6344 190.6769 88.6226 180.563 107 161 C118.6894 148.5565 121.3771 146.7403 135 139 C140.9552 135.6163 143.4902 138.4407 151 136 C163.0555 132.082 162.9634 129.1206 175 126 C189.0482 122.3579 190.4196 121.82 205 122 C229.8576 122.3069 231.6298 121.9752 256 127 C278.994 131.741 279.4835 133.5938 302 142 C316.7725 147.5151 318.4694 146.717 331 155 C346.7283 165.3966 345.1837 170.8677 361 181 C375.7834 190.4706 393.3322 195.114 395 196 C395.0373 196.0198 393 198 393 198 "/>
<path id="2" d="M73 234 C73 234 86.8106 233.2407 96 237 C106.2928 241.2107 106.3456 245.674 117 252 C121.765 254.8292 123.4771 253.2001 128 256 C133.2261 259.2352 132.5463 262.0134 138 265 C152.4911 272.9356 153.9038 273.0871 170 279 C178.0039 281.9402 178.63 282.4228 187 283 C206.8642 284.3699 208.3938 284.8673 228 283 C238.7937 281.972 239.3595 280.8002 250 277 C274.1458 268.3765 275.9691 268.6483 298 258 C304.4854 254.8654 303.6912 251.6051 310 248 C316.9194 244.0461 317.9603 244.8713 326 242 C331.9507 239.8748 331.9479 239.1116 338 238 C356.0207 234.6901 360.3806 232.6889 375 233 C379.0132 233.0854 381.2652 235.2652 385 239 C392.4696 246.4696 395.3952 247.8241 399 257 C405.3112 273.0648 399.9505 279.0819 407 295 C414.1585 311.1645 417.4626 315.2629 430 327 C438.3415 334.809 441.7213 334.7792 454 339 C472.9638 345.5188 493.9266 349.0054 494 349 C494.0226 348.9983 487.9577 342.0008 481 337 C472.3431 330.7779 467.1744 332.5856 462 326 C453.6183 315.3323 454.065 309.296 448 295 C447.6716 294.226 447.9767 292.9961 448 293 C449.7445 293.2908 460.1794 297.7335 472 299 C487.3496 300.6446 503.9818 299.0064 504 299 C504.0073 298.9974 494.5465 297.2077 489 293 C481.5852 287.375 475.0534 277.1601 475 277 C474.9897 276.969 480.1967 278.6915 484 278 C489.9991 276.9093 494.308 274.6566 497 273 C497.3091 272.8098 497.4908 270.4908 497 270 C492.9104 265.9104 483.8977 260.6957 483 259 C482.8365 258.6912 486.782 255.6796 488 253 C488.7361 251.3805 488.7418 249.2363 488 248 C486.7241 245.8736 483.5334 245.0446 482 243 C481.5158 242.3544 481.7118 240.2059 482 240 C483.1336 239.1903 487.7532 238.7125 489 238 C489.175 237.9 489.1781 236.0827 489 236 C482.6506 233.052 475.1125 228.9614 461 225 C447.1981 221.1258 432 220 432 220 "/>
<path id="3" d="M396 197 C396 197 454.9298 200.9753 455 201 C455.0219 201.0077 440.3042 205.7392 433 210 C431.6821 210.7688 430.7059 214.0196 431 215 C431.4345 216.4483 436 220 436 220 "/>
<path id="4" d="M116 187 C116 187 109.8573 186.8181 108 188 C106.5337 188.9331 104.9647 193.9871 105 194 C106.1114 194.4041 129.9742 196.0099 130 196 C130.0099 195.9962 123.4435 191.5403 118 189 C116.9303 188.5008 115.0993 188.8346 115 189 C114.7243 189.4596 114.4295 193.4295 115 194 C116.2551 195.2551 123 197 123 197 "/>
<path id="5" d="M216 201 L249 206 "/>
<path id="6" d="M222 212 C222 212 252.9434 214.9859 253 215 C253.0111 215.0028 249.3618 217.4067 246 218 C241.5351 218.7879 237.2019 217.7596 236 218 C235.9519 218.0096 235.9 219.95 236 220 C236.4 220.2 239.5669 219.5669 240 220 C240.8662 220.8662 241.7198 223.7583 242 226 C242.0841 226.6725 241.3604 227.9199 241 228 C239.0041 228.4435 233.9386 228.6258 233 228 C232.4133 227.6089 232.5683 222.1894 232 222 C226.2538 220.0846 206.0299 218.9739 203 218 C202.9393 217.9805 203.2234 213.604 204 213 C205.5178 211.8195 212 211 212 211 "/>
<path id="7" d="M44 182 C44 182 29.8128 181.8128 29 181 C28.492 180.492 29.4533 170.6657 31 169 C32.3633 167.5318 37.4366 166.7465 42 167 C45.0034 167.1669 48.28 169.0401 49 170 C49.3709 170.4945 48.5163 174.7132 48 175 C46.9067 175.6074 40 175 40 175 "/>
<path id="8" d="M58 148 C58 148 45.5998 142.1439 36 136 C34.2017 134.8491 33.4526 133.8106 33 132 C32.2376 128.9506 31.9348 126.8405 33 124 C34.3648 120.3605 35.6037 119.1699 39 116 C42.6822 112.5633 43.8523 111.4639 48 110 C50.9846 108.9466 52.7242 109.244 56 110 C58.3309 110.5379 59.5234 111.1953 61 113 C63.3474 115.869 64.5953 117.7622 65 121 C65.369 123.9521 63.8481 128.7274 63 129 C58.1169 130.5696 42.6489 130.807 37 130 C36.407 129.9153 35 125 35 125 "/>
<path id="9" d="M74 73 C74 73 67.503 74.7784 67 76 C65.8029 78.9073 65.5255 88.1323 67 90 C68.7738 92.2469 75.0622 94.3286 82 95 C89.0824 95.6854 92.5889 95.3527 98 93 C101.361 91.5387 104.0459 88.3393 105 85 C106.213 80.7543 105.9338 76.0611 104 72 C102.237 68.2977 99.0017 65.7785 95 64 C92.1315 62.7251 88.531 63.3097 86 64 C85.2075 64.2161 84 67 84 67 "/>
<path id="10" d="M149 49 C149 49 146.048 46.952 146 47 C145.2806 47.7194 142.2494 52.2524 141 57 C140.0063 60.776 140.0785 63.0051 141 66 C141.5356 67.7407 142.8982 69.0191 145 70 C149.4425 72.0732 150.6875 72.7204 156 73 C168.8303 73.6753 172.3587 74.3647 183 72 C187.1262 71.0831 189.4671 68.2927 192 65 C193.2315 63.3991 193.3871 60.0323 193 59 C192.7591 58.3577 190.7117 57 189 57 C179.5854 57 167 59 167 59 "/>
<path id="11" d="M204 281 C204 281 205.0278 288.7415 208 294 C210.9383 299.1986 216.9732 303.9832 217 304 C217.0073 304.0045 216 299 216 299 "/>
<path id="12" d="M214 279 C214 279 220.0111 289.5702 227 296 C231.2753 299.9333 232.9657 300.3028 239 302 C248.1893 304.5845 250.9992 301.6663 259 305 C266.9066 308.2944 275 317 275 317 "/>
<path id="13" d="M215 288 C215 288 219.4587 294.6052 225 299 C233.4394 305.6934 243.4454 310.7665 244 311 C244.0388 311.0164 244.6244 307.7805 244 307 C242.0644 304.5805 238.4215 304.3529 236 301 C232.7904 296.5559 231 289 231 289 "/>
</g>
</g>
</svg>
