<?xml version="1.0" encoding="utf-8"?>
<!DOCTYPE svg PUBLIC "-//W3C//DTD SVG 1.1//EN" "http://www.w3.org/Graphics/SVG/1.1/DTD/svg11.dtd">
<svg viewBox="0 0 800 800" preserveAspectRatio="xMinYMin meet" xmlns="http://www.w3.org/2000/svg" version="1.1">
<g fill="none" stroke="black" stroke-linecap="round" stroke-linejoin="round" stroke-width="2.1505">
<g transform="translate(87.52,210.9775) scale(1.395) translate(-80,-116.1333)">
<path id="0" d="M80 299.1333 C80 299.1333 84.0036 300.774 86 303.1333 C88.9099 306.5724 91 312.1333 91 312.1333 "/>
<path id="1" d="M95 319.1333 L103 329.1333 "/>
<path id="2" d="M105 332.1333 C105 332.1333 110.5687 338.9991 112 345.1333 C113.6628 352.2597 111.087 353.9161 112 362.1333 C113.0443 371.5321 116 381.1333 116 381.1333 "/>
<path id="3" d="M81 301.1333 C81 301.1333 108.4565 302.8701 134 300.1333 C149.3227 298.4916 150.0145 297.1285 165 292.1333 C178.2051 287.7316 180.0663 288.6221 191 281.1333 C215.0335 264.672 217.5935 263.6253 238 242.1333 C263.5309 215.2444 258.8578 206.0766 285 182.1333 C309.3089 159.8691 315.7254 155.3341 345 144.1333 C367.5024 135.5237 372.5824 139.8293 400 138.1333 C420.7968 136.8469 422.2339 141.5306 442 138.1333 C484.2529 130.8711 528 116.1333 528 116.1333 "/>
<path id="4" d="M121 387.1333 C121 387.1333 127.6245 384.2683 133 380.1333 C146.8193 369.5031 146.8835 369.0297 160 357.1333 C189.8404 330.0688 219 302.1333 219 302.1333 "/>
<path id="5" d="M225 302.1333 C225 302.1333 258.32 294.9812 289 285.1333 C297.7852 282.3134 297.2275 279.7286 306 276.1333 C327.4377 267.3474 328.6663 269.3405 350 260.1333 C375.8951 248.9576 376.8349 248.7919 401 235.1333 C410.6144 229.6991 411.5528 229.1646 419 221.1333 C436.3739 202.3968 436.6114 200.9079 452 180.1333 C456.2761 174.3606 459 167.1333 459 167.1333 "/>
<path id="6" d="M459 171.1333 L491 126.1333 "/>
<path id="7" d="M430 213.1333 L431 212.1333 "/>
<path id="8" d="M254 244.1333 L255 243.1333 "/>
<path id="9" d="M252 235.1333 L260 230.1333 "/>
<path id="10" d="M262 229.1333 C262 229.1333 263.0907 236.6797 262 242.1333 C261.3456 245.4055 257.9972 249.1312 258 249.1333 C258.0113 249.1418 266 245.1333 266 245.1333 "/>
<path id="11" d="M263 247.1333 C263 247.1333 264.4606 256.9429 265 257.1333 C266.3256 257.6012 280 253.1333 280 253.1333 "/>
<path id="12" d="M269 263.1333 C269 263.1333 268.9418 268.1236 269 268.1333 C269.8025 268.2671 281 265.1333 281 265.1333 "/>
<path id="13" d="M267 223.1333 L274 219.1333 "/>
<path id="14" d="M270 231.1333 C270 231.1333 269.8125 233.9458 270 234.1333 C270.1875 234.3208 271.7215 234.5371 273 234.1333 C280.6262 231.725 289 228.1333 289 228.1333 "/>
<path id="15" d="M280 244.1333 L283 242.1333 "/>
<path id="16" d="M284 251.1333 C284 251.1333 284.9557 259.089 285 259.1333 C285.0049 259.1383 288 255.1333 288 255.1333 "/>
<path id="17" d="M284 196.1333 L284 211.1333 "/>
<path id="18" d="M284 213.1333 L297 209.1333 "/>
<path id="19" d="M298 228.1333 L300 226.1333 "/>
<path id="20" d="M299 229.1333 L300 240.1333 "/>
<path id="21" d="M297 247.1333 L311 247.1333 "/>
<path id="22" d="M305 250.1333 C305 250.1333 304.7954 258.0404 305 258.1333 C305.5421 258.3797 316 255.1333 316 255.1333 "/>
<path id="23" d="M313 256.1333 C313 256.1333 324.2842 260.0737 325 260.1333 C325.0145 260.1345 325 257.1333 325 257.1333 "/>
<path id="24" d="M303 171.1333 C303 171.1333 301.6853 194.3467 302 195.1333 C302.0053 195.1467 311 191.1333 311 191.1333 "/>
<path id="25" d="M310 197.1333 C310 197.1333 311.782 213.8064 312 214.1333 C312.0119 214.1512 318 209.1333 318 209.1333 "/>
<path id="26" d="M318 210.1333 C318 210.1333 318.753 221.6394 319 222.1333 C319 222.1333 323 220.1333 323 220.1333 "/>
<path id="27" d="M325 220.1333 C325 220.1333 324.8499 231.8631 325 232.1333 C325.0028 232.1383 330 229.1333 330 229.1333 "/>
<path id="28" d="M332 232.1333 L332 239.1333 "/>
<path id="29" d="M333 242.1333 L348 237.1333 "/>
<path id="30" d="M322 160.1333 C322 160.1333 320.8472 171.7514 321 172.1333 C321 172.1333 326 170.1333 326 170.1333 "/>
<path id="31" d="M325 177.1333 L326 187.1333 "/>
<path id="32" d="M327 190.1333 C327 190.1333 331.2107 199.8298 332 200.1333 C332.5422 200.3419 340 195.1333 340 195.1333 "/>
<path id="33" d="M341 198.1333 C341 198.1333 340.8761 208.0094 341 208.1333 C341.0248 208.1581 347 204.1333 347 204.1333 "/>
<path id="34" d="M353 205.1333 L352 214.1333 "/>
<path id="35" d="M354 215.1333 C354 215.1333 353.8604 219.0635 354 219.1333 C354.384 219.3253 360 218.1333 360 218.1333 "/>
<path id="36" d="M362 217.1333 C362 217.1333 362.3886 225.5899 363 226.1333 C363.483 226.5627 371 225.1333 371 225.1333 "/>
<path id="37" d="M367 227.1333 C367 227.1333 367.8247 229.1333 368 229.1333 C369.2272 229.1333 375 227.1333 375 227.1333 "/>
<path id="38" d="M354 151.1333 C354 151.1333 354.6481 167.7111 355 168.1333 C355.0493 168.1925 364 163.1333 364 163.1333 "/>
<path id="39" d="M360 169.1333 C360 169.1333 362.7445 183.25 364 185.1333 C364.2018 185.436 370 184.1333 370 184.1333 "/>
<path id="40" d="M369 186.1333 C369 186.1333 373.0154 200.7549 374 202.1333 C374.0791 202.244 379 200.1333 379 200.1333 "/>
<path id="41" d="M391 211.1333 C391 211.1333 392.6792 218.9042 393 219.1333 C393.1188 219.2182 398 216.1333 398 216.1333 "/>
<path id="42" d="M376 149.1333 C376 149.1333 375.7418 158.0042 376 158.1333 C376.6024 158.4346 388 155.1333 388 155.1333 "/>
<path id="43" d="M390 164.1333 C390 164.1333 395.3295 186.205 396 187.1333 C396.0014 187.1352 403 182.1333 403 182.1333 "/>
<path id="44" d="M399 197.1333 L412 197.1333 "/>
<path id="45" d="M409 200.1333 C409 200.1333 409.7325 205.955 410 206.1333 C410.1962 206.2641 415 204.1333 415 204.1333 "/>
<path id="46" d="M416 210.1333 C416 210.1333 416 212.1333 416 212.1333 C416.0014 212.1333 417 210.1333 417 210.1333 "/>
<path id="47" d="M428 154.1333 C428 154.1333 423.9743 158.9793 424 159.1333 C424.0109 159.1985 428.5062 160.3802 429 160.1333 C429.3292 159.9687 430.0633 156.3865 430 156.1333 C429.9916 156.0996 428 156.1333 428 156.1333 "/>
<path id="48" d="M473 153.1333 C473 153.1333 487.6058 137.9027 503 128.1333 C512.0881 122.3659 515.1959 124.2184 525 120.1333 C526.0965 119.6765 527 118.1548 527 118.1333 C527 118.1333 525 118.1333 525 118.1333 "/>
<path id="49" d="M488 134.1333 C488 134.1333 497.595 134.1713 504 132.1333 C506.9225 131.2034 510 127.1333 510 127.1333 "/>
<path id="50" d="M93 309.1333 C93 309.1333 117.1067 310.9824 138 308.1333 C148.2257 306.7389 159 300.1333 159 300.1333 "/>
<path id="51" d="M98 317.1333 L165 302.1333 "/>
<path id="52" d="M103 327.1333 C103 327.1333 147.6764 320.6047 175 314.1333 C176.8867 313.6865 179 309.1333 179 309.1333 "/>
<path id="53" d="M107 335.1333 C107 335.1333 125.4918 332.0107 142 327.1333 C146.6291 325.7656 151 322.1333 151 322.1333 "/>
<path id="54" d="M115 341.1333 C115 341.1333 152.3126 336.1293 184 329.1333 C188.0263 328.2444 192 324.1333 192 324.1333 "/>
<path id="55" d="M119 347.1333 C119 347.1333 138.2787 347.2092 154 344.1333 C159.3781 343.0811 165 338.1333 165 338.1333 "/>
<path id="56" d="M152 326.1333 C152 326.1333 172.5894 323.0742 192 318.1333 C199.6316 316.1907 207 312.1333 207 312.1333 "/>
<path id="57" d="M115 354.1333 L147 349.1333 "/>
<path id="58" d="M121 360.1333 C121 360.1333 155.4467 355.183 171 352.1333 C171.4199 352.051 172 350.1333 172 350.1333 "/>
<path id="59" d="M121 372.1333 L143 369.1333 "/>
<path id="60" d="M123 381.1333 L146 380.1333 "/>
<path id="61" d="M174 299.1333 L188 292.1333 "/>
<path id="62" d="M174 306.1333 L201 302.1333 "/>
<path id="63" d="M187 315.1333 C187 315.1333 193.861 313.5207 200 311.1333 C202.6009 310.1219 204.9131 308.2492 205 308.1333 C205.0064 308.1248 203 307.1333 203 307.1333 "/>
<path id="64" d="M189 291.1333 C189 291.1333 201.3011 287.1328 207 284.1333 C207.6778 283.7766 208 281.1333 208 281.1333 "/>
<path id="65" d="M200 293.1333 C200 293.1333 214.4026 293.165 223 292.1333 C223.833 292.0334 225 290.1333 225 290.1333 "/>
<path id="66" d="M209 305.1333 C209 305.1333 219.8801 302.7442 221 302.1333 C221.0523 302.1048 220 299.1333 220 299.1333 "/>
<path id="67" d="M225 261.1333 C225 261.1333 222.9781 272.0456 223 272.1333 C223.0042 272.1501 227 269.1333 227 269.1333 "/>
<path id="68" d="M221 277.1333 C221 277.1333 220.7243 281.6738 221 282.1333 C221.0993 282.2988 224 282.1333 224 282.1333 "/>
<path id="69" d="M221 282.1333 C221 282.1333 220.8105 285.0386 221 285.1333 C222.0739 285.6703 228.0205 285.5211 229 286.1333 C229.2839 286.3108 228.8884 290.0999 229 290.1333 C229.902 290.4039 238.7041 289.2813 239 289.1333 C239.0141 289.1263 237 286.1333 237 286.1333 "/>
<path id="70" d="M238 250.1333 C238 250.1333 237.4808 258.3545 238 259.1333 C238.2308 259.4795 244 259.1333 244 259.1333 "/>
<path id="71" d="M239 269.1333 C239 269.1333 238.7577 274.891 239 275.1333 C239.1616 275.2949 244 274.1333 244 274.1333 "/>
<path id="72" d="M253 282.1333 C253 282.1333 252.9381 287.1196 253 287.1333 C253.4641 287.2365 262 284.1333 262 284.1333 "/>
<path id="73" d="M260 284.1333 C260 284.1333 260.6812 288.0464 261 288.1333 C262.4832 288.5378 271 287.1333 271 287.1333 "/>
<path id="74" d="M261 283.1333 L270 283.1333 "/>
<path id="75" d="M274 283.1333 L282 284.1333 "/>
<path id="76" d="M258 265.1333 C258 265.1333 257.9299 269.11 258 269.1333 C258.2805 269.2268 264 267.1333 264 267.1333 "/>
<path id="77" d="M281 273.1333 L290 271.1333 "/>
<path id="78" d="M300 266.1333 L305 268.1333 "/>
<path id="79" d="M425 154.1333 C425 154.1333 422.9191 160.0794 423 160.1333 C423.4451 160.43 432.6634 160.913 434 160.1333 C434.6177 159.773 435.6059 154.7994 435 153.1333 C434.4688 151.6726 431.9706 149.6708 430 149.1333 C428.1471 148.628 425.5678 149.0882 424 150.1333 C422.5106 151.1262 421 155.1333 421 155.1333 "/>
<path id="80" d="M480 146.1333 C480 146.1333 481.3977 140.9367 484 137.1333 C487.5826 131.8972 493 127.1333 493 127.1333 "/>
<path id="81" d="M489 140.1333 L495 125.1333 "/>
<path id="82" d="M492 136.1333 C492 136.1333 499.3469 134.0628 502 132.1333 C502.8034 131.549 503.0465 128.1612 503 128.1333 C502.8206 128.0257 498.7123 128.3995 497 129.1333 C496.5053 129.3453 495.9893 131.1333 496 131.1333 C496.0643 131.1333 501.9998 129.133 502 129.1333 C502.0003 129.1339 497 133.1333 497 133.1333 "/>
<path id="83" d="M496 134.1333 L495 135.1333 "/>
<path id="84" d="M497 132.1333 L491 137.1333 "/>
<path id="85" d="M472 139.1333 C472 139.1333 475.5963 139.899 477 139.1333 C479.6033 137.7133 483 133.1333 483 133.1333 "/>
</g>
</g>
</svg>
