<?xml version="1.0" encoding="utf-8"?>
<!DOCTYPE svg PUBLIC "-//W3C//DTD SVG 1.1//EN" "http://www.w3.org/Graphics/SVG/1.1/DTD/svg11.dtd">
<svg viewBox="0 0 800 800" preserveAspectRatio="xMinYMin meet" xmlns="http://www.w3.org/2000/svg" version="1.1">
<g fill="none" stroke="black" stroke-linecap="round" stroke-linejoin="round" stroke-width="1.6945">
<g transform="translate(87.52,184.8934) scale(1.7704) translate(-64,-169.1333)">
<path id="0" d="M89 265.1333 C89 265.1333 95.0158 265.0321 100 263.1333 C115.3966 257.2679 115.25 255.191 131 249.1333 C147.5492 242.7683 148.3456 240.152 165 238.1333 C195.6949 234.4127 199.9838 232.8453 230 237.1333 C256.1815 240.8735 257.9264 244.4365 284 255.1333 C315.9876 268.2564 316.1016 271.7719 347 285.1333 C351.8255 287.22 357.6567 287.6573 358 287.1333 C360.3893 283.4865 360.692 271.0463 366 256.1333 C381.5413 212.4698 399.9846 169.1209 400 169.1333 C400.0407 169.1661 398.4918 227.9491 402 285.1333 C403.4348 308.52 407.1492 308.5671 410 332.1333 C414.6265 370.379 416.6892 401.1562 417 409.1333 C417.0006 409.1494 413.2633 409.5901 413 409.1333 C404.2876 394.0147 391.3277 365.4875 383 350.1333 C382.88 349.9121 381.0111 350.0757 381 350.1333 C380.2346 354.1135 379.0451 372.2515 378 376.1333 C377.958 376.2893 374.9475 376.8282 374 376.1333 C369.4834 372.8212 367.333 371.117 363 365.1333 C357.2331 357.1696 353.0778 347.1034 353 347.1333 C352.3229 347.3938 345.8914 362.2562 337 375.1333 C331.7682 382.7104 330.9975 383.1725 324 389.1333 C317.9175 394.3147 317.2769 394.4949 310 398.1333 C299.5763 403.3452 298.9611 405.0596 288 407.1333 C263.5156 411.7655 261.9403 410.9434 236 412.1333 C207.6903 413.4319 205.261 416.1123 179 412.1333 C158.6027 409.0428 157.0191 406.0307 137 397.1333 C121.5515 390.2673 121.006 389.7041 107 380.1333 C91.3842 369.4625 90.9677 368.7043 77 356.1333 C71.3696 351.066 70.7954 350.2644 67 344.1333 C64.7347 340.4739 64.2553 339.4741 64 335.1333 C62.8313 315.2659 60.03 306.4445 64 293.1333 C65.8971 286.7724 74.6303 285.9507 81 278.1333 C84.5487 273.7781 86 266.1333 86 266.1333 "/>
<path id="1" d="M122 269.1333 C122 269.1333 117.9578 271.2177 117 273.1333 C115.7475 275.6384 115.535 280.7106 116 281.1333 C117.0244 282.0646 124.9062 283.8613 128 283.1333 C129.7205 282.7285 132.1585 279.826 133 277.1333 C134.1127 273.5728 133.6222 267.6989 133 267.1333 C132.2472 266.4489 123.1136 266.191 122 267.1333 C120.8552 268.102 119.5672 274.8873 120 278.1333 C120.1828 279.5043 122.2515 281.2591 124 282.1333 C125.1657 282.7162 127.8967 282.271 128 282.1333 C128.1119 281.9842 127 278.1333 127 278.1333 "/>
<path id="2" d="M156 329.1333 C156 329.1333 158.9568 336.4616 161 338.1333 C161.9916 338.9446 165.8293 339.0699 167 338.1333 C170.6293 335.2299 172.4424 329.1827 176 326.1333 C176.9224 325.3427 180.071 325.2928 181 326.1333 C187.1668 331.7129 195.918 345.0947 197 345.1333 C197.7368 345.1596 204.468 331.6654 209 327.1333 C209.9064 326.2269 213.3056 326.221 215 327.1333 C218.0412 328.7709 218.3154 331.6769 222 334.1333 C225.1582 336.2388 228.9602 337.8017 230 337.1333 C235.737 333.4452 242.2437 322.9201 250 316.1333 C250.8085 315.4259 253.2818 315.4399 254 316.1333 C263.3433 325.1545 277.3224 344.1333 279 344.1333 C280.2079 344.1333 297 316.1333 297 316.1333 "/>
<path id="3" d="M382 284.1333 L408 281.1333 "/>
<path id="4" d="M375 300.1333 L392 300.1333 "/>
<path id="5" d="M377 320.1333 L408 320.1333 "/>
<path id="6" d="M64 297.1333 C64 297.1333 71.027 304.0658 77 306.1333 C81.8183 307.8012 87.567 307.6699 90 306.1333 C92.5413 304.5283 94.7789 299.8317 96 294.1333 C97.4706 287.2707 96.9229 285.5167 96 278.1333 C95.5169 274.2686 93 270.1333 93 270.1333 "/>
</g>
</g>
</svg>
