<?xml version="1.0" encoding="utf-8"?>
<!DOCTYPE svg PUBLIC "-//W3C//DTD SVG 1.1//EN" "http://www.w3.org/Graphics/SVG/1.1/DTD/svg11.dtd">
<svg viewBox="0 0 800 800" preserveAspectRatio="xMinYMin meet" xmlns="http://www.w3.org/2000/svg" version="1.1">
<g fill="none" stroke="black" stroke-linecap="round" stroke-linejoin="round" stroke-width="2.9522">
<g transform="translate(87.52,280.5971) scale(1.0162) translate(0,-49)">
<path id="0" d="M256 122 C256 122 311.0622 120.2734 364 125 C393.861 127.6662 394.0635 132.4934 424 137 C440.1297 139.4281 440.7887 136.8855 457 139 C474.9914 141.3467 475.1927 141.7955 493 146 C547.0919 158.7717 601 173 601 173 "/>
<path id="1" d="M333 206 C333 206 336.1378 204.0447 339 204 C396.8957 203.0954 400.0448 204.9714 461 204 C525.4845 202.9724 528.6503 204.8434 590 200 C601.2112 199.1149 608.6758 195.9782 613 192 C615.2504 189.9296 615.4495 181.0456 615 177 C614.8952 176.057 612.9065 174.4766 611 174 C606.0832 172.7708 599 173 599 173 "/>
<path id="2" d="M499 184 C499 184 507.1582 180.4021 515 180 C545.0024 178.4614 577 180 577 180 "/>
<path id="3" d="M605 173 C605 173 601.8743 175.2515 601 177 C600.4172 178.1657 600.7561 180.8049 601 181 C601.3811 181.3049 605.2217 181.556 606 181 C606.8673 180.3805 608.0838 176.5029 608 176 C607.9731 175.8384 605 175 605 175 "/>
<path id="4" d="M465 154 C465 154 458.8859 153.311 458 154 C457.0579 154.7328 455.9954 160.9987 456 161 C458.0787 161.5734 485.2201 162.3683 487 162 C487.0319 161.9934 485.8331 155.324 485 155 C482.1771 153.9022 469 155 469 155 "/>
<path id="5" d="M353 204 C353 204 329.2521 203.0091 327 204 C326.6674 204.1464 329.5107 213.1872 328 215 C320.4466 224.0641 311.467 226.9797 297 240 C291.8892 244.5997 292.3047 249.1738 288 251 C280.0396 254.3771 275.2939 250.9883 264 254 C246.0269 258.7928 246.239 261.7048 228 267 C199.9981 275.1296 199.5151 274.9405 171 281 C159.7615 283.3882 148.6308 284.2324 148 284 C147.9909 283.9966 149.0044 276.7959 152 274 C161.6157 265.0253 164.8596 264.2597 178 256 C182.0548 253.4513 182.4466 253.0714 187 252 C198.8819 249.2043 200.9017 251.917 212 248 C225.0015 243.4112 228.7708 242.5853 238 234 C247.7408 224.9388 255.1475 208.3687 255 208 C254.9247 207.8118 241.2301 207.5925 228 209 C218.0307 210.0606 217.6156 210.1857 208 213 C197.3984 216.1029 196.8486 220.6241 187 221 C136.2046 222.9388 108.3213 215.1048 77 218 C74.0615 218.2716 71.6172 224.7656 68 232 C64.285 239.4299 65.8485 242.7083 62 248 C59.4916 251.4491 57.1953 251.8894 52 254 C41.6224 258.2159 30.9844 261.6694 30 261 C28.8968 260.2498 24.6934 239.3066 27 237 C35.6771 228.3229 68.1371 220.177 80 211 C81.8828 209.5435 81.9485 197.5516 80 196 C67.5539 186.0892 48.1561 182.9979 26 168 C19.37 163.512 15 152 15 152 "/>
<path id="6" d="M17 77 C17 77 35.1444 107.252 54 132 C57.7128 136.8731 59.2879 137.824 65 140 C78.8447 145.2742 80.5268 145.3322 96 148 C109.0673 150.253 109.5783 150 123 150 C152.3289 150 155.0744 152.1671 182 148 C194.1224 146.1239 194.2571 141.1169 207 137 C226.2929 130.7669 226.9146 131.1271 247 127 C263.2515 123.6606 280 122 280 122 "/>
<path id="7" d="M17 79 C17 79 16.0403 84.8415 17 90 C19.9217 105.7044 20.107 106.4577 25 122 C28.5201 133.1815 34.0705 143.9237 34 144 C33.9466 144.0579 13.8811 134.2744 13 135 C10.1812 137.3213 -0.085181 171.7634 0 172 C0.010753 172.0299 22 160 22 160 "/>
<path id="8" d="M330 128 C330 128 320.5583 117.9188 310 110 C298.8901 101.6676 295.8896 103.9739 286 95 C269.9994 80.4809 271.8428 75.2896 256 61 C247.6895 53.5042 235.45 49.09 235 49 C234.95 48.99 234.6985 53.5835 236 57 C238.4329 63.3865 238.6445 64.4195 243 70 C254.2081 84.3603 259.8231 85.4202 268 98 C270.3376 101.5963 267.7726 104.7836 269 110 C269.5724 112.4327 271.6363 112.6967 272 115 C272.9302 120.8911 273.53 124.4101 272 129 C270.98 132.0599 265 136 265 136 "/>
</g>
</g>
</svg>
