<?xml version="1.0" encoding="utf-8"?>
<!DOCTYPE svg PUBLIC "-//W3C//DTD SVG 1.1//EN" "http://www.w3.org/Graphics/SVG/1.1/DTD/svg11.dtd">
<svg viewBox="0 0 800 800" preserveAspectRatio="xMinYMin meet" xmlns="http://www.w3.org/2000/svg" version="1.1">
<g fill="none" stroke="black" stroke-linecap="round" stroke-linejoin="round" stroke-width="2.2513">
<g transform="translate(87.52,213.4448) scale(1.3325) translate(-156,-27.9333)">
<path id="0" d="M218 130.9333 C218 130.9333 214.078 125.2008 211 123.9333 C207.8853 122.6508 202.2482 122.6257 201 123.9333 C196.7503 128.3854 191.0793 137.9467 190 145.9333 C189.348 150.7584 192.4719 155.3472 196 160.9333 C197.4626 163.2491 199.5368 164.7439 202 164.9333 C209.7501 165.5295 215.6309 165.5281 222 162.9333 C225.2639 161.6036 226.9774 158.4279 229 153.9333 C230.9809 149.5312 231.9449 146.2405 231 142.9333 C229.8868 139.0373 223 132.9333 223 132.9333 "/>
<path id="1" d="M188 143.9333 C188 143.9333 188.7022 146.7396 188 147.9333 C184.6853 153.5683 179.2505 155.0217 178 160.9333 C174.7559 176.2691 175.0055 196.5513 177 199.9333 C177.735 201.1796 189.7468 201.1837 201 199.9333 C206.835 199.285 212.6493 195.6366 213 195.9333 C213.5574 196.405 213.4596 208.9068 214 210.9333 C214.0283 211.0395 216.2302 211.4994 217 210.9333 C229.6719 201.6158 248 185.9333 248 185.9333 "/>
<path id="2" d="M200 129.9333 C200 129.9333 194.4497 125.4367 189 123.9333 C181.0111 121.7295 179.0065 121.6254 171 121.9333 C167.3747 122.0728 165.7107 122.8482 163 124.9333 C160.269 127.0341 159.2216 128.4429 158 131.9333 C156.0873 137.3983 155.5101 139.5448 156 144.9333 C156.3578 148.8697 157.3634 150.2827 160 153.9333 C163.4374 158.6928 165.0432 161.2376 169 162.9333 C172.693 164.5161 181 162.9333 181 162.9333 "/>
<path id="3" d="M171 146.9333 C171 146.9333 173 147.9465 173 147.9333 C173 147.8413 171.0004 140.9333 171 140.9333 C171 140.9333 171 147.9333 171 147.9333 "/>
<path id="4" d="M209 153.9333 L210 147.9333 "/>
<path id="5" d="M214 123.9333 C214 123.9333 226.4079 112.3101 238 104.9333 C241.2995 102.8336 242.6585 102.9333 247 102.9333 C266.7779 102.9333 267.5997 104.9333 288 104.9333 C307.9028 104.9333 311.9353 107.6292 328 102.9333 C339.8628 99.4658 341.1661 95.1106 353 85.9333 C365.4854 76.2508 367.8469 76.4334 377 64.9333 C386.1159 53.4801 383.5214 46.4397 392 36.9333 C397.1337 31.1774 409.998 27.9275 410 27.9333 C410.0106 27.9652 396.2406 48.051 396 48.9333 C395.9885 48.9754 403.8605 49.5148 404 49.9333 C404.6214 51.7976 401.6407 65.4063 402 66.9333 C402.0307 67.0638 407.8015 66.6025 408 66.9333 C408.5515 67.8525 408.2074 71.9547 408 76.9333 C407.7087 83.9242 409.1277 85.1582 407 90.9333 C402.7369 102.5047 393.7415 114.5932 394 114.9333 C394.4636 115.5433 411.5708 112.8583 426 115.9333 C440.1355 118.9458 441.8859 120.4396 455 127.9333 C469.0546 135.9645 468.8075 139.397 482 147.9333 C484.7395 149.706 486.0751 148.2619 489 149.9333 C499.4169 155.8859 499.2923 158.4348 510 163.9333 C517.0529 167.5551 518.3379 168.0046 526 168.9333 C533.7879 169.8773 536.0809 169.6631 543 167.9333 C546.3091 167.106 547.6246 165.9026 550 162.9333 C554.9749 156.7147 553.7179 154.643 559 147.9333 C571.9254 131.5146 572.0605 130.2982 587 115.9333 C597.5007 105.8365 599.8282 103.998 611 97.9333 C614.8184 95.8605 621.9628 96.8366 622 96.9333 C622.1347 97.2836 617.3458 104.2046 616 110.9333 C614.5834 118.0163 617.9613 120.8532 616 126.9333 C613.7658 133.8593 609.539 137.8499 606 141.9333 C605.6112 142.3819 603 141.9333 603 141.9333 C603.0002 141.9334 616.9225 143.6698 617 143.9333 C617.1565 144.4655 609.0305 153.5747 608 158.9333 C607.3699 162.2101 612.8319 168.6856 612 169.9333 C608.5062 175.174 596.7761 179.2494 588 188.9333 C584.2244 193.0995 583.4761 196.6962 583 201.9333 C582.6912 205.3304 583.6787 208.9834 586 210.9333 C593.052 216.857 604.7113 218.9869 608 222.9333 C609.1203 224.2777 605.5635 232.8962 606 234.9333 C606.1159 235.4741 609.3764 235.3999 611 236.9333 C617.4029 242.9805 624 249.939 624 251.9333 C624 253.5288 615.2909 258.4164 611 263.9333 C609.6847 265.6245 610 267.0302 610 269.9333 C610 275.2558 609.196 276.3631 611 280.9333 C616.1497 293.9791 625.1888 307.409 625 307.9333 C624.946 308.0833 607.8191 310.1937 602 305.9333 C587.3589 295.2139 584.7363 286.9064 569 266.9333 C558.8392 254.037 560.3735 252.2694 550 239.9333 C542.2432 230.709 541.1733 228.5392 532 222.9333 C525.1963 218.7755 521.6025 220.8295 514 217.9333 C512.4177 217.3305 512.2658 215.0823 511 214.9333 C492.746 212.7858 465.3685 209.5648 463 211.9333 C460.421 214.5124 465.1916 249.3028 464 261.9333 C463.9149 262.8359 458.2435 265.1769 458 264.9333 C454.0225 260.9558 446.5235 250.6855 438 235.9333 C433.9087 228.8523 435.9893 226.6653 432 219.9333 C428.5471 214.1066 427.4733 212.5193 422 208.9333 C414.2891 203.8814 411.8705 201.716 403 200.9333 C381.0224 198.9941 356.7343 199.5294 354 202.9333 C350.0996 207.789 354.4093 260.5962 354 261.9333 C353.9625 262.0559 344.6081 258.0806 339 251.9333 C319.8786 230.9733 322.0982 223.1304 302 204.9333 C288.0777 192.328 282.0602 192.0417 265 184.9333 C260.8604 183.2085 254 184.9333 254 184.9333 "/>
<path id="6" d="M304 149.9333 C304 149.9333 318.9584 149.5124 333 146.9333 C343.0269 145.0917 343.5171 144.669 353 140.9333 C359.6817 138.3011 359.8833 135.1227 366 133.9333 C375.7961 132.0285 388.0391 133.3265 389 133.9333 C389.1495 134.0278 384.6454 145.4821 385 145.9333 C385.5519 146.6357 399.2526 147.5884 400 147.9333 C400.0072 147.9367 399.1944 150.9095 398 151.9333 C396.5227 153.1996 393.8228 153.1105 393 153.9333 C392.6474 154.286 392.6169 156.4544 393 156.9333 C393.6641 157.7634 395.8855 157.596 397 158.9333 C400.1344 162.6946 403.0862 168.9054 403 168.9333 C401.6346 169.3762 381.2646 171.4222 360 170.9333 C338.1721 170.4315 316 166.9333 316 166.9333 "/>
</g>
</g>
</svg>
