<?xml version="1.0" encoding="utf-8"?>
<!DOCTYPE svg PUBLIC "-//W3C//DTD SVG 1.1//EN" "http://www.w3.org/Graphics/SVG/1.1/DTD/svg11.dtd">
<svg viewBox="0 0 800 800" preserveAspectRatio="xMinYMin meet" xmlns="http://www.w3.org/2000/svg" version="1.1">
<g fill="none" stroke="black" stroke-linecap="round" stroke-linejoin="round" stroke-width="1.5889">
<g transform="translate(87.52,284.8261) scale(1.8881) translate(-80,-165.1333)">
<path id="0" d="M84 205.1333 C84 205.1333 87.0181 199.7171 91 196.1333 C96.5642 191.1256 97.2515 189.5435 104 187.1333 C123.5319 180.1577 125.8681 177.8943 147 176.1333 C189.8252 172.5646 196.5901 168.8736 236 176.1333 C266.1809 181.693 269.5893 188.402 299 204.1333 C311.3063 210.7158 311.3039 212.4808 322 222.1333 C331.5793 230.7781 340 241.1333 340 241.1333 "/>
<path id="1" d="M85 203.1333 C85 203.1333 80.7037 206.4593 80 209.1333 C78.7496 213.885 78.6766 216.6191 80 222.1333 C81.3682 227.8342 81.9717 229.9661 86 234.1333 C95.1052 243.5525 97.0389 245.2621 109 252.1333 C119.465 258.1451 121.0022 258.3103 133 261.1333 C145.7273 264.128 146.5468 263.8377 160 264.1333 C237.0539 265.8268 246.5888 268.6718 315 265.1333 C323.6171 264.6876 325.3333 260.8115 334 255.1333 C339.3919 251.6007 341.0319 249.695 344 246.1333 C344.5137 245.5169 344 243.1333 344 243.1333 "/>
<path id="2" d="M340 240.1333 C340 240.1333 350.0736 222.0597 363 209.1333 C375.9264 196.207 380.3704 193.5971 394 186.1333 C397.439 184.2501 404.4874 185.4072 405 186.1333 C406.1688 187.7891 408.2212 198.2745 406 203.1333 C402.5398 210.7026 398.0191 213.5689 389 221.1333 C383.1806 226.0141 375 229.1333 375 229.1333 "/>
<path id="3" d="M345 245.1333 C345 245.1333 352.4391 254.5508 361 262.1333 C369.6554 269.7996 370.176 271.1015 380 276.1333 C389.6043 281.0526 391.3036 280.718 402 283.1333 C406.0825 284.0552 410.8803 283.4626 411 283.1333 C411.7915 280.9566 412.221 269.7398 410 261.1333 C408.9217 256.9548 407.0455 255.8417 403 252.1333 C389.4706 239.7314 374 228.1333 374 228.1333 "/>
<path id="4" d="M143 177.1333 C143 177.1333 144.4043 197.536 144 216.1333 C143.9269 219.4939 143.6466 220.1694 142 223.1333 C136.4737 233.0807 136.3367 235.7966 129 243.1333 C123.4419 248.6915 113 252.1333 113 252.1333 "/>
<path id="5" d="M82 220.1333 C82 220.1333 88.2001 222.1333 94 222.1333 C104.1498 222.1333 115 220.1333 115 220.1333 "/>
<path id="6" d="M120 197.1333 C120 197.1333 124.9259 195.0592 125 195.1333 C125.1729 195.3062 125.3769 201.4737 125 202.1333 C124.8769 202.3487 122.5515 202.5766 121 202.1333 C119.6147 201.7375 118.2719 200.9491 118 200.1333 C117.3655 198.2299 118 193.1333 118 193.1333 "/>
<path id="7" d="M117 192.1333 L131 192.1333 "/>
<path id="8" d="M159 178.1333 C159 178.1333 159.9903 183.3604 159 186.1333 C158.0362 188.832 154 192.1333 154 192.1333 "/>
<path id="9" d="M163 195.1333 C163 195.1333 161.4691 203.8865 159 209.1333 C158.241 210.7462 155 212.1333 155 212.1333 "/>
<path id="10" d="M165 219.1333 C165 219.1333 162.1337 229.8199 158 237.1333 C156.4202 239.9284 152 242.1333 152 242.1333 "/>
<path id="11" d="M146 235.1333 C146 235.1333 144.2972 243.0608 141 248.1333 C138.5246 251.9417 133 255.1333 133 255.1333 "/>
<path id="12" d="M158 245.1333 L153 260.1333 "/>
<path id="13" d="M170 183.1333 L171 195.1333 "/>
<path id="14" d="M180 184.1333 L181 214.1333 "/>
<path id="15" d="M173 216.1333 L172 239.1333 "/>
<path id="16" d="M178 229.1333 C178 229.1333 178.1969 241.2828 175 248.1333 C172.4717 253.5511 164 259.1333 164 259.1333 "/>
<path id="17" d="M193 178.1333 C193 178.1333 195 180.4731 195 182.1333 C195 187.944 193 196.1333 193 196.1333 "/>
<path id="18" d="M219 180.1333 C219 180.1333 219.5516 190.4445 218 199.1333 C217.2141 203.5344 214 208.1333 214 208.1333 "/>
<path id="19" d="M203 187.1333 C203 187.1333 204.2335 194.7059 203 200.1333 C202.0382 204.3652 198 209.1333 198 209.1333 "/>
<path id="20" d="M188 211.1333 C188 211.1333 189.9567 224.8852 189 234.1333 C188.732 236.7239 185 240.1333 185 240.1333 "/>
<path id="21" d="M203 220.1333 C203 220.1333 204.0554 227.8009 203 234.1333 C202.1959 238.958 199 244.1333 199 244.1333 "/>
<path id="22" d="M189 242.1333 C189 242.1333 188.776 247.8033 187 251.1333 C185.3769 254.1766 181 257.1333 181 257.1333 "/>
<path id="23" d="M181 257.1333 L180 255.1333 "/>
<path id="24" d="M230 177.1333 C230 177.1333 233.6851 182.8738 235 188.1333 C235.966 191.9975 235.6903 194.6024 235 197.1333 C234.7839 197.9259 232 199.1333 232 199.1333 "/>
<path id="25" d="M221 205.1333 C221 205.1333 221.9969 217.1579 221 225.1333 C220.7819 226.8779 218 229.1333 218 229.1333 "/>
<path id="26" d="M210 223.1333 C210 223.1333 211.0083 233.7308 210 242.1333 C209.6625 244.946 207 248.1333 207 248.1333 "/>
<path id="27" d="M199 247.1333 L196 254.1333 "/>
<path id="28" d="M253 189.1333 C253 189.1333 254.1239 198.1132 252 203.1333 C249.6099 208.7827 242 215.1333 242 215.1333 "/>
<path id="29" d="M236 209.1333 C236 209.1333 237.7349 220.6895 236 227.1333 C235.0473 230.6719 229 235.1333 229 235.1333 "/>
<path id="30" d="M222 238.1333 C222 238.1333 220.9037 249.0995 218 258.1333 C216.6894 262.2107 214.295 265.0002 213 266.1333 C212.7707 266.334 210 265.1333 210 265.1333 "/>
<path id="31" d="M209 254.1333 L200 262.1333 "/>
<path id="32" d="M277 197.1333 C277 197.1333 274.6548 205.7375 271 212.1333 C269.1301 215.4056 265 218.1333 265 218.1333 "/>
<path id="33" d="M268 195.1333 C268 195.1333 260.0102 210.0201 253 219.1333 C251.8468 220.6325 248 221.1333 248 221.1333 "/>
<path id="34" d="M245 232.1333 C245 232.1333 245.2159 236.4988 244 239.1333 C242.6462 242.0666 239 245.1333 239 245.1333 "/>
<path id="35" d="M229 250.1333 C229 250.1333 229.6067 255.92 228 259.1333 C225.3786 264.3762 219 270.1333 219 270.1333 "/>
<path id="36" d="M254 239.1333 L253 239.1333 "/>
<path id="37" d="M260 222.1333 C260 222.1333 261.292 229.1806 260 234.1333 C258.6471 239.3193 254 245.1333 254 245.1333 "/>
<path id="38" d="M272 236.1333 C272 236.1333 273.8279 245.1014 272 251.1333 C269.4373 259.5903 262 269.1333 262 269.1333 "/>
<path id="39" d="M244 250.1333 C244 250.1333 243.9388 254.6313 243 256.1333 C242.3623 257.1536 239 258.1333 239 258.1333 "/>
<path id="40" d="M262 251.1333 L253 263.1333 "/>
<path id="41" d="M290 205.1333 C290 205.1333 289.8637 215.2241 287 220.1333 C284.3642 224.6518 276 229.1333 276 229.1333 "/>
<path id="42" d="M292 226.1333 C292 226.1333 293.6342 229.9802 293 231.1333 C289.9216 236.7304 281 246.1333 281 246.1333 "/>
<path id="43" d="M309 227.1333 C309 227.1333 309.8206 233.6321 308 237.1333 C304.3241 244.2024 296 252.1333 296 252.1333 "/>
<path id="44" d="M285 248.1333 L279 267.1333 "/>
<path id="45" d="M326 240.1333 C326 240.1333 325.2701 249.132 322 254.1333 C317.9654 260.3039 311.8112 264.3763 309 266.1333 C308.76 266.2833 306 264.1333 306 264.1333 "/>
<path id="46" d="M321 223.1333 C321 223.1333 321.6557 227.1662 321 229.1333 C320.5629 230.4447 318 232.1333 318 232.1333 "/>
<path id="47" d="M306 243.1333 L305 263.1333 "/>
<path id="48" d="M297 210.1333 L298 223.1333 "/>
<path id="49" d="M399 196.1333 L399 198.1333 "/>
<path id="50" d="M395 198.1333 L393 200.1333 "/>
<path id="51" d="M389 199.1333 C389 199.1333 389.423 201.6257 389 202.1333 C387.9895 203.346 384 205.1333 384 205.1333 "/>
<path id="52" d="M383 205.1333 C383 205.1333 381.846 207.7103 381 208.1333 C380.0332 208.6167 377 208.1333 377 208.1333 "/>
<path id="53" d="M372 210.1333 C372 210.1333 371.1243 214.5593 370 216.1333 C369.5243 216.7993 367 217.1333 367 217.1333 "/>
<path id="54" d="M364 220.1333 C364 220.1333 363.3876 226.151 362 228.1333 C361.1881 229.2932 357 230.1333 357 230.1333 "/>
<path id="55" d="M353 234.1333 L352 240.1333 "/>
<path id="56" d="M364 235.1333 L365 240.1333 "/>
<path id="57" d="M369 237.1333 L376 246.1333 "/>
<path id="58" d="M379 245.1333 L384 253.1333 "/>
<path id="59" d="M389 250.1333 L392 261.1333 "/>
<path id="60" d="M396 261.1333 L404 271.1333 "/>
<path id="61" d="M369 247.1333 L368 252.1333 "/>
<path id="62" d="M370 253.1333 L374 260.1333 "/>
<path id="63" d="M375 260.1333 L379 268.1333 "/>
<path id="64" d="M385 274.1333 L388 277.1333 "/>
<path id="65" d="M388 277.1333 L389 277.1333 "/>
<path id="66" d="M392 276.1333 L393 278.1333 "/>
<path id="67" d="M383 221.1333 L383 224.1333 "/>
<path id="68" d="M388 213.1333 L388 215.1333 "/>
<path id="69" d="M392 205.1333 L393 207.1333 "/>
<path id="70" d="M401 200.1333 L402 203.1333 "/>
<path id="71" d="M386 192.1333 L387 194.1333 "/>
<path id="72" d="M397 193.1333 L397 194.1333 "/>
<path id="73" d="M400 196.1333 L401 198.1333 "/>
<path id="74" d="M357 217.1333 L360 220.1333 "/>
<path id="75" d="M360 220.1333 L361 221.1333 "/>
<path id="76" d="M370 220.1333 L371 225.1333 "/>
<path id="77" d="M360 243.1333 L365 253.1333 "/>
<path id="78" d="M370 262.1333 L373 269.1333 "/>
<path id="79" d="M377 252.1333 L386 263.1333 "/>
<path id="80" d="M388 260.1333 L390 265.1333 "/>
<path id="81" d="M393 268.1333 L395 272.1333 "/>
<path id="82" d="M400 274.1333 L402 278.1333 "/>
<path id="83" d="M174 172.1333 C174 172.1333 188.7166 166.338 203 165.1333 C229.0661 162.935 230.5717 163.9843 257 165.1333 C264.405 165.4553 264.8278 165.9817 272 168.1333 C279.5781 170.4068 284.8289 170.9974 287 174.1333 C289.9253 178.3588 290.3537 191.6572 290 194.1333 C289.9664 194.3683 284 195.1333 284 195.1333 "/>
<path id="84" d="M146 265.1333 C146 265.1333 154.1652 277.9774 162 284.1333 C165.6369 286.9909 168.1238 286.8662 174 287.1333 C200.1458 288.3218 203.9028 290.1042 228 287.1333 C236.9738 286.027 238.4143 283.53 247 278.1333 C255.4166 272.8429 263 265.1333 263 265.1333 "/>
<path id="85" d="M165 272.1333 C165 272.1333 168.3397 276.69 171 277.1333 C182.7441 279.0907 201 278.1333 201 278.1333 "/>
<path id="86" d="M176 266.1333 L197 271.1333 "/>
<path id="87" d="M204 273.1333 C204 273.1333 208.2626 275.7936 212 276.1333 C218.2837 276.7046 226 275.1333 226 275.1333 "/>
<path id="88" d="M210 283.1333 C210 283.1333 222.6812 283.9311 228 283.1333 C228.7239 283.0247 230 280.1333 230 280.1333 "/>
<path id="89" d="M234 273.1333 L255 273.1333 "/>
<path id="90" d="M222 169.1333 C222 169.1333 228.1575 168.1648 233 169.1333 C237.3142 169.9962 242 173.1333 242 173.1333 "/>
<path id="91" d="M257 172.1333 C257 172.1333 259.8355 171.8592 260 172.1333 C261.0784 173.9307 263 182.1333 263 182.1333 "/>
<path id="92" d="M276 174.1333 L278 190.1333 "/>
<path id="93" d="M268 176.1333 L269 178.1333 "/>
<path id="94" d="M250 169.1333 L252 180.1333 "/>
<path id="95" d="M284 179.1333 L286 193.1333 "/>
<path id="96" d="M202 170.1333 L218 170.1333 "/>
<path id="97" d="M270 269.1333 C270 269.1333 284.4751 270.7797 289 270.1333 C289.617 270.0452 291 266.1333 291 266.1333 "/>
<path id="98" d="M295 197.1333 C295 197.1333 301.4167 198.8835 302 200.1333 C303.1169 202.5266 302 212.1333 302 212.1333 "/>
<path id="99" d="M299 198.1333 L290 198.1333 "/>
</g>
</g>
</svg>
