<?xml version="1.0" encoding="utf-8"?>
<!DOCTYPE svg PUBLIC "-//W3C//DTD SVG 1.1//EN" "http://www.w3.org/Graphics/SVG/1.1/DTD/svg11.dtd">
<svg viewBox="0 0 800 800" preserveAspectRatio="xMinYMin meet" xmlns="http://www.w3.org/2000/svg" version="1.1">
<g fill="none" stroke="black" stroke-linecap="round" stroke-linejoin="round" stroke-width="1.4065">
<g transform="translate(87.52,180.3042) scale(2.133) translate(-219,-96.1333)">
<path id="0" d="M268 172.1333 C268 172.1333 264.5622 167.4796 262 167.1333 C250.1017 165.5255 239.7136 163.8911 231 167.1333 C225.9536 169.0111 221.4992 175.8439 219 183.1333 C216.6392 190.0189 217.2467 194.1184 219 202.1333 C220.3409 208.2631 221.5942 210.3444 226 215.1333 C232.0557 221.7156 233.7173 223.295 242 227.1333 C252.85 232.1614 267 234.1333 267 234.1333 "/>
<path id="1" d="M268 172.1333 C268 172.1333 277.7731 164.4864 288 161.1333 C307.0404 154.8906 308.8338 153.8681 329 152.1333 C354.0611 149.9775 357.9811 148.1499 381 153.1333 C402.7463 157.8413 403.9975 166.7642 426 173.1333 C439.6803 177.0934 442.1108 175.1333 457 175.1333 C461.3227 175.1333 463.3512 175.2524 466 173.1333 C473.5967 167.056 473.7887 160.0601 482 155.1333 C490.4564 150.0595 499.0678 149.3724 506 149.1333 C507.3825 149.0857 510.1166 151.7777 511 154.1333 C512.4616 158.0309 512.9173 160.5468 512 165.1333 C510.709 171.5884 509.7302 172.8385 506 179.1333 C501.9786 185.9195 501.6329 188.4796 496 192.1333 C485.5684 198.8997 468.9828 203.0368 469 203.1333 C469.0634 203.4883 490.4646 211.2614 501 220.1333 C505.2381 223.7023 505.502 227.893 507 235.1333 C508.2913 241.3745 508.8269 244.5661 507 249.1333 C505.0426 254.0267 501.3482 258.2201 497 260.1333 C492.6049 262.0672 488.335 261.2851 482 260.1333 C478.7365 259.54 477.0197 258.7421 475 256.1333 C466.3887 245.0104 464.3642 235.7423 458 229.1333 C456.7283 227.8127 452.6624 227.9614 449 229.1333 C441.4473 231.5502 441.1642 234.7583 433 237.1333 C414.59 242.489 413.2851 243.768 394 245.1333 C357.9316 247.6868 355.3725 247.9076 320 245.1333 C306.3159 244.0601 306.0393 240.0471 292 237.1333 C279.8719 234.6162 267 234.1333 267 234.1333 "/>
<path id="2" d="M336 245.1333 C336 245.1333 332.0267 259.0806 335 265.1333 C342.8101 281.0325 362.258 302.1333 364 302.1333 C365.5017 302.1333 380.9991 281.7752 389 265.1333 C391.4483 260.0409 390.3984 256.6593 389 250.1333 C387.6682 243.9182 383 237.1333 383 237.1333 "/>
<path id="3" d="M325 149.1333 C325 149.1333 326.8212 150.2406 327 150.1333 C327.6898 149.7195 329.1319 148.2416 330 146.1333 C332.4287 140.235 331.2667 139.1467 334 133.1333 C338.6114 122.9882 338.259 120.9616 345 113.1333 C352.5987 104.3091 355.6729 103.0059 365 97.1333 C367.3662 95.6435 371.5767 95.5472 372 96.1333 C377.2946 103.4643 382.8924 114.7071 391 133.1333 C393.5595 138.9504 393.5654 139.8313 394 146.1333 C394.5243 153.7353 393 162.1333 393 162.1333 "/>
<path id="4" d="M249 187.1333 L250 185.1333 "/>
<path id="5" d="M225 212.1333 C225 212.1333 235.3789 216.532 245 217.1333 C258.2032 217.9585 273 215.1333 273 215.1333 "/>
<path id="6" d="M295 183.1333 C295 183.1333 309.9372 188.5459 312 188.1333 C312.6188 188.0096 315 179.1333 315 179.1333 "/>
<path id="7" d="M300 221.1333 C300 221.1333 317.5961 229.4524 319 229.1333 C319.4865 229.0228 322 216.1333 322 216.1333 "/>
<path id="8" d="M339 180.1333 C339 180.1333 345.7615 185.2867 346 185.1333 C347.0082 184.4852 353 171.1333 353 171.1333 "/>
<path id="9" d="M305 167.1333 C305 167.1333 315.6753 172.4645 317 172.1333 C317.7702 171.9408 321 163.1333 321 163.1333 "/>
<path id="10" d="M320 205.1333 C320 205.1333 326.3112 209.3629 327 209.1333 C327.9319 208.8227 332 201.1333 332 201.1333 "/>
<path id="11" d="M283 201.1333 C283 201.1333 289.7503 207.2374 290 207.1333 C290.5317 206.9118 295 196.1333 295 196.1333 "/>
<path id="12" d="M373 173.1333 C373 173.1333 375.9754 182.139 376 182.1333 C376.34 182.0549 386 170.1333 386 170.1333 "/>
<path id="13" d="M338 166.1333 L351 165.1333 "/>
<path id="14" d="M366 198.1333 C366 198.1333 368.9 210.9333 370 212.1333 C370.275 212.4333 374.5749 211.6766 377 210.1333 C379.1053 208.7936 381 205.1333 381 205.1333 "/>
<path id="15" d="M339 208.1333 C339 208.1333 342.6563 214.05 345 216.1333 C345.5363 216.61 347.5358 216.5975 348 216.1333 C350.6305 213.5028 355 206.1333 355 206.1333 "/>
<path id="16" d="M405 192.1333 C405 192.1333 404.9309 195.9951 406 198.1333 C406.9869 200.1071 408.8685 201.8819 410 202.1333 C411.0544 202.3676 414.0718 201.2163 415 200.1333 C415.865 199.1242 416 195.1333 416 195.1333 "/>
<path id="17" d="M399 180.1333 C399 180.1333 401.6693 183.2235 402 183.1333 C403.4607 182.735 410 177.1333 410 177.1333 "/>
<path id="18" d="M400 220.1333 C400 220.1333 403.8045 227.6939 406 230.1333 C406.3849 230.561 408.3633 230.6286 409 230.1333 C411.429 228.2441 415 223.1333 415 223.1333 "/>
<path id="19" d="M347 233.1333 C347 233.1333 355.2925 238.351 356 238.1333 C356.6418 237.9358 358.9853 233.446 360 229.1333 C360.8166 225.6628 360 221.1333 360 221.1333 "/>
<path id="20" d="M382 226.1333 C382 226.1333 384.994 232.1359 385 232.1333 C385.1101 232.0861 389 223.1333 389 223.1333 "/>
<path id="21" d="M436 201.1333 C436 201.1333 441.9411 208.1628 442 208.1333 C442.2357 208.0155 446 196.1333 446 196.1333 "/>
<path id="22" d="M427 190.1333 C427 190.1333 434.9931 199.1388 435 199.1333 C435.1337 199.0264 437 182.1333 437 182.1333 "/>
<path id="23" d="M425 213.1333 C425 213.1333 427.9863 219.1333 428 219.1333 C428.0046 219.1333 429 213.1333 429 213.1333 "/>
<path id="24" d="M446 219.1333 C446 219.1333 455.9315 220.2817 456 220.1333 C456.2301 219.6347 452 206.1333 452 206.1333 "/>
</g>
</g>
</svg>
