<?xml version="1.0" encoding="utf-8"?>
<!DOCTYPE svg PUBLIC "-//W3C//DTD SVG 1.1//EN" "http://www.w3.org/Graphics/SVG/1.1/DTD/svg11.dtd">
<svg viewBox="0 0 800 800" preserveAspectRatio="xMinYMin meet" xmlns="http://www.w3.org/2000/svg" version="1.1">
<g fill="none" stroke="black" stroke-linecap="round" stroke-linejoin="round" stroke-width="1.8577">
<g transform="translate(87.52,198.947) scale(1.6149) translate(-112,-86.1333)">
<path id="0" d="M333 186.1333 C333 186.1333 277.2628 181.0285 232 186.1333 C216.9012 187.8362 214.4826 192.1441 200 201.1333 C186.3152 209.6273 185.9757 210.7771 174 222.1333 C157.2439 238.0227 158.6225 241.207 142 256.1333 C135.0939 262.3348 133.6568 262.0935 125 266.1333 C119.0601 268.9053 112.0021 270.1184 112 270.1333 C111.9995 270.1366 119.6968 270.4439 124 273.1333 C130.0477 276.9131 129.5091 280.157 136 285.1333 C144.0932 291.3381 144.7106 291.4886 154 296.1333 C165.4636 301.8651 165.7246 302.3034 178 306.1333 C227.8112 321.6744 229.6898 324.7711 279 335.1333 C296.0362 338.7134 297.689 335.8376 316 335.1333 C323.4614 334.8464 323.9082 335.0675 331 333.1333 C345.474 329.1859 347.739 329.2638 360 323.1333 C364.8683 320.6992 365.4645 319.0438 369 314.1333 C374.1343 307.0024 373.9088 306.3157 378 298.1333 C389.8745 274.3844 388.8953 273.1322 401 250.1333 C403.5545 245.2798 404.6818 244.1499 408 241.1333 C409.073 240.1579 411.9954 240.0917 412 240.1333 C412.3835 243.585 411.8422 263.3634 413 286.1333 C413.3294 292.6115 413.1602 293.1538 415 299.1333 C417.0062 305.6533 417.2159 307.6815 421 312.1333 C424.4182 316.1547 426.3091 316.8915 432 319.1333 C442.0781 323.1035 452.8929 326.3411 454 325.1333 C459.7962 318.8103 470.0814 298.3863 476 271.1333 C490.9592 202.2516 488.0664 198.9904 497 127.1333 C499.5134 106.9165 499.0712 86.4586 499 86.1333 C498.9877 86.0769 494.955 91.4171 490 95.1333 C473.3261 107.6388 471.4567 106.371 455 119.1333 C447.3699 125.0505 445.9536 125.3314 441 133.1333 C426.8228 155.4623 424.079 158.4631 415 182.1333 C411.187 192.0743 413.0853 206.1096 413 206.1333 C412.8945 206.1626 405.0999 193.7869 397 187.1333 C393.0827 183.9156 391.033 184.2747 385 183.1333 C372.9084 180.8457 371.1441 179.0189 360 180.1333 C348.3596 181.2974 335 188.1333 335 188.1333 "/>
<path id="1" d="M186 238.1333 C186 238.1333 182.7811 240.3758 182 242.1333 C181.324 243.6543 181.6667 246.9333 182 247.1333 C183.1778 247.84 191.9008 248.2325 192 248.1333 C192.0331 248.1003 188 241.1333 188 241.1333 "/>
<path id="2" d="M118 272.1333 C118 272.1333 157.0862 273.0029 191 272.1333 C193.3467 272.0732 196 270.1333 196 270.1333 "/>
<path id="3" d="M249 183.1333 C249 183.1333 256.938 179.9829 263 175.1333 C276.4315 164.3882 277.2918 163.5511 289 151.1333 C293.2475 146.6284 291.9696 144.6675 296 140.1333 C299.5103 136.1842 302.3001 137.1038 305 133.1333 C309.8236 126.0398 312.9972 115.1219 313 115.1333 C313.0081 115.1667 309.4684 141.8804 312 162.1333 C312.9789 169.9645 315.7987 171.4682 321 179.1333 C325.0035 185.0332 331 190.1333 331 190.1333 "/>
<path id="4" d="M258 236.1333 C258 236.1333 270.9566 244.9664 276 252.1333 C278.059 255.0593 277.8112 258.4687 277 263.1333 C276.0356 268.6784 275.4776 270.2068 272 275.1333 C264.0701 286.3674 253 297.1333 253 297.1333 "/>
</g>
</g>
</svg>
