<?xml version="1.0" encoding="utf-8"?>
<!DOCTYPE svg PUBLIC "-//W3C//DTD SVG 1.1//EN" "http://www.w3.org/Graphics/SVG/1.1/DTD/svg11.dtd">
<svg viewBox="0 0 800 800" preserveAspectRatio="xMinYMin meet" xmlns="http://www.w3.org/2000/svg" version="1.1">
<g fill="none" stroke="black" stroke-linecap="round" stroke-linejoin="round" stroke-width="1.3441">
<g transform="translate(87.52,232.6) scale(2.232) translate(-103,-160.1333)">
<path id="0" d="M106 233.1333 C106 233.1333 112.0649 222.7078 120 215.1333 C133.4643 202.2811 134.668 202.2839 150 191.1333 C156.403 186.4766 156.8226 185.7098 164 183.1333 C175.5514 178.9867 176.6702 178.6129 189 177.1333 C200.9846 175.6952 202.1704 178.5416 214 177.1333 C222.3258 176.1422 222.5072 173.5488 231 172.1333 C243.0646 170.1226 245.17 168.1478 256 170.1333 C272.4355 173.1465 273.7441 176.3112 291 183.1333 C295.119 184.7618 297.5556 185.5083 299 187.1333 C299.65 187.8646 298.35 191.4021 299 192.1333 C300.4444 193.7583 305.8587 194.0583 307 196.1333 C309.398 200.4934 307.5315 204.7277 310 212.1333 C312.8557 220.7006 313.8095 220.7523 318 229.1333 C320.2948 233.7229 319.917 234.6393 323 238.1333 C326.8673 242.5162 328.4888 244.3289 333 246.1333 C336.4176 247.5004 339.665 247.4303 343 246.1333 C346.5759 244.7427 348.3042 243.1061 351 239.1333 C357.174 230.0348 355.9019 228.1121 362 218.1333 C366.7783 210.3143 367.0574 209.7014 373 203.1333 C376.1527 199.6487 380.6215 197.0955 381 197.1333 C381.1381 197.1471 383 200.8649 383 204.1333 C383 214.4055 383.8247 216.2468 381 226.1333 C377.192 239.4614 371.0115 240.1362 369 253.1333 C365.0161 278.8755 368.7507 307.581 368 310.1333 C367.9753 310.2172 358.3584 307.4662 354 304.1333 C352.0415 302.6356 351.5584 300.5956 351 297.1333 C349.1851 285.8808 352.1957 279.3367 349 273.1333 C346.8644 268.9877 336.2451 263.4473 334 264.1333 C329.0313 265.6515 323.1297 278.4508 313 284.1333 C306.1829 287.9575 302.8482 286.6283 293 287.1333 C283.7407 287.6082 282.2148 285.4761 274 286.1333 C271.2907 286.3501 271.0076 288.5318 268 289.1333 C254.4203 291.8493 253.2019 293.1333 239 293.1333 C209.6167 293.1333 205.8056 296.21 179 289.1333 C147.1017 280.7122 140.634 275.4035 114 260.1333 C108.1181 256.761 107.7087 252.8764 104 246.1333 C102.7543 243.8683 102.4941 242.1569 103 240.1333 C103.6159 237.6699 107 234.1333 107 234.1333 "/>
<path id="1" d="M164 181.1333 C164 181.1333 174.1598 189.9236 177 197.1333 C179.286 202.9363 178.5943 206.3069 177 214.1333 C173.32 232.199 172.0598 233.358 166 251.1333 C164.7563 254.7816 164.5985 255.5349 162 258.1333 C151.8424 268.2909 139.8884 278.0346 139 278.1333 C138.9256 278.1416 135 261.1333 135 261.1333 "/>
<path id="2" d="M151 207.1333 C151 207.1333 151.8247 209.1333 152 209.1333 C153.2272 209.1333 158.8227 207.4437 159 207.1333 C159.0971 206.9634 157.6606 203.4249 156 202.1333 C154.1787 200.7168 152.5877 200.1333 150 200.1333 C146.1184 200.1333 142.7203 200.9292 141 202.1333 C140.2557 202.6544 139.6377 206.8228 140 207.1333 C142.3153 209.1179 148.0081 211.4143 155 214.1333 C156.1836 214.5936 157.925 214.2833 158 214.1333 C158.3 213.5333 158.7537 210.0175 158 208.1333 C157.2966 206.3748 155.7575 204.9145 154 204.1333 C152.4791 203.4574 149.4237 203.7096 149 204.1333 C148.4068 204.7265 148 210.1333 148 210.1333 "/>
<path id="3" d="M103 240.1333 C103 240.1333 112.9603 242.0144 113 242.1333 C113.0347 242.2374 106 249.1333 106 249.1333 "/>
<path id="4" d="M222 173.1333 C222 173.1333 228.141 175.2769 231 174.1333 C237.7819 171.4206 238.982 166.7544 247 163.1333 C253.2541 160.3089 260.8815 159.9096 262 160.1333 C262.0932 160.152 261.4324 165.8237 262 166.1333 C268.8585 169.8743 288.0319 174.5437 295 178.1333 C295.4581 178.3693 295.535 182.5091 295 183.1333 C294.2357 184.025 291.4472 185.43 289 185.1333 C277.2148 183.7048 262 179.1333 262 179.1333 "/>
<path id="5" d="M233 250.1333 C233 250.1333 250.1112 258.2445 252 260.1333 C252.1954 260.3287 250.0899 265.8818 249 266.1333 C243.283 267.4526 236.7529 267.6695 226 266.1333 C216.7164 264.8071 207 260.1333 207 260.1333 "/>
</g>
</g>
</svg>
