<?xml version="1.0" encoding="utf-8"?>
<!DOCTYPE svg PUBLIC "-//W3C//DTD SVG 1.1//EN" "http://www.w3.org/Graphics/SVG/1.1/DTD/svg11.dtd">
<svg viewBox="0 0 800 800" preserveAspectRatio="xMinYMin meet" xmlns="http://www.w3.org/2000/svg" version="1.1">
<g fill="none" stroke="black" stroke-linecap="round" stroke-linejoin="round" stroke-width="0.69604">
<g transform="translate(87.52,182.3415) scale(4.3101) translate(-25.5,-23.8333)">
<path id="0" d="M33.5 52.1667 C33.5 52.1667 45.5893 51.3231 54.5 53.1667 C58.2961 53.9521 59.9643 55.2409 62.5 58.1667 C65.5456 61.6809 67.5 68.1667 67.5 68.1667 "/>
<path id="1" d="M69.5 68.1667 C69.5 68.1667 77.9422 57.5398 87.5 50.1667 C94.6769 44.6302 96.4653 43.2935 104.5 41.1667 C111.5471 39.3013 113.8968 39.9969 121.5 41.1667 C125.8005 41.8283 126.7063 42.4569 130.5 45.1667 C143.6178 54.5366 143.9597 57.6835 156.5 66.1667 C159.4172 68.1401 164.5 68.1667 164.5 68.1667 "/>
<path id="2" d="M34.5 53.1667 C34.5 53.1667 36.776 61.8467 40.5 67.1667 C42.8735 70.5574 48.5111 73.1569 48.5 73.1667 C48.4318 73.2264 37.7286 72.4238 32.5 74.1667 C30.2592 74.9136 29.0351 77.0964 27.5 80.1667 C25.8746 83.4176 25.5 88.1667 25.5 88.1667 "/>
<path id="3" d="M27.5 87.8333 C27.5 87.8333 48.239 90.412 61.5 88.8333 C64.9108 88.4273 69.5 82.8333 69.5 82.8333 "/>
<path id="4" d="M66.5 82.8333 C66.5 82.8333 65.8014 85.7854 66.5 86.8333 C69.5856 91.4618 71.3173 95.0692 76.5 97.8333 C83.9038 101.7821 86.6561 101.9219 96.5 102.8333 C112.856 104.3478 116.2081 106.0367 130.5 102.8333 C141.8132 100.2976 144.4833 97.5963 154.5 89.8333 C163.3041 83.0101 168.5779 74.5792 170.5 71.8333 C170.5395 71.7769 168.5 69.8333 168.5 69.8333 "/>
<path id="5" d="M46.5 57.8333 C46.5 57.8333 49.1775 69.0955 52.5 72.8333 C54.4427 75.0188 62.5 75.8333 62.5 75.8333 "/>
<path id="6" d="M35.5 83.8333 C35.5 83.8333 43.2109 78.0025 50.5 74.8333 C53.7508 73.42 58.5 73.8333 58.5 73.8333 "/>
<path id="7" d="M90.5 49.8333 C90.5 49.8333 87.0142 51.562 85.5 53.8333 C82.5404 58.2727 81.2444 60.3669 80.5 64.8333 C80.0806 67.3496 81.3513 70.6846 82.5 71.8333 C83.3935 72.7268 88.5059 72.8113 88.5 72.8333 C88.3371 73.4443 81.6251 80.583 78.5 86.8333 C77.5131 88.8071 77.8717 91.5767 78.5 92.8333 C78.9189 93.6711 82.5 94.8333 82.5 94.8333 "/>
<path id="8" d="M104.5 42.8333 C104.5 42.8333 99.8618 50.748 97.5 57.8333 C96.6825 60.286 96.775 62.7459 97.5 63.8333 C98.3458 65.1021 103.5206 66.7508 103.5 66.8333 C103.3453 67.4522 96.279 71.8801 94.5 75.8333 C93.0005 79.1656 94.033 84.0313 94.5 86.8333 C94.5566 87.173 96.5 87.8133 96.5 87.8333 C96.5 87.8533 94.5705 88.4809 94.5 88.8333 C94.0469 91.0989 94.0825 96.8939 94.5 97.8333 C94.5825 98.0189 98.5 97.8333 98.5 97.8333 "/>
<path id="9" d="M129.5 41.8333 C129.5 41.8333 123.1836 44.9041 119.5 48.8333 C116.4209 52.1177 115.6147 53.5975 114.5 57.8333 C113.4194 61.9396 113.5039 65.6751 114.5 67.8333 C115.0747 69.0785 120.5026 70.8273 120.5 70.8333 C120.4528 70.9435 113.2772 72.8784 111.5 74.8333 C110.3461 76.1026 110.1688 80.9502 110.5 81.8333 C110.625 82.1666 114.5011 82.8295 114.5 82.8333 C114.44 83.0435 109.0586 86.7384 108.5 88.8333 C107.8777 91.1672 108.8472 96.0428 110.5 97.8333 C112.5162 100.0175 120.5 101.8333 120.5 101.8333 "/>
<path id="10" d="M147.5 80.8333 C147.5 80.8333 163.5402 81.0133 164.5 80.8333 C164.5247 80.8287 163.5 77.8333 163.5 77.8333 "/>
<path id="11" d="M137.5 65.8333 C137.5 65.8333 144.1206 65.3997 144.5 65.8333 C144.9956 66.3997 145.4764 71.2947 144.5 73.8333 C143.655 76.0303 141.6986 77.9173 139.5 78.8333 C137.3273 79.7386 134.3485 79.8287 132.5 78.8333 C129.9202 77.4442 126.7436 73.7825 126.5 71.8333 C126.2328 69.6955 129.3142 63.525 130.5 62.8333 C131.376 62.3224 138.5 64.8333 138.5 64.8333 "/>
<path id="12" d="M104.5 39.8333 C104.5 39.8333 105.2925 33.7578 107.5 29.8333 C109.2707 26.6854 113.4878 23.8185 113.5 23.8333 C113.7168 24.0984 116.5 40.8333 116.5 40.8333 "/>
<path id="13" d="M95.5 98.8333 C95.5 98.8333 94.0602 113.834 95.5 119.8333 C95.873 121.3875 101.5 123.8333 101.5 123.8333 "/>
<path id="14" d="M111.5 103.8333 C111.5 103.8333 111.5557 111.0368 109.5 115.8333 C107.5814 120.3101 102.5 124.8333 102.5 124.8333 "/>
</g>
</g>
</svg>
