<?xml version="1.0" encoding="utf-8"?>
<!DOCTYPE svg PUBLIC "-//W3C//DTD SVG 1.1//EN" "http://www.w3.org/Graphics/SVG/1.1/DTD/svg11.dtd">
<svg viewBox="0 0 800 800" preserveAspectRatio="xMinYMin meet" xmlns="http://www.w3.org/2000/svg" version="1.1">
<g fill="none" stroke="black" stroke-linecap="round" stroke-linejoin="round" stroke-width="1.4929">
<g transform="translate(87.52,220.1482) scale(2.0095) translate(-47,-98.1333)">
<path id="0" d="M326 200.1333 C326 200.1333 341.872 201.6626 349 199.1333 C352.5246 197.8827 355.4332 193.8338 357 189.1333 C359.1441 182.7011 359.8611 178.0889 358 172.1333 C355.9437 165.5532 353.546 162.2392 347 157.1333 C330.3552 144.1504 326.1062 137.1569 308 133.1333 C279.8196 126.871 273.3278 132.3705 239 133.1333 C228.5303 133.366 227.6603 132.7183 218 135.1333 C208.5644 137.4922 208.1333 138.5667 199 143.1333 C188.2783 148.4942 186.8079 148.0381 178 155.1333 C169.7585 161.7723 171.2812 165.3776 163 172.1333 C153.126 180.1885 150.7235 183.3532 140 186.1333 C127.5166 189.3698 117.1992 190.6429 109 186.1333 C96.5293 179.2745 92.6807 161.4246 80 153.1333 C74.0695 149.2557 64.4251 150.1083 57 152.1333 C52.8419 153.2674 48.5476 158.0064 47 162.1333 C45.4665 166.2228 46.1367 171.0093 48 176.1333 C49.368 179.8953 54.2841 180.6559 55 184.1333 C56.9716 193.7099 56.3068 198.0455 55 210.1333 C54.4254 215.4485 51.762 215.7996 51 221.1333 C49.8806 228.9694 50.0119 237.4614 51 238.1333 C53.1369 239.5864 64.6503 239.6671 76 238.1333 C81.7546 237.3557 82.9242 236.2352 88 233.1333 C91.259 231.1417 91.9546 230.3151 94 227.1333 C96.0603 223.9285 94.7869 221.4939 97 219.1333 C100.94 214.9306 103.5412 212.1038 109 211.1333 C122.421 208.7474 142 211.1333 142 211.1333 "/>
<path id="1" d="M143 212.1333 C143 212.1333 142.3509 215.3544 143 216.1333 C145.6505 219.3139 147.7669 222.0644 153 224.1333 C167.5343 229.8795 170.1131 227.8377 186 233.1333 C192.1783 235.1927 192.4384 238.8109 198 239.1333 C254.8036 242.4263 277.2287 247.3282 324 241.1333 C334.3835 239.758 344.3754 226.0702 349 219.1333 C350.0764 217.5187 348.2838 210.9442 346 208.1333 C343.7693 205.3878 340.9353 204.6139 336 203.1333 C331.5797 201.8072 326 202.1333 326 202.1333 "/>
<path id="2" d="M300 131.1333 C300 131.1333 299.4525 113.4406 298 112.1333 C296.6996 110.963 285.5644 114.9219 280 113.1333 C275.8407 111.7964 270.4449 103.4164 270 103.1333 C269.9753 103.1176 269.4182 105.9541 269 106.1333 C267.9023 106.6038 264.3292 107.0195 263 106.1333 C260.4892 104.4595 257.3056 98.2861 257 98.1333 C257 98.1333 255.7727 101.8956 255 102.1333 C252.3692 102.9428 247.8311 102.9543 244 102.1333 C242.7313 101.8615 241.315 99.0883 241 99.1333 C240.44 99.2133 238.3018 102.9164 237 103.1333 C234.8613 103.4898 230.4703 100.5678 229 101.1333 C227.4358 101.7349 226.1247 106.9893 224 108.1333 C222.0617 109.177 216.8118 107.502 216 108.1333 C215.3461 108.6419 216.0161 114.2096 215 115.1333 C213.2438 116.7298 206.6823 116.9557 205 118.1333 C204.6107 118.4058 204.3991 121.4656 205 122.1333 C207.1183 124.487 211.7729 125.0963 214 128.1333 C215.8501 130.6561 216 137.1333 216 137.1333 "/>
<path id="3" d="M177 155.1333 C177 155.1333 154.7333 134.2796 152 133.1333 C151.8222 133.0588 148.7925 140.388 146 142.1333 C143.4477 143.7285 136.7374 142.7237 136 143.1333 C135.9146 143.1808 137.0962 147.0564 137 147.1333 C136.7376 147.3432 131.0933 146.9094 131 147.1333 C130.5678 148.1707 130.7495 157.7866 132 159.1333 C133.2713 160.5024 139.4947 158.7972 144 161.1333 C151.3339 164.9361 159 173.1333 159 173.1333 "/>
<path id="4" d="M150 145.1333 C150 145.1333 154.6595 145.4169 157 147.1333 C161.036 150.0931 161.351 151.4891 165 156.1333 C166.7563 158.3686 167.905 160.5631 168 161.1333 C168.0115 161.2025 166 162.1333 166 162.1333 "/>
<path id="5" d="M147 152.1333 C147 152.1333 155.9786 154.8092 159 157.1333 C159.924 157.8441 160 162.1333 160 162.1333 "/>
<path id="6" d="M218 119.1333 L226 133.1333 "/>
<path id="7" d="M230 116.1333 C230 116.1333 233.0195 119.1919 234 122.1333 C235.2479 125.877 235 131.1333 235 131.1333 "/>
<path id="8" d="M242 112.1333 L246 130.1333 "/>
<path id="9" d="M252 113.1333 L260 130.1333 "/>
<path id="10" d="M263 116.1333 C263 116.1333 267.5129 119.5409 270 123.1333 C271.5504 125.3728 272 129.1333 272 129.1333 "/>
<path id="11" d="M62 164.1333 C62 164.1333 68.0825 168.1608 74 170.1333 C77.945 171.4483 80.2088 170.1183 83 171.1333 C83.9214 171.4684 85 174.1333 85 174.1333 "/>
<path id="12" d="M64 182.1333 L89 188.1333 "/>
<path id="13" d="M67 199.1333 L92 199.1333 "/>
<path id="14" d="M67 221.1333 L88 212.1333 "/>
<path id="15" d="M159 185.1333 C159 185.1333 153.7775 187.8893 153 189.1333 C152.6614 189.6751 153.5058 192.7379 154 193.1333 C154.4707 193.5099 158.0007 193.1327 158 193.1333 C157.9987 193.1346 153.1192 194.0141 152 195.1333 C151.1606 195.9727 150.5504 199.324 151 200.1333 C151.7419 201.4688 156.875 203.5083 157 204.1333 C157.125 204.7583 152.9182 209.315 153 210.1333 C153.0658 210.7909 155.7562 213.1361 158 214.1333 C159.3242 214.7219 161.6 214.3333 162 214.1333 C162.1 214.0833 162 212.1333 162 212.1333 "/>
<path id="16" d="M183 176.1333 C183 176.1333 173.1224 184.1539 173 185.1333 C172.9283 185.7067 180.9851 192.014 181 192.1333 C181.0002 192.1352 175.3002 192.3207 174 193.1333 C173.4032 193.5063 172.6886 196.4067 173 197.1333 C173.4111 198.0925 176.9345 199.6093 177 200.1333 C177.0866 200.8257 173.9151 205.0145 174 205.1333 C174.2292 205.4542 182 207.1333 182 207.1333 "/>
<path id="17" d="M306 156.1333 C306 156.1333 303.4761 156.3795 303 157.1333 C299.1048 163.3008 295.7835 166.3778 294 175.1333 C290.726 191.2055 292 194.3768 292 211.1333 C292 213.9261 292.5907 216.1385 294 217.1333 C298.3476 220.2022 309 223.1333 309 223.1333 "/>
<path id="18" d="M319 165.1333 C319 165.1333 321.3398 163.1333 323 163.1333 C328.8107 163.1333 335.9828 163.8255 337 165.1333 C338.2628 166.7569 337.9979 180.0689 337 181.1333 C336.1229 182.0689 327.7178 182.2769 322 181.1333 C319.7891 180.6912 317.974 179.2032 317 177.1333 C314.7904 172.4379 313.6681 164.8525 314 164.1333 C314.1187 163.8761 323 164.1333 323 164.1333 "/>
<path id="19" d="M326 173.1333 C326 173.1333 328 175.1333 328 175.1333 C327.9786 175.1548 324.6037 175.6508 324 175.1333 C322.7711 174.08 321 169.3625 321 169.1333 C321 169.1333 323.865 168.9533 324 169.1333 C324.24 169.4533 323.8831 173.0164 324 173.1333 C324.0584 173.1918 327 172.1333 327 172.1333 "/>
<path id="20" d="M327 154.1333 C327 154.1333 316.6916 153.5566 314 154.1333 C313.6598 154.2062 313 157.1333 313 157.1333 "/>
<path id="21" d="M327 198.1333 C327 198.1333 323.9022 200.8777 323 203.1333 C322.3165 204.8421 323 208.1333 323 208.1333 "/>
<path id="22" d="M281 210.1333 C281 210.1333 270.0489 211.117 261 214.1333 C255.91 215.83 253.4394 217.9378 251 220.1333 C250.5723 220.5183 250.9358 223.122 251 223.1333 C253.0608 223.497 265.7881 221.8528 268 223.1333 C269.0888 223.7637 268.8593 233.0877 270 234.1333 C270.944 234.9987 277.1415 235.6306 280 234.1333 C284.7913 231.6236 290.924 224.9569 291 223.1333 C291.0834 221.1307 281 210.1333 281 210.1333 "/>
<path id="23" d="M283 215.1333 C283 215.1333 276.0067 218.0996 276 218.1333 C275.9988 218.1395 281.9056 219.9761 282 220.1333 C282.0202 220.167 279 223.1333 279 223.1333 "/>
<path id="24" d="M212 164.1333 C212 164.1333 206.5178 167.5799 206 169.1333 C205.5315 170.5388 207.0579 175.4006 208 176.1333 C208.8859 176.8224 215 176.1333 215 176.1333 C215 176.155 209.7231 179.1641 208 181.1333 C207.5353 181.6644 207.7653 183.9769 208 184.1333 C208.7822 184.6548 214.0002 185.1321 214 185.1333 C213.9934 185.1662 208.5389 187.5944 207 189.1333 C206.5803 189.553 206.5521 191.6108 207 192.1333 C208.3649 193.7258 212.9704 196.0594 213 196.1333 C213.0028 196.1403 209.5433 196.4814 209 197.1333 C208.2686 198.011 207.4137 200.8769 208 202.1333 C209.7762 205.9396 212.999 210.4453 216 212.1333 C217.6382 213.0548 224 211.1333 224 211.1333 "/>
<path id="25" d="M246 154.1333 C246 154.1333 240.408 156.1973 239 158.1333 C237.8032 159.7789 237.3111 163.9524 238 165.1333 C239.0378 166.9124 242.2952 168.8102 246 170.1333 C248.2716 170.9446 252 170.1333 252 170.1333 C252 170.1333 246.8831 169.1918 245 170.1333 C242.8478 171.2094 239.9666 175.8661 240 176.1333 C240.0171 176.2701 245.9475 177.9496 246 178.1333 C246.0545 178.3242 242.6126 181.2955 242 183.1333 C241.6453 184.1973 242.3138 186.6759 243 187.1333 C244.7467 188.2978 250.9979 189.1249 251 189.1333 C251.0001 189.1339 245.5294 189.9863 244 191.1333 C243.2803 191.6731 242.7701 194.929 243 195.1333 C244.2196 196.2174 253 199.1333 253 199.1333 "/>
<path id="26" d="M275 146.1333 C275 146.1333 271.7705 146.2665 271 147.1333 C269.0454 149.3322 267.6649 151.5869 267 155.1333 C266.4063 158.2998 267.2893 162.4226 268 163.1333 C268.5528 163.6861 275 163.1333 275 163.1333 C275 163.1333 269.6347 162.7199 266 164.1333 C261.6126 165.8395 259.4192 167.983 257 170.1333 C256.6999 170.4 256.8456 172.0561 257 172.1333 C258.3895 172.8281 264.8005 173.8939 265 174.1333 C265.0345 174.1748 262.3715 176.6475 262 178.1333 C261.7067 179.3063 262.213 181.5212 263 182.1333 C264.978 183.6718 271 185.1333 271 185.1333 "/>
<path id="27" d="M151 224.1333 C151 224.1333 144.3963 227.365 140 231.1333 C138.1159 232.7483 137.4345 233.8158 137 236.1333 C136.1407 240.7163 136.001 244.3363 137 247.1333 C137.4346 248.3502 139.5871 249.6254 142 250.1333 C148.0886 251.4151 154.1735 250.481 156 251.1333 C156.1817 251.1982 155.6919 254.9133 156 255.1333 C156.8319 255.7275 160.9077 256.5518 163 256.1333 C164.1077 255.9118 164.6886 253.5705 166 253.1333 C167.9671 252.4776 170.3056 254.0457 172 253.1333 C175.0412 251.4958 175.2523 248.7099 179 246.1333 C182.7279 243.5704 186.3935 243.7398 188 242.1333 C188.6179 241.5154 188 237.1333 188 237.1333 "/>
<path id="28" d="M151 238.1333 C151 238.1333 166.0007 230.0331 169 229.1333 C169.1594 229.0855 171.0773 231.6693 171 232.1333 C170.8985 232.7423 168 235.1333 168 235.1333 "/>
<path id="29" d="M165 242.1333 L183 236.1333 "/>
<path id="30" d="M248 245.1333 C248 245.1333 239.7815 257.2026 235 267.1333 C234.154 268.8904 234.7549 272.0353 235 272.1333 C236.8876 272.8884 247.0233 272.2031 250 273.1333 C250.4374 273.27 250.5175 276.6509 251 277.1333 C251.2895 277.4228 253.2141 277.6245 254 277.1333 C256.1284 275.8031 257.2861 272.5006 259 272.1333 C261.4196 271.6148 265.0044 274.3638 268 274.1333 C269.4327 274.0231 271.8519 272.2442 272 271.1333 C273.1319 262.6442 271.3806 249.914 272 244.1333 C272.0303 243.8504 275 243.1333 275 243.1333 "/>
<path id="31" d="M259 246.1333 L249 258.1333 "/>
<path id="32" d="M263 248.1333 L259 265.1333 "/>
<path id="33" d="M255 265.1333 L251 271.1333 "/>
</g>
</g>
</svg>
