<?xml version="1.0" encoding="utf-8"?>
<!DOCTYPE svg PUBLIC "-//W3C//DTD SVG 1.1//EN" "http://www.w3.org/Graphics/SVG/1.1/DTD/svg11.dtd">
<svg viewBox="0 0 800 800" preserveAspectRatio="xMinYMin meet" xmlns="http://www.w3.org/2000/svg" version="1.1">
<g fill="none" stroke="black" stroke-linecap="round" stroke-linejoin="round" stroke-width="1.5889">
<g transform="translate(87.52,272.5535) scale(1.8881) translate(-153,-97)">
<path id="0" d="M232 135 C232 135 227.205 130.725 223 130 C214.4723 128.5297 212.3929 129.0283 203 130 C198.6274 130.4523 198.2152 131.0329 194 133 C183.408 137.9429 181.6101 137.3032 173 144 C164.7783 150.3947 162.8201 152.3239 158 161 C153.8564 168.4584 154.506 170.6631 153 180 C152.0876 185.6569 152.0472 186.5215 153 192 C153.9286 197.3395 154.249 198.415 157 203 C159.8331 207.7219 160.4585 208.6971 165 212 C176.2119 220.1541 177.6152 223.247 190 227 C207.8214 232.4004 210.5868 230.2701 231 232 C239.8702 232.7517 240.2296 232.933 249 232 C263.3892 230.4692 264.9033 231.5161 278 227 C292.5666 221.977 293.752 220.096 307 212 C310.9146 209.6077 310.0867 207.1345 314 205 C330.7385 195.8699 332.3257 194.9276 351 188 C362.7401 183.6448 363.6823 183.8477 376 182 C383.1338 180.9299 383.9101 180.8458 391 182 C404.773 184.2421 406.1015 183.7658 419 189 C439.7115 197.4047 440.4794 198.5569 460 210 C469.0153 215.2849 476.9892 223.0117 477 223 C477.0856 222.9073 473.1765 209.9413 472 197 C470.2171 177.3879 468.7074 176.1051 471 157 C474.5389 127.5088 484.1374 97.3572 484 97 C483.9744 96.9336 470.7281 109.9099 456 118 C436.2978 128.8223 434.5638 128.0933 413 136 C404.9716 138.9438 404.4523 139.3277 396 140 C361.2312 142.7657 358.7054 145.5708 325 143 C302.1799 141.2595 301.2825 135.0356 278 131 C264.6352 128.6834 263.6444 129.3936 250 130 C241.6377 130.3717 233 133 233 133 "/>
<path id="1" d="M191 167 C191 167 192.9542 169.0153 193 169 C193.0688 168.9771 194.0584 166.0584 194 166 C193.8831 165.8831 190.9668 165.5166 190 166 C189.154 166.423 187.956 168.9119 188 169 C188.0661 169.1321 192 170 192 170 "/>
<path id="2" d="M167 211 L187 206 "/>
<path id="3" d="M248 157 C248 157 249.0481 162.0695 248 166 C245.3059 176.1029 242.7829 176.912 240 187 C239.0407 190.4776 238.9649 191.8947 240 195 C241.5526 199.6579 243.9832 203.4874 246 205 C246.7843 205.5882 249.8619 205.3015 252 204 C260.0602 199.0938 260.9888 193.3562 269 191 C282.3067 187.0863 292.2337 193.6722 303 189 C311.6807 185.2329 312.8132 176.8041 322 168 C323.6241 166.4436 327 166 327 166 "/>
<path id="4" d="M440 144 L472 140 "/>
<path id="5" d="M430 163 C430 163 442.1278 159.4134 454 158 C462.6887 156.9656 472 158 472 158 "/>
<path id="6" d="M437 177 C437 177 441.4942 176.6735 445 178 C459.1928 183.3702 474 191 474 191 "/>
<path id="7" d="M269 159 C269 159 266.4331 157.7834 266 158 C265.1338 158.4331 263.8948 159.8525 263 162 C256.6937 177.135 251 194 251 194 "/>
<path id="8" d="M282 160 C282 160 274.3922 169.8951 273 175 C272.5069 176.808 275.5793 178.845 276 182 C276.4472 185.354 275 190 275 190 "/>
<path id="9" d="M303 159 C303 159 295.8849 166.5076 294 173 C292.0712 179.6436 294 190 294 190 "/>
</g>
</g>
</svg>
