<?xml version="1.0" encoding="utf-8"?>
<!DOCTYPE svg PUBLIC "-//W3C//DTD SVG 1.1//EN" "http://www.w3.org/Graphics/SVG/1.1/DTD/svg11.dtd">
<svg viewBox="0 0 800 800" preserveAspectRatio="xMinYMin meet" xmlns="http://www.w3.org/2000/svg" version="1.1">
<g fill="none" stroke="black" stroke-linecap="round" stroke-linejoin="round" stroke-width="2.5682">
<g transform="translate(87.52,221.2731) scale(1.1681) translate(-18,-22.2)">
<path id="0" d="M57 242.2 C57 242.2 56.2553 239.1859 57 237.2 C60.3325 228.3132 60.5857 226.8628 66 218.2 C72.8159 207.2945 73.7399 207.4748 82 197.2 C94.2204 181.9991 93.4707 180.9254 107 167.2 C127.6423 146.2585 127.8441 145.2837 151 127.2 C179.8687 104.6549 180.926 104.8257 212 85.2 C228.1069 75.0272 229.59 76.997 246 67.2 C262.9191 57.099 261.7418 53.2898 279 45.2 C308.3987 31.4193 311.434 27.0821 342 22.2 C379.1339 16.2689 386.4308 17.2415 423 22.2 C440.6839 24.5978 443.7634 28.2082 460 38.2 C474.8236 47.3222 474.8126 49.5508 488 62.2 C499.1302 72.8759 500.0032 72.9735 509 85.2 C519.1181 98.9503 522.0716 99.727 527 115.2 C542.5801 164.1144 542.5091 169.1865 552 220.2 C554.0612 231.2791 555.2477 235.9879 551 244.2 C536.1421 272.9252 529.7667 277.3678 507 307.2 C501.4169 314.5158 500.2923 316.1249 493 320.2 C484.9915 324.6753 482.9101 324.9612 473 326.2 C451.8665 328.8417 450.9856 327.9597 429 328.2 C359.58 328.9587 353.8959 330.7057 290 328.2 C283.4563 327.9434 282.4609 325.9515 276 322.2 C251.8253 308.1631 251.3035 308.0234 228 292.2 C210.9663 280.6339 210.9459 280.2704 195 267.2 C180.5446 255.3513 180.3233 255.2569 167 242.2 C155.448 230.8791 156.7079 229.2574 145 218.2 C129.9283 203.9656 125.8727 204.4303 113 191.2 C109.9239 188.0385 111.7038 185.4488 109 181.2 C105.0423 174.9808 103.1055 175.6623 99 169.2 C76.4171 133.6529 74.3649 133.316 55 96.2 C44.8394 76.7255 39 54.2 39 54.2 "/>
<path id="1" d="M57 242.2 C57 242.2 56.7782 252.8731 54 262.2 C49.9741 275.7154 49.2651 277.3659 43 289.2 C40.9565 293.0598 39.3604 294.9399 36 296.2 C29.803 298.5239 19.1692 298.623 19 298.2 C17.3292 294.023 16.206 274.0094 18 251.2 C19.6299 230.4771 24.9376 229.3849 26 209.2 C26.8462 193.1222 22.4408 192.0983 22 175.2 C20.9533 135.0784 20.5865 132.413 23 94.2 C23.4262 87.4516 24.3913 85.0116 28 80.2 C32.0153 74.8462 39.0864 74.4687 41 70.2 C43.2971 65.0757 41 51.2 41 51.2 "/>
<path id="2" d="M329 156.2 C329 156.2 327.7366 159.0836 326 160.2 C321.5694 163.0482 320.5326 163.9552 315 165.2 C301.3566 168.2698 298.8707 169.2 286 169.2 C281.118 169.2 279.2562 168.102 275 165.2 C269.264 161.2891 264.1354 154.1323 264 154.2 C263.6431 154.3785 262.9632 165.5068 259 173.2 C255.2929 180.3962 250.2786 180.6429 247 187.2 C244.9509 191.2982 244.6768 194.4364 246 199.2 C249.0541 210.1947 251.1943 214.169 257 223.2 C258.5882 225.6706 262.0803 224.8003 264 227.2 C266.9996 230.9495 267.1608 237.6067 269 238.2 C274.5244 239.9821 282.7908 239.5631 295 237.2 C312.7725 233.7602 313.3513 231.9358 331 226.2 C333.0737 225.526 334.479 225.2419 335 224.2 C336.4326 221.3347 335.1286 218.3586 337 214.2 C339.2577 209.183 344 204.2 344 204.2 "/>
<path id="3" d="M553 230.2 C553 230.2 536.4854 219.2617 521 215.2 C508.3898 211.8924 495.0496 213.2536 492 214.2 C491.6701 214.3024 490.3355 220.7126 492 224.2 C499.3274 239.5526 501.6309 242.4839 513 258.2 C518.1781 265.3579 519.9585 266.501 526 271.2 C527.5104 272.3747 531 272.2 531 272.2 "/>
<path id="4" d="M433 143.2 C433 143.2 431 138.4786 431 135.2 C431 133.1509 431.9335 130.7743 433 130.2 C435.7449 128.722 438.641 128.4144 444 128.2 C450.7519 127.9299 454.8168 127.2901 458 129.2 C460.7472 130.8483 463.0054 135.2272 464 140.2 C465.125 145.825 464.7849 152.3212 463 154.2 C460.2421 157.103 449.6422 160.3857 445 160.2 C443.0971 160.1239 440.0402 156.9403 438 153.2 C434.6569 147.0709 433 138.2 433 138.2 "/>
</g>
</g>
</svg>
