<?xml version="1.0" encoding="utf-8"?>
<!DOCTYPE svg PUBLIC "-//W3C//DTD SVG 1.1//EN" "http://www.w3.org/Graphics/SVG/1.1/DTD/svg11.dtd">
<svg viewBox="0 0 800 800" preserveAspectRatio="xMinYMin meet" xmlns="http://www.w3.org/2000/svg" version="1.1">
<g fill="none" stroke="black" stroke-linecap="round" stroke-linejoin="round" stroke-width="2.1313">
<g transform="translate(87.52,220.5351) scale(1.4076) translate(-70,-104)">
<path id="0" d="M87 158 C87 158 90.959 158.2882 93 160 C104.9973 170.0623 104.5368 173.7604 118 184 C139.4201 200.2913 142.7515 197.6787 164 214 C176.5154 223.6133 174.6302 226.9139 187 237 C206.6895 253.0545 206.9702 255.184 229 267 C260.6863 283.9954 262.8645 285.2798 297 296 C321.7144 303.7615 323.8723 299.5164 350 305 C364.1275 307.965 363.9047 310.7682 378 313 C423.1474 320.1483 424.2299 319.5047 470 324 C479.8345 324.9659 482.7729 325.8068 490 324 C493.5232 323.1192 495.8788 320.8889 498 317 C503.8716 306.2354 505.4926 304.007 508 291 C513.2213 263.9143 519.5349 254.354 514 234 C507.2963 209.3476 496.0757 204.193 477 177 C473.0874 171.4224 472.4659 170.9581 467 167 C458.4513 160.8096 457.6454 158.9559 448 156 C428.4032 149.9945 426.2918 150.7473 405 148 C395.8126 146.8145 393.8289 145.668 386 148 C372.7444 151.9485 371.5832 156.4933 358 162 C354.2063 163.538 353.0779 161.6747 349 163 C333.7378 167.9602 333.7619 170.3742 318 175 C288.1387 183.7636 285.5989 179.3585 257 190 C222.5174 202.8307 218.0233 206.0384 189 223 C183.6755 226.1117 183.7874 233.5797 180 235 C173.5474 237.4197 168.1776 233.8594 157 235 C144.1165 236.3146 140.5216 234.8583 131 240 C119.0963 246.428 119.6394 252.069 107 262 C91.9114 273.8553 75.3999 283.7936 75 284 C74.9622 284.0195 74.7238 280.0883 76 278 C79.4962 272.279 86.184 266.6135 86 266 C85.7383 265.1275 73.8222 260.6278 70 258 C69.6333 257.7479 69.8013 255.0732 70 255 C77.5601 252.2147 107.6536 244.5003 108 244 C108.0107 243.9845 95.8121 236.4725 88 229 C85.7948 226.8907 84.8995 222.1172 85 222 C85.175 221.7958 92.9875 222.3375 94 222 C94.1125 221.9625 94.479 219.4491 94 219 C89.359 214.6491 82.8028 211.2025 78 207 C77.6828 206.7225 77.8649 205.0515 78 205 C82.1303 203.4266 96.1996 200.6803 99 199 C99.296 198.8224 99.3004 194.5791 98 193 C93.8633 187.9768 85.0389 182.1556 85 182 C84.9959 181.9836 93.7306 181.6347 95 181 C95.2418 180.8791 95.6986 178.0479 95 177 C91.9144 172.3716 85.3251 166.5574 85 166 C84.9855 165.9752 88 165 88 165 "/>
<path id="1" d="M97 188 C97 188 121.9033 206.4102 143 226 C148.9694 231.543 153 240 153 240 "/>
<path id="2" d="M87 221 C87 221 90.3583 217.5607 94 216 C100.2592 213.3175 101.1323 212.9157 108 212 C115.5607 210.9919 116.7339 210.8821 124 212 C128.8208 212.7417 134 216 134 216 "/>
<path id="3" d="M96 226 C96 226 106.6416 222.1259 117 221 C129.0204 219.6934 142 221 142 221 "/>
<path id="4" d="M100 239 L129 233 "/>
<path id="5" d="M416 212 C416 212 409.5142 213.9544 406 217 C403.0742 219.5357 402.5451 220.8798 401 225 C398.2619 232.3016 397.6424 233.1311 397 241 C395.7016 256.905 393.7917 262.1538 397 274 C398.8006 280.6485 403.7583 284.3866 410 289 C412.9744 291.1985 418.335 290.334 420 291 C420.1233 291.0493 420 293 420 293 "/>
<path id="6" d="M508 284 C508 284 493.3168 282.5452 479 280 C470.9475 278.5684 465.9609 277.1103 463 276 C462.8731 275.9524 462.9994 273.9991 463 274 C463.0019 274.0028 463.5074 277.2586 465 279 C468.9063 283.5573 469.6515 285.4594 475 288 C488.0201 294.1845 505 298 505 298 "/>
<path id="7" d="M495 284 L495 288 "/>
<path id="8" d="M499 295 L505 294 "/>
<path id="9" d="M462 206 C462 206 456.6989 207.6021 456 209 C454.6604 211.6792 455.2614 214.5113 455 220 C454.7634 224.9682 454.4485 229.0809 455 230 C455.1985 230.3309 458.6012 230.5331 461 230 C462.3771 229.694 463.4515 229.097 464 228 C465.8022 224.3956 466.1322 222.9899 467 218 C468.0865 211.7524 468.1053 206.369 468 205 C467.9987 204.9837 466 205 466 205 "/>
<path id="10" d="M429 152 C429 152 431.1425 140.4987 429 133 C426.8736 125.5577 424.9829 122.103 419 117 C410.1224 109.428 406.9636 108.5576 395 104 C386.2221 104.9743 387.5625 107.3938 390 113 C392.3092 118.3112 392.5462 119.1007 393 125 C394.0018 138.0229 393 152 393 152 "/>
<path id="11" d="M407 322 C407 322 405.87 328.8751 403 334 C399.2513 340.6941 398.6393 343.4754 393 347 C381.3325 354.2922 363.187 359.2517 363 359 C362.1995 357.9225 367 312 367 312 "/>
<path id="12" d="M266 277 C266 277 266.1613 280.5707 265 282 C260.8543 287.1024 259.0645 289.4624 253 293 C248.4722 295.6412 241.0041 296.0533 241 296 C240.9443 295.2755 251 267 251 267 "/>
</g>
</g>
</svg>
