<?xml version="1.0" encoding="utf-8"?>
<!DOCTYPE svg PUBLIC "-//W3C//DTD SVG 1.1//EN" "http://www.w3.org/Graphics/SVG/1.1/DTD/svg11.dtd">
<svg viewBox="0 0 800 800" preserveAspectRatio="xMinYMin meet" xmlns="http://www.w3.org/2000/svg" version="1.1">
<g fill="none" stroke="black" stroke-linecap="round" stroke-linejoin="round" stroke-width="0.69124">
<g transform="translate(87.52,193.85) scale(4.34) translate(-243,-156)">
<path id="0" d="M268 184 C268 184 273.4155 175.3211 280 169 C285.3973 163.8186 286.3328 163.2101 293 160 C299.1259 157.0505 300.1429 156.6857 307 156 C319.3808 154.7619 320.458 154.512 333 156 C349.3194 157.9362 351.2604 157.5409 366 163 C376.6904 166.9594 385.8572 173.8023 387 176 C387.3746 176.7203 383.7217 183.0967 379 188 C371.2518 196.0462 360.8547 202.4368 361 203 C361.3188 204.2352 383.134 214.4617 387 219 C387.8558 220.0046 386.5105 225.9446 384 230 C380.8387 235.1068 379.4047 236.8618 374 240 C365.2311 245.0916 363.5091 244.9091 353 248 C346.8852 249.7985 346.5025 249.4089 340 250 C330.0893 250.901 329.8064 251.4457 320 251 C308.1385 250.4608 306.5633 251.5211 296 248 C282.6199 243.54 277.762 240.7175 269 234 C266.7011 232.2375 267.0994 226.6492 266 225 C265.8001 224.7002 263.4232 224.527 263 225 C258.0294 230.5554 249.0324 244.0938 249 244 C248.8195 243.4764 242.3739 168.7644 243 167 C243.0424 166.8806 271 182 271 182 "/>
<path id="1" d="M360 174 L361 184 "/>
</g>
</g>
</svg>
