<?xml version="1.0" encoding="utf-8"?>
<!DOCTYPE svg PUBLIC "-//W3C//DTD SVG 1.1//EN" "http://www.w3.org/Graphics/SVG/1.1/DTD/svg11.dtd">
<svg viewBox="0 0 800 800" preserveAspectRatio="xMinYMin meet" xmlns="http://www.w3.org/2000/svg" version="1.1">
<g fill="none" stroke="black" stroke-linecap="round" stroke-linejoin="round" stroke-width="2.0881">
<g transform="translate(87.52,303.7418) scale(1.4367) translate(-92,-106)">
<path id="0" d="M100 153 C100 153 102.8015 153.6018 104 155 C110.8439 162.9846 114.1314 165.4338 118 174 C119.8333 178.0594 119.7823 181.7498 118 186 C114.3682 194.6603 108.9465 195.9794 105 205 C102.8519 209.91 103.9482 218.0194 104 218 C104.2934 217.89 116.0162 203.1635 129 196 C142.466 188.5705 145.8616 187.8986 162 186 C186.5548 183.1112 188.9649 183.1388 214 186 C240.1768 188.9916 241.4493 190.6498 267 198 C277.224 200.9411 276.9547 203.8278 287 207 C295.3325 209.6313 296.0816 209.6925 305 210 C338.9918 211.1721 341 213.9699 374 210 C405.5293 206.207 407.5514 204.657 438 194 C466.48 184.032 494 168 494 168 "/>
<path id="1" d="M104 150 C104 150 117.6297 148.5943 130 150 C138.8344 151.0039 139.1689 154.0605 148 155 C161.8194 156.4702 162.846 154.035 177 155 C184.4209 155.506 184.5893 157.6232 192 158 C213.5192 159.0942 215.2831 161.4804 236 158 C275.799 151.3138 276.6065 145.894 317 137 C330.5208 134.0229 331.5803 136.7387 345 134 C355.5194 131.8532 355.6854 128.3986 366 127 C383.9211 124.57 386.1202 127.5548 404 126 C407.878 125.6628 408.1872 123.2007 412 123 C434.9015 121.7947 438.7347 119.6179 461 123 C475.4601 125.1965 475.9547 129.9849 491 135 C498.0801 137.36 499.0716 135.5547 506 138 C515.5678 141.3769 519.3655 142.707 525 147 C526.598 148.2175 527.1855 153.8763 527 154 C525.6783 154.8811 510 157 510 157 "/>
<path id="2" d="M504 156 L522 157 "/>
<path id="3" d="M524 157 C524 157 510.3852 165.597 497 169 C482.4069 172.7101 465 172 465 172 "/>
<path id="4" d="M468 138 C468 138 465.0631 138.716 465 139 C464.7054 140.3255 464.8913 145.8913 466 147 C467.6015 148.6015 475.6917 150.2802 476 150 C476.5433 149.5061 477.4463 139.0825 477 137 C476.9352 136.6975 473.3043 135.7391 473 136 C472.1285 136.747 470 143 470 143 "/>
<path id="5" d="M444 143 C444 143 445.2757 147.1004 447 148 C454.2714 151.7938 467 155 467 155 "/>
<path id="6" d="M439 146 C439 146 442.7523 145.7954 444 147 C454.4718 157.1107 468 174 468 174 "/>
<path id="7" d="M437 152 L453 165 "/>
<path id="8" d="M433 165 C433 165 437.6616 164.7481 441 166 C444.9363 167.4761 449 171 449 171 "/>
<path id="9" d="M258 158 C258 158 269.7756 147.9704 277 137 C282.4472 128.7283 280.3929 120.1463 285 117 C293.1818 111.4124 301.4514 112.371 318 109 C328.3274 106.8963 328.559 106.4819 339 106 C360.7331 104.9969 364.3371 101.7477 383 106 C399.585 109.7789 418 124 418 124 "/>
<path id="10" d="M220 187 C220 187 225.0785 190.2356 226 193 C227.7661 198.2984 227.3327 202.0109 227 208 C226.9307 209.2468 224.9917 211.0024 225 211 C225.0521 210.9851 235.874 207.777 241 204 C242.9764 202.5437 244 197 244 197 "/>
<path id="11" d="M333 211 C333 211 334.9295 211.6476 335 212 C335.4531 214.2656 333.9464 217.6284 335 221 C336.0024 224.2077 338.0339 227.5412 340 228 C347.41 229.729 353.1123 229.6003 365 228 C378.2868 226.2114 378.4335 223.6181 392 221 C406.7251 218.1583 407.8533 219.2104 422 217 C422.996 216.8444 423.9485 216.3344 424 216 C424.4722 212.931 424 204 424 204 "/>
<path id="12" d="M182 157 C182 157 189.7085 164.8683 193 172 C194.8791 176.0713 194 183 194 183 "/>
<path id="13" d="M107 156 C107 156 92.3102 142.423 92 142 C91.976 141.9673 94.3246 140.697 96 141 C136.9092 148.3985 186 159 186 159 "/>
<path id="14" d="M185 163 L123 163 "/>
<path id="15" d="M196 164 L144 177 "/>
<path id="16" d="M192 178 C192 178 163.7055 176.4455 140 178 C135.7776 178.2769 131 182 131 182 "/>
<path id="17" d="M314 115 C314 115 315.2761 120.9694 314 124 C312.1046 128.5017 306 134 306 134 "/>
<path id="18" d="M341 115 C341 115 342.5465 121.6277 342 126 C341.7299 128.161 339 131 339 131 "/>
<path id="19" d="M373 110 L372 127 "/>
<path id="20" d="M363 216 L359 228 "/>
<path id="21" d="M392 211 L392 221 "/>
<path id="22" d="M413 209 L413 214 "/>
<path id="23" d="M427 178 C427 178 420.1797 192.5874 411 204 C402.2875 214.8317 389.9948 223.9942 390 224 C390.166 224.1845 424.7532 225.6334 429 224 C429.6282 223.7584 427.6777 215.9423 429 209 C431.5145 195.7986 437 182 437 182 "/>
<path id="24" d="M227 188 C227 188 230.4984 206.0081 228 219 C226.1254 228.748 217.0367 239.2288 217 240 C216.9992 240.0171 223.0517 241.401 227 240 C236.8326 236.511 248 229 248 229 "/>
<path id="25" d="M253 190 C253 190 256.083 199.6012 257 209 C258.0404 219.6638 259.3058 228.5352 257 231 C253.2134 235.0477 228 240 228 240 "/>
</g>
</g>
</svg>
