<?xml version="1.0" encoding="utf-8"?>
<!DOCTYPE svg PUBLIC "-//W3C//DTD SVG 1.1//EN" "http://www.w3.org/Graphics/SVG/1.1/DTD/svg11.dtd">
<svg viewBox="0 0 800 800" preserveAspectRatio="xMinYMin meet" xmlns="http://www.w3.org/2000/svg" version="1.1">
<g fill="none" stroke="black" stroke-linecap="round" stroke-linejoin="round" stroke-width="1.4593">
<g transform="translate(87.52,244.7879) scale(2.0558) translate(-116,-182.1333)">
<path id="0" d="M116 281.1333 C116 281.1333 118.6165 272.6143 123 269.1333 C133.3191 260.9388 136.1407 258.4814 150 254.1333 C185.1154 243.1167 187.9585 241.1442 225 237.1333 C264.5285 232.8532 267.6991 232.9524 307 237.1333 C336.0423 240.2229 337.6438 243.295 366 252.1333 C375.2651 255.0211 384 261.1333 384 261.1333 "/>
<path id="1" d="M118 286.1333 C118 286.1333 119.5381 294.1569 123 299.1333 C126.7085 304.4643 128.1277 305.436 134 309.1333 C140.9285 313.4957 141.83 313.7991 150 316.1333 C169.3226 321.6541 169.9635 322.3832 190 325.1333 C220.4597 329.3141 221.0562 328.4516 252 330.1333 C266.9075 330.9435 267.8134 332.16 282 330.1333 C298.2132 327.8172 300.5448 328.0639 315 321.1333 C335.3243 311.3888 334.6863 306.8395 355 295.1333 C363.7228 290.1066 374 287.1333 374 287.1333 "/>
<path id="2" d="M380 263.1333 C380 263.1333 383.7263 250.0823 385 237.1333 C386.6875 219.9775 384.4848 218.8003 386 202.1333 C386.4004 197.7291 387.251 197.5058 389 193.1333 C391.2291 187.5606 393.6689 182.1333 394 182.1333 C394.8609 182.1333 403.5478 187.2152 407 193.1333 C412.5112 202.5811 414.5842 206.2818 415 218.1333 C416.4617 259.7904 414.246 263.3125 411 307.1333 C410.2986 316.6027 410.0307 318.2536 407 326.1333 C405.6266 329.7043 402.6036 332.8503 401 333.1333 C398.7185 333.536 393.893 331.8813 390 329.1333 C386.7199 326.818 386.1419 325.4171 384 321.1333 C376.406 305.9453 370 289.1333 370 289.1333 "/>
<path id="3" d="M134 266.1333 C134 266.1333 145.8246 269.4692 147 269.1333 C147.2904 269.0504 148 262.1333 148 262.1333 "/>
<path id="4" d="M119 285.1333 L147 287.1333 "/>
<path id="5" d="M192 280.1333 C192 280.1333 199.0612 290.8637 207 299.1333 C210.4798 302.7581 215.7443 305.3446 216 305.1333 C218.1913 303.3231 227.9776 280.6951 230 280.1333 C231.722 279.655 242.412 289.6018 252 295.1333 C253.2511 295.8551 254.7494 295.7587 256 295.1333 C258.6576 293.8045 259.6603 292.9744 262 290.1333 C266.3748 284.821 266.8879 281.006 270 278.1333 C270.8157 277.3804 273.2169 277.3532 275 278.1333 C280.015 280.3274 280.3836 282.5804 286 285.1333 C290.8963 287.3589 296.3414 288.792 297 288.1333 C299.9638 285.1695 308 263.1333 308 263.1333 "/>
<path id="6" d="M393 249.1333 L416 247.1333 "/>
<path id="7" d="M396 263.1333 C396 263.1333 403.0507 264.1249 409 263.1333 C414.3391 262.2435 420 259.1333 420 259.1333 "/>
<path id="8" d="M390 286.1333 L416 278.1333 "/>
</g>
</g>
</svg>
