<?xml version="1.0" encoding="utf-8"?>
<!DOCTYPE svg PUBLIC "-//W3C//DTD SVG 1.1//EN" "http://www.w3.org/Graphics/SVG/1.1/DTD/svg11.dtd">
<svg viewBox="0 0 800 800" preserveAspectRatio="xMinYMin meet" xmlns="http://www.w3.org/2000/svg" version="1.1">
<g fill="none" stroke="black" stroke-linecap="round" stroke-linejoin="round" stroke-width="0.91206">
<g transform="translate(87.52,266.7848) scale(3.2893) translate(-126,-146.1333)">
<path id="0" d="M126 184.1333 C126 184.1333 128.7851 171.18 134 166.1333 C141.101 159.2614 145.5457 158.0382 157 154.1333 C166.3115 150.959 167.5601 151.5939 178 151.1333 C201.2192 150.109 202.6042 148.6138 225 151.1333 C241.2072 152.9566 242.2913 154.4211 258 160.1333 C269.2599 164.2278 269.7357 167.24 280 171.1333 C282.7453 172.1746 285.6848 172.277 287 171.1333 C293.2737 165.6779 294.6739 160.1834 303 151.1333 C305.7434 148.1514 309.9711 146.0644 310 146.1333 C310.5393 147.4194 314.6758 164.2563 316 182.1333 C317.6351 204.2071 317.0817 221.7247 316 227.1333 C315.9567 227.3497 309.3574 228.4981 307 227.1333 C302.7126 224.6511 300.9499 221.9265 297 216.1333 C293.8058 211.4485 292.1468 205.2251 292 205.1333 C291.9907 205.1275 290.8874 209.0362 289 211.1333 C286.9608 213.3992 286.1507 213.9956 283 215.1333 C268.9278 220.215 267.854 222.065 253 224.1333 C229.5789 227.3945 228.2032 226.4518 204 226.1333 C190.6369 225.9575 190.0338 225.6834 177 223.1333 C167.4686 221.2685 166.6531 221.2539 158 217.1333 C146.2552 211.5406 143.9405 210.9202 135 203.1333 C130.0913 198.858 129.1898 196.1553 127 190.1333 C125.7612 186.7266 127 181.1333 127 181.1333 "/>
<path id="1" d="M205 184.1333 C205 184.1333 238.7882 200.2046 240 200.1333 C240.0021 200.1332 240.1926 182.8258 239 182.1333 C235.8758 180.3193 209 182.1333 209 182.1333 "/>
<path id="2" d="M153 176.1333 C153 176.1333 147.9695 181.0622 148 181.1333 C148.0579 181.2685 152.2767 183.1333 156 183.1333 C162.9811 183.1333 171.0026 181.1369 171 181.1333 C170.9943 181.1254 151 176.1333 151 176.1333 "/>
</g>
</g>
</svg>
