<?xml version="1.0" encoding="utf-8"?>
<!DOCTYPE svg PUBLIC "-//W3C//DTD SVG 1.1//EN" "http://www.w3.org/Graphics/SVG/1.1/DTD/svg11.dtd">
<svg viewBox="0 0 800 800" preserveAspectRatio="xMinYMin meet" xmlns="http://www.w3.org/2000/svg" version="1.1">
<g fill="none" stroke="black" stroke-linecap="round" stroke-linejoin="round" stroke-width="1.9105">
<g transform="translate(87.52,271.2394) scale(1.5703) translate(-117,-131.1333)">
<path id="0" d="M119 169.1333 C119 169.1333 118.5142 166.6192 119 166.1333 C122.7248 162.4085 125.1759 160.2278 132 156.1333 C139.8298 151.4355 140.3097 150.6163 149 148.1333 C171.0153 141.8432 172.2596 140.6323 195 138.1333 C216.727 135.7457 217.8586 136.5704 240 138.1333 C259.8897 139.5373 261.8638 138.0281 280 144.1333 C310.3965 154.3658 311.6082 156.6056 341 172.1333 C364.1871 184.3831 362.8797 187.8192 386 200.1333 C408.4534 212.0922 433 221.1333 433 221.1333 "/>
<path id="1" d="M117 167.1333 C117 167.1333 114.8618 179.8679 117 189.1333 C118.8541 197.1677 120.3839 199.4773 126 206.1333 C132.8934 214.3033 134.5436 215.8553 144 221.1333 C154.7657 227.1421 156.5845 228.2643 169 230.1333 C201.3887 235.0091 203.053 234.3856 237 235.1333 C316.2477 236.8789 318.43 237.9762 396 235.1333 C411.7367 234.5566 428 228.1333 428 228.1333 "/>
<path id="2" d="M431 222.1333 C431 222.1333 448.679 195.2864 467 175.1333 C471.763 169.894 473.8688 169.8938 481 167.1333 C488.7367 164.1385 489.6154 164.2898 498 163.1333 C503.7325 162.3426 508.0806 161.7785 510 163.1333 C512.1546 164.6542 513.7442 169.3565 515 175.1333 C516.0556 179.9889 516.3624 181.4267 515 186.1333 C511.2614 199.0484 509.1161 203.2423 504 213.1333 C503.3632 214.3645 500 215.1333 500 215.1333 "/>
<path id="3" d="M425 230.1333 C425 230.1333 421.9275 260.027 424 282.1333 C424.5053 287.5235 427.7852 291.6749 431 294.1333 C433.1393 295.7693 438.3776 296.4445 441 295.1333 C446.6588 292.3039 448.9913 289.1435 455 282.1333 C460.6653 275.5238 462.3415 274.8133 465 267.1333 C470.7268 250.5893 466.025 242.1217 473 230.1333 C478.3523 220.9341 485.0897 219.2795 497 212.1333 C501.3808 209.5049 508 209.1333 508 209.1333 "/>
<path id="4" d="M150 167.1333 C150 167.1333 150.3673 164.5288 151 164.1333 C152.8155 162.9986 154.5718 162.7566 158 162.1333 C159.8622 161.7947 161.6423 161.7757 162 162.1333 C162.5365 162.6698 163.2743 166.859 163 167.1333 C162.3141 167.8192 155.2109 169.284 155 169.1333 C154.8716 169.0416 155.562 163.1554 156 162.1333 C156.0505 162.0154 157.975 162.0583 158 162.1333 C158.225 162.8083 158.7887 167.0066 158 168.1333 C156.8301 169.8046 151.0745 172.1706 151 172.1333 C150.9627 172.1147 152 165.1333 152 165.1333 "/>
<path id="5" d="M128 205.1333 C128 205.1333 146.3844 207.0697 152 205.1333 C153.9767 204.4517 157 195.1333 157 195.1333 "/>
<path id="6" d="M200 147.1333 C200 147.1333 201.6054 160.8686 201 168.1333 C200.9059 169.2621 198 171.1333 198 171.1333 "/>
<path id="7" d="M207 163.1333 C207 163.1333 208.164 172.1496 207 179.1333 C206.3695 182.9162 203 187.1333 203 187.1333 "/>
<path id="8" d="M202 187.1333 L198 207.1333 "/>
<path id="9" d="M191 209.1333 L190 229.1333 "/>
<path id="10" d="M221 147.1333 L221 166.1333 "/>
<path id="11" d="M235 149.1333 L238 184.1333 "/>
<path id="12" d="M227 178.1333 C227 178.1333 227.4847 183.6071 226 187.1333 C223.9595 191.9794 219 197.1333 219 197.1333 "/>
<path id="13" d="M216 182.1333 C216 182.1333 217.2752 193.8885 216 203.1333 C215.4807 206.8981 212 211.1333 212 211.1333 "/>
<path id="14" d="M211 215.1333 L211 222.1333 "/>
<path id="15" d="M233 194.1333 C233 194.1333 231.8683 204.2417 229 213.1333 C227.0301 219.2401 223 225.1333 223 225.1333 "/>
<path id="16" d="M249 140.1333 L250 176.1333 "/>
<path id="17" d="M266 156.1333 C266 156.1333 267.3181 169.8181 267 177.1333 C266.9683 177.8618 265 179.1333 265 179.1333 "/>
<path id="18" d="M259 187.1333 C259 187.1333 258.6055 199.5211 257 203.1333 C256.5564 204.1315 251 205.1333 251 205.1333 "/>
<path id="19" d="M244 203.1333 C244 203.1333 243.4296 215.7209 241 226.1333 C240.1867 229.6188 237 233.1333 237 233.1333 "/>
<path id="20" d="M281 149.1333 L283 183.1333 "/>
<path id="21" d="M291 158.1333 C291 158.1333 291.4983 175.1534 291 181.1333 C290.9747 181.4367 289 182.1333 289 182.1333 "/>
<path id="22" d="M273 181.1333 L273 193.1333 "/>
<path id="23" d="M274 197.1333 C274 197.1333 274.3209 201.8217 273 204.1333 C271.0809 207.4917 266 211.1333 266 211.1333 "/>
<path id="24" d="M271 213.1333 C271 213.1333 271.5932 216.1842 271 217.1333 C269.9434 218.8239 266 221.1333 266 221.1333 "/>
<path id="25" d="M304 160.1333 C304 160.1333 305.2361 171.9355 304 182.1333 C303.3547 187.457 300 193.1333 300 193.1333 "/>
<path id="26" d="M293 196.1333 L285 217.1333 "/>
<path id="27" d="M296 219.1333 L292 231.1333 "/>
<path id="28" d="M320 172.1333 L319 195.1333 "/>
<path id="29" d="M312 203.1333 C312 203.1333 312.0317 217.536 311 226.1333 C310.9 226.9663 309 228.1333 309 228.1333 "/>
<path id="30" d="M343 177.1333 C343 177.1333 337.0891 186.239 334 194.1333 C333.0968 196.4414 334 200.1333 334 200.1333 "/>
<path id="31" d="M330 211.1333 L324 233.1333 "/>
<path id="32" d="M361 197.1333 L353 220.1333 "/>
<path id="33" d="M354 200.1333 C354 200.1333 350.7088 200.8168 349 200.1333 C346.7444 199.2311 344 196.1333 344 196.1333 "/>
<path id="34" d="M343 196.1333 L343 212.1333 "/>
<path id="35" d="M370 207.1333 L370 230.1333 "/>
<path id="36" d="M398 216.1333 C398 216.1333 398.242 225.8023 398 227.1333 C397.992 227.1773 396 227.1333 396 227.1333 "/>
<path id="37" d="M354 228.1333 L352 230.1333 "/>
<path id="38" d="M451 211.1333 L497 175.1333 "/>
<path id="39" d="M437 238.1333 L437 281.1333 "/>
<path id="40" d="M454 231.1333 L456 273.1333 "/>
<path id="41" d="M466 226.1333 C466 226.1333 467.0709 222.773 469 221.1333 C476.2373 214.9816 477.1667 214.0407 486 209.1333 C494.7503 204.272 505 201.1333 505 201.1333 "/>
<path id="42" d="M453 222.1333 L498 190.1333 "/>
<path id="43" d="M446 227.1333 L453 280.1333 "/>
<path id="44" d="M473 186.1333 L493 169.1333 "/>
<path id="45" d="M234 138.1333 C234 138.1333 244.9171 132.4777 255 131.1333 C265.9717 129.6704 268.2214 130.4492 279 132.1333 C282.8485 132.7347 285.0745 133.6577 287 136.1333 C290.5162 140.6541 293 150.1333 293 150.1333 "/>
<path id="46" d="M334 169.1333 C334 169.1333 346.4821 167.7784 355 168.1333 C356.2531 168.1855 357.0579 168.9221 358 170.1333 C360.1982 172.9596 361.3456 173.8611 362 177.1333 C363.0907 182.587 362 190.1333 362 190.1333 "/>
<path id="47" d="M224 237.1333 C224 237.1333 221.6213 248.8989 222 249.1333 C223.6477 250.1533 234.124 251.446 245 250.1333 C262.0968 248.0699 262.9332 246.9636 280 242.1333 C289.1513 239.5433 298 235.1333 298 235.1333 "/>
<path id="48" d="M327 238.1333 C327 238.1333 331.8421 246.1333 333 246.1333 C336.6668 246.1333 352 238.1333 352 238.1333 "/>
</g>
</g>
</svg>
