<?xml version="1.0" encoding="utf-8"?>
<!DOCTYPE svg PUBLIC "-//W3C//DTD SVG 1.1//EN" "http://www.w3.org/Graphics/SVG/1.1/DTD/svg11.dtd">
<svg viewBox="0 0 800 800" preserveAspectRatio="xMinYMin meet" xmlns="http://www.w3.org/2000/svg" version="1.1">
<g fill="none" stroke="black" stroke-linecap="round" stroke-linejoin="round" stroke-width="1.6321">
<g transform="translate(87.52,255.7078) scale(1.8381) translate(-116,-169.4667)">
<path id="0" d="M153 199.4667 C153 199.4667 156.7009 195.6162 161 193.4667 C183.0815 182.4259 184.1484 181.3124 207 172.4667 C214.245 169.6622 215.0705 170.0614 223 169.4667 C234.7294 168.587 235.293 168.2761 247 169.4667 C264.3704 171.2331 276.0959 174.1171 282 175.4667 C282.0742 175.4836 281.8214 177.3774 282 177.4667 C284.9466 178.9399 289.9961 179.1918 296 182.4667 C300.2419 184.7804 299.6998 186.9582 304 189.4667 C311.1473 193.6359 312.9666 191.9581 320 196.4667 C331.8573 204.0675 331.0058 207.1658 343 214.4667 C353.2742 220.7205 356.6012 219.5793 366 224.4667 C367.1865 225.0836 366.8687 226.9818 368 227.4667 C381.1328 233.095 384.6193 235.2198 401 239.4667 C410.7612 241.9973 412.4205 241.786 422 241.4667 C426.1644 241.3278 426.834 240.4663 431 238.4667 C439.1086 234.5746 440.895 234.3507 447 229.4667 C449.5262 227.4457 451.0001 222.4662 451 222.4667 C450.9994 222.4687 445.981 247.1801 439 259.4667 C436.708 263.5006 432.4271 264.659 426 266.4667 C417.6005 268.829 406.9875 268.4532 407 268.4667 C407.0349 268.5041 426.0221 273.4368 440 281.4667 C447.6136 285.8404 451.7038 289.0085 454 295.4667 C457.8369 306.258 456.5072 325.9341 456 326.4667 C455.8091 326.6671 442.2333 323.011 434 316.4667 C424.7376 309.1042 426.1013 304.2646 417 295.4667 C411.941 290.5763 410.6509 290.317 404 287.4667 C397.2335 284.5667 394.1607 286.6921 389 283.4667 C384.3185 280.5407 384.8087 276.7097 380 272.4667 C377.0361 269.8515 375.7545 268.936 372 268.4667 C361.3991 267.1415 359.6615 267.2172 348 268.4667 C332.139 270.1661 331.9385 272.8259 316 274.4667 C298.3584 276.2827 297.6224 276.779 280 275.4667 C251.2573 273.3262 250.3698 273.0815 222 267.4667 C202.8702 263.6806 202.1622 263.5404 184 256.4667 C155.1674 245.2371 154.44 244.1866 127 230.4667 C121.12 227.5267 116.0892 223.1801 116 222.4667 C115.9346 221.9435 120.6756 217.0613 125 214.4667 C127.0682 213.2257 128.6815 214.7381 131 213.4667 C142.9579 206.9091 156 197.4667 156 197.4667 "/>
<path id="1" d="M182 203.4667 C182 203.4667 183.9354 207.4236 184 207.4667 C184.0046 207.4697 185 205.4667 185 205.4667 "/>
<path id="2" d="M233 172.4667 C233 172.4667 244.6012 175.6875 250 179.4667 C251.9475 180.8299 252.784 184.3065 253 186.4667 C253.0829 187.2952 251.8295 189.2715 251 189.4667 C246.3294 190.5656 236.0648 190.4181 236 190.4667 C235.9866 190.4767 241.0461 192.8615 243 195.4667 C244.6203 197.627 245.4347 201.887 245 202.4667 C243.9527 203.8631 234.0322 207.3809 234 207.4667 C234 207.4667 239.7793 208.6901 242 210.4667 C243.2812 211.4916 244.142 214.3307 244 215.4667 C243.8991 216.2738 242.4472 218.041 241 218.4667 C235.5622 220.066 226.9981 220.4609 227 220.4667 C227.0091 220.494 241.0192 224.6612 244 227.4667 C245.0704 228.4741 244.9425 234.5817 244 236.4667 C243.3717 237.7233 240.4928 239.32 238 239.4667 C233.6078 239.725 227 237.466 227 237.4667 C227 237.4686 235.7674 240.676 238 243.4667 C239.4783 245.3146 239.356 252.2572 239 252.4667 C237.4589 253.3732 221.2924 253.3092 221 253.4667 C220.9721 253.4817 224.5436 256.8452 226 259.4667 C226.4977 260.3626 226.3831 261.9878 226 262.4667 C225.3359 263.2968 223.8806 264.2159 222 264.4667 C217.1515 265.1131 212.331 264.7087 211 264.4667 C210.956 264.4587 211 262.4667 211 262.4667 "/>
<path id="3" d="M256 173.4667 C256 173.4667 269.3767 180.0317 271 182.4667 C271.5981 183.3638 270.1407 189.1612 268 191.4667 C265.4052 194.2611 258.7473 194.7852 258 196.4667 C257.0417 198.6229 260.9365 207.0585 260 209.4667 C259.3487 211.1414 255.2312 213.2222 251 214.4667 C247.7672 215.4175 242.994 214.4598 243 214.4667 C243.0181 214.4874 252.5658 217.8088 258 222.4667 C261.6228 225.5719 264 230.8029 264 232.4667 C264 233.2986 260.6796 236.2487 258 237.4667 C256.3805 238.2028 252.9987 237.4654 253 237.4667 C253.0028 237.4694 260.7147 239.5155 261 240.4667 C261.8666 243.3553 260.8401 252.8664 259 257.4667 C258.4418 258.8622 255.6723 260.1326 253 260.4667 C248.8606 260.9841 243.3618 259.1049 243 259.4667 C242.6382 259.8284 244.4587 269.1513 244 269.4667 C242.619 270.4161 234.1819 271.5307 227 270.4667 C222.4225 269.7885 217 265.4667 217 265.4667 "/>
<path id="4" d="M274 182.4667 C274 182.4667 282.5434 190.8415 286 197.4667 C287.3006 199.9596 286.9764 202.928 286 205.4667 C285.155 207.6636 283.6225 209.2865 281 210.4667 C274.923 213.2013 265.9984 214.4617 266 214.4667 C266.0236 214.5374 282.7029 220.4398 285 222.4667 C285.3682 222.7915 284.613 226.8455 283 229.4667 C281.1006 232.5533 277.0801 233.8646 277 235.4667 C276.8252 238.9632 282.1261 247.3237 282 249.4667 C281.9692 249.9909 278.7131 252.2971 276 252.4667 C264.6269 253.1775 250.0061 251.4646 250 251.4667 C249.9971 251.4676 259.9987 253.037 264 256.4667 C267.97 259.8696 268.7662 263.4034 271 269.4667 C271.8603 271.8018 271.0933 275.4528 271 275.4667 C268.1985 275.8817 244.388 273.5679 244 273.4667 C243.9583 273.4558 248 269.4667 248 269.4667 "/>
<path id="5" d="M293 186.4667 C293 186.4667 300.9898 192.8146 304 197.4667 C304.9969 199.0073 304.8113 201.1951 304 203.4667 C302.6768 207.1715 301.813 209.3569 299 211.4667 C295.4199 214.1518 289.2211 214.6119 288 215.4667 C287.9027 215.5348 288.3512 218.1173 289 218.4667 C292.5112 220.3573 299.1564 220.7767 301 222.4667 C301.7551 223.1588 302.0896 227.8817 301 229.4667 C298.4219 233.2167 289.9557 238.3901 290 238.4667 C290.383 239.1281 311.8261 247.7133 312 248.4667 C312.1419 249.0817 302.5731 261.1801 296 264.4667 C292.3026 266.3153 282.0088 263.4596 282 263.4667 C281.9967 263.4693 291.0288 268.2509 291 268.4667 C290.9132 269.1176 285.5234 274.5678 280 278.4667 C277.7331 280.0668 275.5448 280.908 274 280.4667 C271.2356 279.6768 266 274.4667 266 274.4667 "/>
<path id="6" d="M314 197.4667 C314 197.4667 323.5918 214.3953 323 216.4667 C322.5008 218.2138 310.0589 222.3628 306 225.4667 C305.4801 225.8642 305.821 229.4136 306 229.4667 C310.2577 230.7282 321.2793 230.82 333 233.4667 C334.9647 233.9103 336.4657 235.0774 337 236.4667 C338.2226 239.6454 338.6789 242.3935 338 246.4667 C337.4017 250.0566 336.3321 252.1345 334 254.4667 C332.0565 256.4101 330.3488 257.01 327 257.4667 C320.2202 258.3912 312.0002 257.466 312 257.4667 C312 257.4667 325.7504 260.9675 326 261.4667 C326.1475 261.7616 322.7525 267.7142 319 271.4667 C317.0134 273.4533 315.5173 274.4667 313 274.4667 C302.9308 274.4667 289 271.4667 289 271.4667 "/>
<path id="7" d="M335 208.4667 C335 208.4667 342.1261 217.4404 342 220.4667 C341.8672 223.6544 333.9703 232.4449 334 232.4667 C335.6805 233.699 371.7895 242.3497 372 242.4667 C372.0397 242.4887 365.4866 244.2037 361 247.4667 C355.1758 251.7024 355.1689 254.59 350 258.4667 C348.4561 259.6246 345.2868 258.9504 345 259.4667 C344.3926 260.5599 345.4435 265.4708 345 267.4667 C344.9199 267.827 343.9682 268.3456 343 268.4667 C336.5645 269.2711 335.6218 269.7677 329 269.4667 C325.1607 269.2921 321.3141 267.7284 321 267.4667 C320.9838 267.4531 323 264.4667 323 264.4667 "/>
<path id="8" d="M354 220.4667 C354 220.4667 364.698 226.4571 368 230.4667 C369.0736 231.7703 368.9013 236.3851 368 237.4667 C366.2833 239.5268 362.926 241.0592 358 242.4667 C353.1356 243.8565 346.9977 243.4657 347 243.4667 C347.0066 243.4694 370.4648 247.1991 375 249.4667 C375.5852 249.7593 375.3212 253.612 375 257.4667 C374.836 259.4342 374.9413 260.4077 374 261.4667 C371.8393 263.8974 370.1631 265.834 367 266.4667 C359.883 267.8901 355.3472 267.6207 349 266.4667 C347.3331 266.1636 345 262.4667 345 262.4667 "/>
<path id="9" d="M149 235.4667 C149 235.4667 157.4149 236.4227 161 235.4667 C162.2149 235.1427 164 231.4667 164 231.4667 "/>
</g>
</g>
</svg>
