<?xml version="1.0" encoding="utf-8"?>
<!DOCTYPE svg PUBLIC "-//W3C//DTD SVG 1.1//EN" "http://www.w3.org/Graphics/SVG/1.1/DTD/svg11.dtd">
<svg viewBox="0 0 800 800" preserveAspectRatio="xMinYMin meet" xmlns="http://www.w3.org/2000/svg" version="1.1">
<g fill="none" stroke="black" stroke-linecap="round" stroke-linejoin="round" stroke-width="1.8241">
<g transform="translate(87.52,278.2973) scale(1.6446) translate(-140,-147)">
<path id="0" d="M150 269 C150 269 175.9355 262.8127 195 252 C206.8314 245.2897 205.7626 239.8537 217 231 C221.3554 227.5685 223.4236 229.3721 228 226 C241.6963 215.908 240.5344 210.726 255 203 C282.1822 188.4823 285.2344 189.2552 316 179 C335.7673 172.4109 336.8574 170.2357 357 169 C416.0528 165.3771 431.3919 167.1403 479 169 C481.4176 169.0944 481.7874 172.3937 485 174 C492.181 177.5905 495.134 175.6983 501 180 C508.3996 185.4264 508.4221 187.8744 515 196 C516.7877 198.2084 517.5321 198.567 518 201 C519.7941 210.3293 520.4512 211.7733 520 222 C518.9812 245.0927 521.643 252.6298 515 269 C510.7546 279.4618 503.2292 284.7881 492 291 C483.6308 295.6298 479.8867 294.6343 468 295 C415.7681 296.6071 410.8568 300.3178 362 295 C342.2999 292.8558 338.4369 289.4621 321 279 C305.6307 269.7784 304.0628 266.4032 292 253 C287.2999 247.7777 289.3223 244.523 285 239 C281.0925 234.0071 278.2121 234.5361 274 230 C272.4968 228.3812 273.5784 226.5333 272 225 C257.9194 211.3217 256.2943 206.7776 239 196 C223.8552 186.5619 220.7477 185.3523 203 182 C177.94 177.2664 174.8202 179.4165 149 179 C145.1936 178.9386 141.2153 180.2107 141 181 C139.3902 186.9026 138.9671 197.8835 140 212 C140.3438 216.6981 143.536 217.174 144 222 C145.8811 241.5632 143.3748 251.8111 145 264 C145.1414 265.0607 150 267 150 267 "/>
<path id="1" d="M473 188 C473 188 459.2932 186.0785 451 187 C448.9372 187.2292 446.8579 189.2842 446 191 C445.2081 192.5838 445.154 195.9848 446 197 C448.0211 199.4253 451.0016 201.2614 456 203 C461.6636 204.97 462.8882 205 469 205 C473.7014 205 478.2507 204.2488 479 203 C480.7982 200.0029 481.2834 186.7003 481 185 C480.9866 184.9198 477.8563 184.2356 476 185 C470.4748 187.2751 464 192 464 192 "/>
<path id="2" d="M515 261 C515 261 506.3885 264.0413 498 265 C489.3506 265.9885 488.3082 266.146 480 265 C474.6681 264.2646 472.6555 263.9592 469 261 C463.7308 256.7344 461.7695 253.8159 459 248 C457.7526 245.3805 458.9309 240.0069 459 240 C461.5492 239.7451 474.7607 241.2222 489 245 C498.6011 247.5472 498.6108 249.8703 508 253 C511.6112 254.2037 514.2696 254.1923 516 254 C516.2681 253.9702 517 252 517 252 "/>
<path id="3" d="M439 165 C439 165 438.3008 158.1797 436 156 C431.1043 151.362 426.9893 147.3927 420 147 C389.1833 145.2687 380.4927 148.3902 347 151 C345.1014 151.1479 343.093 152.3798 343 153 C342.3613 157.2582 341.6991 164.5575 344 171 C345.6563 175.6376 353 181 353 181 "/>
<path id="4" d="M421 200 C421 200 419.7335 208.4117 421 212 C421.7512 214.1284 427 217 427 217 "/>
<path id="5" d="M410 206 L419 217 "/>
<path id="6" d="M405 213 L415 218 "/>
<path id="7" d="M415 233 C415 233 411.2732 235 408 235 C397.2453 235 395.7266 235.1453 385 233 C379.0408 231.8082 379.0786 229.4473 373 228 C358.6263 224.5777 344.6185 221.5719 343 223 C340.7936 224.9468 339 244.3912 339 258 C339 260.3329 340.6327 262.4935 343 264 C349.9919 268.4494 352.3781 270.4324 361 272 C372.5228 274.095 374.806 273.742 387 272 C398.256 270.392 410 265 410 265 "/>
</g>
</g>
</svg>
