<?xml version="1.0" encoding="utf-8"?>
<!DOCTYPE svg PUBLIC "-//W3C//DTD SVG 1.1//EN" "http://www.w3.org/Graphics/SVG/1.1/DTD/svg11.dtd">
<svg viewBox="0 0 800 800" preserveAspectRatio="xMinYMin meet" xmlns="http://www.w3.org/2000/svg" version="1.1">
<g fill="none" stroke="black" stroke-linecap="round" stroke-linejoin="round" stroke-width="1.8481">
<g transform="translate(87.52,221.44) scale(1.6233) translate(-77,-152)">
<path id="0" d="M366,212C366,212 362.8097510026674,206.9048755013337 359,205C348.2964138496487,199.64820692482434 346.1767109880589,197.2402205635986 334,196C294.9074937696687,192.0183558469107 291.8695455956179,193.60320829518818 251,194C241.13526704530716,194.09577410635623 240.599539697519,194.44012274732827 231,197C203.52439439139601,204.3268281622944 202.57074654718232,206.9421454484047 176,214C171.98195064027908,215.06729436117587 170.914953955123,212.84476768537354 167,214C142.06980140781428,221.3564520435958 141.16684923132044,223.90073714268652 115,232C99.33019119646319,236.85017891538044 98.45656418442021,235.52573142029942 83,240C79.90631652443737,240.89553995345233 77.1875,242.4375 77,243C76.8125,243.5625 77.97302693450861,247.68842919291734 80,249C99.28223095634118,261.4767376776325 103.47412533916963,265.3025440309144 128,276C149.37884571787634,285.3248156854567 150.86315264020706,285.1522796008053 174,290C202.68915035602197,296.0110600745951 203.6332063216886,295.9747038842544 233,298C261.1084597279958,299.9385144639997 261.76248882668267,299.2550004965919 290,298C306.4361029948393,297.2695065335627 307.15805083830213,297.65583442193025 323,294C345.5235875836384,288.80224901916034 346.1081668089329,287.79200842393913 368,280C375.22304296198996,277.4290864033595 375.87273490600927,277.2419527573782 382,273C388.3773575468067,268.58490631374923 388.4243554943992,267.85442673088084 394,262C408.3356804591986,246.94753551784146 411.0821720230858,247.6745009101963 422,231C437.64168549684836,207.11088033208608 448.7418150659502,178.14427981608665 449,178C449.05472179381416,177.969420174045 454.28574694855865,194.98933510492813 456,212C460.72233256274876,258.8600692765069 461.99999679955124,306.99995306008514 462,307C462.0000002348114,307.00000344390037 462.8964631545465,302.6893894636395 462,300C460.76202707229293,296.2860812168788 459.914155925055,295.5941256409012 457,292C445.08855100588493,277.3092129072581 445.913243878676,274.6625720747725 432,263C413.2442999309229,247.27831023621482 406.3765846503099,248.75646284816202 389,235C385.5557920450153,232.27333536897044 387.0907084267252,229.32699179741527 384,225C379.8682108400621,219.21549517608693 379.38058057983016,218.95013413344375 374,214C367.0362664861443,207.59336516725276 366.14326377756583,206.6431214554178 359,202C357.22984910775233,200.849401920039 354,201 354,201"/>
<path id="1" d="M222,197C222,197 232.2873520710059,179.4012573964497 245,169C257.7126479289941,158.5987426035503 275.8728153035051,152 277,152C277,152 276.33307692307693,167.11038461538462 277,169C277.08307692307693,169.23538461538462 280.55635662789205,169.86709926107056 283,169C294.7715293624125,164.82300571011171 306.8346524037622,158.27968342309705 308,158C308.05059396221003,157.9878574490696 308.9044623239989,161.40642352438286 308,163C300.0553985054149,176.99763120474515 287,195 287,195"/>
<path id="2" d="M210,291C210,291 207.83212136137072,303.8715563217031 210,315C215.0513449231264,340.93023727204894 224.6167138310541,367.8190037535533 225,368C225.0383020182708,368.0180870641834 245.8362944908949,332.0458375425494 246,332C246.02170098769346,331.99392372344584 246.93023492878828,347.3565996835035 250,361C251.24484620362682,366.532649793897 254.9852109862005,372.0430225855985 255,372C255.12881878349927,371.6252544480021 272,297 272,297"/>
<path id="3" d="M140,229C140,229 141.99782736366586,287.9712125685727 142,288C142.0002148380426,288.0028466040646 144,282 144,282"/>
<path id="4" d="M117,245C117,245 117.99335202382325,249.00498598213255 118,249C118.02742290172911,248.97943282370318 120.99923668992963,241.99969467597185 121,242C121.0213726819703,242.00854907278813 123.00429381750588,250.97423709496468 123,251C122.99876139879637,251.00743160722172 120.22153846153846,249.1076923076923 120,248C119.58153846153846,245.90769230769231 120.99994949366116,241.00005050633882 121,241C121.00003787975413,240.99996212024587 121,247 121,247"/>
<path id="5" d="M187,215C187,215 190.19911026393044,217.71025278592384 193,218C203.20870739867982,219.05607317917378 205.14015765038565,219.48088759312924 216,218C226.30182673481204,216.5952054452529 228.23426114074456,215.70858182506961 237,212C239.6497740015723,210.87894176856557 239.60770948112832,208.02526736523072 242,207C245.15782348491064,205.64664707789544 249.34445213003553,205.3101883875148 251,206C252.06083649920052,206.4420152080002 252.14346058914592,210.63853776537368 254,212C257.9305113653217,214.8823750012359 260.36455474367756,216.40679523617658 266,217C277.64974397525475,218.2262888395005 283.7255229580775,213.45400706402384 292,216C297.4750282223499,217.68462406841536 298.12892979296714,223.56040275276564 305,229C309.6462692992101,232.6782965285413 311.10514999232413,234.65036785659458 316,235C335.2122862801278,236.37230616286627 344.172540740064,235.06050521550236 361,233C362.66984259683624,232.79552947793843 362.9185196252155,229.91064766396823 365,229C369.81907956335976,226.8916526910301 377,226 377,226"/>
<path id="6" d="M165,241C165,241 164.9640463917526,243.9965206185567 165,244C168.8390463917526,244.3715206185567 181.70416731274247,245.82499991752223 196,244C203.7317200806856,243.01297190459331 204.8164538443719,238.31232809372295 212,238C225.17623706620554,237.4271201275563 227.06616326061004,241.10842765734986 242,242C260.2729423874372,243.09092193357833 263.12345790881266,243.13403872079908 279,242C281.2374277464414,241.84018373239704 282.8213890531198,238.73808645624885 284,239C287.95892394977716,239.87976087772824 290.9160522755482,243.87061829644188 297,246C299.75648116965453,246.96476840937908 301.41374249431595,244.96549699772638 304,246C309.9853387988687,248.3941355195475 310.4166500935848,251.6764647389123 317,254C326.3243729157776,257.29095514674503 327.594771074123,256.84386345268035 338,258C345.2782689377896,258.8086965486433 347.59865809208355,259.4730932476136 353,258C356.1098635227398,257.15185540288917 356.4646546760306,253.26262332998908 360,252C368.6726439978624,248.90262714362058 381,248 381,248"/>
<path id="7" d="M171,282C171,282 182.14551106908394,284.02915371333495 191,282C204.51231904561672,278.90342688537953 205.4756499721864,277.27916251291344 219,271C233.2829974943145,264.3686083062111 233.53932850757957,260.6819726930158 247,256C254.43508294476626,253.41388419312477 256.1545353343301,254.74727243812373 265,255C273.39545692433216,255.23987019783806 274.6445239998709,254.29798840811586 282,257C297.7097393052239,262.7709246427353 298.12569373505886,266.03079237148927 314,273C318.01818377331324,274.7640806809668 319.4004693713721,273.1145315754806 323,275C328.98784478980286,278.136490127992 329.5380733944954,282.3614220183486 335,284C341.6880733944954,286.00642201834864 353,284 353,284"/>
</g>
</g>
</svg>
