<?xml version="1.0" encoding="utf-8"?>
<!DOCTYPE svg PUBLIC "-//W3C//DTD SVG 1.1//EN" "http://www.w3.org/Graphics/SVG/1.1/DTD/svg11.dtd">
<svg viewBox="0 0 800 800" preserveAspectRatio="xMinYMin meet" xmlns="http://www.w3.org/2000/svg" version="1.1">
<g fill="none" stroke="black" stroke-linecap="round" stroke-linejoin="round" stroke-width="1.1377">
<g transform="translate(87.52,241.7823) scale(2.637) translate(-128,-160)">
<path id="0" d="M128 227 C128 227 130.2106 217.7043 134 211 C136.1411 207.2119 137.1178 206.6344 141 204 C150.6288 197.4662 152.5658 192.8133 162 192 C202.6011 188.4999 214.7886 190.4824 257 194 C263.0249 194.5021 263.6148 199.4037 270 201 C280.1731 203.5433 283.929 200.2512 293 203 C297.7742 204.4467 298.0797 208.9499 303 211 C308.4738 213.2807 311.4556 210.6543 317 213 C322.9035 215.4976 329 222 329 222 "/>
<path id="1" d="M129 231 C129 231 145.5769 231.6731 155 231 C155.7766 230.9445 157 229 157 229 "/>
<path id="2" d="M129 234 C129 234 129.1444 241.4696 131 244 C132.8772 246.5598 135.845 248.6657 140 249 C174.5404 251.7791 179.2989 250.5602 218 251 C222.9546 251.0563 223.484 251.4261 228 250 C241.7785 245.6489 242.0819 242.1428 256 239 C271.8327 235.4249 275.2381 238.5833 290 236 C292.8647 235.4987 293.2359 232.691 296 232 C299.9487 231.0128 302.7328 233.5731 306 232 C313.5993 228.3411 323 219 323 219 "/>
<path id="3" d="M162 194 C162 194 170.5908 196.109 173 199 C175.7777 202.3332 176.7138 205.8476 177 212 C177.649 225.9541 177.5269 235.3911 175 242 C174.326 243.7628 164 246 164 246 "/>
<path id="4" d="M155 213 C155 213 159.8753 209.9751 160 210 C160.0227 210.0045 160.0214 213.9786 160 214 C160 214 158 212 158 212 "/>
<path id="5" d="M324 221 C324 221 323.6406 208.6147 327 201 C330.0397 194.11 333.8539 188.8959 339 187 C346.7981 184.127 362.7791 185.934 365 187 C365.4066 187.1952 365.9555 195.8411 364 199 C361.4541 203.1126 352.1039 207.5152 352 208 C351.9724 208.1287 360.2404 210.9743 361 213 C362.7234 217.5957 362.0046 231.3542 361 232 C358.75 233.4465 342.1676 234.2086 333 231 C327.6482 229.1269 325.678 222.0543 321 218 C320.3968 217.4772 318 218 318 218 "/>
<path id="6" d="M169 190 C169 190 189.5988 172.6008 207 161 C209.3269 159.4487 210.518 160.2048 214 160 C218.9328 159.7098 223.9989 159.9998 224 160 C224.0004 160.0001 221.1689 159.9869 220 161 C214.8599 165.4547 208.9714 172.8856 209 173 C209.0108 173.0433 222.8539 173.0243 223 173 C223.0174 172.9971 221.0422 170.9747 221 171 C220.6836 171.1898 217.995 175.9972 218 176 C218.2702 176.1501 225.3051 175.1197 230 176 C231.7851 176.3347 233.5669 178.1338 234 179 C234.2166 179.4331 233.7769 181.445 233 182 C228.5503 185.1784 220 189 220 189 "/>
<path id="7" d="M170 252 C170 252 179.5646 264.385 190 272 C196.6689 276.8665 198.6047 276.6014 207 279 C211.9867 280.4248 218.0011 280.0109 218 280 C217.9937 279.9367 205.9947 269.0053 206 269 C206.1329 268.8671 229.8683 268.0847 230 268 C230.026 267.9833 220.0107 260.0965 220 260 C220 260 229.0016 259.0088 229 259 C228.9697 258.8333 218 249 218 249 "/>
<path id="8" d="M257 193 C257 193 273.8884 182.0372 274 182 C274.0216 181.9928 271.9312 187.9587 272 188 C272.5157 188.3094 283.9703 187.9183 284 188 C284.0551 188.1515 276 199 276 199 "/>
<path id="9" d="M250 245 C250 245 258.6159 254.6297 266 260 C267.846 261.3426 272.0038 261.0089 272 261 C271.9873 260.9705 262.9897 253.0154 263 253 C263.0565 252.9152 277.7495 252.3618 278 252 C278.1726 251.7506 275.4554 244.6072 272 240 C270.2199 237.6266 266 236 266 236 "/>
<path id="10" d="M179 193 L179 205 "/>
<path id="11" d="M180 206 C180 206 183.8378 210.2811 185 214 C185.9723 217.1113 185 222 185 222 "/>
<path id="12" d="M182 225 L184 238 "/>
<path id="13" d="M185 238 C185 238 187.9984 237.9794 188 238 C188.0883 239.1478 186 251 186 251 "/>
</g>
</g>
</svg>
