<?xml version="1.0" encoding="utf-8"?>
<!DOCTYPE svg PUBLIC "-//W3C//DTD SVG 1.1//EN" "http://www.w3.org/Graphics/SVG/1.1/DTD/svg11.dtd">
<svg viewBox="0 0 800 800" preserveAspectRatio="xMinYMin meet" xmlns="http://www.w3.org/2000/svg" version="1.1">
<g fill="none" stroke="black" stroke-linecap="round" stroke-linejoin="round" stroke-width="1.8097">
<g transform="translate(87.52,248.3187) scale(1.6577) translate(-118,-93.1333)">
<path id="0" d="M118 197.1333 C118 197.1333 121.4194 193.1794 125 191.1333 C127.7958 189.5357 129.6973 190.8942 132 189.1333 C136.9707 185.3322 136.2782 181.7915 142 178.1333 C165.1461 163.335 167.2014 161.6339 193 150.1333 C207.635 143.6093 209.3928 144.5593 225 141.1333 C229.1343 140.2258 230.0622 142.1178 234 141.1333 C241.2193 139.3285 241.9951 135.5454 249 135.1333 C273.1279 133.714 277.3349 133.5634 302 137.1333 C313.2485 138.7614 314.5359 140.5185 325 146.1333 C334.3911 151.1724 333.4929 154.8764 343 159.1333 C365.5942 169.2501 368.2511 170.6028 392 176.1333 C402.7626 178.6397 407.4146 179.1859 416 176.1333 C425.5472 172.7388 427.7804 168.2004 437 160.1333 C438.9427 158.4335 440 155.1333 440 155.1333 "/>
<path id="1" d="M120 193.1333 C120 193.1333 124.5557 207.5943 132 216.1333 C139.8265 225.1108 142.6804 224.9841 154 232.1333 C161.4227 236.8214 161.8428 237.1877 170 240.1333 C179.4167 243.5338 180.7952 241.6138 190 245.1333 C197.1662 247.8733 197.0148 251.2283 204 253.1333 C217.4211 256.7936 218.9983 255.994 234 257.1333 C258.3323 258.9814 263.0181 259.8599 283 259.1333 C285.5098 259.0421 285.9843 256.1386 289 255.1333 C294.209 253.397 296.4582 255.7449 301 253.1333 C333.2246 234.6042 338.0092 222.6343 369 209.1333 C380.7324 204.0222 386.15 208.0526 402 209.1333 C407.3816 209.5003 408.2791 209.6968 413 212.1333 C423.0485 217.3197 422.6485 219.9576 433 225.1333 C444.1327 230.6997 457 234.1333 457 234.1333 "/>
<path id="2" d="M439 155.1333 C439 155.1333 446.8473 146.1937 455 141.1333 C460.1125 137.96 461.6503 138.3428 468 137.1333 C471.6912 136.4303 473.1028 136.2419 476 137.1333 C478.2565 137.8276 479.6557 138.8288 481 141.1333 C485.9076 149.5464 488.5852 151.5127 490 161.1333 C493.1945 182.856 489.4638 185.7066 491 209.1333 C491.4218 215.5653 493.2299 215.7157 494 222.1333 C494.6917 227.8977 494.8769 233.1833 494 234.1333 C493.1174 235.0894 487.4732 233.8302 482 235.1333 C477.549 236.1931 477.0638 238.9011 473 239.1333 C461.6013 239.7847 458.5613 239.2354 447 237.1333 C443.6114 236.5172 440 233.1333 440 233.1333 "/>
<path id="3" d="M417 191.1333 C417 191.1333 433.251 188.2929 445 181.1333 C463.4958 169.8624 481 152.1333 481 152.1333 "/>
<path id="4" d="M432 199.1333 C432 199.1333 440.2664 198.3585 446 195.1333 C455.1296 189.9979 454.9384 186.8388 464 181.1333 C467.6797 178.8165 470.2002 180.4082 473 178.1333 C476.7025 175.125 477.3695 170.7639 480 168.1333 C480.4642 167.6691 483 168.1333 483 168.1333 "/>
<path id="5" d="M439 206.1333 C439 206.1333 451.6433 205.5358 461 202.1333 C466.5487 200.1156 466.97 195.81 472 194.1333 C476.7846 192.5385 485 194.1333 485 194.1333 "/>
<path id="6" d="M432 212.1333 C432 212.1333 448.0619 211.8206 461 216.1333 C477.919 221.773 495 233.1333 495 233.1333 "/>
<path id="7" d="M460 208.1333 L490 217.1333 "/>
<path id="8" d="M195 152.1333 C195 152.1333 203.2189 164.711 206 177.1333 C210.344 196.5365 210 219.1333 210 219.1333 "/>
<path id="9" d="M171 192.1333 C171 192.1333 178.6944 188.1333 179 188.1333 C179 188.1333 179.3766 191.6626 179 192.1333 C178.6046 192.6276 175 193.1333 175 193.1333 "/>
<path id="10" d="M240 192.1333 C240 192.1333 265.2914 162.2192 266 162.1333 C266.092 162.1222 271.2796 175.353 273 188.1333 C274.6603 200.4667 273.8159 211.103 273 214.1333 C272.9409 214.353 269.0289 214.9594 266 214.1333 C258.8015 212.1701 251 208.1333 251 208.1333 "/>
<path id="11" d="M252 194.1333 L259 181.1333 "/>
<path id="12" d="M257 192.1333 L265 201.1333 "/>
<path id="13" d="M257 194.1333 L263 184.1333 "/>
<path id="14" d="M263 191.1333 L270 192.1333 "/>
<path id="15" d="M254 194.1333 L266 209.1333 "/>
<path id="16" d="M320 238.1333 C320 238.1333 336.7825 233.0164 353 230.1333 C358.6536 229.1282 364.203 229.275 365 230.1333 C366.0678 231.2833 367.3566 241.6668 366 244.1333 C364.7291 246.444 355.605 247.592 354 250.1333 C352.4634 252.5663 355.0719 257.5056 354 263.1333 C353.2775 266.9264 351.798 270.5768 350 271.1333 C339.0204 274.5318 330.9172 274.7002 312 276.1333 C298.1986 277.1789 296.9496 278.0218 284 276.1333 C274.2781 274.7156 271.9806 273.567 264 269.1333 C260.1767 267.0093 260.833 263.9016 257 261.1333 C252.617 257.9679 246 256.1333 246 256.1333 "/>
<path id="17" d="M302 249.1333 C302 249.1333 316.1513 251.8664 320 251.1333 C320.905 250.961 321.112 247.0213 323 245.1333 C325.3075 242.8258 330 241.1333 330 241.1333 "/>
<path id="18" d="M284 260.1333 C284 260.1333 302.9268 263.3894 318 262.1333 C324.4599 261.595 332 256.1333 332 256.1333 "/>
<path id="19" d="M224 142.1333 C224 142.1333 231.0606 131.3199 240 124.1333 C255.6928 111.5175 257.2419 109.3497 275 101.1333 C288.8905 94.7064 291.2357 94.988 307 93.1333 C324.2281 91.1065 342.9885 93.1314 343 93.1333 C343.0036 93.1339 333.97 94.1634 331 97.1333 C326.1738 101.9595 321.492 113.1173 322 114.1333 C322.8128 115.759 339.1895 120.2908 344 123.1333 C344.4162 123.3793 344.6542 126.2338 344 127.1333 C341.9036 130.0159 340.3201 131.4748 336 134.1333 C327.7377 139.2178 318 143.1333 318 143.1333 "/>
<path id="20" d="M266 129.1333 C266 129.1333 276.0083 127.5052 285 124.1333 C295.6608 120.1355 300.8528 117.0746 306 114.1333 C306.2202 114.0075 306 112.1333 306 112.1333 "/>
<path id="21" d="M294 130.1333 L329 123.1333 "/>
</g>
</g>
</svg>
