<?xml version="1.0" encoding="utf-8"?>
<!DOCTYPE svg PUBLIC "-//W3C//DTD SVG 1.1//EN" "http://www.w3.org/Graphics/SVG/1.1/DTD/svg11.dtd">
<svg viewBox="0 0 800 800" preserveAspectRatio="xMinYMin meet" xmlns="http://www.w3.org/2000/svg" version="1.1">
<g fill="none" stroke="black" stroke-linecap="round" stroke-linejoin="round" stroke-width="1.5889">
<g transform="translate(87.52,224.407) scale(1.8881) translate(-104,-97)">
<path id="0" d="M327 182 C327 182 332.7457 178.5943 336 174 C349.0643 155.5563 347.4762 152.2571 361 134 C366.8032 126.1656 367.9958 125.946 376 120 C385.1116 113.2314 385.7992 112.817 396 108 C403.2973 104.554 404.0436 104.5913 412 103 C418.6459 101.6708 426 102 426 102 C426 102 422.6986 101.2073 421 102 C416.4931 104.1032 415.5252 105.0587 411 109 C400.1994 118.407 399.5413 118.7247 390 129 C386.9461 132.2888 385.6401 133.1595 385 137 C381.6184 157.2896 381.9526 160.1366 381 183 C380.4644 195.8555 380.5607 196.7663 382 209 C382.4603 212.9126 382.9397 213.7952 385 217 C387.0454 220.1818 387.644 220.9431 391 223 C402.4329 230.0072 405.9688 234.1761 416 236 C422.6319 237.2058 434.904 230.9302 435 231 C435.0091 231.0066 431.2043 239.7957 427 244 C424.7978 246.2022 422.867 246.4956 419 247 C412.0875 247.9016 410.5937 248.8219 404 247 C374.6351 238.886 372.441 233.7283 343 226 C334.5899 223.7923 331.5768 223.2448 324 226 C296.8104 235.8871 295.1839 242.703 266 254 C249.849 260.252 248.4626 259.5053 231 262 C213.9515 264.4355 212.7513 265.0636 196 264 C182.3672 263.1344 181.5219 262.0329 168 258 C153.3472 253.6299 151.8933 253.8765 139 247 C130.5195 242.4771 126.9423 240.5047 123 234 C119.1051 227.5734 119 214 119 214 "/>
<path id="1" d="M118 200 L118 200 "/>
<path id="2" d="M328 182 C328 182 298.2657 168.1063 268 156 C248.396 148.1584 247.6015 145.5424 228 142 C208.0986 138.4034 206.2332 140.3662 185 141 C173.0965 141.3553 172.2088 140.9822 161 144 C147.0107 147.7664 145.6853 148.4947 133 155 C127.1118 158.0196 126.6988 159.0539 122 164 C117.5065 168.73 117.1047 169.308 114 175 C111.3362 179.8837 110.7725 180.5922 110 186 C108.3882 197.2829 110.8091 201.256 109 210 C108.549 212.1798 103.9862 214.9892 104 215 C104.1938 215.1508 117.983 216.9702 118 217 C118.0012 217.0021 107.9989 221.9974 108 222 C108.0116 222.0271 121 224 121 224 "/>
<path id="3" d="M178 196 C178 196 186.1696 186.8326 193 185 C202.893 182.3458 210.7424 187.6781 219 185 C223.7297 183.4661 229.9793 172.9868 230 173 C230.0743 173.0473 230.9869 184.4337 230 192 C229.7719 193.7487 228.6516 195.0366 227 196 C223.671 197.9419 220.9462 197.0359 218 199 C216.3037 200.1309 215.637 201.6644 215 204 C214.3431 206.4086 214.1202 207.9471 215 210 C216.5502 213.6171 219.785 214.355 221 218 C222.215 221.645 222.2983 224.4761 221 228 C219.4967 232.0803 216.1815 232.6371 214 237 C212.6911 239.6177 213.3348 243.7608 213 244 C212.7449 244.1822 207.7916 243.2953 207 242 C204.3381 237.6442 205.1539 230.8521 202 226 C200.4927 223.6811 197.6039 222.569 194 222 C189.4731 221.2852 183 223 183 223 "/>
<path id="4" d="M127 182 C127 182 122.5401 187.2193 122 191 C121.3487 195.559 122.0196 200.4102 124 203 C125.9632 205.5673 130.3515 207.3027 135 208 C138.4418 208.5163 141.8926 207.5806 144 206 C145.6558 204.7581 146.3271 202.3644 147 199 C147.7083 195.4585 147.756 194.2758 147 191 C146.4621 188.6691 145.7669 187.5706 144 186 C141.943 184.1715 140.844 183.5332 138 183 C133.6663 182.1874 131.3678 182.0378 128 183 C126.268 183.4949 124 187 124 187 "/>
<path id="5" d="M137 155 C137 155 142.1896 145.2645 149 138 C156.6843 129.8034 157.8245 126.4756 167 123 C187.0653 115.3995 195.2786 120.5852 215 113 C223.661 109.6688 232 98 232 98 "/>
<path id="6" d="M237 97 C237 97 245.9342 99.9342 249 103 C250.7032 104.7032 251.3727 108.5772 251 111 C250.7279 112.7687 247.9396 113.5571 247 116 C245.7951 119.1326 245.4834 123.5867 246 124 C247.8368 125.4694 258.616 124.7513 262 128 C266.81 132.6176 265.6222 141.6869 271 148 C274.6788 152.3186 281.2523 150.8775 285 155 C288.8859 159.2745 287.9266 165.2502 291 170 C291.8521 171.3169 296 172 296 172 "/>
<path id="7" d="M172 262 C172 262 189.2704 267.1577 201 274 C204.9913 276.3283 207.8082 283.032 208 283 C208.2383 282.9603 210.2223 273.7093 213 272 C218.6824 268.5031 224.2619 270.5877 234 267 C242.6611 263.8091 251 258 251 258 "/>
</g>
</g>
</svg>
