<?xml version="1.0" encoding="utf-8"?>
<!DOCTYPE svg PUBLIC "-//W3C//DTD SVG 1.1//EN" "http://www.w3.org/Graphics/SVG/1.1/DTD/svg11.dtd">
<svg viewBox="0 0 800 800" preserveAspectRatio="xMinYMin meet" xmlns="http://www.w3.org/2000/svg" version="1.1">
<g fill="none" stroke="black" stroke-linecap="round" stroke-linejoin="round" stroke-width="1.7809">
<g transform="translate(87.52,252.6038) scale(1.6845) translate(-62,-104.1333)">
<path id="0" d="M116 198.1333 C116 198.1333 119.787 196.2128 121 194.1333 C122.6076 191.3774 121.2198 189.397 123 186.1333 C126.8096 179.1492 127.5827 178.6341 133 172.1333 C137.4471 166.7969 137.5698 165.8927 143 162.1333 C149.9112 157.3486 151.6347 158.798 159 154.1333 C166.3303 149.4908 165.6865 146.7901 173 143.1333 C182.5639 138.3514 186.5833 139.6403 195 136.1333 C196.0978 135.6759 195.903 133.6818 197 133.1333 C200.6044 131.3311 202.1985 130.2198 207 130.1333 C255.2256 129.2644 260.7355 124.9299 308 131.1333 C336.8009 134.9135 338.9772 139.5141 367 151.1333 C378.9953 156.107 378.093 159.8862 390 165.1333 C406.8539 172.5605 412.5958 171.2905 426 177.1333 C427.6839 177.8673 427.47 180.8219 429 182.1333 C430.02 183.0076 433 183.1039 433 183.1333 C433 183.2512 429.7811 185.3758 429 187.1333 C428.324 188.6543 429.7714 190.9211 429 192.1333 C427.387 194.6681 425.733 195.9721 422 198.1333 C416.6913 201.2068 416.0491 201.621 410 203.1333 C400.5268 205.5016 390 206.1333 390 206.1333 "/>
<path id="1" d="M384 202.1333 C384 202.1333 386.8868 202.7558 387 203.1333 C387.5364 204.9214 387.7986 208.6726 387 212.1333 C386.5836 213.9376 384 216.1333 384 216.1333 "/>
<path id="2" d="M390 210.1333 C390 210.1333 414.3508 208.5149 416 209.1333 C416.1126 209.1756 416.0299 215.6272 414 219.1333 C411.4148 223.5987 409.9543 225.4749 405 228.1333 C391.0369 235.6257 389.2445 235.7185 373 241.1333 C351.9864 248.1379 351.0503 251.3912 330 253.1333 C281.194 257.1724 275.2421 259.921 228 253.1333 C192.989 248.103 191.4288 241.5963 156 228.1333 C141.6807 222.692 142.07 219.3543 128 215.1333 C113.2243 210.7006 96 210.1333 96 210.1333 "/>
<path id="3" d="M120 195.1333 C120 195.1333 104.3238 199.3868 97 197.1333 C90.3557 195.0889 87.5484 187.9584 81 183.1333 C80.2535 182.5833 78.4949 183.6283 78 183.1333 C73.5456 178.6789 70.7361 175.8295 66 168.1333 C63.1518 163.5051 63.0169 162.4719 62 157.1333 C61.1355 152.5945 62 147.1333 62 147.1333 C62 147.1333 62.4576 233.4088 64 246.1333 C64.0188 246.2887 70.2988 247.1203 74 246.1333 C76.2454 245.5346 77.8715 244.3902 79 242.1333 C84.3818 231.3697 83.1284 226.8979 89 216.1333 C91.1212 212.2444 97 209.1333 97 209.1333 "/>
<path id="4" d="M66 181.1333 C66 181.1333 77.821 181.6035 87 183.1333 C88.4342 183.3724 89.9951 185.1235 90 185.1333 C90.0014 185.1362 88 185.1333 88 185.1333 "/>
<path id="5" d="M62 190.1333 C62 190.1333 71.0763 196.1619 79 199.1333 C81.7223 200.1542 86 199.1333 86 199.1333 "/>
<path id="6" d="M67 204.1333 L86 206.1333 "/>
<path id="7" d="M68 213.1333 L89 213.1333 "/>
<path id="8" d="M75 227.1333 C75 227.1333 83.0517 228.6598 87 228.1333 C88.1313 227.9825 90 225.1333 90 225.1333 "/>
<path id="9" d="M148 159.1333 C148 159.1333 139.7801 149.9211 132 145.1333 C128.4503 142.9489 121.9865 143.1564 122 143.1333 C122.07 143.0133 130.3032 137.0864 139 133.1333 C146.3758 129.7807 148.1943 131.6622 155 128.1333 C160.7347 125.1598 161.0468 120.7254 166 119.1333 C172.061 117.1851 175.5891 117.3781 183 119.1333 C193.0839 121.5216 195.4746 123.6853 204 128.1333 C205.1829 128.7505 206 131.1333 206 131.1333 "/>
<path id="10" d="M251 129.1333 C251 129.1333 256.0135 125.2869 258 121.1333 C260.9607 114.9427 260.5378 107.3214 262 106.1333 C262.9372 105.3719 269.6498 108.6167 274 108.1333 C276.3803 107.8689 279.4245 104.1333 280 104.1333 C280.1918 104.1333 280.7669 107.3113 282 108.1333 C285.347 110.3647 287.4957 111.7868 292 112.1333 C298.9245 112.666 302.6867 109.2093 308 110.1333 C310.7305 110.6082 312.0785 115.4694 315 116.1333 C320.1602 117.3061 327.0044 114.4285 330 115.1333 C330.6445 115.285 331.271 119.9415 332 120.1333 C335.7377 121.1169 348.0552 119.0774 349 120.1333 C350.1802 121.4524 347.7785 131.8046 349 139.1333 C349.3643 141.3191 353 144.1333 353 144.1333 "/>
<path id="11" d="M268 110.1333 L263 125.1333 "/>
<path id="12" d="M278 109.1333 C278 109.1333 278.187 116.6819 277 121.1333 C276.6323 122.5123 274 124.1333 274 124.1333 "/>
<path id="13" d="M290 113.1333 L290 124.1333 "/>
<path id="14" d="M302 115.1333 L300 124.1333 "/>
<path id="15" d="M315 118.1333 L315 127.1333 "/>
<path id="16" d="M330 122.1333 L331 128.1333 "/>
<path id="17" d="M342 125.1333 L341 135.1333 "/>
<path id="18" d="M156 171.1333 C156 171.1333 154.0678 170.9977 154 171.1333 C153.5594 172.0146 152.7782 176.8672 153 177.1333 C153.2146 177.3909 159.0042 177.1249 159 177.1333 C158.9852 177.1629 150.3393 182.4548 150 183.1333 C149.9354 183.2626 154.0265 187.0804 154 187.1333 C153.9272 187.2788 148.4307 187.7026 147 189.1333 C145.2513 190.882 144.5436 193.5998 144 197.1333 C143.6887 199.1571 144.325 201.6271 145 202.1333 C146.1014 202.9594 152 203.1333 152 203.1333 "/>
<path id="19" d="M196 150.1333 C196 150.1333 188.7367 149.7974 187 151.1333 C185.0582 152.6271 182.9586 159.7608 183 160.1333 C183.0027 160.1575 188.0039 160.1285 188 160.1333 C187.9882 160.1481 178.9963 165.1075 179 165.1333 C179.0034 165.1571 188.922 166.9579 189 167.1333 C189.0524 167.2513 184.6995 170.7342 183 174.1333 C181.7253 176.6826 181.6294 180.8301 182 181.1333 C183.0691 182.008 194 183.1333 194 183.1333 "/>
<path id="20" d="M230 146.1333 C230 146.1333 222.416 148.516 220 151.1333 C218.3284 152.9443 217.9316 158.5861 218 159.1333 C218.0033 159.1598 221.0049 159.1188 221 159.1333 C220.9628 159.245 215.9474 165.0545 216 165.1333 C216.2037 165.4388 226.3289 167.6114 227 168.1333 C227.0559 168.1768 224.8279 171.858 225 172.1333 C225.5242 172.972 232 176.1333 232 176.1333 "/>
<path id="21" d="M209 198.1333 C209 198.1333 200.0011 199.1289 200 199.1333 C199.9997 199.1347 208 202.1105 208 202.1333 C208 202.1561 201.2543 203.6003 200 205.1333 C198.8413 206.5496 198.1752 211.8503 199 213.1333 C200.3933 215.3008 204.3681 217.3964 209 219.1333 C211.2687 219.9841 215 219.1333 215 219.1333 "/>
<path id="22" d="M137 139.1333 C137 139.1333 141.1503 138.0764 143 139.1333 C152.6007 144.6194 165 155.1333 165 155.1333 "/>
<path id="23" d="M160 135.1333 C160 135.1333 173.1771 134.0355 176 135.1333 C176.8331 135.4573 178 142.1333 178 142.1333 "/>
<path id="24" d="M172 125.1333 C172 125.1333 184.3011 129.1339 190 132.1333 C190.6778 132.4901 191 135.1333 191 135.1333 "/>
<path id="25" d="M277 153.1333 C277 153.1333 271.4426 152.7645 271 153.1333 C270.6926 153.3895 270.4361 157.1465 271 158.1333 C271.4833 158.9792 275.0076 160.131 275 160.1333 C274.968 160.1429 262.8265 160.481 261 161.1333 C260.8183 161.1982 260.8394 165.0749 261 165.1333 C262.2144 165.5749 272 165.1333 272 165.1333 "/>
<path id="26" d="M273 186.1333 C273 186.1333 250.0001 186.1333 250 186.1333 C250 186.1333 259.9691 187.0201 260 187.1333 C260.067 187.379 252.9506 196.9685 253 197.1333 C253.0188 197.1959 263.0014 197.1326 263 197.1333 C262.9965 197.1352 244.7242 201.635 242 203.1333 C241.8038 203.2412 242.4993 207.883 243 208.1333 C244.2876 208.7771 252 208.1333 252 208.1333 "/>
<path id="27" d="M318 155.1333 C318 155.1333 314.9649 154.5819 314 155.1333 C312.7249 155.8619 311.5462 157.3127 311 159.1333 C310.3312 161.3627 310.2113 164.0066 311 165.1333 C312.1699 166.8046 318.0081 169.1118 318 169.1333 C317.9545 169.2548 309.8922 171.6196 308 173.1333 C307.5413 173.5003 307.5986 176.7892 308 177.1333 C309.0204 178.0079 314.9465 179.0441 315 179.1333 C315.0052 179.142 311.64 180.8533 311 182.1333 C310.36 183.4133 310.7845 186.5945 311 187.1333 C311.0345 187.2195 313 187.1333 313 187.1333 "/>
<path id="28" d="M355 150.1333 C355 150.1333 350.5692 154.362 348 159.1333 C343.8213 166.8939 342.6866 167.9414 341 176.1333 C339.4452 183.6851 338.939 185.9199 341 193.1333 C345.3644 208.4088 355 225.1333 355 225.1333 "/>
<path id="29" d="M328 208.1333 C328 208.1333 305.2924 207.5456 300 209.1333 C299.1771 209.3802 297.7977 216.9933 298 217.1333 C298.8971 217.7544 313.0001 218.1331 313 218.1333 C312.9998 218.1337 300.2605 218.5637 296 220.1333 C295.0771 220.4734 293.9721 225.1194 294 225.1333 C294.9477 225.6072 307.5474 226.5202 310 227.1333 C310.0743 227.1519 309.965 229.1283 310 229.1333 C311.715 229.3783 317.691 230.3951 324 229.1333 C331.7511 227.5831 340 223.1333 340 223.1333 "/>
<path id="30" d="M317 218.1333 L329 218.1333 "/>
<path id="31" d="M318 223.1333 L333 223.1333 "/>
<path id="32" d="M368 167.1333 C368 167.1333 363.7797 169.418 363 171.1333 C362.1299 173.0475 362.484 177.7205 363 178.1333 C363.9951 178.9294 372.2994 179.5537 373 179.1333 C373.313 178.9455 373.6345 174.0368 373 172.1333 C372.7281 171.3176 370 170.1333 370 170.1333 "/>
<path id="33" d="M368 176.1333 L369 176.1333 "/>
<path id="34" d="M364 162.1333 L370 162.1333 "/>
<path id="35" d="M149 132.1333 L171 145.1333 "/>
<path id="36" d="M154 230.1333 C154 230.1333 145.6371 239.0694 141 245.1333 C140.6282 245.6196 140.9519 247.1237 141 247.1333 C142.2019 247.3737 150.9674 247.124 151 247.1333 C151.0079 247.1356 148.4962 248.1409 148 249.1333 C147.0784 250.9765 146.9636 255.1301 147 255.1333 C150.5729 255.4509 172.8057 255.1132 193 253.1333 C195.3143 252.9064 197.1089 251.3809 198 250.1333 C198.5424 249.3739 198 246.1333 198 246.1333 "/>
<path id="37" d="M156 243.1333 C156 243.1333 160.4252 244.0989 163 243.1333 C167.138 241.5816 172 237.1333 172 237.1333 "/>
<path id="38" d="M160 249.1333 C160 249.1333 178.5955 250.0821 185 249.1333 C185.6642 249.0349 187 245.1333 187 245.1333 "/>
<path id="39" d="M273 259.1333 C273 259.1333 260.96 265.691 249 270.1333 C243.9994 271.9907 242.0576 270.2239 238 272.1333 C235.0018 273.5443 231.9879 278.1239 232 278.1333 C232.1433 278.2448 240.8693 279.9693 247 279.1333 C250.1122 278.7089 250.9663 275.2712 254 275.1333 C269.5911 274.4246 278.198 277.7578 291 277.1333 C292.4554 277.0623 293.9233 275.2866 295 273.1333 C297.5122 268.1089 296.2299 263.9034 299 261.1333 C302.4626 257.6707 313 255.1333 313 255.1333 "/>
<path id="40" d="M279 260.1333 L264 270.1333 "/>
<path id="41" d="M290 264.1333 L278 270.1333 "/>
</g>
</g>
</svg>
