<?xml version="1.0" encoding="utf-8"?>
<!DOCTYPE svg PUBLIC "-//W3C//DTD SVG 1.1//EN" "http://www.w3.org/Graphics/SVG/1.1/DTD/svg11.dtd">
<svg viewBox="0 0 800 800" preserveAspectRatio="xMinYMin meet" xmlns="http://www.w3.org/2000/svg" version="1.1">
<g fill="none" stroke="black" stroke-linecap="round" stroke-linejoin="round" stroke-width="2.9042">
<g transform="translate(87.52,206.314) scale(1.033) translate(-16,-58)">
<path id="0" d="M157 211 C157 211 185.2514 187.9731 215 170 C232.349 159.5183 233.6769 160.2746 253 153 C275.9123 144.3742 276.2433 143.8449 300 138 C338.8692 128.4369 339.5304 127.5985 379 122 C409.3866 117.6898 410.0324 118.8976 441 118 C478.8894 116.9018 479.8737 115.4614 517 118 C537.2959 119.3878 538.0768 120.5473 558 126 C585.1826 133.4395 612 144 612 144 "/>
<path id="1" d="M159 209 C159 209 139.0098 232.9604 137 234 C136.8948 234.0544 132.2143 229.0929 130 224 C127.5717 218.4148 127.5265 217.4494 127 211 C125.5658 193.4306 123.5966 191.0225 126 175 C127.7095 163.6032 129.6537 161.7231 136 151 C143.6883 138.0094 144.8144 137.4203 155 126 C160.946 119.3333 161.6798 117.759 169 114 C178.6557 109.0417 181.0154 108.0171 192 107 C206.3136 105.6747 222.5014 109.0959 223 109 C223.0595 108.9886 220.9755 104.705 218 102 C210.4541 95.1401 209.9855 94.1619 201 89 C187.0295 80.9744 186.0692 81.5686 171 75 C166.6976 73.1246 166.362 72.3739 162 72 C149.7486 70.9499 146.4864 69.6406 136 72 C129.5367 73.4542 125.7891 75.79 122 81 C115.8225 89.4941 114.7799 99.4402 112 105 C111.9041 105.1917 110.2475 105.3057 110 105 C104.9343 98.7424 103.4129 91.9181 95 84 C87.8967 77.3145 85.8236 77.2376 76 73 C60.7982 66.4424 60.0624 66.0156 44 62 C30.5954 58.6488 16.0302 57.9753 16 58 C15.9922 58.0064 25.5676 63.8153 33 71 C40.1559 77.9174 40.6799 78.4878 46 87 C55.3998 102.0397 60.4447 103.9689 63 119 C67.9802 148.2954 64.0049 153.1693 63 187 C62.511 203.4622 60.3072 203.5672 60 220 C59.3126 256.7775 57.7641 259.1245 61 294 C62.0369 305.1755 63.4186 306.7424 69 317 C81.402 339.7929 81.0721 346.1434 98 362 C116.3584 379.1965 122.206 379.2564 148 391 C182.8089 406.848 184.2237 406.7298 221 418 C245.6027 425.5395 246.4496 424.6448 272 429 C290.2087 432.1038 290.5651 432.4695 309 433 C359.663 434.4579 361.721 436.2139 411 433 C428.6762 431.8472 430.4941 430.7246 447 424 C469.7939 414.7136 471.6275 414.1809 492 400 C521.6201 379.3821 521.5794 377.3358 549 353 C561.3058 342.0786 562.873 342.0641 572 329 C587.6173 306.6458 588.771 305.1432 600 280 C611.3265 254.6385 611.5218 252.8384 618 226 C621.7445 210.487 620.2281 209.4662 621 193 C621.722 177.5974 621.8986 177.2761 621 162 C620.4151 152.0575 618.0219 141.9632 618 142 C617.8685 142.2202 600.9226 186.8994 581 229 C574.7909 242.1212 573.8556 242.3365 565 254 C553.5619 269.0649 553.7706 271.0655 540 283 C524.911 296.0772 522.9386 296.452 505 306 C492.7265 312.5326 491.6314 312.4822 478 316 C461.1577 320.3464 460.4219 320.6887 443 322 C414.4602 324.1482 385 323 385 323 "/>
<path id="2" d="M416 153 C416 153 410.9181 154.5682 408 157 C405.6826 158.9311 404.3356 160.3149 404 163 C402.6574 173.7405 402.1834 178.4031 404 189 C404.7007 193.0874 406.6474 195.0944 410 198 C413.0287 200.6249 414.7116 201.4282 419 202 C428.4466 203.2595 432.8912 203.9611 440 202 C443.4552 201.0468 445.3234 198.2379 448 194 C450.7737 189.6083 451.3125 188.3279 452 183 C453.1939 173.7471 453.2611 171.197 452 163 C451.5829 160.2887 450.4082 158.9567 448 157 C443.2005 153.1004 441.801 151.6574 436 150 C429.2519 148.072 425.1793 147.4064 420 149 C415.7855 150.2968 410 158 410 158 "/>
<path id="3" d="M614 143 L616 144 "/>
</g>
</g>
</svg>
