<?xml version="1.0" encoding="utf-8"?>
<!DOCTYPE svg PUBLIC "-//W3C//DTD SVG 1.1//EN" "http://www.w3.org/Graphics/SVG/1.1/DTD/svg11.dtd">
<svg viewBox="0 0 800 800" preserveAspectRatio="xMinYMin meet" xmlns="http://www.w3.org/2000/svg" version="1.1">
<g fill="none" stroke="black" stroke-linecap="round" stroke-linejoin="round" stroke-width="1.1137">
<g transform="translate(87.52,232.9848) scale(2.6938) translate(-206,-78.6667)">
<path id="0" d="M206 153.6667 C206 153.6667 204.9471 149.0359 206 145.6667 C209.5699 134.243 209.9545 132.7063 216 121.6667 C221.1519 112.2589 221.8784 111.8433 229 103.6667 C235.1188 96.6414 235.5505 96.2538 243 90.6667 C251.2337 84.4914 252.2954 83.8449 261 79.6667 C263.7968 78.3242 265.0392 78.1283 268 78.6667 C274.9085 79.9228 276.3004 83.2344 283 83.6667 C289.9112 84.1126 292.0826 80.0738 299 80.6667 C307.5745 81.4016 308.7167 85.1194 318 86.6667 C325.8908 87.9818 327.4845 85.3246 335 86.6667 C340.2577 87.6055 341.8697 88.1817 346 91.6667 C356.7371 100.7261 356.5836 104.3663 367 113.6667 C369.4805 115.8814 371.68 114.4215 374 116.6667 C385.7435 128.0313 387.3528 130.259 398 143.6667 C400.1689 146.3979 401 150.6667 401 150.6667 "/>
<path id="1" d="M208 155.6667 C208 155.6667 239.0422 188.8443 265 200.6667 C279.8908 207.4486 288.3655 204.1831 309 201.6667 C327.5011 199.4104 328.9355 197.5484 347 190.6667 C359.8246 185.7811 360.4482 185.2278 372 177.6667 C387.5319 167.5003 388.1889 166.6114 402 154.6667 C406.0924 151.1273 409 145.6667 409 145.6667 "/>
<path id="2" d="M404 150.6667 C404 150.6667 407.5518 128.9465 415 111.6667 C419.2628 101.7769 428.9856 92.6545 429 92.6667 C429.2445 92.8745 433.9883 110.8604 435 128.6667 C436.4461 154.1178 432.9692 155.2393 434 180.6667 C434.4397 191.5121 438 201.7164 438 202.6667 C438 202.7099 435.0014 202.668 434 201.6667 C428.9931 196.6598 427.5958 195.02 423 187.6667 C417.7987 179.3447 417.1814 178.6323 414 169.6667 C411.942 163.867 414.2619 160.9849 412 156.6667 C409.9528 152.7583 403 148.6667 403 148.6667 "/>
<path id="3" d="M244 121.6667 C244 121.6667 236.4175 121.9882 236 122.6667 C235.1541 124.0413 234.9715 130.5525 236 134.6667 C236.4286 136.3809 238.0873 137.931 240 138.6667 C243.241 139.9132 247.0053 139.8661 249 139.6667 C249.2689 139.6398 249.7831 138.6789 250 137.6667 C251.2175 131.985 252.6458 129.5415 252 125.6667 C251.6217 123.3971 249.0953 121.0635 247 119.6667 C246.0688 119.0459 243 119.6667 243 119.6667 "/>
<path id="4" d="M244 128.6667 C244 128.6667 244.5496 131.3288 245 131.6667 C245.4158 131.9785 247.5842 131.9785 248 131.6667 C248.4504 131.3288 249.125 128.9167 249 128.6667 C248.875 128.4167 246 127.6667 246 127.6667 "/>
</g>
</g>
</svg>
