<?xml version="1.0" encoding="utf-8"?>
<!DOCTYPE svg PUBLIC "-//W3C//DTD SVG 1.1//EN" "http://www.w3.org/Graphics/SVG/1.1/DTD/svg11.dtd">
<svg viewBox="0 0 800 800" preserveAspectRatio="xMinYMin meet" xmlns="http://www.w3.org/2000/svg" version="1.1">
<g fill="none" stroke="black" stroke-linecap="round" stroke-linejoin="round" stroke-width="1.9297">
<g transform="translate(87.52,241.4281) scale(1.5546) translate(-75,-127)">
<path id="0" d="M75 228 C75 228 82.5719 225.1695 89 221 C100.7973 213.3477 99.8176 210.0912 112 204 C136.5582 191.7209 138.251 190.8228 165 183 C190.294 175.6027 191.7296 175.6807 218 173 C239.8837 170.767 241.0176 170.9604 263 173 C288.8097 175.3947 289.923 175.6587 315 182 C332.6898 186.4733 333.1008 187.6258 350 195 C360.3042 199.4964 360.6612 199.8714 370 206 C376.3688 210.1796 375.5334 212.3258 382 216 C396.82 224.4205 399.392 223.1038 414 231 C416.8054 232.5165 419 236 419 236 "/>
<path id="1" d="M79 229 C79 229 83.4429 239.0512 90 244 C107.881 257.4951 110.967 259.6854 132 269 C144.1499 274.3807 146.1354 274.202 160 275 C214.35 278.1281 215.5056 276.2501 271 277 C289.4936 277.2499 290.399 279.4848 308 277 C331.6396 273.6626 332.5259 269.9419 356 265 C360.1813 264.1197 362.033 266.5743 365 265 C382.7347 255.5897 384.9004 250.5387 405 239 C411.1736 235.4559 419 234 419 234 "/>
<path id="2" d="M418 236 C418 236 429.0225 231.9775 435 226 C441.4203 219.5797 442.1218 217.3077 446 208 C451.7958 194.09 452.4098 192.6779 455 178 C456.722 168.242 454.7594 157.7219 455 157 C455.0115 156.9656 459.4278 158.0085 461 160 C465.6952 165.9473 468.4462 168.3862 470 176 C472.8925 190.1734 472.8383 195.2129 471 209 C470.2766 214.4254 468.0827 215.8967 464 221 C460.4741 225.4074 457.8639 227.3294 455 229 C454.4936 229.2954 452 228 452 228 "/>
<path id="3" d="M417 236 C417 236 429.5323 239.5323 436 246 C447.3743 257.3743 451.4869 261.9667 457 276 C460.8041 285.6831 457.77 301.4888 458 302 C458.0209 302.0464 463.1609 299.123 466 296 C467.4584 294.3957 467.4434 293.5445 468 291 C470.8758 277.8537 469.69 276.5046 473 264 C473.9418 260.4421 476.3456 260.2722 477 257 C478.0907 251.5464 478.6679 248.8183 477 244 C474.9324 238.027 472.9474 235.9474 468 231 C464.8516 227.8516 463.215 227.405 459 226 C456.6291 225.2097 453 226 453 226 "/>
<path id="4" d="M136 194 C136 194 140.0244 196.2341 142 199 C144.5227 202.5318 144.6652 203.4025 146 208 C149.0806 218.6108 149.7066 219.1355 151 230 C152.1448 239.6166 153.3952 243.6127 151 250 C149.0239 255.2695 145.3333 258.2 139 262 C131.8751 266.275 121 268 121 268 "/>
<path id="5" d="M183 176 C183 176 189.0832 176.7804 193 175 C204.0011 169.9995 204.2619 167.0195 216 161 C223.4198 157.195 224.952 159.0275 232 155 C241.7947 149.403 242.3047 148.6084 251 141 C258.0258 134.8524 264 127 264 127 C264 127 258.1853 132.1072 255 138 C248.586 149.866 250.5291 153.1181 244 164 C240.9958 169.007 234 173 234 173 "/>
<path id="6" d="M197 277 C197 277 200.9934 277.6273 202 279 C205.091 283.215 203.9948 286.6597 208 292 C216.8687 303.8249 220.8352 303.2064 229 315 C233.3835 321.3318 234.9845 331.0016 235 331 C235.0201 330.998 238.459 322.2953 239 314 C239.9069 300.0945 240.951 296.5359 238 285 C236.3298 278.4709 228 271 228 271 "/>
<path id="7" d="M81 229 C81 229 88.8953 236.9434 96 239 C105.2465 241.6766 108.9317 240.3729 119 240 C120.7863 239.9338 123 238 123 238 "/>
<path id="8" d="M121 213 C121 213 117.2763 212.453 116 213 C115.1613 213.3594 114.306 214.6229 114 216 C113.4669 218.3988 113.5518 221.6514 114 222 C114.939 222.7303 122.4932 223.3941 123 223 C123.3835 222.7017 123.4435 216.9959 123 215 C122.9199 214.6396 121 214 121 214 "/>
<path id="9" d="M117 219 C117 219 119.8125 218.8125 120 219 C120.1875 219.1875 120.1875 221.8125 120 222 C119.8125 222.1875 117.4158 222.3118 117 222 C116.5496 221.6622 116 219 116 219 "/>
</g>
</g>
</svg>
