<?xml version="1.0" encoding="utf-8"?>
<!DOCTYPE svg PUBLIC "-//W3C//DTD SVG 1.1//EN" "http://www.w3.org/Graphics/SVG/1.1/DTD/svg11.dtd">
<svg viewBox="0 0 800 800" preserveAspectRatio="xMinYMin meet" xmlns="http://www.w3.org/2000/svg" version="1.1">
<g fill="none" stroke="black" stroke-linecap="round" stroke-linejoin="round" stroke-width="0.69604">
<g transform="translate(87.52,275.008) scale(4.3101) translate(-185,-114.4167)">
<path id="0" d="M185 146.4167 C185 146.4167 185.6624 149.5421 187 150.4167 C196.4187 156.575 199.7086 161.1584 211 163.4167 C228.404 166.8975 234.8979 168.1151 252 163.4167 C275.7211 156.8999 277.7593 146.9167 302 138.4167 C313.4266 134.4099 329 136.4167 329 136.4167 "/>
<path id="1" d="M187 147.4167 C187 147.4167 187.465 142.747 189 141.4167 C193.065 137.8937 195.47 136.9719 202 134.4167 C206.4736 132.6661 207.0759 132.5353 212 132.4167 C247.7739 131.5547 252.5318 137.055 285 132.4167 C300.1857 130.2473 300.9685 123.975 317 117.4167 C322.5604 115.142 327.2611 114.4167 329 114.4167 C329.1449 114.4167 330.2437 116.8479 330 117.4167 C329.4583 118.6806 326.0668 120.148 326 121.4167 C325.7646 125.8886 329.4757 135.1482 329 136.4167 C328.85 136.8167 320 137.4167 320 137.4167 "/>
<path id="2" d="M236 131.4167 C236 131.4167 234.9483 125.4308 235 125.4167 C236.8684 124.9071 258 125.4167 258 125.4167 "/>
<path id="3" d="M236 132.4167 C236 132.4167 237.1493 124.7407 238 124.4167 C241.2021 123.1968 248.2038 125.394 257 124.4167 C260.858 123.988 264.9433 121.3317 265 121.4167 C265.3644 121.9632 265 136.4167 265 136.4167 C265 136.4167 265.3192 125.7004 265 125.4167 C264.7932 125.2329 260.4717 127.8283 256 128.4167 C242.0713 130.2494 227 130.4167 227 130.4167 "/>
<path id="4" d="M235 170.4167 C235 170.4167 257.4343 173.6342 262 172.4167 C262.9775 172.156 265 162.4167 265 162.4167 "/>
<path id="5" d="M235 168.4167 C235 168.4167 262 170.4167 262 170.4167 C262 170.4167 257.4596 170.6924 257 170.4167 C256.8346 170.3174 256.5803 167.8364 257 167.4167 C258.5389 165.8777 264.0003 163.4166 264 163.4167 C263.9993 163.4168 249 168.4167 249 168.4167 C249 168.4167 262 162.4167 262 162.4167 C262 162.4167 248.0008 170.4157 248 170.4167 C247.9996 170.4172 255.2174 168.9344 258 167.4167 C258.6304 167.0728 259.1788 164.8637 259 164.4167 C258.7799 163.8665 256 162.4167 256 162.4167 "/>
<path id="6" d="M195 138.4167 C195 138.4167 205.4095 139.343 206 140.4167 C207.3204 142.8174 207.154 152.0695 206 158.4167 C205.6969 160.0836 201.9998 162.4167 202 162.4167 C202.0003 162.4167 207.6352 159.8759 208 158.4167 C209.0447 154.238 207.8552 146.0511 207 142.4167 C206.9101 142.0348 204 141.4167 204 141.4167 "/>
<path id="7" d="M195 143.4167 L197 144.4167 "/>
</g>
</g>
</svg>
