<?xml version="1.0" encoding="utf-8"?>
<!DOCTYPE svg PUBLIC "-//W3C//DTD SVG 1.1//EN" "http://www.w3.org/Graphics/SVG/1.1/DTD/svg11.dtd">
<svg viewBox="0 0 800 800" preserveAspectRatio="xMinYMin meet" xmlns="http://www.w3.org/2000/svg" version="1.1">
<g fill="none" stroke="black" stroke-linecap="round" stroke-linejoin="round" stroke-width="2.1073">
<g transform="translate(87.52,229.8799) scale(1.4236) translate(-97,-65)">
<path id="0" d="M493 123 C493 123 461.6027 152.9944 428 179 C404.5706 197.1323 401.8864 194.2496 378 212 C347.6561 234.5492 350.0622 239.6726 319 260 C283.3275 283.3445 279.1641 286.1344 242 301 C228.3917 306.4433 223.1518 306.3919 209 304 C191.3455 301.0161 188.7042 297.8521 171 289 C160.4942 283.7471 160.2802 282.7335 151 275 C127.5064 255.422 117.3127 253.7468 105 234 C96.4541 220.2942 99.3794 211.8987 98 190 C95.4217 149.0699 96.5773 148.0012 97 107 C97.0714 100.0731 96.5384 98.4913 99 93 C102.2936 85.6528 103.9886 83.7381 110 78 C113.9716 74.2089 115.3213 74.1092 121 72 C132.4187 67.7588 133.2504 67.1089 145 65 C151.9782 63.7475 153.2771 63.4874 160 65 C172.1124 67.7253 172.9706 68.5808 185 74 C273.5776 113.9038 275.0289 113.3123 362 156 C383.3259 166.4673 383.2684 167.5083 403 181 C441.5866 207.384 439.9375 211.0352 479 236 C505.7701 253.1087 536 266 536 266 "/>
<path id="1" d="M493 124 C493 124 480.8412 150.9361 467 176 C462.6042 183.96 455.4621 190.2634 456 191 C466.0003 204.6928 532 265 532 265 "/>
<path id="2" d="M102 229 C102 229 115.9829 229.0109 129 232 C182.7955 244.3531 236.9859 259.9905 237 260 C237.0072 260.0048 202.1406 257.5749 172 261 C160.8801 262.2636 149 270 149 270 "/>
<path id="3" d="M129 127 C129 127 129.5275 121.8406 131 120 C132.3355 118.3306 134.0925 117.4038 137 117 C150.7193 115.0945 154.7376 113.5402 167 115 C172.2876 115.6295 175.3586 117.8123 179 122 C183.7947 127.5139 184.5737 130.182 187 138 C188.7473 143.6301 188.95 146.4877 188 151 C187.4762 153.4883 185.6078 155.6194 183 157 C178.6662 159.2944 176.804 159.6131 171 160 C162.4685 160.5688 159.5647 161.7641 153 159 C143.6218 155.0513 137.9459 150.9692 133 144 C130.0489 139.8416 131 128 131 128 "/>
</g>
</g>
</svg>
