<?xml version="1.0" encoding="utf-8"?>
<!DOCTYPE svg PUBLIC "-//W3C//DTD SVG 1.1//EN" "http://www.w3.org/Graphics/SVG/1.1/DTD/svg11.dtd">
<svg viewBox="0 0 800 800" preserveAspectRatio="xMinYMin meet" xmlns="http://www.w3.org/2000/svg" version="1.1">
<g fill="none" stroke="black" stroke-linecap="round" stroke-linejoin="round" stroke-width="1.5505">
<g transform="translate(87.52,264.5598) scale(1.9349) translate(-78,-106)">
<path id="0" d="M140 174 C140 174 147.8143 173.8658 153 171 C165.3637 164.1674 166.9923 159.0042 178 153 C180.5292 151.6205 185.0588 153.2353 186 153 C186.0588 152.9853 185.7914 151.1217 186 151 C188.6671 149.4442 192.2431 147.515 198 146 C201.0264 145.2036 202.22 147.0008 205 146 C213.4352 142.9633 213.8352 140.4678 223 137 C231.9449 133.6154 232.6541 133.263 242 132 C250.55 130.8446 251.4895 130.818 260 132 C268.8388 133.2276 269.2736 136.2412 278 137 C291.2132 138.149 294.945 134.7366 306 136 C309.0016 136.343 312.7536 141.0308 313 141 C313.0677 140.9915 313.5617 135.1992 314 135 C315.1225 134.4898 320.2703 134.3047 324 136 C329.7406 138.6093 329.8407 142.3869 336 145 C345.003 148.8195 347.3242 146.2616 357 150 C368.6608 154.5053 369.8531 154.8972 380 162 C389.1128 168.379 392.865 170.1238 397 178 C401.3299 186.2475 400.7548 190.4767 401 202 C401.2335 212.9736 400.6236 215.1616 398 225 C397.0814 228.4448 395.7664 230.3402 393 232 C387.5875 235.2475 384.6066 233.6967 378 237 C373.281 239.3595 372.7915 243.6208 369 244 C349.1042 245.9896 343.051 245.3858 318 243 C291.1046 240.4385 290.2116 239.9723 264 234 C251.35 231.1177 250.2095 230.2545 239 225 C235.2355 223.2354 235.6596 220.7427 232 219 C226.0951 216.1881 224.5247 217.7963 218 215 C203.8829 208.9498 204.2319 206.8602 190 201 C179.0905 196.5079 176.82 198.0007 167 194 C164.8615 193.1288 165.022 190.745 163 190 C157.0506 187.8081 148 187 148 187 "/>
<path id="1" d="M148 187 C148 187 145.7229 198.4463 142 202 C138.0189 205.8001 130.8895 207.2666 126 208 C124.9729 208.1541 122.3702 204.8149 122 205 C119.0382 206.4809 113.9057 210.5319 108 217 C103.8557 221.539 104.7294 225.4572 101 228 C96.4405 231.1087 92.9641 231.0051 86 232 C83.3805 232.3742 80 231 80 231 "/>
<path id="2" d="M80 232 C80 232 77.6437 187.7988 78 178 C78.0076 177.7919 81.9997 177.0003 82 177 C82.0002 176.9998 79.0008 177.0173 79 177 C78.6258 168.8923 79 112 79 112 "/>
<path id="3" d="M79 112 C79 112 91.5183 114.9001 96 120 C102.9446 127.9024 101.1589 133.1421 108 145 C116.0115 158.8866 119.2019 165.2019 126 172 C127.3596 173.3596 130.9937 171.1566 135 172 C139.8263 173.0161 145 176 145 176 "/>
<path id="4" d="M357 150 C357 150 357.9484 138.0204 356 128 C354.6685 121.1525 350 114 350 114 "/>
<path id="5" d="M349 113 C349 113 338.7223 113.3889 329 112 C318.0365 110.4338 317.936 108.2151 307 107 C291.431 105.2701 290.9556 105.8166 275 106 C247.5549 106.3155 246.3763 105.3995 220 108 C212.1188 108.777 204 113 204 113 "/>
<path id="6" d="M204 113 C204 113 204.3875 120.2375 206 124 C206.6411 125.4959 209.7662 127 210 127 C210.0584 127 210.9853 123.9971 211 124 C211.1763 124.0353 214.5714 126.2858 215 128 C216.0285 132.1142 215 140 215 140 "/>
<path id="7" d="M145 175 C145 175 145.7508 176.9502 146 177 C146.6764 177.1353 149.9852 175.9629 150 176 C150.272 176.6801 150 187 150 187 "/>
<path id="8" d="M305 211 C305 211 295.4382 213.4555 286 214 C269.7554 214.9372 253.0452 214.0418 253 214 C252.9878 213.9887 264.441 209.0977 273 202 C284.2145 192.7002 294 180 294 180 "/>
<path id="9" d="M294 180 L295 180 "/>
<path id="10" d="M330 143 C330 143 322.587 155.8478 319 169 C313.8163 188.0067 312.4973 189.8538 312 209 C311.5437 226.5683 317 246 317 246 "/>
<path id="11" d="M79 139 C79 139 89.1625 144.1625 96 151 C102.8375 157.8375 108 168 108 168 "/>
<path id="12" d="M82 208 C82 208 88.54 208.64 91 207 C95.1565 204.229 95.0709 200.4103 100 196 C104.0204 192.4028 110 190 110 190 "/>
<path id="13" d="M345 167 C345 167 348.9747 169.6077 350 172 C351.3534 175.1578 351 181 351 181 "/>
<path id="14" d="M354 169 C354 169 348.691 169.9818 346 172 C343.7685 173.6736 342 178 342 178 "/>
<path id="15" d="M195 170 C195 170 201.2827 172.2478 205 172 C206.9591 171.8694 210 169 210 169 "/>
<path id="16" d="M210 169 C210 169 219.5307 170.4898 221 170 C221.3673 169.8776 221.494 165.6325 222 165 C222.2094 164.7383 224.9943 165.0285 225 165 C225.0437 164.7815 223 160 223 160 "/>
<path id="17" d="M225 157 C225 157 229.238 162.632 233 164 C238.1241 165.8633 242.4795 165.9517 247 165 C248.9842 164.5823 252 160 252 160 "/>
</g>
</g>
</svg>
