<?xml version="1.0" encoding="utf-8"?>
<!DOCTYPE svg PUBLIC "-//W3C//DTD SVG 1.1//EN" "http://www.w3.org/Graphics/SVG/1.1/DTD/svg11.dtd">
<svg viewBox="0 0 800 800" preserveAspectRatio="xMinYMin meet" xmlns="http://www.w3.org/2000/svg" version="1.1">
<g fill="none" stroke="black" stroke-linecap="round" stroke-linejoin="round" stroke-width="2.2705">
<g transform="translate(87.52,245.4116) scale(1.3213) translate(-82,-105.4167)">
<path id="0" d="M92 105.4167 L82 305.4167 "/>
<path id="1" d="M91 107.4167 C91 107.4167 94.4666 106.8166 95 107.4167 C99.3008 112.255 99.8394 117.8141 107 125.4167 C139.4983 159.921 162.3526 182.5688 176 193.4167 C176.4692 193.7896 180.2757 189.4836 185 187.4167 C195.7694 182.7051 197.9156 184.8973 208 179.4167 C219.888 172.9558 218.8668 169.5292 231 162.4167 C261.8914 144.3079 262.7277 140.3887 295 128.4167 C322.1495 118.3451 324.9769 121.5343 355 116.4167 C368.7963 114.065 369.1217 113.5744 383 113.4167 C412.6919 113.0793 414.294 112.5097 443 115.4167 C452.3494 116.3634 453.2911 117.4355 462 121.4167 C470.2397 125.1834 470.9833 125.6028 478 131.4167 C488.038 139.7339 487.2265 142.5979 497 150.4167 C501.2866 153.846 503.2868 152.1317 508 155.4167 C519.2406 163.2511 521.1794 163.5584 530 173.4167 C537.1944 181.4575 535.2692 184.2628 542 193.4167 C547.5014 200.8985 551.4359 201.3851 555 207.4167 C556.3151 209.6422 556.3909 212.7612 555 215.4167 C547.0849 230.5273 546.0944 235.5948 533 249.4167 C511.6619 271.9402 509.1254 273.2664 483 291.4167 C462.6505 305.5542 460.7761 304.1846 438 315.4167 C424.4079 322.1196 424.2063 322.273 410 327.4167 C395.3924 332.7056 395.0183 333.3094 380 336.4167 C366.5095 339.2078 365.9572 338.8799 352 339.4167 C327.1788 340.3713 326.5395 340.9698 302 339.4167 C287.6118 338.506 286.8573 338.0931 273 334.4167 C262.8914 331.7348 263.1069 329.5265 253 326.4167 C243.8969 323.6157 242.7586 325.5608 234 322.4167 C223.8897 318.7873 223.0055 318.4203 214 312.4167 C202.518 304.762 202.0949 303.7905 192 294.4167 C188.4984 291.1652 187.6928 290.5717 186 286.4167 C182.5904 278.0476 181.0629 267.4056 181 267.4167 C179.7238 267.6419 167.5343 283.7669 152 292.4167 C125.8092 307.0002 110.2993 310.6502 93 316.4167 C92.2254 316.6749 89.8847 315.0754 89 313.4167 C86.5643 308.8497 85 301.4167 85 301.4167 "/>
<path id="2" d="M479 164.4167 C479 164.4167 463.4404 162.9059 461 164.4167 C459.5022 165.3439 457.6984 177.2103 458 177.4167 C459.1254 178.1867 477.3383 178.6896 480 177.4167 C480.7575 177.0544 482.0356 168.4879 481 166.4167 C480.063 164.5427 476.2217 162.261 472 161.4167 C465.2453 160.0657 456 161.4167 456 161.4167 "/>
<path id="3" d="M441 205.4167 C441 205.4167 444.068 214.0283 445 222.4167 C446.0151 231.553 445.6532 234.5576 445 241.4167 C444.9247 242.2074 443 243.4167 443 243.4167 "/>
<path id="4" d="M424 219.4167 C424 219.4167 425.9 219.2417 426 219.4167 C426.7125 220.6635 427.5645 222.9326 428 226.4167 C429.0287 234.6463 429.3421 235.5488 429 243.4167 C428.8772 246.241 428.4706 247.3159 427 249.4167 C425.5096 251.5459 422 253.4167 422 253.4167 "/>
<path id="5" d="M408 227.4167 L409 252.4167 "/>
</g>
</g>
</svg>
