<?xml version="1.0" encoding="utf-8"?>
<!DOCTYPE svg PUBLIC "-//W3C//DTD SVG 1.1//EN" "http://www.w3.org/Graphics/SVG/1.1/DTD/svg11.dtd">
<svg viewBox="0 0 800 800" preserveAspectRatio="xMinYMin meet" xmlns="http://www.w3.org/2000/svg" version="1.1">
<g fill="none" stroke="black" stroke-linecap="round" stroke-linejoin="round" stroke-width="1.7473">
<g transform="translate(87.52,228.3077) scale(1.7169) translate(-115.5,-105.8333)">
<path id="0" d="M115.5 177.8333 C115.5 177.8333 119.0159 178.743 120.5 177.8333 C131.6742 170.9847 132.9728 165.4896 146.5 158.8333 C162.9185 150.7544 165.4985 148.6486 183.5 146.8333 C222.1317 142.9377 228.0119 141.5616 265.5 146.8333 C287.6871 149.9534 290.14 154.9162 311.5 164.8333 C316.8891 167.3354 316.1677 169.6673 321.5 172.8333 C331.8145 178.9576 333.9272 177.0889 343.5 183.8333 C355.1132 192.0154 355.4079 195.984 365.5 203.8333 C367.0526 205.0409 369.1796 203.601 370.5 204.8333 C387.9172 221.0894 410.5 245.8333 410.5 245.8333 "/>
<path id="1" d="M117.5 178.8333 C117.5 178.8333 115.6494 187.9114 117.5 193.8333 C119.9829 201.7786 121.1394 204.5999 127.5 210.8333 C144.5253 227.5182 147.0139 229.7967 167.5 242.8333 C178.4835 249.8228 181.0362 251.7304 193.5 252.8333 C233.833 256.4026 240.9089 258.447 280.5 252.8333 C303.1143 249.6268 303.9017 241.9242 327.5 233.8333 C338.3983 230.0968 339.4472 232.3501 350.5 228.8333 C372.1152 221.9558 372.554 221.8732 393.5 212.8333 C419.8537 201.4597 427.1691 197.5176 445.5 187.8333 C446.2267 187.4494 445.8984 185.1676 446.5 184.8333 C448.5556 183.6913 451.3947 184.386 454.5 182.8333 C456.5702 181.7983 456.4965 179.5346 458.5 178.8333 C464.8259 176.6193 470.7404 175.1172 474.5 175.8333 C476.0433 176.1273 479.2928 180.1402 479.5 182.8333 C480.0265 189.6783 480.2381 194.9802 476.5 201.8333 C469.8966 213.9395 458.5398 215.6875 455.5 226.8333 C450.3558 245.6955 458.201 272.2035 455.5 278.8333 C454.9306 280.2311 436.5407 282.0496 433.5 280.8333 C432.3812 280.3858 432.9657 274.0934 430.5 268.8333 C425.7871 258.7791 424.5193 256.1198 418.5 248.8333 C416.7327 246.694 411.5 245.8333 411.5 245.8333 "/>
<path id="2" d="M213.5 139.8333 C213.5 139.8333 220.9472 140.7595 225.5 138.8333 C232.1812 136.0067 232.1194 132.6095 239.5 128.8333 C253.067 121.8921 253.7846 121.9614 268.5 116.8333 C286.6087 110.5227 303.9394 105.5658 305.5 105.8333 C305.5406 105.8403 303.1923 116.0636 303.5 122.8333 C303.5935 124.8897 304.6846 126.1995 306.5 127.8333 C309.0658 130.1425 310.0074 130.8808 313.5 131.8333 C320.2105 133.6635 326.0998 132.1391 328.5 133.8333 C329.8248 134.7685 331.0585 143.3962 330.5 143.8333 C327.503 146.1788 316.1002 147.0462 305.5 151.8333 C302.2733 153.2905 299.5 157.8333 299.5 157.8333 "/>
<path id="3" d="M173.5 250.8333 C173.5 250.8333 173.0271 253.3604 173.5 253.8333 C176.4952 256.8286 182.1127 257.3701 184.5 261.8333 C191.6219 275.1483 191.1289 284.4126 196.5 296.8333 C196.9985 297.986 200.0167 297.9875 200.5 298.8333 C201.0639 299.8201 199.953 302.5571 200.5 303.8333 C200.8594 304.672 202.7322 305.9186 203.5 305.8333 C205.2505 305.6388 208.7186 304.3962 209.5 302.8333 C211.649 298.5354 210.9121 289.5346 212.5 287.8333 C213.4158 286.8521 220.257 286.6172 223.5 287.8333 C225.6374 288.6349 226.4047 292.4365 228.5 293.8333 C229.4312 294.4542 232.4732 293.9514 232.5 293.8333 C233.1562 290.946 235.2381 280.7719 233.5 271.8333 C232.2601 265.4568 225.5 257.8333 225.5 257.8333 "/>
<path id="4" d="M147.5 174.8333 C147.5 174.8333 140.8776 175.9703 140.5 176.8333 C139.4558 179.2201 139.4134 187.139 140.5 190.8333 C140.847 192.0131 143.7496 193.8333 145.5 193.8333 C149.0007 193.8333 154.1522 192.4262 155.5 190.8333 C156.7754 189.326 157.3579 182.8351 156.5 180.8333 C155.8726 179.3693 149.5 176.8333 149.5 176.8333 "/>
<path id="5" d="M147.5 183.8333 C147.5 183.8333 150.1622 184.3829 150.5 184.8333 C150.8118 185.2491 150.5809 187.7794 150.5 187.8333 C150.4056 187.8963 147.5 186.8333 147.5 186.8333 "/>
<path id="6" d="M178.5 193.8333 C178.5 193.8333 182.7999 198.6326 183.5 202.8333 C184.9952 211.8044 186.189 218.1193 183.5 223.8333 C180.8713 229.4193 167.5 236.8333 167.5 236.8333 "/>
<path id="7" d="M199.5 173.8333 C199.5 173.8333 205.1002 173.2336 205.5 173.8333 C207.6989 177.1317 212.0171 190.4759 211.5 191.8333 C211.2258 192.5532 197.5 194.8333 197.5 194.8333 "/>
<path id="8" d="M215.5 197.8333 C215.5 197.8333 218.7295 197.9665 219.5 198.8333 C221.4546 201.0322 222.7004 203.0351 223.5 206.8333 C224.4948 211.5586 224.2282 214.6779 223.5 217.8333 C223.3218 218.6057 220.5 219.8333 220.5 219.8333 "/>
<path id="9" d="M221.5 168.8333 C221.5 168.8333 227.7427 170.8811 231.5 173.8333 C233.8507 175.6804 234.809 177.0692 235.5 179.8333 C236.4872 183.7821 236.3995 186.9101 235.5 189.8333 C235.1195 191.0701 231.5 192.8333 231.5 192.8333 "/>
<path id="10" d="M249.5 178.8333 C249.5 178.8333 250.2337 182.356 251.5 183.8333 C252.5238 185.0278 255.2827 185.0726 255.5 185.8333 C256.3299 188.7379 255.7432 196.3739 255.5 197.8333 C255.4932 197.8739 253.5 197.8333 253.5 197.8333 "/>
<path id="11" d="M288.5 183.8333 C288.5 183.8333 293.894 189.2449 295.5 193.8333 C296.7899 197.5189 296.1198 202.1289 295.5 203.8333 C295.3479 204.2517 291.5 204.8333 291.5 204.8333 "/>
<path id="12" d="M267.5 206.8333 C267.5 206.8333 273.0711 211.7509 274.5 215.8333 C275.8727 219.7553 274.9416 225.6189 274.5 226.8333 C274.4416 226.9939 270.5 226.8333 270.5 226.8333 "/>
<path id="13" d="M234.5 220.8333 C234.5 220.8333 238.2637 220.0916 239.5 220.8333 C241.6264 222.1092 243.7096 224.1461 244.5 226.8333 C245.6638 230.7901 245.321 234.0022 244.5 237.8333 C244.2281 239.1021 241.5 240.8333 241.5 240.8333 "/>
<path id="14" d="M307.5 190.8333 C307.5 190.8333 310.7818 191.0126 311.5 191.8333 C313.0361 193.5889 314.3602 195.7568 314.5 198.8333 C314.7922 205.2607 312.5 213.8333 312.5 213.8333 "/>
<path id="15" d="M263.5 154.8333 C263.5 154.8333 268.9411 157.1408 270.5 159.8333 C273.3096 164.6862 274.5 173.8333 274.5 173.8333 "/>
<path id="16" d="M330.5 204.8333 C330.5 204.8333 331.7809 212.1818 331.5 215.8333 C331.4446 216.5534 329.5 217.8333 329.5 217.8333 "/>
<path id="17" d="M386.5 223.8333 C386.5 223.8333 399.6332 222.0934 410.5 218.8333 C413.5683 217.9129 413.5722 215.7483 416.5 214.8333 C420.6645 213.5319 422.3187 215.2271 426.5 213.8333 C430.4115 212.5295 430.3297 210.255 434.5 208.8333 C451.4351 203.06 470.5 198.8333 470.5 198.8333 "/>
<path id="18" d="M404.5 226.8333 L454.5 226.8333 "/>
<path id="19" d="M405.5 234.8333 C405.5 234.8333 423.3689 232.2632 437.5 233.8333 C443.5562 234.5063 450.5 239.8333 450.5 239.8333 "/>
<path id="20" d="M416.5 244.8333 C416.5 244.8333 432.8909 248.3549 439.5 250.8333 C440.0562 251.0419 439.7988 253.3871 440.5 253.8333 C443.5239 255.7576 450.5 257.8333 450.5 257.8333 "/>
<path id="21" d="M436.5 263.8333 L455.5 277.8333 "/>
<path id="22" d="M252.5 141.8333 C252.5 141.8333 263.6949 137.0566 274.5 135.8333 C289.2694 134.1613 292.2224 136.9398 305.5 135.8333 C307.7486 135.646 310.5 132.8333 310.5 132.8333 "/>
<path id="23" d="M198.5 254.8333 C198.5 254.8333 205.7103 256.8398 210.5 259.8333 C212.7563 261.2435 213.082 262.1746 214.5 264.8333 C216.9119 269.3557 217.7861 270.0148 218.5 274.8333 C219.6457 282.5665 218.5 291.8333 218.5 291.8333 "/>
</g>
</g>
</svg>
