<?xml version="1.0" encoding="utf-8"?>
<!DOCTYPE svg PUBLIC "-//W3C//DTD SVG 1.1//EN" "http://www.w3.org/Graphics/SVG/1.1/DTD/svg11.dtd">
<svg viewBox="0 0 800 800" preserveAspectRatio="xMinYMin meet" xmlns="http://www.w3.org/2000/svg" version="1.1">
<g fill="none" stroke="black" stroke-linecap="round" stroke-linejoin="round" stroke-width="2.0113">
<g transform="translate(87.52,235.9294) scale(1.4916) translate(-71,-96)">
<path id="0" d="M71 217 C71 217 75.6458 196.954 84 180 C92.1505 163.4592 92.6539 159.9276 105 148 C119.7806 133.7204 123.6292 132.83 143 123 C155.8283 116.4901 157.8185 116.2006 172 114 C185.53 111.9005 187.6639 112.0551 201 114 C210.2069 115.3427 211.7376 115.9674 220 121 C265.2997 148.5916 271.9383 154.1188 311 181 C312.4033 181.9657 311.6107 183.8753 313 185 C320.8309 191.3393 322.2801 192.3562 332 198 C337.4564 201.1682 338.0193 201.6917 344 203 C353.335 205.042 357.487 207.505 364 205 C377.7034 199.7295 381.5792 194.3849 396 183 C399.5975 180.1599 402 175 402 175 "/>
<path id="1" d="M72 218 C72 218 105.2218 222.931 126 219 C134.8185 217.3316 137.0771 211.8521 146 204 C148.9994 201.3606 150.9961 196.9803 151 197 C151.0176 197.088 154.0409 214.4028 150 224 C144.1519 237.8892 138.474 243.1462 127 254 C122.8172 257.9567 119.7867 258.1517 113 259 C100.9348 260.5081 87 259 87 259 "/>
<path id="2" d="M402 177 C402 177 403.9995 177.0106 404 177 C404.2495 171.1356 407.5432 146.3533 404 130 C402.8076 124.4967 397.553 120.4813 391 117 C384.0458 113.3056 371.9992 113.0004 372 113 C372.0012 112.9994 387.5043 110.6486 399 113 C407.0219 114.6408 409.3501 116.3576 416 122 C424.6703 129.3566 429.7045 132.5352 432 141 C435.9343 155.5076 429.7153 177.4851 432 181 C432.9653 182.4851 446.4378 179.916 458 181 C460.7933 181.2619 462.2629 181.9321 464 184 C471.4754 192.8992 473.2745 195.2226 479 206 C481.1135 209.9783 479.1286 211.8414 481 216 C483.2577 221.017 486.2961 221.0777 488 226 C490.2894 232.6139 490.0272 241.9767 490 242 C489.999 242.0009 486.0178 235.9426 481 232 C472.5377 225.3511 471.7418 223.9382 462 220 C449.4077 214.9095 447.6862 214.2442 434 213 C415.8821 211.3529 409.1893 209.3838 396 214 C386.0264 217.4908 384.1733 223.3746 374 234 C361.8553 246.6845 363.3992 249.728 351 261 C342.4414 268.7805 339.4699 269.4404 330 274 C327.9156 275.0036 325.9136 273.1168 324 274 C320.8843 275.438 320.4914 278.7431 317 280 C309.7276 282.6181 307.9277 282.5815 299 283 C276.3616 284.0612 275.7858 281.8607 253 283 C236.0593 283.847 235.1645 284.2402 219 287 C215.4988 287.5978 215.2915 289.8101 212 290 C191.3512 291.1913 187.0359 294.5696 167 290 C133.6381 282.3912 131.3469 277.3387 98 264 C94.8081 262.7232 93.2327 261.6436 92 260 C91.4199 259.2265 92 256 92 256 "/>
<path id="3" d="M130 152 C130 152 121.5615 150.3699 119 152 C114.3638 154.9503 110.0512 159.66 108 166 C105.6636 173.2215 106.5451 177.2704 108 186 C108.7881 190.7286 111.0494 195.3708 113 196 C119.1653 197.9888 137.8516 197.6163 139 196 C141.4065 192.6131 141.3101 172.4115 140 158 C139.7769 155.5463 137.144 153.1695 135 152 C133.445 151.1518 129 152 129 152 "/>
<path id="4" d="M122 154 C122 154 125.9808 153.9038 126 154 C126.4808 156.4038 127.4697 170.244 126 174 C125.5207 175.2248 121.1723 176.5091 117 177 C113.4838 177.4137 109.5122 176.7043 109 176 C108.2488 174.967 108.1338 167.7325 109 166 C109.4331 165.1338 113.8808 165.1192 115 164 C115.8394 163.1606 115.325 159.5063 116 159 C117.1014 158.174 122.6165 157.7261 123 158 C123.2615 158.1868 123.4886 163.5114 123 164 C122.3486 164.6514 116.2764 165.2764 116 165 C115.6314 164.6314 116 157 116 157 C116 157 117.2877 164.4245 117 165 C116.9041 165.1918 112.2111 165.2956 112 165 C111.5861 164.4206 111.5625 158.4375 112 158 C112.4375 157.5625 118.4472 157.4472 119 158 C119.7107 158.7107 120.438 165.3429 120 166 C119.6615 166.5077 113.4465 167.2552 113 167 C112.8015 166.8866 112.6926 162.2561 113 162 C113.4426 161.6311 118.6824 161.6294 119 162 C119.4324 162.5044 119.5357 168.5238 119 169 C118.1486 169.7568 111.2947 169.5684 110 170 C109.9075 170.0308 109.934 171.9811 110 172 C110.809 172.2311 116.0998 172.5626 117 172 C117.5305 171.6684 117.494 167.6325 118 167 C118.2094 166.7383 120.9007 166.8346 121 167 C121.2757 167.4596 121.2757 171.5404 121 172 C120.9007 172.1654 118.4197 171.5803 118 172 C116.4611 173.5389 114.0108 178.9865 114 179 C113.9979 179.0026 113.8161 177.1021 114 177 C115.7651 176.0194 122.3915 175.2846 123 174 C124.3405 171.1701 123.2462 159.9692 123 158 C122.9962 157.9692 121 158 121 158 C121 157.9256 123.004 155.003 123 155 C122.9048 154.9286 117.15 154.7 117 155 C116.4 156.2 118.1169 164.6067 117 167 C116.4167 168.2498 110.0399 169.9601 110 170 C109.992 170.008 112.7325 170.5541 113 171 C113.3822 171.6369 113 175 113 175 "/>
<path id="5" d="M201 216 C201 216 206.6606 212.9708 212 212 C217.0083 211.0894 218.766 210.7298 223 212 C227.157 213.2471 229.1618 215.1618 232 218 C232.9461 218.9461 233 222 233 222 "/>
<path id="6" d="M199 239 C199 239 206.2859 239.0337 210 241 C212.9894 242.5826 213.4957 247.3258 216 248 C222.3523 249.7102 227.0897 248.7425 236 248 C237.8563 247.8453 240.0026 246.0017 240 246 C239.9932 245.9955 233 246 233 246 "/>
<path id="7" d="M234 224 C234 224 235.9913 223.9502 236 224 C236.5817 227.3449 238 247 238 247 "/>
<path id="8" d="M203 227 C203 227 211.3889 224.7014 217 224 C217.7319 223.9085 219 224.9041 219 225 C219 225.2877 217 228 217 228 "/>
<path id="9" d="M206 234 C206 234 218.2849 233.8212 219 234 C219.0138 234.0034 218 237 218 237 "/>
<path id="10" d="M206 219 L220 220 "/>
<path id="11" d="M179 112 C179 112 180.1498 108.1564 182 107 C190.2315 101.8553 192.8062 99.4918 203 97 C213.5417 94.4231 217.6903 93.2416 227 96 C240.7608 100.0773 242.6709 103.6383 257 113 C279.974 128.0097 279.002 131.0717 302 145 C313.6675 152.0662 325.4076 154.3797 328 156 C328.0394 156.0246 326.7854 159.7382 326 160 C323.6438 160.7854 319.3678 159.0378 316 160 C314.268 160.4949 313.672 161.8503 312 164 C310.2757 166.2169 309.4645 166.6777 309 169 C308.1706 173.147 309.344 177.8532 309 179 C308.969 179.1032 306 179 306 179 "/>
<path id="12" d="M202 114 C202 114 210.3387 108.9863 218 107 C222.7306 105.7736 229 107 229 107 "/>
<path id="13" d="M221 119 L241 119 "/>
<path id="14" d="M238 130 C238 130 243.0965 130.6345 245 130 C245.8158 129.7281 246.2521 127.1402 247 127 C251.0863 126.2338 261 127 261 127 "/>
<path id="15" d="M253 140 C253 140 258.1183 137.4438 263 137 C273.9298 136.0064 286 137 286 137 "/>
<path id="16" d="M270 150 L291 148 "/>
<path id="17" d="M287 163 C287 163 292.5614 155.9974 297 154 C300.1591 152.5784 307 154 307 154 "/>
<path id="18" d="M166 291 C166 291 168.3758 297.3758 172 301 C176.5303 305.5303 177.7449 306.0679 184 309 C193.2462 313.3341 194.2726 314.3392 204 316 C213.6378 317.6455 225 316 225 316 "/>
<path id="19" d="M216 287 C216 287 221.1505 295.8783 226 298 C233.6323 301.3391 247.9649 300.9719 248 301 C248.0115 301.0092 240.7776 303.1335 236 306 C234.2801 307.032 234.195 309.7188 233 310 C228.755 310.9988 219 310 219 310 "/>
<path id="20" d="M183 296 C183 296 187.3056 295.0876 189 296 C192.0412 297.6376 192.317 301.349 196 303 C204.9695 307.0208 218 309 218 309 "/>
<path id="21" d="M204 295 C204 295 208.8186 297.0307 212 300 C215.8679 303.61 216.2837 306.5553 219 309 C219.5397 309.4857 222 309 222 309 "/>
<path id="22" d="M182 293 C182 293 184.8846 304.8816 188 307 C192.2234 309.8719 207 310 207 310 "/>
<path id="23" d="M294 285 C294 285 297.9851 284.1642 299 285 C303.776 288.9332 305.8539 297.1041 311 299 C318.7981 301.873 337 299 337 299 "/>
<path id="24" d="M333 274 C333 274 334.9655 273.9138 335 274 C335.2155 274.5388 334.2863 278.1079 335 279 C336.6272 281.034 339.2836 283.0709 343 284 C347.8213 285.2053 355 284 355 284 C355 284 347.2332 283.1241 345 285 C338.4486 290.5031 330 305 330 305 "/>
<path id="25" d="M309 289 C309 289 312.2481 288.2701 314 289 C317.1826 290.3261 318.1586 293.1257 321 294 C322.8942 294.5828 327 293 327 293 "/>
<path id="26" d="M314 279 L326 286 "/>
<path id="27" d="M321 276 C321 276 325.2736 283.5214 328 286 C328.6778 286.6161 332 286 332 286 "/>
<path id="28" d="M407 120 C407 120 409.8598 120.5172 410 121 C412.3781 129.1911 414.4632 136.1445 416 151 C417.4052 164.5841 416.8376 170.6239 416 179 C415.9312 179.688 413 181 413 181 "/>
<path id="29" d="M420 137 C420 137 423.7116 140.3324 424 143 C425.3898 155.8558 425.1202 160.184 424 174 C423.7744 176.7825 421 180 421 180 "/>
<path id="30" d="M423 191 C423 191 456.2289 188.6641 462 191 C463.4622 191.5918 465.2405 206.637 465 208 C464.9845 208.0876 459 208 459 208 "/>
<path id="31" d="M424 200 C424 200 441.1385 199.2079 455 200 C456.8397 200.1051 457.8087 200.6254 459 202 C463.5327 207.23 465.5069 208.7673 468 215 C469.8623 219.6557 469.2017 225.7899 469 227 C468.9915 227.0511 466 227 466 227 "/>
<path id="32" d="M440 214 C440 214 453.983 214.4222 467 216 C469.9828 216.3615 471.687 216.8746 473 218 C473.7538 218.6461 474 222 474 222 "/>
<path id="33" d="M214 145 C214 145 220.0756 145.1532 224 147 C227.5235 148.6581 230.4246 150.534 231 153 C232.8091 160.7532 232.4856 170.0671 231 177 C230.6728 178.5269 225 181 225 181 "/>
<path id="34" d="M258 170 C258 170 265.886 172.8958 267 175 C268.369 177.5859 268.5921 184.5506 267 187 C264.8175 190.3578 254 195 254 195 "/>
<path id="35" d="M261 211 C261 211 268.975 213.2917 270 215 C271.1994 216.999 271.4995 222.6677 270 226 C268.221 229.9533 261 235 261 235 "/>
<path id="36" d="M294 203 C294 203 297.6637 205.3187 298 207 C299.1209 212.6043 299.4212 218.0257 298 223 C297.4036 225.0874 292 228 292 228 "/>
<path id="37" d="M252 255 C252 255 253.7181 265.6911 253 270 C252.8225 271.0651 250.8163 272.5047 249 273 C246.3613 273.7197 242 273 242 273 "/>
<path id="38" d="M289 251 C289 251 294.3717 252.7433 295 254 C295.9425 255.885 295.9937 259.224 295 263 C293.7506 267.7476 291.9635 271.0365 290 273 C289.3455 273.6545 285 273 285 273 "/>
</g>
</g>
</svg>
