<?xml version="1.0" encoding="utf-8"?>
<!DOCTYPE svg PUBLIC "-//W3C//DTD SVG 1.1//EN" "http://www.w3.org/Graphics/SVG/1.1/DTD/svg11.dtd">
<svg viewBox="0 0 800 800" preserveAspectRatio="xMinYMin meet" xmlns="http://www.w3.org/2000/svg" version="1.1">
<g fill="none" stroke="black" stroke-linecap="round" stroke-linejoin="round" stroke-width="2.3762">
<g transform="translate(87.52,287.6335) scale(1.2625) translate(-70,-116.4167)">
<path id="0" d="M70 199.4167 C70 199.4167 79.5355 197.4142 83 193.4167 C90.0762 185.2518 88.7025 180.2043 96 169.4167 C99.7306 163.9019 100.5552 163.5002 106 159.4167 C114.1671 153.2913 114.7713 151.599 124 148.4167 C142.2529 142.1226 144.241 141.5592 164 139.4167 C184.735 137.1683 186.33 137.2409 207 139.4167 C223.2678 141.1291 223.9359 142.5671 240 147.4167 C250.1674 150.4861 250.4775 150.6083 260 155.4167 C300.6863 175.9612 299.9323 179.3154 341 198.4167 C363.7324 208.9899 389 215.4167 389 215.4167 "/>
<path id="1" d="M72 200.4167 C72 200.4167 101.9432 207.238 102 207.4167 C102.0264 207.4996 79.1619 221.0405 79 222.4167 C78.8467 223.7197 87.8742 234.5877 98 241.4167 C107.7853 248.0161 109.8659 248.4651 122 251.4167 C145.8463 257.2171 147.1743 258.1186 172 259.4167 C222.7166 262.0685 223.8943 260.6145 275 259.4167 C287.4392 259.1251 287.7603 258.8324 300 256.4167 C325.524 251.379 325.5657 248.0501 351 244.4167 C377.2615 240.665 381.9735 236.5493 405 241.4167 C437.4174 248.2691 439.3613 257.6923 474 270.4167 C487.7295 275.4601 488.577 275.109 503 277.4167 C513.1325 279.0379 524 278.4167 524 278.4167 "/>
<path id="2" d="M385 216.4167 C385 216.4167 398.5035 218.3328 410 216.4167 C421.1899 214.5517 422.48 213.854 433 208.4167 C466.2021 191.256 466.855 190.4253 499 170.4167 C515.6066 160.0799 514.455 157.6946 531 147.4167 C547.1497 137.3843 564.308 129.6683 565 129.4167 C565.0543 129.3969 565.2533 133.0892 564 135.4167 C558.8247 145.0279 558.4479 146.4453 551 155.4167 C536.7933 172.5293 536.8734 175.6476 520 188.4167 C501.7904 202.1969 497.7077 199.1324 477 211.4167 C468.5484 216.4303 463.5734 219.3728 461 223.4167 C459.9875 225.0077 461.0695 230.8427 463 233.4167 C465.2662 236.4383 468.6996 235.7707 473 239.4167 C491.2365 254.878 490.7222 256.4722 509 272.4167 C514.0722 276.8413 514.308 277.3119 520 280.4167 C524.8837 283.0805 531 284.4167 531 284.4167 "/>
<path id="3" d="M167 142.4167 C167 142.4167 175.5143 142.2213 182 139.4167 C192.9924 134.6632 192.7274 131.6597 204 126.4167 C213.749 121.8823 214.4363 122.5236 225 119.4167 C231.3598 117.5461 231.6039 116.772 238 116.4167 C257.9169 115.3102 262.4685 115.3146 279 116.4167 C280.6935 116.5296 282.9236 119.2639 283 119.4167 C283 119.4167 281.9988 120.2404 281 120.4167 C273.9542 121.66 272.8805 120.4508 266 122.4167 C259.4982 124.2743 258.5796 124.7899 253 128.4167 C249.1867 130.8953 247.4565 131.921 246 135.4167 C243.3195 141.8498 243 152.4167 243 152.4167 "/>
<path id="4" d="M158 262.4167 C158 262.4167 160.9875 262.4042 162 263.4167 C167.8725 269.2892 167.8344 273.6379 175 279.4167 C181.9872 285.0515 183.8831 285.7868 193 288.4167 C208.8162 292.979 210.1293 293.067 227 294.4167 C247.0609 296.0215 267.9947 294.4179 268 294.4167 C268.0023 294.4161 258.4503 290.8706 249 289.4167 C239.3658 287.9345 238.1674 290.5002 229 288.4167 C217.1957 285.7339 210.9341 284.0321 205 279.4167 C202.6391 277.5804 201.7696 271.7939 202 267.4167 C202.1403 264.7514 206 260.4167 206 260.4167 "/>
<path id="5" d="M114 181.4167 C114 181.4167 112.9038 185.3397 113 185.4167 C113.2624 185.6266 118.9854 185.4531 119 185.4167 C119.0206 185.3651 115 180.4167 115 180.4167 "/>
<path id="6" d="M81 219.4167 C81 219.4167 83.6658 219.0183 84 218.4167 C85.142 216.3611 84.3014 213.3892 86 210.4167 C87.7517 207.3512 92 204.4167 92 204.4167 "/>
<path id="7" d="M143 161.4167 C143 161.4167 149.5267 164.6761 153 168.4167 C155.0871 170.6643 155.7975 172.1769 156 175.4167 C156.7025 186.6574 156.446 188.8485 155 200.4167 C154.5755 203.8123 154.0135 205.2201 152 207.4167 C149.453 210.1952 144 212.4167 144 212.4167 "/>
<path id="8" d="M164 206.4167 C164 206.4167 164.2607 216.9459 163 218.4167 C161.8794 219.7241 152 220.4167 152 220.4167 "/>
<path id="9" d="M182 187.4167 C182 187.4167 184.5836 189.6124 185 191.4167 C185.7986 194.8774 186.0384 197.5091 185 200.4167 C184.2171 202.6089 180 205.4167 180 205.4167 "/>
<path id="10" d="M192 161.4167 C192 161.4167 198.6397 161.799 199 162.4167 C199.7797 163.7533 199 173.4167 199 173.4167 "/>
<path id="11" d="M224 177.4167 L228 186.4167 "/>
<path id="12" d="M209 204.4167 C209 204.4167 212.931 204.2443 213 204.4167 C213.431 205.4943 213.9622 211.0488 213 214.4167 C212.5051 216.1487 209 218.4167 209 218.4167 "/>
<path id="13" d="M215 234.4167 C215 234.4167 216.6588 243.0991 216 244.4167 C215.6186 245.1795 209 246.4167 209 246.4167 "/>
<path id="14" d="M186 221.4167 C186 221.4167 191.8557 225.3189 193 227.4167 C193.5192 228.3684 192.9653 231.1297 192 232.4167 C190.8669 233.9275 187 235.4167 187 235.4167 "/>
<path id="15" d="M266 220.4167 C266 220.4167 268.5629 222.1053 269 223.4167 C269.6557 225.3838 269.7639 227.3158 269 229.4167 C268.1782 231.6767 265 234.4167 265 234.4167 "/>
<path id="16" d="M266 186.4167 C266 186.4167 271.2377 188.1462 272 189.4167 C272.8085 190.7642 272 196.4167 272 196.4167 "/>
<path id="17" d="M299 213.4167 C299 213.4167 300.2933 216.2437 300 217.4167 C299.6285 218.9025 297 221.4167 297 221.4167 "/>
<path id="18" d="M310 201.4167 C310 201.4167 312.7785 203.309 313 204.4167 C313.4185 206.509 312 211.4167 312 211.4167 "/>
<path id="19" d="M307 235.4167 L300 240.4167 "/>
<path id="20" d="M351 211.4167 L353 227.4167 "/>
<path id="21" d="M343 227.4167 C343 227.4167 340.144 232.2472 338 233.4167 C336.445 234.2649 332 233.4167 332 233.4167 "/>
<path id="22" d="M253 136.4167 C253 136.4167 281.6301 134.3723 282 134.4167 C282.0437 134.4219 279.9012 138.8463 278 139.4167 C268.5977 142.2374 262.2175 140.4503 252 143.4167 C249.573 144.1213 247 148.4167 247 148.4167 "/>
<path id="23" d="M253 137.4167 L247 139.4167 "/>
<path id="24" d="M214 262.4167 C214 262.4167 220.5282 267.3365 227 269.4167 C233.6385 271.5505 240.6006 270.717 242 271.4167 C242.1312 271.4823 241.3827 276.3316 241 276.4167 C236.2463 277.4731 226.4177 277.7973 215 277.4167 C213.2119 277.3571 211.756 276.5507 211 275.4167 C209.65 273.3916 209 268.4167 209 268.4167 "/>
</g>
</g>
</svg>
