<?xml version="1.0" encoding="utf-8"?>
<!DOCTYPE svg PUBLIC "-//W3C//DTD SVG 1.1//EN" "http://www.w3.org/Graphics/SVG/1.1/DTD/svg11.dtd">
<svg viewBox="0 0 800 800" preserveAspectRatio="xMinYMin meet" xmlns="http://www.w3.org/2000/svg" version="1.1">
<g fill="none" stroke="black" stroke-linecap="round" stroke-linejoin="round" stroke-width="2.2129">
<g transform="translate(87.52,290.1914) scale(1.3557) translate(-138,-145.4167)">
<path id="0" d="M154 151.4167 C154 151.4167 162.0713 161.7176 171 165.4167 C194.1888 175.0235 198.2164 174.3736 224 180.4167 C229.0184 181.5929 231.3495 179.2759 235 180.4167 C237.1779 181.0973 240 185.4167 240 185.4167 "/>
<path id="1" d="M236 238.4167 C236 238.4167 217.2919 249.145 200 261.4167 C186.482 271.0101 185.3325 275.9847 174 282.4167 C170.7125 284.2825 163 282.4167 163 282.4167 "/>
<path id="2" d="M156 153.4167 C156 153.4167 153.1327 149.983 150 148.4167 C145.7616 146.2975 140 145.4167 140 145.4167 "/>
<path id="3" d="M172 285.4167 L150 286.4167 "/>
<path id="4" d="M156 285.4167 C156 285.4167 147.5959 286.791 145 285.4167 C142.4596 284.0718 139.7222 280.5094 139 276.4167 C137.2049 266.2447 138.2376 263.2343 139 251.4167 C139.1869 248.5195 139.3473 247.5859 141 245.4167 C146.6382 238.0166 151.0869 236.8453 155 230.4167 C156.3309 228.2302 154.7647 223.3578 155 222.4167 C155.0147 222.3578 156.9995 222.4278 157 222.4167 C157.2495 216.8028 159.1017 197.3827 157 177.4167 C156.4101 171.8122 154.8331 170.0568 151 165.4167 C146.0857 159.4678 141.0097 159.0469 138 154.4167 C136.6073 152.2741 138 145.4167 138 145.4167 "/>
<path id="5" d="M242 185.4167 C242 185.4167 248.4134 187.0306 252 185.4167 C265.6648 179.2675 266.743 174.2278 282 167.4167 C293.6827 162.2012 294.9162 162.4026 308 160.4167 C350.3119 153.9943 351.174 154.046 394 150.4167 C409.7798 149.0794 410.3105 149.0719 426 150.4167 C444.8835 152.0353 445.0396 154.4932 464 156.4167 C479.2737 157.9662 482.3267 154.2483 495 157.4167 C503.0095 159.4191 504.1573 165.541 512 168.4167 C516.8473 170.194 518.8433 167.5371 525 168.4167 C532.3745 169.4702 540 172.4167 540 172.4167 "/>
<path id="6" d="M235 241.4167 C235 241.4167 263.6245 240.2989 283 241.4167 C284.6845 241.5139 285.219 244.2008 287 244.4167 C298.8857 245.8574 306.3725 243.6662 316 245.4167 C317.6196 245.7111 318.2847 249.637 320 250.4167 C321.9142 251.2868 325.1434 249.2821 327 250.4167 C331.7004 253.2891 332.28 257.6862 338 261.4167 C342.5979 264.4153 345.3051 262.5103 350 265.4167 C354.7258 268.3422 355.1889 271.9667 359 274.4167 C360.2888 275.2452 362.7945 273.5256 364 274.4167 C371.3694 279.8636 372.3263 284.8209 382 291.4167 C393.3975 299.1877 395.5971 302.7629 408 304.4167 C450.2176 310.0457 456.2547 308.8242 502 307.4167 C519.6416 306.8739 529.1407 303.0505 538 300.4167 C538.5093 300.2653 539 296.4167 539 296.4167 "/>
<path id="7" d="M541 170.4167 C541 170.4167 562.6064 169.9319 573 171.4167 C574.1548 171.5816 575.5047 173.6004 576 175.4167 C576.7197 178.0554 575.0102 180.987 576 182.4167 C577.7294 184.9147 583.2515 185.3567 585 188.4167 C587.6228 193.0066 585.4118 196.7306 588 203.4167 C591.1203 211.4773 595.6456 211.7827 597 219.4167 C600.5679 239.5266 598.5609 243.8983 599 265.4167 C599.0284 266.8093 598.4504 268.0788 598 268.4167 C597.5842 268.7285 595.131 268.1809 595 268.4167 C594.2054 269.8469 594.2042 275.6964 593 277.4167 C592.479 278.161 589.0091 277.5517 588 278.4167 C586.917 279.3449 587.5028 281.6827 586 283.4167 C581.6404 288.4469 579.784 292.3041 575 293.4167 C563.5118 296.0884 555.5394 292.0611 543 293.4167 C540.8713 293.6468 540.2387 296.857 538 297.4167 C533.8957 298.4427 527 297.4167 527 297.4167 "/>
<path id="8" d="M532 206.4167 C532 206.4167 522.9233 205.6613 522 206.4167 C521.2278 207.0485 520.7091 215.2627 521 215.4167 C522.3907 216.1529 536.9112 215.9969 539 215.4167 C539.1612 215.3719 539.3934 210.667 539 210.4167 C537.4825 209.451 528 208.4167 528 208.4167 "/>
<path id="9" d="M537 297.4167 C537 297.4167 525.4258 298.3346 519 297.4167 C517.776 297.2418 517.5104 294.9201 516 294.4167 C509.9585 292.4028 501 291.4167 501 291.4167 "/>
<path id="10" d="M529 210.4167 C529 210.4167 528.76 214.0967 529 214.4167 C529.135 214.5967 532 214.4167 532 214.4167 "/>
</g>
</g>
</svg>
