<?xml version="1.0" encoding="utf-8"?>
<!DOCTYPE svg PUBLIC "-//W3C//DTD SVG 1.1//EN" "http://www.w3.org/Graphics/SVG/1.1/DTD/svg11.dtd">
<svg viewBox="0 0 800 800" preserveAspectRatio="xMinYMin meet" xmlns="http://www.w3.org/2000/svg" version="1.1">
<g fill="none" stroke="black" stroke-linecap="round" stroke-linejoin="round" stroke-width="2.573">
<g transform="translate(87.52,282.82) scale(1.166) translate(-58,-200.4167)">
<path id="0" d="M454 286.4167 C454 286.4167 445.0411 274.4578 435 264.4167 C429.3672 258.7838 428.9556 258.1521 422 254.4167 C402.6126 244.0049 401.5209 241.5977 381 235.4167 C361.7597 229.6214 359.2478 233.4662 339 229.4167 C332.4382 228.1043 332.6169 225.7821 326 224.4167 C270.6694 212.9992 268.7734 210.1771 213 203.4167 C187.9583 200.3813 186.4674 202.004 161 204.4167 C139.6082 206.4433 138.5253 207.033 118 212.4167 C108.8528 214.8159 107.0898 215.5083 100 220.4167 C95.5051 223.5285 95.0672 225.0126 92 230.4167 C74.4294 261.3744 69.8612 264.7637 58 294.4167 C54.7901 302.4413 56.8606 305.447 58 315.4167 C58.7844 322.2801 59.0104 323.2382 62 329.4167 C66.1878 338.0715 66.5707 339.3445 73 346.4167 C80.9229 355.1319 81.8753 356.1393 92 362.4167 C106.1088 371.1641 107.2668 372.0952 123 377.4167 C140.3174 383.274 141.7448 384.3018 160 385.4167 C205.7738 388.212 209.1012 391.4032 254 385.4167 C311.1903 377.7913 316.2326 374.9807 370 357.4167 C387.5549 351.6821 388.5541 348.2982 404 336.4167 C420.4172 323.788 418.4069 319.6999 435 307.4167 C456.1028 291.7951 458.6708 294.2022 481 279.4167 C495.4981 269.8166 496.4628 269.668 509 258.4167 C515.3063 252.7571 513.8227 250.1527 520 244.4167 C527.2436 237.6905 528.0506 237.0635 537 232.4167 C553.4838 223.8578 570.2232 216.1762 572 217.4167 C575.9336 220.1628 583.8038 243.5055 590 269.4167 C594.5072 288.2648 593.142 289.4671 594 309.4167 C595.132 335.7366 595.6591 336.5351 594 362.4167 C593.2074 374.7815 592.8748 376.3884 589 387.4167 C586.8552 393.5212 585.029 395.0777 581 399.4167 C579.6224 400.9002 577.7485 401.5624 576 401.4167 C573.3772 401.1981 571.8754 400.539 569 398.4167 C551.6285 385.5949 548.799 386.0614 534 370.4167 C514.8417 350.1637 517.1767 346.3029 499 324.4167 C493.0369 317.2366 492.3922 317.3568 485 311.4167 C464.5244 294.9631 463.0672 290.9306 443 279.4167 C436.1111 275.464 424 276.4167 424 276.4167 "/>
<path id="1" d="M126 258.4167 C126 258.4167 121 255.4243 121 255.4167 C121 255.4167 126.0002 255.4166 126 255.4167 C125.9996 255.4168 116.5755 256.8412 116 257.4167 C115.8082 257.6085 116.5756 262.2975 118 263.4167 C121.3792 266.0718 128.2167 268.0051 130 268.4167 C130.073 268.4335 131.0526 266.4692 131 266.4167 C130.6321 266.0488 127.3359 265.7526 126 264.4167 C124.2824 262.6991 123.0007 258.4167 123 258.4167 C122.9998 258.4167 124 264.4167 124 264.4167 "/>
<path id="2" d="M168 268.4167 C168 268.4167 171.3991 267.6162 173 268.4167 C177.0022 270.4178 179.4698 271.4216 182 275.4167 C187.844 284.6441 189.102 287.4043 192 298.4167 C193.696 304.8613 194.2397 307.6574 192 313.4167 C184.9573 331.5265 171 352.4167 171 352.4167 "/>
<path id="3" d="M213 298.4167 C213 298.4167 226.0204 292.1616 237 289.4167 C240.2416 288.6063 244.2253 289.5559 245 290.4167 C245.9353 291.4559 246.265 296.5012 246 299.4167 C245.9351 300.1307 244.7996 301.3278 244 301.4167 C238.2427 302.0564 227.9998 301.4151 228 301.4167 C228.0009 301.4232 239.4882 304.9355 245 308.4167 C246.3272 309.2549 247.0258 313.4089 247 313.4167 C245.8481 313.7623 235.2064 315.0751 225 314.4167 C220.7223 314.1407 216.9476 312.3643 216 311.4167 C215.6841 311.1008 217 306.4167 217 306.4167 "/>
<path id="4" d="M249 289.4167 C249 289.4167 250.9105 307.0082 250 316.4167 C249.8515 317.9509 247.7055 320.0154 246 320.4167 C241.5128 321.4725 235.433 321.9533 233 320.4167 C230.4587 318.8116 230.2785 311.6952 227 308.4167 C224.8143 306.231 218 305.4167 218 305.4167 "/>
<path id="5" d="M222 299.4167 C222 299.4167 231.4177 299.6934 239 301.4167 C241.4682 301.9776 244 304.4167 244 304.4167 "/>
<path id="6" d="M228 306.4167 L246 308.4167 "/>
<path id="7" d="M81 337.4167 C81 337.4167 84.9961 336.3934 85 336.4167 C85.2908 338.1612 85 361.4167 85 361.4167 "/>
<path id="8" d="M90 337.4167 C90 337.4167 79.8862 337.0505 70 337.4167 C66.5215 337.5455 64.0221 337.9786 63 338.4167 C62.8821 338.4672 63 340.4167 63 340.4167 "/>
<path id="9" d="M230 200.4167 C230 200.4167 282.8288 199.0295 313 200.4167 C314.5209 200.4866 317.0099 204.4101 317 204.4167 C316.9258 204.4662 311.147 203.5873 307 204.4167 C304.6777 204.8811 302.3724 206.2249 302 207.4167 C300.9389 210.8123 302.9788 216.5014 302 220.4167 C301.6988 221.6214 298.7286 222.1416 298 223.4167 C297.4486 224.3816 298 227.4167 298 227.4167 "/>
</g>
</g>
</svg>
