<?xml version="1.0" encoding="utf-8"?>
<!DOCTYPE svg PUBLIC "-//W3C//DTD SVG 1.1//EN" "http://www.w3.org/Graphics/SVG/1.1/DTD/svg11.dtd">
<svg viewBox="0 0 800 800" preserveAspectRatio="xMinYMin meet" xmlns="http://www.w3.org/2000/svg" version="1.1">
<g fill="none" stroke="black" stroke-linecap="round" stroke-linejoin="round" stroke-width="1.4593">
<g transform="translate(87.52,197.5047) scale(2.0558) translate(-146,-189.4167)">
<path id="0" d="M146 284.4167 C146 284.4167 151.0049 270.026 158 261.4167 C162.3519 256.0605 164.6621 255.2389 172 252.4167 C196.0179 243.179 197.5773 243.5668 223 236.4167 C229.2125 234.6694 229.5605 234.5258 236 234.4167 C287.8764 233.5374 295.1526 230.3821 341 234.4167 C350.1555 235.2224 352.0696 239.1654 361 245.4167 C366.4807 249.2532 366.6555 250.0377 371 255.4167 C376.9807 262.8213 378.379 263.3986 382 271.4167 C384.8244 277.6707 383.8761 284.0083 385 286.4167 C385.1279 286.6908 389 286.4167 389 286.4167 "/>
<path id="1" d="M146 286.4167 C146 286.4167 155.1569 289.3265 161 293.4167 C163.9069 295.4515 162.935 298.0992 166 300.4167 C182.1241 312.608 183.8969 314.1227 202 324.4167 C208.5063 328.1163 209.4128 327.4712 217 329.4167 C228.7811 332.4375 229.1508 333.751 241 334.4167 C272.7203 336.1987 276.2656 339.6774 306 334.4167 C337.5959 328.8266 343.3252 323.3322 371 311.4167 C374.859 309.7552 376.7554 307.1505 378 303.4167 C379.9673 297.5147 377.64 292.5848 379 287.4167 C379.3389 286.1288 383 284.4167 383 284.4167 "/>
<path id="2" d="M384 282.4167 C384 282.4167 396.3023 262.0315 410 243.4167 C415.5529 235.8705 416.2851 234.4529 423 229.4167 C427.0004 226.4164 434 225.4167 434 225.4167 "/>
<path id="3" d="M385 283.4167 C385 283.4167 390.1349 294.5175 397 303.4167 C403.2349 311.4989 404.113 312.7054 412 318.4167 C417.5945 322.4679 419.0398 322.8258 426 324.4167 C435.7159 326.6374 447 326.4167 447 326.4167 "/>
<path id="4" d="M436 226.4167 C436 226.4167 431.9889 261.245 434 292.4167 C434.8401 305.4379 436.9557 308.6975 442 319.4167 C443.765 323.1673 450 326.4167 450 326.4167 "/>
<path id="5" d="M212 242.4167 C212 242.4167 215.8687 244.2955 217 246.4167 C219.1381 250.4256 218.8123 251.8741 220 257.4167 C221.7998 265.8155 222.3829 265.9826 223 274.4167 C223.8601 286.1718 225.2871 289.2684 223 298.4167 C221.6421 303.8484 218.1142 307.0739 214 310.4167 C212.2858 311.8095 209.8381 310.1553 207 311.4167 C201.6203 313.8076 196 318.4167 196 318.4167 "/>
<path id="6" d="M176 265.4167 C176 265.4167 176.5674 269.2436 177 269.4167 C178.4973 270.0156 185.0606 269.8342 186 269.4167 C186.1856 269.3342 186.6401 266.3311 186 265.4167 C184.2557 262.9247 179.3393 259.4167 179 259.4167 C178.9031 259.4167 177 265.4167 177 265.4167 "/>
<path id="7" d="M159 288.4167 C159 288.4167 160.3516 285.4849 161 285.4167 C165.7302 284.9188 175.7118 285.8783 178 286.4167 C178.0937 286.4387 178.0721 289.4022 178 289.4167 C176.1971 289.7772 164.106 288.9427 163 289.4167 C162.8841 289.4663 164 295.4167 164 295.4167 "/>
<path id="8" d="M242 234.4167 C242 234.4167 245.8886 225.0292 252 219.4167 C269.1068 203.7064 274.4039 200.0099 291 189.4167 C293.2832 187.9593 298.965 189.2329 299 189.4167 C299.965 194.4829 299 231.4167 299 231.4167 "/>
<path id="9" d="M255 337.4167 C255 337.4167 254.1271 345.8512 255 353.4167 C255.5645 358.3087 255.5246 359.4852 258 363.4167 C263.3749 371.9533 264.5432 373.5564 272 380.4167 C276.1561 384.2403 282.9709 386.4982 283 386.4167 C283.6945 384.4721 287 338.4167 287 338.4167 "/>
</g>
</g>
</svg>
