<?xml version="1.0" encoding="utf-8"?>
<!DOCTYPE svg PUBLIC "-//W3C//DTD SVG 1.1//EN" "http://www.w3.org/Graphics/SVG/1.1/DTD/svg11.dtd">
<svg viewBox="0 0 800 800" preserveAspectRatio="xMinYMin meet" xmlns="http://www.w3.org/2000/svg" version="1.1">
<g fill="none" stroke="black" stroke-linecap="round" stroke-linejoin="round" stroke-width="1.4929">
<g transform="translate(87.52,220.1482) scale(2.0095) translate(-149,-72)">
<path id="0" d="M152 171 C152 171 156.3404 164.2146 162 160 C179.0716 147.2871 181.0263 146.159 199 136 C202.6009 133.9647 204.1808 135.8332 208 134 C215.9758 130.1716 215.7696 127.5591 224 124 C233.5547 119.8683 237.1429 121.0745 245 118 C246.0681 117.582 246.3534 115.0313 247 115 C265.0859 114.1249 277.4737 113.594 307 115 C318.9042 115.5669 322.2397 115.9792 331 119 C333.44 119.8414 333.3847 123.7546 336 125 C341.9597 127.838 345.0608 125.8893 352 129 C358.6434 131.9781 358.344 134.9097 365 138 C371.5315 141.0325 374.4391 138.5244 380 142 C388.5797 147.3623 389.2136 152.7053 397 158 C399.4242 159.6484 404.9999 159 405 159 C405 159 402.9934 158.9802 403 159 C403.1058 159.3175 408 168 408 168 "/>
<path id="1" d="M149 170 C149 170 154.2211 168.8299 157 170 C161.991 172.1015 162.2594 175.321 168 178 C176.4941 181.9639 187 184 187 184 "/>
<path id="2" d="M155 191 C155 191 168.0636 189.4176 179 186 C183.0911 184.7215 187 181 187 181 "/>
<path id="3" d="M158 192 C158 192 160.1758 196.4111 163 199 C165.6387 201.4188 166.353 201.4644 170 203 C185.1407 209.375 185.6449 211.8448 201 215 C220.5537 219.0179 222.1237 217.7628 243 218 C265.8347 218.2595 266.5139 217.6656 289 216 C292.9703 215.7059 294.2753 215.3623 297 214 C298.0596 213.4702 298.0864 211.2687 299 211 C303.9407 209.5469 308.8616 210.8931 314 209 C315.9076 208.2972 315.7491 205.1705 318 204 C326.5808 199.538 328.3155 198.9679 339 196 C363.9988 189.0559 366.7704 192.5273 390 184 C404.356 178.7301 418 167 418 167 "/>
<path id="4" d="M198 159 C198 159 192.992 155.0399 193 155 C193.0058 154.9708 196.3936 153.7828 199 154 C201.7166 154.2264 204.8472 155.8472 205 156 C205 156 203.25 158 203 158 C202.75 158 201 156 201 156 "/>
<path id="5" d="M410 170 L404 167 "/>
<path id="6" d="M414 171 C414 171 418.6574 169.3495 420 167 C425.3703 157.6021 423.5466 152.9283 430 143 C435.5859 134.4063 439.2189 131.3399 446 127 C448.3258 125.5115 452.469 127.6903 455 127 C455.7925 126.7839 457 124 457 124 "/>
<path id="7" d="M412 170 C412 170 411.0647 173.7553 412 176 C415.4553 184.2927 418.3782 184.7444 422 194 C427.1452 207.1489 425.2569 208.8652 430 222 C431.5057 226.1696 432.0317 227.0317 435 230 C438.425 233.425 443.983 236.0534 444 236 C444.1483 235.5338 444.3443 219.7215 442 208 C441.3396 204.6982 438.1006 204.4591 437 201 C434.9968 194.7041 436.9517 192.6916 435 186 C433.6902 181.5091 429.4559 178.1271 430 177 C432.4101 172.0077 440.8276 167.5073 449 157 C454.4047 150.0511 454.9839 148.9515 458 141 C460.1375 135.3648 460 128 460 128 "/>
<path id="8" d="M222 220 C222 220 226.0904 224.9787 231 228 C245.0506 236.6465 245.7871 237.3063 261 244 C270.2986 248.0914 271.1193 248.6438 281 250 C295.7745 252.0279 312 251 312 251 "/>
<path id="9" d="M257 219 C257 219 270.1122 228.0561 284 235 C301.8558 243.9279 321 251 321 251 "/>
<path id="10" d="M210 132 C210 132 208.2048 127.7229 209 126 C212.7329 117.9121 214.2566 113.5498 222 106 C232.8467 95.4245 235.9336 94.2209 249 87 C253.2179 84.669 255.8631 86.8099 260 85 C262.5039 83.9045 262.835 81.2028 265 80 C266.1134 79.3814 267.8866 80.6186 269 80 C271.165 78.7972 271.8044 75.998 274 75 C275.8114 74.1766 278.4107 75.596 280 75 C280.8278 74.6896 282 72 282 72 "/>
<path id="11" d="M239 122 C239 122 243.1479 121.3169 244 120 C247.0734 115.2502 245.5317 110.5266 250 105 C263.0265 88.8883 282 73 282 73 "/>
<path id="12" d="M311 251 L322 251 "/>
<path id="13" d="M460 133 C460 133 456.1442 128.8741 456 127 C455.8453 124.9888 459 120 459 120 "/>
</g>
</g>
</svg>
