<?xml version="1.0" encoding="utf-8"?>
<!DOCTYPE svg PUBLIC "-//W3C//DTD SVG 1.1//EN" "http://www.w3.org/Graphics/SVG/1.1/DTD/svg11.dtd">
<svg viewBox="0 0 800 800" preserveAspectRatio="xMinYMin meet" xmlns="http://www.w3.org/2000/svg" version="1.1">
<g fill="none" stroke="black" stroke-linecap="round" stroke-linejoin="round" stroke-width="1.4401">
<g transform="translate(87.52,284.3824) scale(2.0832) translate(-108,-124)">
<path id="0" d="M157 194 C157 194 158.869 189.9686 161 189 C167.8872 185.8694 171.0287 187.1192 179 184 C181.6224 182.9739 181.4339 180.7841 184 180 C197.6667 175.8241 199.7218 175.4306 215 173 C221.1848 172.0161 222.0507 173.9915 228 173 C233.3391 172.1101 233.7492 169.2471 239 169 C273.729 167.3657 276.4272 167.5658 313 169 C326.9159 169.5457 327.9894 169.9185 341 173 C346.0268 174.1906 346.1049 177.0739 351 178 C363.2438 180.3164 367.6348 176.5449 378 180 C385.1183 182.3728 385.1852 187.3111 393 192 C399.5475 195.9285 408 198 408 198 "/>
<path id="1" d="M156 195 C156 195 172.5815 204.4835 188 208 C199.0243 210.5143 201.8511 206.0965 213 208 C220.6683 209.3092 221.1116 213.7239 229 215 C253.2408 218.9213 255.0206 218.151 281 219 C331.3497 220.6454 350.0361 220.922 382 220 C382.9862 219.9716 383.8383 216.2213 385 216 C390.5583 214.9413 400.4443 217.7778 403 216 C405.2902 214.4068 408 200 408 200 "/>
<path id="2" d="M407 200 L377 200 "/>
<path id="3" d="M343 194 C343 194 344.8083 189.3724 346 189 C349.3957 187.9389 357.5155 188.5432 359 189 C359.1405 189.0432 359.5514 192.0351 359 193 C358.2714 194.2751 356.8163 195.5047 355 196 C352.3613 196.7197 349.329 196.4984 348 196 C347.5966 195.8487 347 193 347 193 "/>
<path id="4" d="M156 193 C156 193 156.03 190.03 155 189 C146.9658 180.9658 144.7061 179.491 134 171 C130.3685 168.1199 129.7189 167.1622 126 166 C122.8887 165.0277 118.3011 165.4982 118 166 C117.0214 167.6309 116.164 174.8693 117 181 C117.4244 184.1122 120.4576 184.7455 121 188 C122.2027 195.2165 123.2755 199.5738 121 205 C118.3963 211.2088 110.5073 213.1496 108 219 C106.2614 223.0568 108.1956 226.5645 109 233 C109.121 233.9682 109.7317 234.9878 110 235 C115.1538 235.2343 128.1439 236.3272 131 234 C134.0258 231.5345 132.0913 220.1743 137 213 C142.9996 204.2314 157 196 157 196 "/>
<path id="5" d="M114 225 C114 225 122.9342 222.0658 126 219 C127.7032 217.2968 126.4791 212.8589 128 211 C129.3774 209.3165 135 208 135 208 "/>
<path id="6" d="M123 202 L144 204 "/>
<path id="7" d="M119 194 L146 200 "/>
<path id="8" d="M126 188 L151 191 "/>
<path id="9" d="M120 183 L143 183 "/>
<path id="10" d="M123 175 L143 175 "/>
<path id="11" d="M111 224 L141 223 "/>
<path id="12" d="M112 215 L130 216 "/>
<path id="13" d="M122 207 L140 209 "/>
<path id="14" d="M353 194 L353 191 "/>
<path id="15" d="M316 168 C316 168 315.5768 164.6218 314 163 C299.6766 148.2673 297.725 145.7516 281 132 C276.1579 128.0187 274.9732 127.6478 269 126 C261.3223 123.882 252.0263 123.9299 252 124 C251.9166 124.2224 260.4857 133.4096 263 142 C265.7599 151.4297 264 165 264 165 "/>
</g>
</g>
</svg>
