<?xml version="1.0" encoding="utf-8"?>
<!DOCTYPE svg PUBLIC "-//W3C//DTD SVG 1.1//EN" "http://www.w3.org/Graphics/SVG/1.1/DTD/svg11.dtd">
<svg viewBox="0 0 800 800" preserveAspectRatio="xMinYMin meet" xmlns="http://www.w3.org/2000/svg" version="1.1">
<g fill="none" stroke="black" stroke-linecap="round" stroke-linejoin="round" stroke-width="0.85445">
<g transform="translate(87.52,182.3173) scale(3.511) translate(-201,-163)">
<path id="0" d="M327 185 C327 185 317.1671 185.5279 308 184 C293.5717 181.5953 293.2989 178.8536 279 177 C267.0474 175.4506 265.8224 175.7555 254 177 C247.6533 177.6681 246.7691 178.0001 241 181 C222.4685 190.6364 209.8624 193.0339 204 203 C197.6018 213.877 200.6356 229.6878 201 249 C201.0561 251.9742 202.5678 253.5678 205 256 C207.8744 258.8744 208.8381 259.4866 213 261 C224.6765 265.246 225.4702 265.6797 238 268 C252.0828 270.6079 252.5391 270.1494 267 271 C277.904 271.6414 279.4916 273.0872 289 271 C298.0657 269.01 298.7199 266.861 308 262 C319.6654 255.8896 321.1229 256.6547 331 249 C340.2425 241.8371 345.883 230.7648 348 231 C352.3124 231.4792 375.582 254.1483 376 254 C376.3174 253.8874 378.4012 236.9659 379 220 C379.8954 194.6302 380.0982 177.1578 379 169 C378.9582 168.6893 373.4394 166.9924 372 168 C359.8226 176.5242 349.2457 191.1786 339 197 C337.1928 198.0268 330.8763 194.9175 328 193 C327.2283 192.4855 327.9142 190.0449 327 189 C325.2653 187.0175 321 185 321 185 "/>
<path id="1" d="M235 270 C235 270 234.0039 277.8417 235 280 C235.5747 281.2452 238.156 282.4668 241 283 C245.3337 283.8126 249.7981 282.7596 251 283 C251.0481 283.0096 250.8983 284.9661 251 285 C252.9321 285.644 257.0459 286.6866 263 287 C275.7883 287.6731 278.5418 290.2575 289 287 C305.4588 281.8735 309.7673 276.3024 324 268 C324.6692 267.6097 325.0749 266.0749 325 266 C324.0261 265.0261 317 261 317 261 "/>
<path id="2" d="M230 186 C230 186 228.3846 180.8719 229 178 C229.542 175.4706 230.6622 173.5585 233 172 C238.26 168.4933 243.809 167.8234 247 166 C247.2092 165.8804 246.8821 164.0505 247 164 C248.0221 163.562 250.523 163.1087 254 163 C266.3626 162.6137 275.8949 162.7516 279 163 C279.0199 163.0016 278.9178 164.9784 279 165 C282.0914 165.8135 288.5205 167.3106 298 168 C315.7931 169.294 333.9972 168.9997 334 169 C334.0008 169.0001 327.2341 168.8978 324 171 C319.0916 174.1905 314 182 314 182 "/>
<path id="3" d="M232 217 C232 217 233.1257 218.7086 234 219 C235.3114 219.4371 237.6 219.2 238 219 C238.1 218.95 238.2692 217.8075 238 217 C237.372 215.1159 236.8458 213.4833 236 213 C235.0132 212.4361 231 213 231 213 "/>
<path id="4" d="M260 223 C260 223 260.9195 231.4832 260 237 C259.7045 238.7732 257 241 257 241 "/>
<path id="5" d="M269 233 L267 246 "/>
</g>
</g>
</svg>
