<?xml version="1.0" encoding="utf-8"?>
<!DOCTYPE svg PUBLIC "-//W3C//DTD SVG 1.1//EN" "http://www.w3.org/Graphics/SVG/1.1/DTD/svg11.dtd">
<svg viewBox="0 0 800 800" preserveAspectRatio="xMinYMin meet" xmlns="http://www.w3.org/2000/svg" version="1.1">
<g fill="none" stroke="black" stroke-linecap="round" stroke-linejoin="round" stroke-width="1.6081">
<g transform="translate(87.52,281.5374) scale(1.8656) translate(-112,-43)">
<path id="0" d="M182 107 C182 107 176.5397 110.7216 171 112 C157.8169 115.0422 155.5492 112.549 143 116 C136.9949 117.6514 135.4194 118.5806 131 123 C121.4633 132.5367 119.1382 135.339 113 146 C111.0543 149.3794 110.9741 154.1761 112 156 C113.2637 158.2466 117.0335 160.7887 122 162 C135.8533 165.3788 137.6908 165.5918 153 166 C174.6284 166.5768 176.008 166.4906 197 164 C204.3995 163.1221 212 159 212 159 "/>
<path id="1" d="M182 107 C182 107 187.409 101.9839 193 100 C201.8814 96.8485 203.2525 96.0956 213 96 C252.8724 95.6091 254.5026 96.2742 295 99 C305.9711 99.7384 307.0844 99.3275 317 103 C333.0152 108.9315 333.5556 113.0328 349 119 C354.0102 120.9358 361 120 361 120 "/>
<path id="2" d="M213 159 C213 159 225.1006 157.6331 236 154 C250.1398 149.2867 252.0423 150.2442 264 142 C330.345 96.259 344.4794 78.4967 397 43 C399.9751 40.9893 408.3233 42.8581 409 44 C411.3669 47.9941 408.4309 63.3096 413 70 C417.9918 77.3095 430.2451 76.6557 437 85 C443.8857 93.5059 443.8191 98.9584 447 112 C448.5127 118.2021 448.2421 124.5923 447 126 C445.5596 127.6325 439.4016 128.7078 432 129 C402.1359 130.1788 399.2678 130.5926 371 129 C366.2615 128.733 364.5757 127.7343 361 125 C357.1988 122.0932 354 116 354 116 "/>
<path id="3" d="M149 111 C149 111 167.3647 122.6934 183 136 C190.288 142.2026 190.9674 143.3031 196 151 C198.9158 155.4594 200 162 200 162 "/>
<path id="4" d="M157 138 C157 138 152.4544 138.4547 152 139 C151.5602 139.5277 151.4922 143.4922 152 144 C152.914 144.914 158.9514 146.068 159 146 C159.1226 145.8284 157 137 157 137 "/>
<path id="5" d="M112 150 C112 150 130.3986 150.2478 133 150 C133.0236 149.9978 133 148 133 148 "/>
<path id="6" d="M214 95 C214 95 214.8883 84.2785 218 80 C220.7326 76.2427 225.8542 73.5653 230 73 C233.0257 72.5874 235.1762 75.928 240 77 C243.544 77.7876 247.6923 76.5385 248 77 C248.6923 78.0385 248.873 83.7622 248 89 C247.5271 91.8371 245 95 245 95 "/>
<path id="7" d="M261 144 C261 144 262.9897 144.7323 263 145 C263.2386 151.2038 262.7743 166.7736 262 170 C261.9632 170.1534 258.3211 170.813 257 170 C253.5855 167.8988 252.5151 163.5623 249 162 C245.9581 160.648 241.56 163.28 239 162 C236.44 160.72 233 154 233 154 "/>
</g>
</g>
</svg>
