<?xml version="1.0" encoding="utf-8"?>
<!DOCTYPE svg PUBLIC "-//W3C//DTD SVG 1.1//EN" "http://www.w3.org/Graphics/SVG/1.1/DTD/svg11.dtd">
<svg viewBox="0 0 800 800" preserveAspectRatio="xMinYMin meet" xmlns="http://www.w3.org/2000/svg" version="1.1">
<g fill="none" stroke="black" stroke-linecap="round" stroke-linejoin="round" stroke-width="0.88326">
<g transform="translate(87.52,226.7774) scale(3.3965) translate(-164,-187)">
<path id="0" d="M178 244 C178 244 190.5784 227.4216 204 214 C208.3141 209.6859 209.3372 209.5955 215 207 C220.9119 204.2904 221.8065 203.1849 228 203 C253.4646 202.2399 256.4809 201.6858 282 205 C293.3059 206.4683 296.9685 209.1449 305 213 C306.173 213.563 305.7669 216.1779 307 217 C310.347 219.2314 312.1762 219.928 317 221 C320.544 221.7876 321.7242 220.244 325 221 C327.3309 221.5379 330 224 330 224 "/>
<path id="1" d="M190 278 C190 278 217.3687 280.0815 242 278 C251.2401 277.2192 253.2935 276.7425 261 272 C277.6408 261.7595 278.4782 259.8755 294 246 C311.2488 230.5806 314.4187 227.4315 327 213 C328.3997 211.3945 326.7974 209.4051 328 207 C331.8852 199.2296 336.0523 192.9477 338 191 C338.1498 190.8502 341.9487 192.4616 342 193 C342.4051 197.2536 339.1591 208.3002 340 212 C340.2082 212.9159 346.3041 213.6083 347 215 C348.4453 217.8905 348.8655 226.7017 348 228 C347.345 228.9825 339.9845 230.829 337 230 C334.4441 229.29 333.3887 225.2591 330 223 C328.3541 221.9027 325 222 325 222 "/>
<path id="2" d="M177 243 C177 243 174.4846 246.0923 174 249 C172.6455 257.1268 175.3098 260.3015 173 267 C171.2242 272.1498 163.951 277.9744 164 278 C164.4891 278.2552 196 279 196 279 "/>
<path id="3" d="M180 267 C180 267 188.9457 269.0181 189 269 C189.0109 268.9964 187.4815 265.823 186 265 C184.1403 263.9668 180 264 180 264 "/>
<path id="4" d="M183 238 C183 238 183.4931 245.1433 186 249 C189.0005 253.6162 193.3416 254.2782 196 258 C196.8234 259.1528 195.4012 261.4032 196 263 C196.494 264.3174 198.6816 264.647 199 266 C200.2229 271.1972 200.2971 275.2471 200 280 C199.9547 280.7247 198 282 198 282 "/>
<path id="5" d="M200 237 C200 237 210.4278 244.9992 213 248 C213.2489 248.2904 212 251 212 251 "/>
<path id="6" d="M218 234 C218 234 222.8583 238.4884 224 241 C224.4161 241.9155 223 245 223 245 "/>
<path id="7" d="M228 224 L236 234 "/>
<path id="8" d="M212 221 C212 221 213.4377 228.9058 213 230 C212.8473 230.3817 208 231 208 231 "/>
<path id="9" d="M235 216 C235 216 238.8507 215.1734 241 216 C244.1964 217.2294 247.3492 219.6984 248 221 C248.3063 221.6125 246 226 246 226 "/>
<path id="10" d="M234 248 C234 248 236.3598 255.1006 236 256 C235.7801 256.5497 230 258 230 258 "/>
<path id="11" d="M221 260 C221 260 221.596 264.4107 221 266 C220.6896 266.8278 219.3853 267.6042 218 268 C216.4485 268.4433 214.4 268.2 214 268 C213.9 267.95 214 266 214 266 "/>
<path id="12" d="M246 242 C246 242 248.6126 242.4189 249 243 C249.7318 244.0977 250 245.6886 250 248 C250 250.3114 249.7318 251.9023 249 253 C248.6126 253.5811 246 254 246 254 "/>
<path id="13" d="M255 231 C255 231 260.11 235.0301 262 238 C262.66 239.0371 262.2 241.6 262 242 C261.95 242.1 260 242 260 242 "/>
<path id="14" d="M265 218 C265 218 272.5721 217.6944 273 218 C273.1375 218.0982 272 223 272 223 "/>
<path id="15" d="M276 237 C276 237 278.577 238.154 279 239 C279.4834 239.9668 279.5424 242.2406 279 243 C278.1089 244.2476 274 246 274 246 "/>
<path id="16" d="M262 251 C262 251 261.9938 256.5093 261 258 C260.3086 259.037 256 260 256 260 "/>
<path id="17" d="M286 216 L292 226 "/>
<path id="18" d="M225 281 C225 281 224.5734 283.7133 224 284 C221.7063 285.1468 215.0006 285.9998 215 286 C214.9998 286.0001 219 286 219 286 "/>
<path id="19" d="M229 282 C229 282 227.8154 288.7785 228 289 C228.1197 289.1437 234 288 234 288 "/>
<path id="20" d="M237 281 C237 281 237.6283 285.7433 237 287 C236.5811 287.8378 233 289 233 289 "/>
<path id="21" d="M260 274 C260 274 257.3859 285.1511 257 286 C256.9974 286.0058 254.9993 285.0007 255 285 C255.0021 284.9979 257.5842 285.3118 258 285 C258.4504 284.6622 258.9814 282 259 282 C259.0373 282 260.9955 285.0121 261 285 C261.023 284.9388 262 274 262 274 "/>
<path id="22" d="M282 263 C282 263 281.1368 268.6989 279 271 C275.9718 274.2612 269.0233 276.9456 269 277 C268.9955 277.0106 274.7007 278.4331 276 278 C276.6497 277.7834 277.4076 274.2962 278 274 C278.5183 273.7408 281.8924 275.1076 282 275 C282.1793 274.8207 281.6875 270.3125 282 270 C282.3125 269.6875 286.7439 270.3074 287 270 C287.3689 269.5574 287.7552 266.2656 287 264 C286.077 261.231 283 258 283 258 "/>
<path id="23" d="M296 246 C296 246 294.0001 261.9992 294 262 C294 262.0001 294.5669 259.2166 295 259 C295.8662 258.5669 299.875 259.25 300 259 C300.5 258 301.1596 251.8989 300 249 C299.1419 246.8548 294 244 294 244 "/>
<path id="24" d="M220 205 C220 205 217.2408 199.7469 215 199 C209.7714 197.2571 200.7446 197.891 199 198 C198.9863 198.0009 198.8962 199.9611 199 200 C200.1596 200.4349 206.9053 200.8107 207 201 C207.0947 201.1893 203.4088 205.5472 203 208 C202.7512 209.493 204.1736 212.739 205 213 C208.9982 214.2626 221.9636 214.0099 222 214 C222.0107 213.9971 216 210 216 210 "/>
<path id="25" d="M250 202 C250 202 241.7691 193.1666 236 189 C235.0134 188.2874 231.9983 188.9895 232 189 C232.0179 189.1076 236.4913 193.1348 237 195 C237.3077 196.1284 234.88 199.16 235 200 C235.0618 200.4327 237.4635 202 238 202 C238.3577 202 240 200 240 200 "/>
<path id="26" d="M273 202 C273 202 257.0467 187.0267 257 187 C256.9886 186.9935 259.1583 192.5752 259 194 C258.9455 194.4905 256.423 195.154 256 196 C255.5166 196.9668 255.5375 199.445 256 200 C256.713 200.8556 260.9978 201.9978 261 202 C261.001 202.001 258 202 258 202 "/>
<path id="27" d="M188 232 C188 232 185.682 237.212 183 239 C179.6706 241.2196 173.0022 241.9992 173 242 C172.9996 242.0001 174.9847 241.9694 175 242 C175.0229 242.0458 174 244 174 244 "/>
<path id="28" d="M206 280 C206 280 204.3088 281.9127 203 282 C191.7222 282.7519 176 282 176 282 C176 282 199.8454 282.0546 200 282 C200.0315 281.9889 193 276 193 276 "/>
</g>
</g>
</svg>
