<?xml version="1.0" encoding="utf-8"?>
<!DOCTYPE svg PUBLIC "-//W3C//DTD SVG 1.1//EN" "http://www.w3.org/Graphics/SVG/1.1/DTD/svg11.dtd">
<svg viewBox="0 0 800 800" preserveAspectRatio="xMinYMin meet" xmlns="http://www.w3.org/2000/svg" version="1.1">
<g fill="none" stroke="black" stroke-linecap="round" stroke-linejoin="round" stroke-width="2.0593">
<g transform="translate(87.52,310.4078) scale(1.4568) translate(-79,-169.4167)">
<path id="0" d="M104 192.4167 C104 192.4167 123.8848 220.1326 125 228.4167 C125.4054 231.4283 118.6388 237.276 111 244.4167 C95.9002 258.5317 79 271.4167 79 271.4167 "/>
<path id="1" d="M104 192.4167 C104 192.4167 103.6584 188.4068 102 186.4167 C97.0607 180.4896 89 174.4167 89 174.4167 "/>
<path id="2" d="M89 173.4167 C89 173.4167 102.389 180.7723 114 185.4167 C115.9482 186.1959 117.5063 184.492 119 185.4167 C134.8618 195.2359 139.0574 197.7184 156 211.4167 C161.7532 216.0682 166 223.4167 166 223.4167 "/>
<path id="3" d="M79 273.4167 C79 273.4167 91.3621 275.3706 103 274.4167 C121.2426 272.9214 124.574 273.5587 140 268.4167 C146.9879 266.0874 147.9262 263.4905 154 257.4167 C160.0738 251.3429 165 243.4167 165 243.4167 "/>
<path id="4" d="M165 243.4167 C165 243.4167 174.0799 253.3911 184 257.4167 C206.38 266.4984 209.4907 269.0003 234 271.4167 C277.8855 275.7434 281.0046 275.1005 326 271.4167 C365.1979 268.2075 365.6606 263.3772 405 257.4167 C414.7724 255.936 415.7084 258.6105 425 256.4167 C450.6108 250.3697 451.7655 246.5341 477 240.4167 C483.3223 238.884 491 240.4167 491 240.4167 "/>
<path id="5" d="M167 221.4167 C167 221.4167 169.4395 218.115 172 217.4167 C199.2478 209.9855 202.9407 211.5636 233 203.4167 C256.2263 197.1217 256.2587 192.8604 279 188.4167 C298.2369 184.6577 299.6239 186.2022 320 186.4167 C346.8664 186.6995 347.7689 186.0221 374 189.4167 C389.4504 191.4161 389.4661 194.5205 405 197.4167 C418.6539 199.9623 420.3959 197.508 433 200.4167 C438.4404 201.6721 438.649 205.319 444 206.4167 C456.4295 208.9663 459.772 204.8084 472 208.4167 C488.1334 213.1774 505 224.4167 505 224.4167 "/>
<path id="6" d="M491 241.4167 C491 241.4167 493.3723 236.5666 496 234.4167 C497.8706 232.8862 500.4525 233.9642 502 232.4167 C505.095 229.3217 508 222.4167 508 222.4167 "/>
<path id="7" d="M462 224.4167 C462 224.4167 465.9083 222.3708 466 222.4167 C466.0611 222.4472 466 226.4167 466 226.4167 C465.9999 226.4167 465 222.4167 465 222.4167 "/>
<path id="8" d="M320 184.4167 L320 169.4167 "/>
<path id="9" d="M320 169.4167 C320 169.4167 329.4344 168.7945 330 169.4167 C330.6844 170.1695 330 180.4167 330 180.4167 "/>
<path id="10" d="M307 275.4167 C307 275.4167 305.2173 289.9049 306 290.4167 C308.5154 292.0614 333 292.4167 333 292.4167 "/>
<path id="11" d="M338 272.4167 L337 291.4167 "/>
<path id="12" d="M329 169.4167 C329 169.4167 348.7459 168.4926 350 169.4167 C350.4966 169.7826 348 183.4167 348 183.4167 "/>
<path id="13" d="M339 171.4167 L339 182.4167 "/>
<path id="14" d="M317 292.4167 C317 292.4167 316.9753 280.5404 317 280.4167 C317.0033 280.4002 319 282.4167 319 282.4167 "/>
<path id="15" d="M323 291.4167 L333 275.4167 "/>
<path id="16" d="M426 200.4167 C426 200.4167 416.2606 207.9824 416 208.4167 C415.9926 208.4291 419.3359 209.5866 420 210.4167 C420.3831 210.8956 420.512 212.5633 420 213.4167 C418.1908 216.432 414.0311 220.1678 414 220.4167 C413.9985 220.4287 419.0086 221.4017 419 221.4167 C418.9485 221.5067 412.1183 225.063 410 227.4167 C409.3991 228.0844 409.4486 230.4517 410 231.4167 C410.7286 232.6917 414.0316 234.1326 414 234.4167 C413.919 235.1453 409.8989 237.72 409 240.4167 C407.9448 243.5824 408.2433 247.3356 409 249.4167 C409.2905 250.2155 412.7834 250.767 413 251.4167 C413.4331 252.716 412 258.4167 412 258.4167 "/>
<path id="17" d="M414 197.4167 C414 197.4167 406.2876 196.7729 405 197.4167 C404.4993 197.667 405.0033 201.2879 404 202.4167 C402.2584 204.376 398.5593 204.4675 397 206.4167 C395.8955 207.7973 397.0332 210.5569 396 212.4167 C395.177 213.8981 391.9588 215.2313 392 215.4167 C392.1431 216.0606 398.1278 220.6925 398 221.4167 C397.6744 223.2615 388.9378 231.297 389 232.4167 C389.0448 233.2224 398.9833 239.3777 399 239.4167 C399.0044 239.427 393.9035 238.7822 392 239.4167 C391.1842 239.6886 389.9392 241.3822 390 242.4167 C390.2993 247.5044 393 256.4167 393 256.4167 "/>
<path id="18" d="M394 195.4167 C394 195.4167 388.9578 194.6504 388 195.4167 C386.3398 196.7448 386.4119 201.5723 384 203.4167 C379.9895 206.4835 371.2609 207.721 371 208.4167 C370.7788 209.0067 376.8251 215.4221 378 219.4167 C378.4869 221.0721 375.7181 224.007 376 225.4167 C376.2417 226.625 379.2189 227.6591 380 229.4167 C380.676 230.9376 380.813 233.0956 380 234.4167 C377.8988 237.8312 372.5352 239.5264 372 242.4167 C370.9588 248.0391 375 261.4167 375 261.4167 "/>
<path id="19" d="M361 188.4167 C361 188.4167 353.8491 191.9512 352 194.4167 C351.1298 195.5769 351.1518 198.8617 352 200.4167 C353.1695 202.5607 357.6819 204.2504 358 205.4167 C358.2484 206.3274 354.87 209.9868 355 211.4167 C355.1217 212.7557 359.1439 216.0713 359 216.4167 C358.5359 217.5305 351.2102 220.6938 350 223.4167 C348.8387 226.0296 349.6456 230.0825 351 234.4167 C351.7483 236.8112 355.0781 238.4789 355 239.4167 C354.8758 240.9071 351.2794 243.0049 350 246.4167 C348.6485 250.0207 348.3971 251.598 349 255.4167 C349.725 260.0082 353 265.4167 353 265.4167 "/>
<path id="20" d="M332 186.4167 C332 186.4167 324 195.0541 324 196.4167 C324 197.3705 332.0287 203.0722 332 203.4167 C331.9739 203.7294 323 208.0401 323 208.4167 C323 209.1698 331.9097 216.5198 332 218.4167 C332.092 220.3482 324.6511 226.6496 324 229.4167 C323.7443 230.5033 327.8558 233.5426 328 235.4167 C328.1547 237.4279 324.928 241.8403 325 242.4167 C325.0163 242.5472 329.0011 243.4119 329 243.4167 C328.8063 244.2559 322.5193 253.5991 322 255.4167 C321.9576 255.565 324.8598 256.6687 325 257.4167 C325.7662 261.5029 325 271.4167 325 271.4167 "/>
<path id="21" d="M306 188.4167 C306 188.4167 300.6713 196.54 301 197.4167 C301.5133 198.7855 312.0232 204.316 312 204.4167 C311.9519 204.625 299.9308 208.3374 298 210.4167 C297.2814 211.1906 299.9538 216.6151 299 218.4167 C297.1751 221.8637 291.0094 224.5143 289 227.4167 C288.5826 228.0196 289.5101 231.0901 290 231.4167 C290.668 231.862 293.4791 230.7407 295 231.4167 C296.7575 232.1978 299.0556 234.8054 299 235.4167 C298.8861 236.6697 294.2298 239.7739 294 242.4167 C293.5135 248.0113 297.9622 253.6058 297 258.4167 C296.3377 261.728 289.1147 266.7284 289 267.4167 C288.9778 267.5499 295 270.4167 295 270.4167 "/>
<path id="22" d="M279 191.4167 C279 191.4167 277 193.4399 277 194.4167 C277 196.3703 279.4758 199.7246 279 200.4167 C277.0517 203.2505 267.1264 208.2891 266 210.4167 C265.6743 211.032 270.2777 216.4446 270 217.4167 C269.5597 218.9577 262 223.5553 262 224.4167 C262 225.5242 270 230.9679 270 233.4167 C270 239.4026 261.9468 254.2472 262 255.4167 C262.001 255.4388 270.8387 255.0224 271 255.4167 C271.9637 257.7724 271 277.4167 271 277.4167 "/>
<path id="23" d="M255 199.4167 C255 199.4167 241.4909 205.7621 241 206.4167 C240.9649 206.4634 245.3156 209.5346 246 211.4167 C246.5658 212.9725 244.6299 216.9937 245 217.4167 C245.65 218.1595 252.9298 219.206 253 219.4167 C253.0803 219.6574 250.0339 224.8347 248 226.4167 C247.2211 227.0225 244.0037 226.391 244 226.4167 C243.9578 226.7124 247.3815 232.0815 247 233.4167 C246.4411 235.3728 239.9194 239.8527 240 240.4167 C240.1113 241.1955 248.8808 246.5225 249 247.4167 C249.1027 248.1872 241.8816 254.4102 242 255.4167 C242.166 256.8273 249.3042 260.4599 251 264.4167 C252.5827 268.1097 251 276.4167 251 276.4167 "/>
<path id="24" d="M232 207.4167 C232 207.4167 216.2571 219.0568 216 219.4167 C215.9749 219.4518 221.6714 220.5952 222 221.4167 C222.9708 223.8436 221.2023 232.5553 222 234.4167 C222.2192 234.928 228.0007 235.4113 228 235.4167 C227.9788 235.5866 222.4332 239.3456 221 242.4167 C219.8832 244.8097 220.3742 249.478 221 250.4167 C221.3911 251.0033 227 251.4075 227 251.4167 C227 251.4532 220.9914 255.4048 221 255.4167 C221.7147 256.4063 240 269.4167 240 269.4167 "/>
<path id="25" d="M211 211.4167 C211 211.4167 202.9 213.7417 202 214.4167 C201.9 214.4917 202.2798 216.8765 203 217.4167 C205.0499 218.9541 210.0077 220.3478 210 220.4167 C209.9763 220.6302 202.8662 224.6842 202 226.4167 C201.5669 227.2829 204.3521 231.9325 204 232.4167 C203.0493 233.7239 195.3141 236.2486 194 237.4167 C193.8484 237.5514 194.3673 240.0212 195 240.4167 C196.8155 241.5514 201.8417 241.9419 202 242.4167 C202.3287 243.4027 199 248.2083 199 252.4167 C199 256.6251 202 262.4167 202 262.4167 "/>
<path id="26" d="M190 217.4167 C190 217.4167 185.054 221.2818 185 221.4167 C184.9982 221.4212 187.8724 222.2253 188 222.4167 C188.0567 222.5017 187.6404 224.0507 187 224.4167 C182.0903 227.2222 174.1804 229.9116 174 230.4167 C173.9128 230.6607 180.9569 235.1383 182 238.4167 C183.3533 242.67 181 252.4167 181 252.4167 "/>
</g>
</g>
</svg>
