<?xml version="1.0" encoding="utf-8"?>
<!DOCTYPE svg PUBLIC "-//W3C//DTD SVG 1.1//EN" "http://www.w3.org/Graphics/SVG/1.1/DTD/svg11.dtd">
<svg viewBox="0 0 800 800" preserveAspectRatio="xMinYMin meet" xmlns="http://www.w3.org/2000/svg" version="1.1">
<g fill="none" stroke="black" stroke-linecap="round" stroke-linejoin="round" stroke-width="1.4545">
<g transform="translate(87.52,284.4958) scale(2.0626) translate(-139.3611,-174.0278)">
<path id="0" d="M139.3611 217.0278 C139.3611 217.0278 144.8908 212.0755 148.3611 207.0278 C149.9422 204.7281 148.6421 202.7468 150.3611 201.0278 C160.6753 190.7136 163.1697 188.4006 176.3611 179.0278 C181.2891 175.5263 182.8367 174.4132 188.3611 174.0278 C202.167 173.0646 205.192 172.2231 219.3611 176.0278 C257.2132 186.1918 259.7054 187.8471 296.3611 203.0278 C307.9163 207.8133 307.0015 211.6957 318.3611 217.0278 C330.7755 222.8549 333.0732 219.9916 345.3611 226.0278 C360.7433 233.5839 361.5426 234.5257 375.3611 245.0278 C386.0701 253.1666 384.6522 256.0531 395.3611 264.0278 C407.5646 273.1155 408.627 273.1607 422.3611 280.0278 C430.2092 283.9518 439.3611 286.0278 439.3611 286.0278 "/>
<path id="1" d="M139.3611 216.0278 C139.3611 216.0278 137.2017 227.1753 139.3611 235.0278 C142.0917 244.9571 143.8793 249.3225 150.3611 256.0278 C155.7706 261.6238 159.4066 261.9497 168.3611 265.0278 C174.5961 267.1711 176.2682 264.9968 182.3611 267.0278 C187.3462 268.6895 187.7029 272.3485 192.3611 273.0278 C208.7007 275.4106 213.075 276.8723 230.3611 274.0278 C250.1456 270.7721 251.4041 263.7531 271.3611 260.0278 C286.9192 257.1236 289.487 262.5223 305.3611 260.0278 C322.976 257.2597 324.6503 256.1504 341.3611 249.0278 C354.2544 243.5323 354.9083 242.4079 366.3611 234.0278 C374.9488 227.7441 373.7214 224.5258 382.3611 219.0278 C394.6289 211.221 399.6567 212.718 410.3611 206.0278 C412.8428 204.4768 412.0921 200.2496 414.3611 199.0278 C421.887 194.9754 435.7695 191.5438 436.3611 192.0278 C437.1047 192.6362 434.9528 205.1982 436.3611 217.0278 C437.3523 225.3536 439.9541 225.5859 441.3611 234.0278 C442.8733 243.1009 442.7506 243.6791 442.3611 253.0278 C441.7627 267.3898 439.3611 282.0278 439.3611 282.0278 "/>
<path id="2" d="M184.3611 205.0278 C184.3611 205.0278 181.4242 205.7438 181.3611 206.0278 C181.0666 207.3533 181.5367 213.4094 182.3611 214.0278 C183.745 215.0657 192.3898 215.381 193.3611 215.0278 C193.5271 214.9674 193.979 210.6457 193.3611 210.0278 C191.7546 208.4213 184.3611 206.0278 184.3611 206.0278 "/>
</g>
</g>
</svg>
