<?xml version="1.0" encoding="utf-8"?>
<!DOCTYPE svg PUBLIC "-//W3C//DTD SVG 1.1//EN" "http://www.w3.org/Graphics/SVG/1.1/DTD/svg11.dtd">
<svg viewBox="0 0 800 800" preserveAspectRatio="xMinYMin meet" xmlns="http://www.w3.org/2000/svg" version="1.1">
<g fill="none" stroke="black" stroke-linecap="round" stroke-linejoin="round" stroke-width="1.3153">
<g transform="translate(87.52,228.9343) scale(2.2809) translate(-108,-109.4167)">
<path id="0" d="M108 203.4167 C108 203.4167 114.4644 192.2786 123 185.4167 C138.7821 172.7291 140.4669 170.9704 159 162.4167 C178.0836 153.6089 180.534 153.7783 201 149.4167 C209.6855 147.5657 211.5825 147.1914 220 149.4167 C252.8195 158.0931 255.0617 159.7775 288 172.4167 C297.3625 176.0093 297.6786 176.5917 306 182.4167 C342.3144 207.8367 378 235.4167 378 235.4167 "/>
<path id="1" d="M108 204.4167 C108 204.4167 108.3306 212.5015 111 216.4167 C114.4556 221.4848 116.6947 222.3813 123 226.4167 C128.7707 230.1099 129.6068 231.4924 136 232.4167 C168.6715 237.1403 171.403 237.4645 206 238.4167 C225.1894 238.9448 226.8623 239.6963 245 235.4167 C269.7789 229.57 270.77 227.3289 295 217.4167 C303.3134 214.0157 303.8483 213.7804 311 208.4167 C327.4252 196.0977 328.5434 195.8732 343 181.4167 C353.5361 170.8805 351.7493 168.2369 362 157.4167 C369.3477 149.6608 379 143.4167 379 143.4167 "/>
<path id="2" d="M379 140.4167 C379 140.4167 381.9393 146.1321 382 151.4167 C382.4182 187.8033 380 227.4167 380 227.4167 "/>
<path id="3" d="M171 236.4167 C171 236.4167 169.0333 237.1501 169 237.4167 C168.8168 238.8826 168.9153 241.3796 170 244.4167 C171.2426 247.896 171.4869 248.9036 174 251.4167 C178.3408 255.7575 180.0927 256.963 185 259.4167 C186.6358 260.2346 189.2217 259.9726 190 259.4167 C190.8673 258.7972 192.4392 255.1853 192 254.4167 C189.2672 249.6343 178 238.4167 178 238.4167 "/>
<path id="4" d="M296 216.4167 C296 216.4167 290.7539 218.273 289 220.4167 C287.4428 222.3199 286.6577 227.1656 287 227.4167 C291.698 230.8619 318.1624 242.7409 319 242.4167 C319.3022 242.2997 319.4519 228.1211 318 215.4167 C317.5533 211.5076 315 207.4167 315 207.4167 "/>
<path id="5" d="M155 181.4167 C155 181.4167 150.0323 180.0296 149 180.4167 C148.3577 180.6575 146.8874 183.6284 147 184.4167 C147.1039 185.1443 148.9336 187.1501 150 187.4167 C151.3507 187.7544 152.7366 187.2872 155 186.4167 C159.0095 184.8745 161.2948 183.9087 163 182.4167 C163.3892 182.0761 163.0265 179.42 163 179.4167 C162.4527 179.3483 155 181.4167 155 181.4167 "/>
<path id="6" d="M109 209.4167 C109 209.4167 116.7033 213.4167 123 213.4167 C132.8948 213.4167 145 209.4167 145 209.4167 "/>
<path id="7" d="M191 144.4167 C191 144.4167 200.4521 142.0513 208 137.4167 C228.2686 124.971 243.5945 110.2978 248 109.4167 C248.6183 109.293 254.0863 118.1475 258 127.4167 C263.4243 140.2638 267 154.4167 267 154.4167 "/>
</g>
</g>
</svg>
