<?xml version="1.0" encoding="utf-8"?>
<!DOCTYPE svg PUBLIC "-//W3C//DTD SVG 1.1//EN" "http://www.w3.org/Graphics/SVG/1.1/DTD/svg11.dtd">
<svg viewBox="0 0 800 800" preserveAspectRatio="xMinYMin meet" xmlns="http://www.w3.org/2000/svg" version="1.1">
<g fill="none" stroke="black" stroke-linecap="round" stroke-linejoin="round" stroke-width="1.0753">
<g transform="translate(87.52,261.895) scale(2.79) translate(-103,-163)">
<path id="0" d="M103 182 C103 182 109.5651 180.3836 113 182 C123.8299 187.0964 136.9193 197.9385 137 198 C137.0067 198.0051 134 198 134 198 "/>
<path id="1" d="M106 185 C106 185 109.0509 184.4068 110 185 C111.6906 186.0566 112.4807 187.299 114 190 C121.3085 202.9929 123.2381 204.4149 128 217 C129.4744 220.8966 129.2988 222.844 128 227 C124.7369 237.442 121.3813 238.2413 118 249 C116.2094 254.6972 116.9944 261.9997 117 262 C117.3706 262.0206 127.8211 256.7184 136 250 C141.1118 245.801 140.8269 242.577 145 239 C146.3263 237.8631 150 238 150 238 "/>
<path id="2" d="M137 199 C137 199 141.4507 198.7253 144 200 C147.3991 201.6995 150.4304 206.2911 151 206 C158.649 202.0905 171.5988 188.6008 189 177 C191.3269 175.4487 194.104 177.264 196 176 C198.3906 174.4063 198.4185 170.0826 201 169 C210.2766 165.1098 214.3584 163.7547 227 163 C246.6066 161.8295 262.39 164.4527 268 165 C268.0266 165.0026 267.9075 166.9692 268 167 C269.2947 167.4316 273.4925 166.2852 277 168 C294.1021 176.361 295.9419 181.4945 313 189 C318.4447 191.3957 325.979 189.1361 327 190 C327.5131 190.4342 327.7298 196.1079 326 200 C322.3747 208.1568 319.2522 208.2455 315 217 C311.0197 225.1948 313.389 228.1971 309 235 C304.5787 241.8531 302.2923 243.9249 295 248 C286.9915 252.4753 284.9358 252.8709 275 254 C242.1137 257.7371 236.4439 255.5118 207 258 C205.6346 258.1154 205.2565 259.9619 204 260 C191.6961 260.3728 187.4766 261.3958 174 259 C166.7456 257.7103 165.3554 256.3217 159 252 C153.5966 248.3257 149 242 149 242 "/>
<path id="3" d="M289 188 C289 188 290.9402 189.2825 291 190 C291.2736 193.2837 290.62 199.3025 290 200 C289.7027 200.3345 283.2088 199.3758 283 199 C282.7058 198.4704 285 191 285 191 "/>
<path id="4" d="M272 187 C272 187 266.1043 185.8163 264 187 C260.5641 188.9327 257.2401 191.8664 256 196 C253.683 203.7234 252.4775 212.3532 255 217 C258.0651 222.6462 265.5011 225.7228 275 231 C277.5837 232.4354 282 232 282 232 "/>
<path id="5" d="M183 208 C183 208 188.2569 211.6825 193 213 C196.3318 213.9255 201 213 201 213 "/>
<path id="6" d="M211 196 C211 196 207.5597 198.7613 207 201 C205.9739 205.1043 206.179 208.1689 207 212 C207.2719 213.2687 209.0296 214.9254 210 215 C212.9574 215.2275 220 213 220 213 "/>
<path id="7" d="M221 225 C221 225 227.0768 231.7846 232 234 C234.9441 235.3248 238.408 234.864 241 234 C242.248 233.584 244 230 244 230 "/>
<path id="8" d="M230 199 C230 199 227.2103 200.1587 227 201 C225.9101 205.3595 226 215 226 215 "/>
<path id="9" d="M204 234 C204 234 203.5468 236.5468 204 237 C206.266 239.266 213 243 213 243 "/>
<path id="10" d="M183 227 C183 227 182.3706 232.965 183 238 C183.3004 240.4031 183.651 241.4583 185 243 C186.4739 244.6845 190 246 190 246 "/>
<path id="11" d="M255 236 C255 236 254.8 239.6 255 240 C255.05 240.1 257 240 257 240 "/>
<path id="12" d="M312 205 L320 204 "/>
</g>
</g>
</svg>
