<?xml version="1.0" encoding="utf-8"?>
<!DOCTYPE svg PUBLIC "-//W3C//DTD SVG 1.1//EN" "http://www.w3.org/Graphics/SVG/1.1/DTD/svg11.dtd">
<svg viewBox="0 0 800 800" preserveAspectRatio="xMinYMin meet" xmlns="http://www.w3.org/2000/svg" version="1.1">
<g fill="none" stroke="black" stroke-linecap="round" stroke-linejoin="round" stroke-width="1.8961">
<g transform="translate(87.52,127.0744) scale(1.5822) translate(-59,-2)">
<path id="0" d="M207 168 C207 168 212.7036 142.9305 222 128 C226.5611 120.6746 230.9041 119.418 240 115 C247.0864 111.558 248.6154 112.1565 257 111 C262.7325 110.2093 263.6097 110.1489 269 111 C272.3571 111.5301 272.8409 112.0638 276 114 C288.0829 121.4056 288.9668 121.23 300 130 C308.09 136.4305 310.6208 137.3364 315 145 C319.2465 152.4314 320 165 320 165 "/>
<path id="1" d="M206 168 C206 168 182.6919 164.1036 169 167 C162.4726 168.3808 158.331 172.2148 154 179 C145.0518 193.0188 141.4985 198.7593 139 214 C137.3205 224.2449 139.2816 228.6408 144 240 C152.0899 259.4756 153.8298 261.567 166 279 C171.4789 286.8482 173.0338 287.8454 181 293 C189.0051 298.1798 190.7708 299.4898 200 301 C216.4341 303.6892 226.7993 296.8061 236 302 C247.372 308.4197 248.2253 321.9049 262 336 C268.1707 342.3142 270.7655 342.5162 279 346 C282.6548 347.5463 284.4398 347.7495 288 347 C292.4769 346.0575 296.5903 344.1146 298 342 C299.2083 340.1875 298.7902 336.7411 298 332 C295.8665 319.1991 295.7814 318.3754 292 306 C290.4339 300.8744 286.8884 296.0236 287 296 C289.2126 295.5319 321.9559 300.3766 344 295 C355.4118 292.2166 358.4337 282.9228 369 276 C370.1286 275.2606 371.9521 275.3014 373 276 C377.6284 279.0856 378.06 282.2875 384 286 C393.3835 291.8647 394.883 294.1138 405 296 C421.8966 299.1502 429.6104 298.2455 443 297 C444.9304 296.8204 446.4934 294.7394 448 292 C451.5576 285.5316 451.7447 284.1418 454 277 C454.534 275.3091 454.7159 274.1336 454 273 C449.9587 266.6013 448.8401 263.5461 442 258 C431.4797 249.47 423.7599 247.8672 417 243 C416.5921 242.7063 416.5589 240.3492 417 240 C423.8102 234.6086 430.7552 232.5924 441 224 C445.2128 220.4667 447.1903 218.5114 448 214 C450.0862 202.3771 450.466 196.508 448 185 C446.7306 179.0759 443.8357 177.4805 439 172 C436.8538 169.5677 435.5922 168.3111 433 168 C425.4475 167.0937 420.2939 166.0187 414 169 C405.2566 173.1416 401.9342 176.7544 395 186 C388.0658 195.2456 388.48 202.28 384 209 C383.36 209.96 379.6058 210.5748 379 210 C368.5243 200.0615 362.2117 187.8067 345 172 C339.6468 167.0838 336.8809 166.5291 330 165 C325.1049 163.9122 318 166 318 166 "/>
<path id="2" d="M178 221 C178 221 173.6707 217.0629 172 214 C171.3495 212.8073 171.4482 210.5518 172 210 C173.9312 208.0688 178.5311 205.1646 181 205 C182.5166 204.8989 186.3792 207.3445 187 209 C188.192 212.1786 187.9976 219.2542 187 221 C186.4537 221.956 179.1992 223.2717 179 223 C178.0106 221.6509 176 207.4506 176 206 C176 206 178.7105 205.7105 179 206 C179.4825 206.4825 179.836 208.0325 180 210 C180.3212 213.8547 180.2353 217.0588 180 218 C179.9853 218.0588 178.025 218.075 178 218 C177.775 217.325 177.7 212.6 178 212 C178.075 211.85 181 212 181 212 "/>
<path id="3" d="M148 252 C148 252 155.7802 253.3023 156 253 C156.5475 252.2472 156 241 156 241 "/>
<path id="4" d="M90 196 C90 196 84.691 196.9818 82 199 C79.7685 200.6736 78.923 202.231 78 205 C77.2448 207.2656 77.3083 208.3195 78 211 C81.1202 223.0909 83.2234 233.0972 86 236 C86.9687 237.0127 99.4772 235.002 100 234 C101.1213 231.8508 100.5784 218.8015 98 213 C96.7697 210.2318 88 207 88 207 "/>
<path id="5" d="M72 153 C72 153 59.5951 147.7373 59 145 C56.9472 135.5569 57.4105 117.9273 62 107 C64.2865 101.5559 71.7045 97.9278 80 95 C85.9692 92.8932 89.8791 93.8341 96 95 C98.2043 95.4199 99.4441 96.7526 101 99 C103.4542 102.5449 104.0916 103.6852 105 108 C105.923 112.384 106.367 114.5824 105 118 C103.1955 122.5112 97 128 97 128 "/>
<path id="6" d="M75 42 C75 42 66.3397 38.0108 64 34 C61.1194 29.0618 60.0378 22.8108 61 18 C61.6623 14.6886 64.6116 12.2913 69 9 C73.9091 5.3182 75.1723 4.2748 81 3 C89.851 1.0638 92.3335 1.3333 101 2 C103.7104 2.2085 104.8497 2.993 107 5 C111.7079 9.394 113.0482 10.3235 116 16 C119.0271 21.8213 119.2583 23.139 120 30 C121.1821 40.934 121.3061 43.5305 120 53 C119.6279 55.6975 118.4462 56.8113 116 59 C109.5135 64.8037 108.5351 66.9452 101 70 C91.8532 73.7082 79 74 79 74 "/>
</g>
</g>
</svg>
