<?xml version="1.0" encoding="utf-8"?>
<!DOCTYPE svg PUBLIC "-//W3C//DTD SVG 1.1//EN" "http://www.w3.org/Graphics/SVG/1.1/DTD/svg11.dtd">
<svg viewBox="0 0 800 800" preserveAspectRatio="xMinYMin meet" xmlns="http://www.w3.org/2000/svg" version="1.1">
<g fill="none" stroke="black" stroke-linecap="round" stroke-linejoin="round" stroke-width="2.741">
<g transform="translate(87.52,303.6839) scale(1.0945) translate(-10,-201)">
<path id="0" d="M46 250 C46 250 62.3594 257.8575 78 260 C97.2168 262.6324 99.1602 262.1257 119 260 C140.2742 257.7206 141.7191 257.9252 162 251 C202.1752 237.2816 201.8106 233.6292 242 218 C255.637 212.6967 255.8835 211.9719 270 209 C293.3618 204.0817 294.1271 203.5055 318 202 C349.0477 200.042 350.4018 198.9165 381 202 C413.6916 205.2945 415.7082 205.3907 447 215 C477.8412 224.4709 478.2315 226.8113 508 241 C531.491 252.1967 554 266 554 266 "/>
<path id="1" d="M40 320 C40 320 54.7777 313.3708 69 312 C94.7969 309.5136 96.1856 311.2552 123 312 C131.9657 312.249 132.4058 312.0902 141 314 C150.0084 316.0019 149.9001 318.3455 159 320 C198.6497 327.209 199.7352 329.8808 240 332 C312.5077 335.8162 314.9864 336.0956 387 332 C418.6872 330.1979 420.6013 329.1852 451 320 C488.7882 308.582 488.4657 302.9926 526 290 C539.6611 285.2712 540.555 285.8385 555 284 C567.6802 282.3862 581 283 581 283 "/>
<path id="2" d="M555 266 C555 266 571.2768 270.0983 576 274 C577.8967 275.5668 578 285 578 285 "/>
<path id="3" d="M577 281 L549 278 "/>
<path id="4" d="M494 266 L524 261 "/>
<path id="5" d="M510 273 L527 269 "/>
<path id="6" d="M513 274 C513 274 520.5024 274.9606 523 274 C524.2296 273.5271 526 269 526 269 "/>
<path id="7" d="M47 251 C47 251 16.0671 222.0295 16 222 C15.9787 221.9906 17.627 232.4467 22 240 C27.9593 250.2933 31.867 249.7783 38 260 C41.7295 266.2159 41.5949 267.6937 43 275 C43.9683 280.0352 44.8433 282.2332 43 286 C35.0812 302.1819 32.1547 305.4254 20 322 C16.2448 327.1208 9.9869 330.9972 10 331 C10.0369 331.0079 22.9074 328.8131 34 325 C38.1365 323.5781 41.56 320.5134 42 320 C42.0106 319.9876 40 318 40 318 C40.247 317.753 47 315 47 315 "/>
<path id="8" d="M328 201 C328 201 310.6829 205.1491 297 213 C281.3987 221.9515 282.1862 225.629 267 236 C262.2108 239.2707 255.9999 241 256 241 C256.0001 241 265.3813 237.0797 275 235 C302.0885 229.143 329.9996 225.0001 330 225 C330.0001 225 317.5005 227.0522 314 230 C311.876 231.7886 310.9133 241.0137 311 241 C311.7997 240.8737 332.9902 233.1089 352 224 C355.8197 222.1697 355.2668 219.7333 359 218 C368.2512 213.7048 369.4071 213.0887 380 211 C404.319 206.2047 430 204 430 204 "/>
<path id="9" d="M316 336 C316 336 267.2343 359.0705 221 375 C210.4733 378.6268 197 377 197 377 C197 377 229.5789 379.0728 260 376 C277.7939 374.2026 279.3381 373.7591 296 367 C331.2108 352.7164 366 333 366 333 "/>
<path id="10" d="M405 252 C405 252 394.4984 268.4156 384 280 C381.4888 282.771 375.9718 283.9671 376 284 C376.2682 284.3129 385.9645 290.474 396 294 C403.7054 296.7073 413 297 413 297 "/>
<path id="11" d="M153 268 C153 268 141.6774 282.4497 142 283 C143.1473 284.9572 170 297 170 297 "/>
</g>
</g>
</svg>
