<?xml version="1.0" encoding="utf-8"?>
<!DOCTYPE svg PUBLIC "-//W3C//DTD SVG 1.1//EN" "http://www.w3.org/Graphics/SVG/1.1/DTD/svg11.dtd">
<svg viewBox="0 0 800 800" preserveAspectRatio="xMinYMin meet" xmlns="http://www.w3.org/2000/svg" version="1.1">
<g fill="none" stroke="black" stroke-linecap="round" stroke-linejoin="round" stroke-width="2.2705">
<g transform="translate(87.52,218.3256) scale(1.3213) translate(-160,-103.4167)">
<path id="0" d="M183 251.4167 C183 251.4167 172.3523 244.6795 164 237.4167 C161.5304 235.2692 160.7381 234.1847 160 231.4167 C159.0599 227.8914 159.1859 226.487 160 222.4167 C161.0673 217.08 161.1157 215.9234 164 211.4167 C168.6115 204.2112 169.1193 202.1312 176 197.4167 C194.4056 184.8054 196.9908 184.5461 218 174.4167 C224.3035 171.3775 225.4618 173.2188 232 170.4167 C249.5938 162.8765 249.4498 160.3705 267 153.4167 C275.2356 150.1535 277.1118 152.572 285 149.4167 C291.1174 146.9697 291.6336 142.0772 297 141.4167 C318.9044 138.7207 325.0235 138.0693 350 141.4167 C371.5562 144.3057 375.2522 146.194 394 154.4167 C400.889 157.4382 400.5168 162.9435 407 166.4167 C412.5417 169.3854 415.6564 166.9344 422 169.4167 C426.0585 171.0048 425.7343 173.2838 430 175.4167 C441.2458 181.0396 441.7585 181.807 454 185.4167 C480.2709 193.1632 481.4766 193.5603 508 198.4167 C515.9974 199.881 516.9227 197.1875 525 198.4167 C539.2851 200.5905 539.8183 202.4084 554 205.4167 C555.8608 205.8114 556.6656 206.1419 558 205.4167 C576.5432 195.3388 578.6833 192.044 600 180.4167 C611.4943 174.1471 612.6813 173.3075 624 169.4167 C627.2594 168.2963 631.7772 168.9711 632 169.4167 C633.0305 171.4776 634.5876 179.4789 633 187.4167 C629.9498 202.6679 629.1737 205.0692 622 219.4167 C616.261 230.8946 614.8615 231.3993 606 241.4167 C592.1421 257.0821 576.5532 269.4552 576 271.4167 C575.9476 271.6024 587.2238 274.7612 595 280.4167 C602.5825 285.9312 602.75 287.6042 609 295.4167 C612.5305 299.8298 613.5334 300.3504 615 305.4167 C618.6795 318.1278 620.7339 332.4993 620 333.4167 C619.4801 334.0665 605.6354 334.7117 595 330.4167 C556.5551 314.8908 552.466 306.7089 516 291.4167 C510.6461 289.1715 508.2843 289.7852 502 291.4167 C458.4542 302.7218 456.0404 313.1318 412 318.4167 C348.2349 326.0685 336.6903 323.5751 277 318.4167 C264.527 317.3388 261.8703 311.8356 250 304.4167 C247.0947 302.6009 247.5315 299.5559 245 298.4167 C239.6246 295.9978 236.3545 298.1703 230 295.4167 C222.463 292.1506 215 285.4167 215 285.4167 "/>
<path id="1" d="M266 258.4167 C266 258.4167 271.4872 268.6912 273 278.4167 C274.7934 289.9458 274.536 293.8938 273 303.4167 C272.5818 306.0094 270.5493 307.9599 268 309.4167 C264.9322 311.1697 259 311.4167 259 311.4167 "/>
<path id="2" d="M217 285.4167 C217 285.4167 211.1237 280.4785 205 277.4167 C200.5986 275.216 198.1127 276.2324 195 274.4167 C193.852 273.747 194.3821 271.4846 193 270.4167 C184.8434 264.1139 183.1612 262.9889 173 257.4167 C168.0584 254.7067 166.1559 255.6544 162 253.4167 C160.8577 252.8016 159.9624 250.4223 160 250.4167 C160.5333 250.3367 182 250.4167 182 250.4167 "/>
<path id="3" d="M180 249.4167 L195 254.4167 "/>
<path id="4" d="M198 209.4167 C198 209.4167 194.6316 209.5745 194 210.4167 C191.671 213.522 189.7542 216.326 189 221.4167 C187.9817 228.2899 187.9395 231.922 190 237.4167 C191.3842 241.1078 194.0942 243.6413 198 245.4167 C203.0042 247.6913 205.039 246.7537 212 247.4167 C215.4338 247.7437 216.8626 248.4854 219 247.4167 C222.9695 245.4319 226.2504 243.3533 228 239.4167 C230.9646 232.7463 232.6425 225.8368 231 220.4167 C229.3713 215.0419 223.6478 209.2406 218 206.4167 C213.7641 204.2987 210.0105 205.5404 203 206.4167 C198.6184 206.9644 194 209.4167 194 209.4167 "/>
<path id="5" d="M206 214.4167 C206 214.4167 201.6231 217.3734 200 220.4167 C198.224 223.7467 197.3777 227.0829 198 229.4167 C198.5586 231.5116 200.9134 233.5172 204 235.4167 C206.6212 237.0297 207.7491 237.1845 211 237.4167 C214.1534 237.6419 217.3435 237.3358 218 236.4167 C219.6569 234.0971 221.4068 227.0779 221 223.4167 C220.8216 221.8109 218.6955 219.9329 216 218.4167 C211.4284 215.8452 205 214.4167 205 214.4167 "/>
<path id="6" d="M271 249.4167 C271 249.4167 277.1428 260.7376 279 271.4167 C280.9056 282.3737 281.2193 287.2793 279 295.4167 C277.9408 299.3004 270 304.4167 270 304.4167 "/>
<path id="7" d="M292 263.4167 C292 263.4167 322.4671 246.9437 351 238.4167 C363.1473 234.7864 369.1686 236.7824 379 237.4167 C380.1239 237.4892 381.7949 239.1348 382 240.4167 C383.3061 248.5796 384.9058 254.0789 383 262.4167 C381.682 268.1831 379.0242 269.6389 374 275.4167 C369.28 280.8446 368.7876 282.33 363 285.4167 C355.1336 289.6121 353.3811 290.0195 344 291.4167 C330.7259 293.3937 316 292.4167 316 292.4167 "/>
<path id="8" d="M323 137.4167 C323 137.4167 343.7294 135.164 363 129.4167 C400.1693 118.3311 401.1286 111.5979 437 103.4167 C454.9514 99.3225 467.6761 100.7816 477 103.4167 C479.255 104.0539 482.1766 110.1821 483 116.4167 C485.396 134.5574 481.2699 143.5853 484 156.4167 C484.6052 159.2613 490.2488 160.1152 493 163.4167 C494.1068 164.7448 493.7249 165.9411 494 168.4167 C494.2153 170.3541 494.7271 171.1897 494 172.4167 C488.0957 182.3802 478 195.4167 478 195.4167 "/>
<path id="9" d="M312 323.4167 C312 323.4167 314.6081 336.9302 319 348.4167 C320.7922 353.104 321.3076 354.1859 325 357.4167 C336.3432 367.3419 338.2661 368.3133 351 376.4167 C353.7656 378.1766 356.5647 379.1343 358 378.4167 C363.1433 375.845 372.9055 365.5284 373 365.4167 C373.0125 365.402 370.2776 366.1321 369 365.4167 C359.7888 360.2584 357.4712 359.112 348 351.4167 C341.9297 346.4845 341.2915 345.854 337 339.4167 C331.6726 331.4256 328 321.4167 328 321.4167 "/>
<path id="10" d="M362 359.4167 C362 359.4167 370.3703 367.2596 378 370.4167 C382.9798 372.4773 390.1853 372.4028 391 371.4167 C393.4221 368.4846 396.9277 349.1528 397 347.4167 C397.0006 347.4018 393.5747 348.2985 392 347.4167 C383.2322 342.5067 381.8361 338.8435 372 333.4167 C368.4154 331.439 365.9737 333.3408 363 331.4167 C359.0068 328.8328 355 322.4167 355 322.4167 "/>
<path id="11" d="M512 293.4167 C512 293.4167 508.2619 303.5119 503 312.4167 C495.4169 325.2496 489.627 325.8955 486 337.4167 C482.5345 348.4247 487.5206 356.0763 486 366.4167 C485.6993 368.4617 483.1606 370.8165 481 371.4167 C476.6036 372.6379 473.4115 373.2205 468 371.4167 C442.8849 363.045 438.7788 361.8384 415 349.4167 C407.3342 345.4122 406.831 343.4625 401 336.4167 C395.2426 329.4598 391 320.4167 391 320.4167 "/>
</g>
</g>
</svg>
