<?xml version="1.0" encoding="utf-8"?>
<!DOCTYPE svg PUBLIC "-//W3C//DTD SVG 1.1//EN" "http://www.w3.org/Graphics/SVG/1.1/DTD/svg11.dtd">
<svg viewBox="0 0 800 800" preserveAspectRatio="xMinYMin meet" xmlns="http://www.w3.org/2000/svg" version="1.1">
<g fill="none" stroke="black" stroke-linecap="round" stroke-linejoin="round" stroke-width="1.0033">
<g transform="translate(87.52,126.3931) scale(2.9902) translate(-156,-119)">
<path id="0" d="M156 224 C156 224 155.7362 215.6595 158 210 C160.172 204.5699 161.3779 203.6221 166 199 C175.4875 189.5125 176.0502 188.2999 187 181 C194.7423 175.8385 195.9113 176.4474 205 173 C210.2446 171.0107 210.6807 170.2007 216 170 C236.0853 169.2421 238.41 167.8232 258 171 C273.6971 173.5455 274.8243 175.5925 290 182 C296.7826 184.8638 296.7606 188.1886 303 190 C310.4479 192.1623 315.1683 192.3996 321 191 C323.8502 190.316 325.9677 187.6951 328 184 C330.8471 178.8235 329.2752 176.7222 332 171 C333.9849 166.8318 335.1827 164.6904 338 163 C340.5042 161.4975 345.0018 161.2315 347 162 C348.4629 162.5627 350.675 165.3187 351 168 C352.3532 179.1639 348.0508 185.2449 351 195 C353.177 202.2008 360.2498 203.4995 364 211 C366.0835 215.1669 365.8882 219.225 365 223 C364.5337 224.9819 362.6177 226.6911 360 228 C355.6371 230.1815 354.3999 230.4414 349 231 C340.4063 231.889 339.5586 232.2227 331 231 C319.1809 229.3116 307 225 307 225 "/>
<path id="1" d="M156 226 C156 226 154.743 235.3575 157 241 C159.8432 248.1081 162.0132 249.4145 168 256 C171.6356 259.9992 172.4449 261.102 177 263 C183.2115 265.5881 184.582 265.5364 192 266 C208.1182 267.0074 210.6504 269.0581 225 266 C238.3801 263.1485 240.1653 260.7492 253 253 C266.0576 245.1162 265.0806 242.6129 278 234 C288.8614 226.7591 292.9595 222.8378 301 221 C304.3612 220.2317 313 226 313 226 "/>
<path id="2" d="M173 232 C173 232 170.0019 233.0115 170 233 C169.9744 232.8464 172 226 172 226 "/>
<path id="3" d="M173 225 C173 225 178.4068 225.4068 179 226 C179.4237 226.4237 179.5988 229.4032 179 231 C178.506 232.3174 177.3114 233.5629 176 234 C174.0329 234.6557 170.8316 234.6237 170 234 C169.0991 233.3243 167.8214 228.4167 168 228 C168.1091 227.7453 172.7121 226.7601 173 227 C173.4145 227.3455 174 233 174 233 "/>
<path id="4" d="M174 196 C174 196 184.7429 200.9845 191 208 C200.0463 218.1428 200.2062 220.485 207 233 C209.3453 237.3203 209.4566 238.1093 210 243 C210.894 251.046 210.9189 252.0366 210 260 C209.4948 264.3781 207 269 207 269 "/>
<path id="5" d="M185 183 C185 183 188.3963 182.4826 189 183 C190.2289 184.0534 191.6625 186.1874 192 189 C193.0083 197.4025 191.1126 206.9943 192 208 C192.5247 208.5947 206.3078 205.3078 207 206 C208.0117 207.0117 206.2675 220.9682 208 224 C208.8662 225.5159 217.7484 225.2671 219 227 C220.8805 229.6038 222.1549 238.9683 221 242 C220.2043 244.0887 211.0112 247.9777 211 248 C210.9964 248.0071 217.2124 247.2124 218 248 C219.6878 249.6878 220.8771 253.6665 222 259 C222.7585 262.6031 222.7398 264.2875 222 267 C221.6469 268.2946 219 270 219 270 "/>
<path id="6" d="M191 178 C191 178 196.3772 177.1257 199 178 C200.7485 178.5828 202.6812 180.3261 203 182 C204.1383 187.9759 204.1734 196.2133 203 199 C202.6295 199.88 194.9993 200.9998 195 201 C195.0014 201.0005 203.1058 199.8773 209 201 C212.2679 201.6225 215.0156 203.3125 216 205 C216.9742 206.6701 217.0995 211.2897 216 213 C214.3802 215.5196 207.0095 218.9714 207 219 C206.9975 219.0074 211.556 218.0224 214 219 C217.631 220.4524 220.72 222.44 222 225 C223.28 227.56 222 235 222 235 "/>
<path id="7" d="M237 191 C237 191 241.1956 189.5173 242 190 C243.682 191.0092 246.1735 194.1071 247 197 C247.6584 199.3045 246.6539 203.4914 246 204 C245.1882 204.6314 239.9959 204.4435 238 204 C237.6396 203.9199 237 202 237 202 "/>
<path id="8" d="M237 202 L237 200 "/>
<path id="9" d="M239 197 L242 195 "/>
<path id="10" d="M221 178 C221 178 224.8318 180.1588 225 181 C225.2922 182.4611 223.8097 186.8664 223 188 C222.7941 188.2882 220.075 188.15 220 188 C219.7 187.4 219.3443 183.9671 220 182 C220.4371 180.6886 221.5368 179.4572 223 179 C228.063 177.4178 236 177 236 177 "/>
<path id="11" d="M246 227 C246 227 254.805 225.7772 255 226 C255.2056 226.235 254.421 233.2632 253 235 C251.9676 236.2618 246.3412 237.1462 246 237 C245.881 236.949 245.5669 232.8662 246 232 C246.2166 231.5669 249 231 249 231 "/>
<path id="12" d="M267 196 C267 196 268.9811 195.934 269 196 C269.2311 196.809 269.8028 201.3944 269 203 C268.3692 204.2615 265.3492 205.8314 264 206 C263.3097 206.0863 261 204.3989 261 204 C261 202.2051 262.4603 197.1995 264 195 C264.5271 194.247 268 194 268 194 "/>
<path id="13" d="M289 201 C289 201 288.603 212.0524 288 213 C287.8655 213.2113 282.4474 212.5966 282 212 C281.4306 211.2407 280.98 207.0399 282 205 C283.53 201.9401 289 198 289 198 "/>
<path id="14" d="M306 191 C306 191 309.7259 205.4673 309 212 C308.7659 214.1073 305.9815 215.681 303 218 C301.944 218.8213 300.0944 219.0629 300 219 C299.9191 218.9461 300 216 300 216 "/>
<path id="15" d="M315 194 C315 194 318.1147 210.7579 317 217 C316.6923 218.723 310 222 310 222 "/>
<path id="16" d="M178 187 C178 187 177.6938 179.2728 180 173 C189.7748 146.4125 194.3377 126.3629 203 119 C207.3311 115.3185 235.0539 120.2622 240 122 C240.4567 122.1605 241.2079 127.7051 240 132 C237.0368 142.536 235.9006 143.4448 231 154 C229.5291 157.168 229.2658 157.9608 227 160 C224.9029 161.8874 222.5329 161.4671 221 163 C220.1484 163.8516 220 167 220 167 "/>
<path id="17" d="M201 267 C201 267 216.262 277.9792 230 290 C236.0126 295.261 239.7724 302.2762 241 302 C245.988 300.8777 267.4113 284.2641 270 281 C270.1907 280.7595 267.5021 276.2605 264 273 C253.404 263.1348 241 254 241 254 "/>
<path id="18" d="M159 238 C159 238 168.0612 245.4391 176 248 C181.4951 249.7726 190 248 190 248 "/>
<path id="19" d="M256 170 C256 170 259.0829 164.0417 260 164 C263.8149 163.8266 271.8189 166.0566 278 169 C279.6319 169.7771 280.4621 171.6691 281 174 C281.756 177.2758 281 182 281 182 "/>
<path id="20" d="M265 245 C265 245 277.982 246.6306 280 246 C280.395 245.8766 279.8391 241.8243 281 240 C282.5426 237.5759 285.8305 237.144 287 235 C287.8482 233.445 287 229 287 229 "/>
</g>
</g>
</svg>
