<?xml version="1.0" encoding="utf-8"?>
<!DOCTYPE svg PUBLIC "-//W3C//DTD SVG 1.1//EN" "http://www.w3.org/Graphics/SVG/1.1/DTD/svg11.dtd">
<svg viewBox="0 0 800 800" preserveAspectRatio="xMinYMin meet" xmlns="http://www.w3.org/2000/svg" version="1.1">
<g fill="none" stroke="black" stroke-linecap="round" stroke-linejoin="round" stroke-width="1.2961">
<g transform="translate(87.52,277.3227) scale(2.3147) translate(-153,-134)">
<path id="0" d="M159 145 C159 145 160.2903 165.2158 159 185 C157.31 210.9131 153 237 153 237 "/>
<path id="1" d="M161 145 C161 145 165.3471 144.1332 169 145 C193.8041 150.8857 194.9781 154.728 220 159 C234.5285 161.4805 237.3443 161.5765 251 159 C261.5223 157.0147 263.2084 154.5952 273 149 C276.3312 147.0965 275.9116 144.1152 279 143 C291.301 138.558 293.9764 138.9394 309 136 C316.8502 134.4641 317.0693 134.1166 325 134 C350.7203 133.6218 354.0581 131.0757 377 135 C388.4565 136.9597 389.8634 140.3877 401 147 C405.3495 149.5825 408.6432 151.2792 409 154 C411.3938 172.2529 410.2102 182.1834 409 208 C408.7727 212.8481 408.2726 214.1366 406 218 C403.8524 221.6509 402.7854 222.4764 399 225 C394.3493 228.1004 393.5895 228.7378 388 230 C363.5606 235.5186 362.399 236.1779 337 239 C317.8965 241.1226 315.0477 243.1214 298 240 C282.8204 237.2206 281.7737 230.6737 266 226 C256.1415 223.0789 254.7437 223.4295 244 224 C199.1363 226.3821 153 232 153 232 "/>
<path id="2" d="M194 156 C194 156 196.6882 167.1355 196 177 C195.2627 187.5683 192.3134 188.0554 191 199 C189.3659 212.6178 190 227 190 227 "/>
<path id="3" d="M385 154 C385 154 375.944 153.1347 375 154 C373.8593 155.0456 372.2489 162.5965 373 165 C373.5203 166.6651 377.0053 169.3695 380 170 C384.3843 170.923 390.4401 170.0799 392 169 C392.8036 168.4437 393.9203 162.8405 393 161 C391.4662 157.9325 384 153 384 153 "/>
<path id="4" d="M384 163 L384 164 "/>
<path id="5" d="M271 197 C271 197 272.9895 196.9449 273 197 C273.5888 200.0913 276.5683 213.1209 275 218 C274.1884 220.5251 264 225 264 225 "/>
<path id="6" d="M288 197 C288 197 292.4338 202.6302 294 208 C295.6327 213.5979 296.5507 216.8132 295 221 C292.7809 226.9917 284 235 284 235 "/>
<path id="7" d="M311 198 C311 198 314.8922 205.6882 316 213 C317.2655 221.3523 317.9671 225.0987 316 231 C314.6886 234.9342 307 240 307 240 "/>
<path id="8" d="M271 162 C271 162 276.6824 157.5763 278 154 C279.37 150.2814 278 143 278 143 "/>
<path id="9" d="M196 163 L196 153 "/>
<path id="10" d="M381 194 C381 194 391.6408 197.7668 402 199 C412.0736 200.1992 423 199 423 199 "/>
</g>
</g>
</svg>
