<?xml version="1.0" encoding="utf-8"?>
<!DOCTYPE svg PUBLIC "-//W3C//DTD SVG 1.1//EN" "http://www.w3.org/Graphics/SVG/1.1/DTD/svg11.dtd">
<svg viewBox="0 0 800 800" preserveAspectRatio="xMinYMin meet" xmlns="http://www.w3.org/2000/svg" version="1.1">
<g fill="none" stroke="black" stroke-linecap="round" stroke-linejoin="round" stroke-width="1.3681">
<g transform="translate(87.52,290.3579) scale(2.1928) translate(-107,-148)">
<path id="0" d="M111 192 C111 192 124.6843 171.8946 138 161 C143.3633 156.6119 146.6822 156.8664 155 156 C169.7169 154.467 171.938 153.6563 186 156 C197.1135 157.8522 199.4365 158.8236 209 165 C222.0141 173.4049 221.0256 176.8461 234 187 C243.821 194.686 244.0521 195.1611 255 201 C273.6908 210.9684 274.3207 210.566 294 219 C305.7354 224.0294 306.0478 225.9594 318 228 C345.5459 232.703 376 233 376 233 "/>
<path id="1" d="M113 194 C113 194 109.4827 199.5633 108 205 C106.6481 209.957 105.5158 212.3954 107 216 C111.0899 225.9326 113.8472 232.9328 122 239 C130.8081 245.5549 136.3371 245.4905 150 248 C159.6759 249.7772 160.6188 248.677 171 248 C183.4553 247.1877 184.1362 248.1157 196 245 C232.8228 235.3294 234.0303 235.3436 270 222 C295.5099 212.5367 294.8427 209.4223 320 199 C329.5027 195.0632 331.1931 196.726 340 193 C343.1711 191.6584 343.076 188.6748 346 188 C365.4617 183.5088 391.9794 180.9968 392 181 C392.0084 181.0013 372.1161 191.5358 372 192 C371.9619 192.1523 387.0461 200.6465 387 201 C386.893 201.8205 368.9826 214.6355 369 215 C369.0104 215.2192 387.763 221.6051 388 222 C388.0258 222.0429 382.1428 225.5982 378 230 C374.515 233.7028 372 239 372 239 "/>
<path id="2" d="M146 196 C146 196 143.4413 205.9623 144 207 C144.3855 207.7159 150.0044 209.2304 153 209 C154.4327 208.8898 156.6535 207.0396 157 206 C157.4532 204.6405 156.8047 200.5852 156 200 C154.2815 198.7502 146 198 146 198 "/>
<path id="3" d="M110 198 C110 198 129.7318 207.6871 130 208 C130.0282 208.0329 124.6778 209.3222 122 212 C116.198 217.802 111 227 111 227 "/>
<path id="4" d="M153 156 C153 156 160.4823 152.3669 168 151 C181.9615 148.4615 191.9229 146.2593 197 148 C199.0225 148.6934 199.281 156.4203 203 163 C205.4178 167.2776 206.8108 169.752 210 171 C215.1603 173.0192 221.7579 170.3031 226 172 C227.7589 172.7036 227.8563 177.2461 230 179 C231.9032 180.5572 236.4612 180.2816 237 181 C237.3901 181.5202 235.2712 185.8737 236 187 C238.5548 190.9484 248 198 248 198 "/>
</g>
</g>
</svg>
