<?xml version="1.0" encoding="utf-8"?>
<!DOCTYPE svg PUBLIC "-//W3C//DTD SVG 1.1//EN" "http://www.w3.org/Graphics/SVG/1.1/DTD/svg11.dtd">
<svg viewBox="0 0 800 800" preserveAspectRatio="xMinYMin meet" xmlns="http://www.w3.org/2000/svg" version="1.1">
<g fill="none" stroke="black" stroke-linecap="round" stroke-linejoin="round" stroke-width="1.7761">
<g transform="translate(87.52,177.0413) scale(1.6891) translate(-70,-114.6667)">
<path id="0" d="M440 282.6667 C440 282.6667 390.6575 284.8455 383 287.6667 C382.2329 287.9493 382.7538 301.6974 383 303.6667 C383.0038 303.6974 384.9594 303.5551 385 303.6667 C385.6543 305.466 385.1901 310.5298 387 314.6667 C388.0955 317.1706 389.835 318.4639 392 319.6667 C393.1134 320.2853 395.68 319.4267 396 319.6667 C396.18 319.8017 395.6169 322.1878 396 322.6667 C396.6641 323.4968 398.1457 324.5183 400 324.6667 C409.3608 325.4155 410.7456 325.3282 421 324.6667 C425.9461 324.3476 427.2332 324.4245 431 322.6667 C433.5265 321.4876 434.821 320.1932 436 317.6667 C437.7578 313.8999 437.7756 312.6044 438 307.6667 C438.7562 291.0296 440.0728 289.3609 438 273.6667 C436.7853 264.4696 433.7767 256.9385 431 254.6667 C429.2534 253.2376 417.8087 254.4232 416 255.6667 C415.092 256.2909 415.0134 265.6667 415 265.6667 C414.8797 265.6667 410.638 258.84 406 255.6667 C402.4714 253.2524 397.1251 251.9561 396 252.6667 C393.4356 254.2863 388.8011 260.6624 387 267.6667 C384.9195 275.7574 386.9996 287.6601 387 287.6667 C387.0001 287.6676 387.5541 284.9342 388 284.6667 C388.6369 284.2845 392 284.6667 392 284.6667 "/>
<path id="1" d="M432 253.6667 C432 253.6667 427.0969 234.7638 420 217.6667 C416.3372 208.8426 415.699 208.4764 410 200.6667 C402.3992 190.2508 400.517 187.842 393 180.6667 C391.7598 179.4828 389.462 180.885 388 179.6667 C376.7219 170.2682 375.8223 164.3078 363 155.6667 C354.9912 150.2694 350.7237 153.6179 342 148.6667 C333.6351 143.919 334.5738 140.4968 326 134.6667 C310.0082 123.7922 307.6622 121.0594 292 114.6667 C286.428 112.3924 281.3952 113.8911 277 114.6667 C276.2589 114.7975 276.0505 117.2165 275 117.6667 C270.7525 119.487 267.1372 117.7271 263 120.6667 C250.3957 129.6223 241.1637 138.4211 237 144.6667 C236.362 145.6237 241.0598 153.6293 241 153.6667 C240.2406 154.1413 226.5829 151.636 221 154.6667 C214.2679 158.3212 214.0696 164.5971 206 172.6667 C199.8867 178.78 197.4359 177.6872 192 183.6667 C188.2303 187.8133 189.6017 190.8398 186 194.6667 C182.6655 198.2096 180.6579 199.114 176 200.6667 C172.8947 201.7018 170.6681 201.7339 168 200.6667 C164.865 199.4127 164.1537 197.9466 161 194.6667 C151.7579 185.0549 151.2016 185.1862 143 174.6667 C128.3408 155.8647 129.0892 151.517 115 135.6667 C111.3246 131.5318 108.2963 133.2778 103 129.6667 C97.6888 126.0454 98.1621 124.1081 93 120.6667 C89.7737 118.5158 88.867 118.1711 85 117.6667 C78.0875 116.765 70.36 117.0667 70 117.6667 C69.272 118.88 69.6265 128.8437 73 137.6667 C82.0601 161.3622 87.6915 161.1187 96 185.6667 C109.2717 224.8784 107.8208 226.7427 117 267.6667 C119.7178 279.7833 119.5757 280.2192 120 292.6667 C121.065 323.9064 121.7838 324.9852 120 355.6667 C119.3405 367.0094 114.6636 377.4333 115 378.6667 C115.0311 378.7807 122.2789 379.7786 126 377.6667 C138.0152 370.8472 141.4335 367.8924 152 357.6667 C155.4195 354.3575 155.8165 352.7234 157 347.6667 C161.069 330.281 161.6693 316.8213 163 310.6667 C163.015 310.5972 164.9956 310.6994 165 310.6667 C165.2456 308.8244 164.9629 295.7099 165 295.6667 C165.0071 295.6584 167.5281 301.8286 171 303.6667 C189.6763 313.5541 193.4109 314.8096 216 322.6667 C227.266 326.5853 228.1304 326.183 240 327.6667 C247.7122 328.6307 254.0308 327.9128 256 327.6667 C256.0308 327.6628 256 325.6667 256 325.6667 "/>
<path id="2" d="M271 305.6667 C271 305.6667 261.5597 314.871 256 324.6667 C251.6746 332.2876 253.945 334.7766 250 342.6667 C247.37 347.9267 241.9701 352.6338 242 352.6667 C242.1902 352.8759 252.4298 354.9284 260 353.6667 C265.5185 352.7469 267.1588 351.4555 272 347.6667 C277.9129 343.0392 277.1579 340.6325 283 335.6667 C286.6513 332.5631 291.2755 332.6792 292 330.6667 C293.7585 325.7819 294.2961 317.1375 292 310.6667 C290.289 305.8449 281 299.6667 281 299.6667 "/>
<path id="3" d="M295 332.6667 C295 332.6667 302.6075 335.4449 310 335.6667 C351.6412 336.9159 369.002 338.4925 395 335.6667 C397.4735 335.3978 402 325.6667 402 325.6667 "/>
<path id="4" d="M338 202.6667 C338 202.6667 346.3046 205.815 352 210.6667 C359.0534 216.6752 359.6819 217.8295 365 225.6667 C368.8112 231.2831 369.4619 232.2944 371 238.6667 C372.729 245.8298 372.9419 249.9572 372 254.6667 C371.7019 256.157 369.2866 258.2094 367 258.6667 C359.0364 260.2594 354.3347 261.6082 347 259.6667 C340.8131 258.029 338.7649 255.4316 333 249.6667 C324.833 241.4997 324.2914 240.4184 318 230.6667 C314.6597 225.4892 314.0699 224.4439 313 218.6667 C311.7585 211.9624 311.9835 208.2408 313 203.6667 C313.2635 202.4808 315.2554 200.8847 317 200.6667 C324.9754 199.6697 337 200.6667 337 200.6667 "/>
<path id="5" d="M345 228.6667 C345 228.6667 347.5047 230.8504 348 232.6667 C348.7197 235.3054 348.2012 239.499 348 239.6667 C347.8505 239.7912 342.5997 238.5662 342 237.6667 C341.3004 236.6172 342 230.6667 342 230.6667 "/>
</g>
</g>
</svg>
