<?xml version="1.0" encoding="utf-8"?>
<!DOCTYPE svg PUBLIC "-//W3C//DTD SVG 1.1//EN" "http://www.w3.org/Graphics/SVG/1.1/DTD/svg11.dtd">
<svg viewBox="0 0 800 800" preserveAspectRatio="xMinYMin meet" xmlns="http://www.w3.org/2000/svg" version="1.1">
<g fill="none" stroke="black" stroke-linecap="round" stroke-linejoin="round" stroke-width="1.3921">
<g transform="translate(87.52,259.9228) scale(2.155) translate(-128,-189.4167)">
<path id="0" d="M329 239.4167 C329 239.4167 309.0445 222.6087 288 209.4167 C276.2042 202.0223 275.0751 201.7751 262 197.4167 C251.8304 194.0268 250.7854 193.7082 240 193.4167 C214.6583 192.7318 211.827 192.0128 188 195.4167 C179.2765 196.6629 177.8678 198.2239 170 203.4167 C153.6087 214.2349 151.0932 215.668 138 228.4167 C133.8904 232.4181 134.1099 234.2978 132 240.4167 C129.2436 248.4101 128.4177 249.2713 128 257.4167 C127.4684 267.7835 126.9629 271.707 130 279.4167 C132.0436 284.6043 134.9112 287.0851 141 290.4167 C159.5498 300.5665 161.8229 302.1598 183 308.4167 C204.645 314.8118 206.1699 314.6084 229 316.4167 C255.9259 318.5494 258.7078 320.6714 284 316.4167 C309.3051 312.1597 310.7999 308.6243 336 298.4167 C349.8859 292.792 363 284.4167 363 284.4167 "/>
<path id="1" d="M332 242.4167 C332 242.4167 339.3135 233.8619 348 228.4167 C372.0343 213.3504 374.1808 215.0826 399 200.4167 C406.9001 195.7484 413.9685 189.2194 414 189.4167 C414.4783 192.4121 418.1088 312.4555 418 319.4167 C417.9984 319.5188 414.3781 319.0549 412 317.4167 C392.9895 304.3206 392.7443 300.6718 373 288.4167 C364.9135 283.3975 354 281.4167 354 281.4167 "/>
<path id="2" d="M174 231.4167 C174 231.4167 166.9568 230.2529 163 231.4167 C160.3128 232.207 158.0761 234.2645 157 236.4167 C156.0584 238.2998 156.6533 243.2707 157 243.4167 C159.2845 244.3786 172.7027 245.6157 176 244.4167 C177.1098 244.0131 179.2085 236.5633 179 235.4167 C178.9283 235.0221 174 233.4167 174 233.4167 "/>
<path id="3" d="M128 270.4167 C128 270.4167 131.9518 275.9528 135 276.4167 C150.0819 278.7117 157.2438 280.1636 174 277.4167 C184.2702 275.733 186.5047 272.2599 196 266.4167 C198.3357 264.9793 200 261.4167 200 261.4167 "/>
<path id="4" d="M254 244.4167 C254 244.4167 264.0076 243.2015 273 244.4167 C281.8389 245.6111 288.4816 247.1781 291 249.4167 C292.0971 250.3919 292.0917 255.5039 291 260.4167 C289.2797 268.158 288.8632 269.0969 285 276.4167 C279.5859 286.6749 272 296.4167 272 296.4167 "/>
</g>
</g>
</svg>
