<?xml version="1.0" encoding="utf-8"?>
<!DOCTYPE svg PUBLIC "-//W3C//DTD SVG 1.1//EN" "http://www.w3.org/Graphics/SVG/1.1/DTD/svg11.dtd">
<svg viewBox="0 0 800 800" preserveAspectRatio="xMinYMin meet" xmlns="http://www.w3.org/2000/svg" version="1.1">
<g fill="none" stroke="black" stroke-linecap="round" stroke-linejoin="round" stroke-width="1.2145">
<g transform="translate(87.52,145.5696) scale(2.4702) translate(-169,-98.4167)">
<path id="0" d="M410 178.4167 C410 178.4167 398.3869 192.3941 386 204.4167 C381.7748 208.5176 379.7742 207.2232 376 211.4167 C366.9656 221.4549 368.0569 224.7128 359 234.4167 C354.9764 238.7276 353.1498 240.4358 348 241.4167 C334.9765 243.8973 328.53 241.3685 317 242.4167 C316.1909 242.4902 315.7597 244.3935 315 244.4167 C267.4294 245.8692 237.6335 247.9242 186 246.4167 C182.7263 246.3211 180.584 243.862 178 240.4167 C173.8549 234.8898 172.0659 233.1672 171 226.4167 C167.9435 207.0589 167.6496 202.6593 169 183.4167 C169.4544 176.9421 171.1694 175.402 175 169.4167 C178.7361 163.579 179.6098 162.082 185 158.4167 C190.8836 154.4158 192.3892 154.5097 200 152.4167 C212.0562 149.1012 212.5885 148.3139 225 147.4167 C253.4196 145.3622 257.4172 142.4809 283 146.4167 C298.615 148.819 300.6969 152.3739 316 161.4167 C344.0973 178.0196 345.9218 177.8336 371 198.4167 C398.0375 220.6079 421.3152 248.1884 422 248.4167 C422.1113 248.4538 423.7673 231.0281 422 215.4167 C420.8925 205.6339 417.8284 205.3421 416 195.4167 C414.4247 186.8649 415 177.4167 415 177.4167 "/>
<path id="1" d="M244 147.4167 C244 147.4167 248.391 142.0481 250 136.4167 C255.0981 118.5732 256.0423 105.1797 258 98.4167 C258.0422 98.271 260.7347 98.0452 261 98.4167 C263.3527 101.7104 265.6661 105.415 268 112.4167 C269.9528 118.2752 270 125.4167 270 125.4167 C270.9931 125.2639 293.4274 108.4882 294 108.4167 C294.0384 108.4119 295.4361 116.0977 294 122.4167 C290.6894 136.9832 284 152.4167 284 152.4167 "/>
<path id="2" d="M248 250.4167 C248 250.4167 249.9375 249.3542 250 249.4167 C250.5625 249.9792 252.3553 252.4082 253 255.4167 C255.1974 265.6713 253.2385 267.9047 256 277.4167 C257.297 281.8842 259.9107 281.7157 262 286.4167 C265.7011 294.7442 267.9984 304.416 268 304.4167 C268.0009 304.417 266.3765 295.2753 267 288.4167 C267.2458 285.7124 269.4683 282.5053 270 282.4167 C271.1076 282.2321 275.2294 283.7459 279 286.4167 C286.7137 291.8805 293.9326 299.4478 294 299.4167 C294.0507 299.3933 293.7867 289.6057 292 280.4167 C290.3438 271.8991 289.6666 269.7499 287 263.4167 C286.5445 262.335 284.1952 262.2462 284 261.4167 C282.901 256.7461 283 246.4167 283 246.4167 "/>
<path id="3" d="M183 154.4167 C183 154.4167 188.5794 155.1171 191 157.4167 C197.0682 163.1815 198.6953 165.003 203 173.4167 C209.2445 185.6218 209.1731 186.8754 213 200.4167 C215.5466 209.4277 216 219.4167 216 219.4167 "/>
<path id="4" d="M194 203.4167 C194 203.4167 197.0129 206.4102 197 206.4167 C196.9228 206.4553 189.9994 207.6163 188 206.4167 C185.4674 204.8971 183.7578 201.5181 182 197.4167 C181.2405 195.6444 181.8164 192.4983 182 192.4167 C182.7067 192.1026 188.7606 191.977 191 193.4167 C193.3556 194.931 195.4192 198.3191 196 201.4167 C196.4955 204.0593 194 209.4167 194 209.4167 "/>
<path id="5" d="M219 221.4167 C219 221.4167 219.0397 236.5492 217 244.4167 C216.5407 246.1884 212 248.4167 212 248.4167 "/>
</g>
</g>
</svg>
