<svg id="Layer_1" data-name="Layer 1" xmlns="http://www.w3.org/2000/svg" viewBox="0 0 385.92 514.56"><title>dress4</title><path d="M392.92-66.52a1.09,1.09,0,0,1,.46.24c0,0.64,0,1.28,0,1.92V448q-191.88,0-383.76,0a10.42,10.42,0,0,1-2.16-.46H185v-2.28l0.55-.45,2.66,2.23c34.42,0.48,69.21.47,104,.51,1.69,0,2.27-.64,1.95-1.93a30.57,30.57,0,0,1-5.39-4.71,2.77,2.77,0,0,1,.51-4.06,3.2,3.2,0,0,1,4.37-.15c1,0.79,1.95,1.77,3.13,2.86l0.2-3.2,0.66-.18,1.37,3.61c2.35-.69,3.41-0.36,6.47,3.14,0.88,1,.83,2.81,1.27,4.47h86.09V367.48c-3.76-.52-3.46-4.39-5.29-6.93-1.92,2.26-4,1.76-5.58.22a6.28,6.28,0,0,1-1.89-4.51c0.48-3.34,3.34-4.24,6.89-4.4l-3.48-4.06,3.26-2.35,1.31,5.43,4.68-5.18V300.31c-2.75-.4-5.37-0.69-7.95-1.2-0.84-.17-2.2-0.86-2.24-1.39-0.21-3.13-.1-6.27-0.1-9.4h10.44V131.52q0-36.23,0-72.47c0-.79.12-2.12-0.21-2.27-2.28-1-1-2.64-.91-4,0.33-4.44,1-8.87,1.07-13.31,0.14-14.56.05-29.12,0.05-43.67,0-.77,0-1.54,0-2.27l-4.82,3.3c3.28,2.72,3.84,3.68,3.29,5.55a6,6,0,0,1-5,4.27c-3.75.17-5.33-2.17-5.83-6.27l-2.26,3.5L376.07,3l3.87-4.46c-1.48.12-2.33,0.17-3.18,0.25-3,.31-5.09-0.8-5.48-2.94a5.84,5.84,0,0,1,3.91-6.34c2.7-.93,4.52.65,6.14,1.87a45.69,45.69,0,0,1,5.24-4.73c2.28-1.51,4.45-.47,6.35,1.59V-66.08Q392.94-66.3,392.92-66.52Z" transform="translate(-7.48 66.52)" style="fill:#fbfbfb"/><path d="M7.48-16.6V-66.52H313.24a0.37,0.37,0,0,1,.1.16,1.8,1.8,0,0,1-.1.32H8V-16.7Z" transform="translate(-7.48 66.52)" style="fill:gray"/><path d="M7.92,447.57H7.48q0-62.4,0-124.8l0.48-.5,2.37-2.82c1.86,2.42,3.62,4.74,5.42,7,2.53,3.22,1.29,6.45-2.79,7.18-0.68.12-1.37,0.19-2.14,0.3l0.93,3.28-4.05,1c0,0.83,0,1.62,0,2.41q0,52.3,0,104.6C7.7,446,7.84,446.79,7.92,447.57Z" transform="translate(-7.48 66.52)" style="fill:#f7f6f6"/><path d="M7.48,199.4q0-1.44,0-2.88l0.93-1c0.78-1.35,1.42-3.72,2.37-3.86,3.31-.48,6.73-0.19,10.66-0.19-1.22,2.64-2.22,5.12-3.52,7.42a3.35,3.35,0,0,1-2.47,1c-2.14.09-4.3-.07-6.45-0.13Z" transform="translate(-7.48 66.52)" style="fill:#f9f9f8"/><path d="M7.48,199.4L9,199.75a7.38,7.38,0,0,0-1,2.47q-0.07,60,0,120l-0.48.5Q7.48,261.08,7.48,199.4Z" transform="translate(-7.48 66.52)" style="fill:#818080"/><path d="M8.41,195.53l-0.93,1q0-57.84,0-115.68l0.51,0q0,56.47,0,112.94A7.25,7.25,0,0,0,8.41,195.53Z" transform="translate(-7.48 66.52)" style="fill:gray"/><path d="M313.24-66a1.8,1.8,0,0,0,.1-0.32,0.37,0.37,0,0,0-.1-0.16H323.8L323.9-66c-0.33,1.37-.78,2.64-2.49,2.74-3,.18-6,0.33-9.08.5Z" transform="translate(-7.48 66.52)" style="fill:#f7f7f6"/><path d="M7.48,68.36V-10.36l0.16-.16,0.21,0.09c0,1,.1,2.07.1,3.11Q8,30.51,8,68.35H7.48Z" transform="translate(-7.48 66.52)" style="fill:gray"/><path d="M7.48,68.36H8a4.93,4.93,0,0,1,1.42,1.5,68,68,0,0,1,1.8,7.3,3,3,0,0,1-.87,2.17A11.32,11.32,0,0,1,8,80.87l-0.51,0V68.36Z" transform="translate(-7.48 66.52)" style="fill:#f4f3f2"/><path d="M392.92-66.52q0,0.22,0,.44c-1.18-.07-2.36-0.09-3.53-0.23a3.41,3.41,0,0,0-3.84,1.9,24,24,0,0,1-3.28,3.76L379-66.06a0.71,0.71,0,0,0,0-.46h13.92Z" transform="translate(-7.48 66.52)" style="fill:#f6f6f5"/><path d="M379-66.52a0.71,0.71,0,0,1,0,.46l-6,0L323.9-66l-0.1-.55H379Z" transform="translate(-7.48 66.52)" style="fill:gray"/><path d="M7.86-10.44l-0.21-.09-0.16.16V-16.6L8-16.7l4.29,4.36Z" transform="translate(-7.48 66.52)" style="fill:#f3f2f2"/><path d="M7.86-10.44l4.46-1.9L8-16.7C8-33.06,8-49.43,8-66H313.24l-0.92,3.31c3.09-.17,6.09-0.33,9.08-0.5,1.71-.1,2.16-1.37,2.49-2.74L373-66l6,0,3.26,5.42a24,24,0,0,0,3.28-3.76,3.41,3.41,0,0,1,3.84-1.9c1.17,0.13,2.35.15,3.53,0.23v54.36c-1.9-2.06-4.07-3.1-6.35-1.59a45.69,45.69,0,0,0-5.24,4.73c-1.62-1.21-3.44-2.79-6.14-1.87a5.84,5.84,0,0,0-3.91,6.34c0.4,2.14,2.48,3.26,5.48,2.94,0.84-.09,1.69-0.14,3.18-0.25L376.07,3l2.27,0.84,2.26-3.5c0.5,4.1,2.09,6.44,5.83,6.27a6,6,0,0,0,5-4.27c0.55-1.87,0-2.83-3.29-5.55l4.82-3.3c0,0.72,0,1.49,0,2.27,0,14.56.09,29.12-.05,43.67,0,4.44-.74,8.87-1.07,13.31-0.1,1.37-1.38,3,.91,4,0.34,0.14.21,1.48,0.21,2.27q0,36.23,0,72.47v156.8H382.48c0,3.13-.11,6.28.1,9.4,0,0.53,1.4,1.22,2.24,1.39,2.58,0.51,5.2.8,7.95,1.2V345.7l-4.68,5.18-1.31-5.43-3.26,2.35,3.48,4.06c-3.55.16-6.41,1.06-6.89,4.4a6.28,6.28,0,0,0,1.89,4.51c1.53,1.53,3.66,2,5.58-.22,1.83,2.54,1.52,6.41,5.29,6.93v79.94H306.77c-0.44-1.66-.39-3.46-1.27-4.47-3.06-3.49-4.11-3.82-6.47-3.14l-1.37-3.61-0.66.18-0.2,3.2c-1.18-1.09-2.08-2.07-3.13-2.86a3.2,3.2,0,0,0-4.37.15,2.77,2.77,0,0,0-.51,4.06,30.57,30.57,0,0,0,5.39,4.71c0.32,1.29-.26,1.93-1.95,1.93-34.79,0-69.59,0-104-.51l-2.66-2.23-0.55.45v2.28H7.92c-0.08-.79-0.22-1.57-0.22-2.36q0-52.3,0-104.6c0-.79,0-1.58,0-2.41l4.05-1-0.93-3.28c0.77-.11,1.46-0.18,2.14-0.3,4.08-.73,5.33-4,2.79-7.18-1.8-2.29-3.56-4.61-5.42-7L8,322.26q0-60,0-120a7.38,7.38,0,0,1,1-2.47c2.15,0.06,4.3.22,6.45,0.13a3.35,3.35,0,0,0,2.47-1c1.3-2.3,2.3-4.78,3.52-7.42-3.94,0-7.36-.3-10.66.19-1,.14-1.59,2.51-2.37,3.86A7.25,7.25,0,0,1,8,193.81Q8,137.34,8,80.87a11.32,11.32,0,0,0,2.34-1.56,3,3,0,0,0,.87-2.17,68,68,0,0,0-1.8-7.3A4.93,4.93,0,0,0,8,68.35Q8,30.51,8-7.33C8-8.37,7.89-9.4,7.86-10.44ZM94.1,436.64l3.35,1.68,0.37-2.54-2.52-.42c0.23-2,1-3.86.39-5.14-0.38-.87-2.58-1.33-3.95-1.28-2.39.09-3,2.18-3.3,4a26.42,26.42,0,0,0-4.84-1.37c-1.19-.11-3.24-0.2-3,1.7a5.33,5.33,0,0,0,2.55,3.19c1.07,0.64,2.61.51,3.95,0.72,0,1,0,1.9,0,2.84a3.44,3.44,0,0,0,3,3.53,5.8,5.8,0,0,0,4.07-1.08c1.39-1.2,1.18-3,0-4.54a3.59,3.59,0,0,1-.35-0.86ZM42.24-50.1L46.31-48l0.61-4.26H43.07a46.34,46.34,0,0,0,2.06-5.19,4,4,0,0,0-2.86-5.2,4.33,4.33,0,0,0-5.53,3.19c-0.3,1.11-.43,2.27-0.66,3.56-1.1-.73-2-1.68-3.08-2-1.26-.32-3.07-0.55-3.92.1s-1.36,2.5-1.3,3.79a5.38,5.38,0,0,0,4.72,4.71c2.6,0.1,3.4,1.21,3.76,3.6a5.89,5.89,0,0,0,4.54,5c2.45,0.63,4.06-.81,3.44-3.26a39.93,39.93,0,0,0-2.35-5.65ZM203.73,324a13.26,13.26,0,0,0,2.74-2.15c0.85-1.23,2.12-2.81,1.89-4a8.21,8.21,0,0,0-2.92-4.56c-1.64-1.25-4.29.47-4.56,2.61-0.11.85-.17,1.7-0.31,3.11-0.87-1.1-1.37-1.78-1.93-2.41a5.75,5.75,0,0,0-7.39-1,4.55,4.55,0,0,0-1.75,5.67c1.05,2.43,3.19,3.42,5.64,3.9,0.69,0.14,1.37.33,2.26,0.54-0.43.49-.56,0.68-0.73,0.83-2.2,1.91-2.67,3.78-1.46,5.82a5,5,0,0,0,5.36,2.13c2.51-.79,3.6-2.56,3.27-5.29-0.13-1.07-.29-2.14-0.52-3.79l5,3,1.45-2.85ZM304.4,380.7v3.86l4.75,0.24a31,31,0,0,0-2.5,4.75c-0.53,1.69-.57,3.76,1.14,4.77a7.2,7.2,0,0,0,4.42.78c2.14-.32,3.38-2.48,3.35-4.89,0-.68,0-1.36,0-2.1,4.64,1.72,6.42,1.64,7.75-.26,1-1.48.61-5-.81-6.73-1.58-2-3.55-2-7.49-.21,0.2-.74.41-1.32,0.52-1.91,0.48-2.56.19-4.91-1.88-6.79-1.63-1.47-3.4-1.4-4.73.35a6.61,6.61,0,0,0-.67,7.4c0.45,0.93.86,1.87,1.28,2.81l-0.54.5ZM148.5,17.81c0.56-1.18,1.07-2.24,1.57-3.32a3.71,3.71,0,0,0-1-4.55c-1.39-1.31-3-2.2-5-1.28-1.72.79-2.85,2-2.8,4,0,1.54,0,3.09,0,4.63l-0.52.52-2.16-3.59c-3.74,4.61.89,3.95,2.58,5-0.83,1-1.48,1.69-2,2.46-1.25,1.74-2,3.58-1.3,5.8a4.14,4.14,0,0,0,3.94,2.9c1.91,0.2,2.62-1.16,3.08-2.71l0.65-2.13c1.28,1,2.36,1.88,3.55,2.61a4,4,0,0,0,6.16-2.51A5,5,0,0,0,153,19.92,33.52,33.52,0,0,0,148.5,17.81ZM262.71-31.53L266-35.71l-3.42-1.18-1.26,4.76c-1.66-2.59-2.71-5.71-6.1-4.74a5.54,5.54,0,0,0-3.28,3.27c-1,3.63,2.06,5,4.36,6.56a37.46,37.46,0,0,0-2.11,4.59c-0.75,2.41,0,4,1.87,4.73,1.71,0.63,3.51-.34,4.47-2.55,0.56-1.28.92-2.65,1.37-4,4,2.32,5.57,2.49,7.34.86a5.59,5.59,0,0,0,1.34-6.13C269.47-31.71,267.32-32.35,262.71-31.53ZM67.21,98.33l4,2.82-0.38.58c-2.4,0-4.93.06-5.49,2.91a4.71,4.71,0,0,0,1.08,3.59c2.18,2.34,4,2.49,7,1.1a43.41,43.41,0,0,0,3,4.23c1.85,2.07,4.75,2.49,6.16,1.09,1.76-1.76,1.51-4.86-.57-6.82-0.56-.53-1.17-1-1.91-1.65,2.55-1.72,4.15-3.89,2.9-6.72a5.26,5.26,0,0,0-3.49-2.67c-3.18-.43-5.44,1.2-6.3,5a26.45,26.45,0,0,1-1.83-2.66,30.06,30.06,0,0,1-1.15-3Zm53.73,261c2.1-2.62,1.74-5.08,0-7.17a4.05,4.05,0,0,0-3.39-1c-3.07.71-2.33,3.66-2.75,5.81-1.6-.32-3.07-0.94-4.46-0.8-2,.2-3.36,2.43-3.24,4.67,0.13,2.45,1.33,3.78,3.87,4,1.53,0.14,3.08,0,5.29,0l-4,4.24,4.65,1.44c0.1-1,.15-1.75.25-2.45s0.26-1.49.42-2.36c3.39,3.42,4.38,4.06,5.82,3.45a4.72,4.72,0,0,0,3-4.49C126.49,361.33,124.17,359.95,120.94,359.31ZM369.1,199.41c-1.33,2.51-2.3,5.14-.11,7.31,1.49,1.47,3.6,1.14,5.34,0,3.26-2.12,2.84-5.07,1.85-8.51l4.28,2.13,1.14-3.1-4.31-.41c1.29-1.17,2.4-1.72,2.71-2.57,0.56-1.52,1.3-3.48.78-4.78-0.74-1.82-3-2.2-4.74-1.2a14.65,14.65,0,0,0-3.42,3.32,7.65,7.65,0,0,0-.9,2.08c-3.24-2.58-5.65-3.26-7.46-1.68-1,.87-2,2.64-1.82,3.78C363.08,199.17,366.21,199.06,369.1,199.41ZM157.87,194c5.9,2.61,7.68,2.56,8.6-.22a4.45,4.45,0,0,0-.17-3c-1.14-2.55-3.41-3.28-6.06-2.83,0.16-1.75.4-3.16,0.39-4.57,0-2.77-1.78-4.74-4-4.68s-3.84,2-3.64,4.93a30.25,30.25,0,0,0,.89,4.21c-0.89-.17-1.71-0.39-2.55-0.48a4.21,4.21,0,0,0-4.74,2.41c-0.87,1.85-.22,3.48,1,4.83a4.1,4.1,0,0,0,5,.86c1.18-.53,2.32-1.17,3.76-1.91l-1.19,4.92,3.53-.37Zm-73.7,59.77c2.87-.94,4.92-2,4.65-4.9a4.25,4.25,0,0,0-3.4-3.86c-3.56-.9-5.19,1.76-6.73,4.35A23,23,0,0,0,77,247.81c-1.81-1.34-3.74-1.74-5.73-.4a3.68,3.68,0,0,0-1.35,4.45c0.65,2.25,2.45,3,4.62,3h3.32l-3,3.46c2.14,2,2.41-.6,3.42-1.23,2.31,4.15,4,5.48,6.74,4.62a5.24,5.24,0,0,0,3-2.91C88.81,256.24,87,254.86,84.17,253.79Zm177.88-28c4.52,1.52,7.39.76,7.91-2.2,0.2-1.17.08-3.26-.54-3.56a38.87,38.87,0,0,0-6.67-2l2.3-3.09-3.78-1.07-1,4.74c-1.78-2.71-3.63-4.82-6.94-3.7-1.93.65-3.59,2.16-3.34,4.46,0.35,3.25,3.05,3.56,5.79,3.67a30,30,0,0,0-2.09,4.36c-0.58,2,.53,3.2,2.4,3.71C259.15,232,261.21,230.15,262.06,225.8Zm95.34,32.72c-4.2.48-8.24,0.53-12.05,1.5-4.29,1.09-4.66,3.64-1.46,6.68a3.08,3.08,0,0,1,.27.82,18.64,18.64,0,0,1-2.61.56c-2.57.19-3,.81-1.83,3a19.82,19.82,0,0,0,1.39,2l3.28-4.26a11.93,11.93,0,0,1,1,1.32c1,1.89,2.44,3.21,4.74,3,2.63-.29,4.06-1.95,4.67-4.44C355.6,265.5,356.44,262.28,357.4,258.53ZM158.8,409.83l-0.6.46c0.16-1,.69-2.16.4-3a8.84,8.84,0,0,0-2.43-4c-1.47-1.15-3,0-4.21,1.13a4.8,4.8,0,0,0-1.46,2.12c-1,3.93-1.8,7.9-2.79,12.35,4.6-.22,8.39-0.44,12.19-0.58,3.24-.12,5.17-3.13,3.31-5.75C162.28,411.25,160.3,410.71,158.8,409.83Zm-104-43.74c3.05-2.09,6-4.09,8.93-6.12a8.63,8.63,0,0,0,1.79-1.57,5,5,0,0,0-.41-6.55c-1.61-1.4-3.69-1.08-5.68.85a10.7,10.7,0,0,1-1.11.82,5.19,5.19,0,0,1-.4-0.8c-0.79-3.1-2.32-4.26-4.75-3.62s-3.44,2.7-2.54,5.52C51.92,358.53,53.46,362.35,54.84,366.1ZM40,11.8c-2.39.17-4.21,0.24-6,.44a27.47,27.47,0,0,0-5.62.89c-4,1.34-4.44,3.64-1.48,6.59a2.27,2.27,0,0,1,.2.69L22,21.33l2,4.58c0.84-.92,1.39-1.48,1.9-2.08s0.95-1.24,1.15-1.51a44.33,44.33,0,0,0,3.58,3c2.26,1.49,5.67.87,6.38-1.41C38.25,20,39,15.9,40,11.8ZM288.7,117.33c0.81,2.7,1.72,5.76,2.65,8.81a4.65,4.65,0,0,0,5,3.6c2.79-.39,4.33-1.81,4.13-4.56a5.77,5.77,0,0,1,2-5.16,4,4,0,0,0,.86-5c-1-1.71-2.65-2-4.38-1.59a30.93,30.93,0,0,0-4.2,1.5C292.64,115.71,290.56,116.57,288.7,117.33ZM237.85,81.14c1.74,2.28,3.88,4.26,6.94,2.5a4.38,4.38,0,0,0,2-3.17c-0.09-2.93-3-3-5.07-4.19a5.21,5.21,0,0,0,1.48-1.2c0.56-1,1.37-2.29,1.17-3.26-0.14-.69-1.74-1.41-2.75-1.53-3.27-.38-4.77,1.78-5.69,5.17l-3.17-4.24-2,2.47,4,2.06c-5.39,3.17-6.21,4.27-4.92,6.33C231.33,84.48,233.61,84.25,237.85,81.14ZM118.7,69.69c-1.5,1.35-2.85,2.45-4.05,3.7a39.45,39.45,0,0,0-4.53,5.18,3.63,3.63,0,0,0,2.35,5.58c1.41,0.16,2.93-.55,4.54-0.91,0.69,0.51,1.6,1.72,2.59,1.79,1.53,0.1,3.51-.12,4.57-1,1.76-1.53,1.29-3.91.21-5.74C122.66,75.31,120.62,72.55,118.7,69.69ZM354.57,41.58a7.18,7.18,0,0,1,0-1.3c1.12-4.56-.59-6.5-5-5.05-3.24,1.06-6.19,3-9.58,4.72,2,2.76,3.45,5,5.12,7.13A4.29,4.29,0,0,0,350,48.62a4.5,4.5,0,0,0,3.11-4.14,12.43,12.43,0,0,1,.42-1.72l5.22,1.78,0.57-4.5Zm-128.5,89.66a37.27,37.27,0,0,1-3.89-.54c-1.23-.31-2.37-0.95-3.6-1.23a10.48,10.48,0,0,0-3.54-.3,4.13,4.13,0,0,0-2.71,6.83c0.36,0.45.7,0.92,1.25,1.64l-3.78.5,1.73,3.46,3.32-3c0.27,0.48.4,0.67,0.48,0.87,0.71,1.81,1.4,3.73,3.82,3.65s3.84-1.7,4.54-3.92C224.5,136.67,225.23,134.09,226.07,131.24ZM216.44,21.15c-0.22,3.5-.6,7.15-0.62,10.8a4.34,4.34,0,0,0,3.88,4.38c2.23,0,3.34-1.18,3.81-4a6.74,6.74,0,0,1,.25-0.85c0.34,0,.57-0.1.8-0.11,3.27-.14,5-1.53,5.15-4.1,0.15-3.07-1.74-5.11-5.08-5.42C222,21.57,219.3,21.38,216.44,21.15ZM62.16,291.87l-4.67,1.26c0.21-1,.36-1.53.42-2.07,0.4-3.81-1.18-5.43-5-4.74-3.65.66-6.59,2.83-9.59,4.92a40.43,40.43,0,0,0,2.43,3.56A22.7,22.7,0,0,0,50,299.23c3.1,2.07,6.31.31,6.68-3.39,0-.44.07-0.88,0.13-1.57l5.36,1.59v-4ZM334.22-10.7a17.23,17.23,0,0,1-3.54-2,6.72,6.72,0,0,0-6.43-1.46c-3.4.79-5.19,5.23-2.88,7.19,1.51,1.28,1.5,2.15.73,3.76A3.51,3.51,0,0,0,323,1.15a3.15,3.15,0,0,0,4.35-.06,10.12,10.12,0,0,0,2.55-3C331.47-4.79,332.8-7.76,334.22-10.7ZM357.69,96.91c-0.21-.76-0.3-1.23-0.47-1.66-0.93-2.45-2.56-3.36-4.78-2.7s-3.12,2.08-2.18,4.69c1.31,3.65,3.13,7.11,4.71,10.61,1.75-1.15,3.11-2.11,4.52-3s3-1.51,4.34-2.46a4.33,4.33,0,0,0,.86-6.31c-1.46-1.87-3.7-1.93-5.84-.15ZM233.6,276.83c-2-2-3.72-2.33-5.54-1.08a3.76,3.76,0,0,0-1.57,4.43c0.95,3.09,2.09,6.11,3.27,9.48,3.17-2,6.15-3.74,9.06-5.63a3.63,3.63,0,0,0,1.69-4.33c-0.56-1.91-2-2.57-3.84-2.54h-1.87l3.17-3.65-3.75-1ZM216.54,202.9c-2.69,1-5.56,2.11-8.41,3.24a10.84,10.84,0,0,0-2.53,1.29,4.5,4.5,0,0,0-1.71,5.3c0.67,2,2.54,2.37,4.34,2,1.59-.3,2.42.34,3.4,1.43,2.22,2.46,5.53,1.77,6.51-1.41a9.54,9.54,0,0,0,0-4.17C217.71,207.95,217.06,205.33,216.54,202.9Zm102.73-37.74-1.35,3.47,3.69,0.22a9.68,9.68,0,0,0-1.15,2.33c-0.2,1.24-.65,2.92-0.06,3.67a4.39,4.39,0,0,0,3.65,1.35c3.22-.69,6.33-1.89,9.53-2.91-0.87-2.71-1.64-5.29-2.53-7.82-0.61-1.72-1.6-3.13-3.73-3.09a4.66,4.66,0,0,0-4.39,3.08c-0.22.49-.36,1-0.62,1.79Zm-56.59,168c-0.61,2.49-1.28,4.77-1.7,7.1a17.68,17.68,0,0,0-.18,4.48,3.34,3.34,0,0,0,3.74,3.25c2-.09,3.26-1.51,3.59-3.57,0.11-.69.12-1.4,0.17-2.1,0.54,0,.94.09,1.34,0.11,2.24,0.12,4-.76,4.62-2.95s-0.7-3.83-2.63-4.83a7.76,7.76,0,0,0-2.48-.79C267,333.58,264.87,333.4,262.68,333.17ZM309.73,77.35c2.45,0.21,4.54-.21,5.37-2.44s-0.81-3.7-2.34-5L306.9,64.8c-2,3.28-4,6.31-5.71,9.53-1.29,2.5,0,4.24,2.82,4.15,1.15,0,2.29-.29,3.55-0.46l-0.47,3,3.42-.25Zm67.47,73c3-1.67,5.67-3.33,8.5-4.75a2.34,2.34,0,0,0,1.35-3.09c-0.58-2.31-1.22-4.6-1.78-6.92-0.36-1.51-1-2-2.5-1.15-2.47,1.43-5,2.7-7.5,4.16a2.24,2.24,0,0,0-1,1.77C375.12,143.64,376.16,146.88,377.21,150.33ZM94.16,1.12c0-2.82.18-6.06-.08-9.27a8.13,8.13,0,0,0-1.77-4.28c-0.87-1-2.44-1.51-3.69-2.22-0.62,1.12-1.26,2.23-1.87,3.35a4.84,4.84,0,0,0-.28.85c-2.83-.71-4.12-0.13-4.5,2a5.7,5.7,0,0,0,3.18,6.11C88.33-1.06,91.57.11,94.16,1.12Zm73.64,135.1c0-3.83,0-6.93,0-10a2.22,2.22,0,0,0-.85-1.73c-3.11-1-6.27-1.82-9.9-2.83,0,3.83-.06,7,0,10.17a2.36,2.36,0,0,0,1,1.84C161.15,134.58,164.28,135.31,167.8,136.22ZM145.63-39.2l-3.93-1.2-0.17,3.63a39.11,39.11,0,0,0-4.31-1c-2.91-.36-4.3,1.5-3,4.06A55.58,55.58,0,0,0,137.59-28a2.06,2.06,0,0,0,1.69.79,50.86,50.86,0,0,0,7.52-2.13c1-.39,2.32-1.92,2.15-2.59a6.11,6.11,0,0,0-2.58-3c-0.82-.56-2-0.57-3.38-0.91Zm-39,204.85c2.42-2.4,4.79-4.23,6.48-6.56a3.73,3.73,0,0,0-2.3-6c-1.28-.27-2.78.53-4.4,0.89-0.11-.08-0.48-0.39-0.86-0.67-1.73-1.3-3.51-1.5-5.21,0s-1.35,3.3-.09,4.87C102.19,160.58,104.27,162.88,106.63,165.64Zm8.58,46.25c-1.94.95-3.82,2-5.76,2.81-3.23,1.42-3.73,4.74-1,7,0.79,0.64,1.63,1.21,2.4,1.79-1.13,2.9-1,3.15,1.89,4.21l-0.14-3c1.92,1,3.69,2.09,5.49.19s1.12-3.94.23-6C117.34,216.55,116.28,214.26,115.22,211.89ZM270.44,26.36c-0.6,3.38-1.21,6.64-1.73,9.92a1.41,1.41,0,0,0,.61,1.19c3,1.23,6.11,2.37,9.9,3.82,0-2.64-.1-4.37,0-6.08,0.48-7,.51-7-6.42-8.55C272.13,26.51,271.43,26.48,270.44,26.36ZM315.3,326.28c2.51-1,4.58-1.69,6.59-2.54,5.68-2.39,4.7-1.2,3.84-6.68-0.16-1-.36-2-0.51-3.05-0.2-1.4-1.07-1.7-2.23-1.27a74.79,74.79,0,0,0-7.48,3,3.26,3.26,0,0,0-1.43,2.57C314.25,320.77,314.81,323.24,315.3,326.28ZM26.13,249.11l-0.16.58c-0.84,3-.18,5,1.85,5.66s4-.78,4.89-3.43,1.47-5.16,2.24-7.89c-2.45-1.08-4.72-2.18-7.07-3.07-1.83-.69-3.32.19-4.31,1.69a3.5,3.5,0,0,0,.5,4.59C24.65,247.88,25.36,248.42,26.13,249.11ZM72.67,52.76c-0.88-4.44-1.61-8.3-2.46-12.14a1.84,1.84,0,0,0-1.4-1c-2.66-.1-5.33,0-8.43,0,0.89,4,1.6,7.36,2.47,10.71a2.27,2.27,0,0,0,1.55,1.24C67,52,69.54,52.32,72.67,52.76Zm-27.8,77c-1.31,1.94-2.52,3.6-3.57,5.36a9.63,9.63,0,0,0-1.21,3.07c-0.67,3.48.87,5,4.31,4.5l1.91-.28v3.55h2.31l-0.78-3.33a7.38,7.38,0,0,0,1.49.5c0.8,0.06,1.88.33,2.33-.07a3.58,3.58,0,0,0,.91-2.44,4.18,4.18,0,0,0-.85-2.42C49.48,135.29,47.14,132.51,44.87,129.74Zm248.88,150c1-2.53,2.05-4.84,2.91-7.22,0.79-2.17,0-5.13-1.38-5.85-2.3-1.18-3.43.53-4.84,1.85a3.69,3.69,0,0,1-2.57.69c-2-.16-3.72.07-4.57,2.1s0.33,3.24,1.89,4.09C288,276.86,290.84,278.23,293.75,279.69ZM94.8,295.63c0,3.85,0,7.17,0,10.5a1.55,1.55,0,0,0,.9,1.17c2.86,0.51,5.75.9,8.92,1.38,0-3.75,0-7.23-.05-10.71a1.71,1.71,0,0,0-1.18-1.09C100.79,296.42,98.12,296.09,94.8,295.63Zm256.49,75.91c-2,2.87-3.95,5.25-5.3,7.94a4.55,4.55,0,0,0,.74,4.09c0.59,0.67,2.51.18,3.83,0.2a3.68,3.68,0,0,0,.59,0c1.66,0.62-1,4.12,2.48,3.19v-3.34a5.3,5.3,0,0,0,1,.47c1.24,0.25,2.48.46,3.72,0.68-0.14-1.32.13-2.89-.5-3.91C356,377.81,353.78,375,351.29,371.54ZM193.42-17.29c2.91-1.05,5.68-2,8.4-3.1a1.85,1.85,0,0,0,1-1.39c0-3.07-.22-6.15-0.36-9.39-3.05.78-5.74,1.49-8.44,2.15a1.94,1.94,0,0,0-1.64,2.45C192.72-23.57,193-20.57,193.42-17.29ZM178.09,80.9c0.89,0.55,1.4.92,2,1.2,2.84,1.42,5.77-.41,5.39-3.54a70.62,70.62,0,0,0-1.6-7.15,54.76,54.76,0,0,0-7.52,2.28c-1.42.65-3.18,2-3.45,3.37-0.4,2,1.84,2.38,3.42,2.89a1.07,1.07,0,0,1,.26.4l-2.25,2.89,2.42,1.64Zm34.05,330.77,0.26,0c1.52,0.09,3.19.57,4.5,0.09,0.61-.22,1.15-2.7.65-3.5-2.08-3.39-4.57-6.54-7.2-10.19-1.6,2.76-3.18,5.06-4.32,7.55-1,2.27.06,4.39,1.94,5.61C209,411.94,210.73,411.57,212.14,411.67ZM175.42,256.94c-1.56-3.46-2.94-6.54-4.36-9.6a1.08,1.08,0,0,0-.76-0.49c-2.87-.27-5.74-0.5-9-0.78,1.15,3.57,2.06,6.59,3.14,9.54a2.36,2.36,0,0,0,1.7,1.27C169.07,257,172,256.94,175.42,256.94Zm86-82.53c2.81-2,5.32-3.76,7.78-5.57a1.25,1.25,0,0,0,.33-1.07c-0.73-3.15-1.51-6.29-2.33-9.63l-8.71,6.1Zm-107,132.2,0.75-2-3.83-1.94,1.33,3.63a12.65,12.65,0,0,0-2.19-1.24c-0.77-.23-2-0.58-2.33-0.22a3.34,3.34,0,0,0-.38,2.4,5.31,5.31,0,0,0,.86,1.94c1.7,2.93,3.43,5.85,5.11,8.72a27.48,27.48,0,0,1,3.9-2.59c2.11-1,2.29-2.46,1.2-4A45,45,0,0,0,154.38,306.6ZM76.47,395.86c1.52,2.14,2.86,4.21,4.42,6.1a2.81,2.81,0,0,0,2.35.85c2.33-.64,4.57-1.59,6.93-2.44L86,391.16Zm252.92-162c-1.88-2.24-3.32-4.16-5-5.87a3.54,3.54,0,0,0-2.68-1.14c-2.66.67-5.23,1.71-8.23,2.75,2.08,2.37,3.83,4.52,5.77,6.48a2.85,2.85,0,0,0,2.39.59C324.14,236,326.55,235,329.38,233.91ZM37.08,413.12c-0.75,3.59,1.31,6,4.77,5.53a60.78,60.78,0,0,0,6.4-1.57l0.35-.76a98,98,0,0,0-7.89-6.2c-1.95-1.25-3.07-.5-3.78,1.85L34,410.55v2Zm91.49-137.43c0.74-4.92.69-9-2.7-12.3a3,3,0,0,0-2.19-.92c-0.56.11-.93,1.16-1.29,1.66l-2.77.17c0.15,1.12.25,2.26,0.47,3.37a2,2,0,0,0,.66,1C123.21,270.87,125.68,273.09,128.57,275.69ZM72.41,205.9c0.93-2.27,1.68-3.94,2.27-5.65a3.32,3.32,0,0,0,.15-2.23c-1.4-2.92-3-5.75-4.67-9-1.12,2.68-2.11,5-3,7.3a1.76,1.76,0,0,0,0,1.37C68.79,200.32,70.48,202.9,72.41,205.9Zm97.48,147.66,0.81,8.57,8.06-1.28C178,355.36,176.92,354.72,169.89,353.56Zm55.88,21.39-0.75.79,6.38,5.54C230.62,378,227.82,376.88,225.77,374.95Z" transform="translate(-7.48 66.52)" style="fill:#020202"/><path d="M203.73,324l6,1.55-1.45,2.85-5-3c0.23,1.65.39,2.72,0.52,3.79,0.33,2.73-.76,4.5-3.27,5.29a5,5,0,0,1-5.36-2.13c-1.21-2-.73-3.92,1.46-5.82,0.17-.15.31-0.34,0.73-0.83-0.89-.22-1.57-0.41-2.26-0.54-2.45-.49-4.58-1.48-5.64-3.9a4.55,4.55,0,0,1,1.75-5.67,5.75,5.75,0,0,1,7.39,1c0.55,0.63,1.05,1.31,1.93,2.41,0.14-1.41.2-2.26,0.31-3.11,0.27-2.14,2.92-3.86,4.56-2.61a8.21,8.21,0,0,1,2.92,4.56c0.23,1.18-1,2.75-1.89,4A13.26,13.26,0,0,1,203.73,324Z" transform="translate(-7.48 66.52)" style="fill:#f8f7f7"/><path d="M304.4,380.7l4.58,2.56,0.54-.5c-0.43-.94-0.83-1.89-1.28-2.81a6.61,6.61,0,0,1,.67-7.4c1.33-1.75,3.1-1.82,4.73-.35,2.08,1.87,2.36,4.22,1.88,6.79-0.11.59-.31,1.17-0.52,1.91,3.94-1.82,5.91-1.74,7.49.21,1.42,1.75,1.85,5.25.81,6.73-1.33,1.91-3.11,2-7.75.26,0,0.74,0,1.42,0,2.1,0,2.41-1.21,4.57-3.35,4.89a7.2,7.2,0,0,1-4.42-.78c-1.71-1-1.67-3.08-1.14-4.77a31,31,0,0,1,2.5-4.75l-4.75-.24V380.7Z" transform="translate(-7.48 66.52)" style="fill:#f8f7f7"/><path d="M148.5,17.81A33.52,33.52,0,0,1,153,19.92a5,5,0,0,1,2.35,5.76,4,4,0,0,1-6.16,2.51c-1.19-.74-2.27-1.66-3.55-2.61l-0.65,2.13c-0.46,1.55-1.17,2.9-3.08,2.71a4.14,4.14,0,0,1-3.94-2.9c-0.71-2.22.05-4.06,1.3-5.8,0.55-.77,1.2-1.46,2-2.46-1.69-1.06-6.32-.4-2.58-5l2.16,3.59,0.52-.52c0-1.54,0-3.09,0-4.63-0.06-2,1.08-3.23,2.8-4,2-.92,3.57,0,5,1.28a3.71,3.71,0,0,1,1,4.55C149.58,15.57,149.06,16.64,148.5,17.81Z" transform="translate(-7.48 66.52)" style="fill:#f8f8f7"/><path d="M41.89-49.57a39.93,39.93,0,0,1,2.35,5.65c0.62,2.45-1,3.88-3.44,3.26a5.89,5.89,0,0,1-4.54-5c-0.36-2.39-1.16-3.51-3.76-3.6A5.38,5.38,0,0,1,27.78-54c-0.06-1.29.4-3.09,1.3-3.79s2.66-.42,3.92-0.1c1.08,0.27,2,1.22,3.08,2,0.23-1.29.36-2.45,0.66-3.56a4.33,4.33,0,0,1,5.53-3.19,4,4,0,0,1,2.86,5.2,46.34,46.34,0,0,1-2.06,5.19h3.85L46.31-48,42.24-50.1,41.66-50Z" transform="translate(-7.48 66.52)" style="fill:#f8f7f7"/><path d="M262.71-31.53c4.61-.82,6.76-0.19,7.86,2a5.59,5.59,0,0,1-1.34,6.13c-1.77,1.63-3.34,1.46-7.34-.86-0.46,1.35-.82,2.72-1.37,4-1,2.21-2.76,3.18-4.47,2.55-1.86-.69-2.62-2.33-1.87-4.73A37.46,37.46,0,0,1,256.28-27c-2.3-1.51-5.37-2.93-4.36-6.56a5.54,5.54,0,0,1,3.28-3.27c3.39-1,4.45,2.15,6.1,4.74l1.26-4.76L266-35.71Z" transform="translate(-7.48 66.52)" style="fill:#f9f8f8"/><path d="M67.21,98.33l3.06-2.19a30.06,30.06,0,0,0,1.15,3,26.45,26.45,0,0,0,1.83,2.66c0.86-3.8,3.12-5.43,6.3-5A5.26,5.26,0,0,1,83,99.47c1.25,2.83-.35,5-2.9,6.72,0.74,0.64,1.35,1.12,1.91,1.65,2.08,2,2.34,5.06.57,6.82-1.4,1.4-4.3,1-6.16-1.09a43.41,43.41,0,0,1-3-4.23c-3,1.39-4.87,1.24-7-1.1a4.71,4.71,0,0,1-1.08-3.59c0.57-2.86,3.1-2.92,5.49-2.91l0.38-.58Z" transform="translate(-7.48 66.52)" style="fill:#f8f8f7"/><path d="M120.94,359.31c3.23,0.63,5.55,2,5.49,5.43a4.72,4.72,0,0,1-3,4.49c-1.45.61-2.43,0-5.82-3.45-0.16.88-.32,1.62-0.42,2.36s-0.14,1.41-.25,2.45l-4.65-1.44,4-4.24c-2.2,0-3.76.12-5.29,0-2.54-.24-3.74-1.57-3.87-4-0.12-2.25,1.21-4.47,3.24-4.67,1.39-.14,2.86.48,4.46,0.8,0.42-2.15-.31-5.1,2.75-5.81a4.05,4.05,0,0,1,3.39,1C122.69,354.23,123,356.69,120.94,359.31Z" transform="translate(-7.48 66.52)" style="fill:#f8f8f7"/><path d="M369.1,199.41c-2.9-.35-6-0.24-6.66-3.62-0.21-1.13.82-2.9,1.82-3.78,1.81-1.58,4.22-.9,7.46,1.68a7.65,7.65,0,0,1,.9-2.08A14.65,14.65,0,0,1,376,188.3c1.75-1,4-.62,4.74,1.2,0.52,1.3-.21,3.26-0.78,4.78-0.31.85-1.42,1.4-2.71,2.57l4.31,0.41-1.14,3.1-4.28-2.13c1,3.44,1.41,6.39-1.85,8.51-1.73,1.13-3.85,1.46-5.34,0C366.8,204.55,367.77,201.92,369.1,199.41Z" transform="translate(-7.48 66.52)" style="fill:#f7f6f6"/><path d="M157.87,194l0.84,4.13-3.53.38,1.19-4.92c-1.45.74-2.58,1.38-3.76,1.91a4.1,4.1,0,0,1-5-.86c-1.24-1.35-1.89-3-1-4.83a4.21,4.21,0,0,1,4.74-2.41c0.83,0.1,1.65.31,2.55,0.48a30.25,30.25,0,0,1-.89-4.21c-0.2-2.93,1.31-4.86,3.64-4.93s4,1.9,4,4.68c0,1.41-.23,2.82-0.39,4.57,2.66-.45,4.92.29,6.06,2.83a4.45,4.45,0,0,1,.17,3C165.55,196.58,163.77,196.63,157.87,194Z" transform="translate(-7.48 66.52)" style="fill:#f8f7f7"/><path d="M84.17,253.79c2.81,1.07,4.63,2.44,3.79,5a5.24,5.24,0,0,1-3,2.91c-2.76.86-4.43-.47-6.74-4.62-1,.62-1.28,3.28-3.42,1.23l3-3.46H74.52c-2.17,0-4-.72-4.62-3a3.68,3.68,0,0,1,1.35-4.45c2-1.34,3.91-.94,5.73.4a23,23,0,0,1,1.72,1.57c1.54-2.59,3.17-5.25,6.73-4.35a4.25,4.25,0,0,1,3.4,3.86C89.09,251.81,87,252.86,84.17,253.79Z" transform="translate(-7.48 66.52)" style="fill:#f8f8f7"/><path d="M262.06,225.8c-0.85,4.34-2.91,6.17-5.94,5.34-1.87-.51-3-1.74-2.4-3.71a30,30,0,0,1,2.09-4.36c-2.74-.11-5.44-0.42-5.79-3.67-0.25-2.29,1.41-3.8,3.34-4.46,3.31-1.12,5.16,1,6.94,3.7l1-4.74,3.78,1.07-2.3,3.09a38.87,38.87,0,0,1,6.67,2c0.63,0.3.74,2.39,0.54,3.56C269.45,226.56,266.58,227.33,262.06,225.8Z" transform="translate(-7.48 66.52)" style="fill:#f8f8f7"/><path d="M357.4,258.53c-1,3.75-1.8,7-2.6,10.2-0.62,2.49-2,4.15-4.67,4.44-2.29.25-3.71-1.07-4.74-3a11.93,11.93,0,0,0-1-1.32l-3.28,4.26a19.82,19.82,0,0,1-1.39-2c-1.16-2.24-.74-2.86,1.83-3a18.64,18.64,0,0,0,2.61-.56,3.08,3.08,0,0,0-.27-0.82c-3.2-3-2.83-5.59,1.46-6.68C349.16,259.06,353.2,259,357.4,258.53Z" transform="translate(-7.48 66.52)" style="fill:#f8f7f7"/><path d="M158.8,409.83c1.5,0.88,3.49,1.42,4.41,2.71,1.86,2.62-.07,5.63-3.31,5.75-3.8.14-7.6,0.36-12.19,0.58,1-4.45,1.82-8.41,2.79-12.35a4.8,4.8,0,0,1,1.46-2.12c1.19-1.1,2.74-2.29,4.21-1.13a8.84,8.84,0,0,1,2.43,4c0.3,0.85-.24,2-0.4,3Z" transform="translate(-7.48 66.52)" style="fill:#f8f7f7"/><path d="M54.84,366.1c-1.38-3.75-2.92-7.57-4.17-11.48-0.9-2.82.22-4.91,2.54-5.52s4,0.53,4.75,3.62a5.19,5.19,0,0,0,.4.8,10.7,10.7,0,0,0,1.11-.82c2-1.93,4.07-2.25,5.68-.85a5,5,0,0,1,.41,6.55A8.63,8.63,0,0,1,63.77,360C60.84,362,57.89,364,54.84,366.1Z" transform="translate(-7.48 66.52)" style="fill:#f9f8f8"/><path d="M40,11.8c-1,4.1-1.74,8.16-3,12.07-0.71,2.28-4.13,2.9-6.38,1.41a44.33,44.33,0,0,1-3.58-3c-0.2.27-.65,0.91-1.15,1.51S24.86,25,24,25.9l-2-4.58,5.11-.92a2.27,2.27,0,0,0-.2-0.69c-3-3-2.52-5.25,1.48-6.59A27.47,27.47,0,0,1,34,12.24C35.78,12,37.6,12,40,11.8Z" transform="translate(-7.48 66.52)" style="fill:#f8f7f7"/><path d="M288.7,117.33c1.86-.75,3.94-1.62,6-2.44a30.93,30.93,0,0,1,4.2-1.5c1.72-.4,3.42-0.11,4.38,1.59a4,4,0,0,1-.86,5,5.77,5.77,0,0,0-2,5.16c0.2,2.76-1.34,4.17-4.13,4.56a4.65,4.65,0,0,1-5-3.6C290.42,123.09,289.51,120,288.7,117.33Z" transform="translate(-7.48 66.52)" style="fill:#f9f8f8"/><path d="M237.85,81.14c-4.24,3.11-6.51,3.34-8,.94-1.29-2.06-.47-3.16,4.92-6.33l-4-2.06,2-2.47,3.17,4.24c0.92-3.39,2.42-5.56,5.69-5.17,1,0.12,2.61.84,2.75,1.53,0.2,1-.61,2.22-1.17,3.26a5.21,5.21,0,0,1-1.48,1.2c2,1.16,5,1.26,5.07,4.19a4.38,4.38,0,0,1-2,3.17C241.72,85.4,239.59,83.42,237.85,81.14Z" transform="translate(-7.48 66.52)" style="fill:#f8f7f7"/><path d="M118.7,69.69c1.92,2.86,4,5.62,5.69,8.56,1.08,1.83,1.55,4.2-.21,5.74-1.06.92-3,1.14-4.57,1-1-.07-1.91-1.28-2.59-1.79-1.61.35-3.13,1.07-4.54,0.91a3.63,3.63,0,0,1-2.35-5.58,39.45,39.45,0,0,1,4.53-5.18C115.85,72.14,117.2,71,118.7,69.69Z" transform="translate(-7.48 66.52)" style="fill:#f9f9f8"/><path d="M354.57,41.58l4.8-1.55-0.57,4.5-5.22-1.78a12.43,12.43,0,0,0-.42,1.72A4.5,4.5,0,0,1,350,48.62a4.29,4.29,0,0,1-4.94-1.54c-1.67-2.12-3.15-4.38-5.12-7.13,3.4-1.71,6.34-3.66,9.58-4.72,4.41-1.45,6.12.49,5,5.05A7.18,7.18,0,0,0,354.57,41.58Z" transform="translate(-7.48 66.52)" style="fill:#f8f8f7"/><path d="M226.07,131.24c-0.84,2.84-1.57,5.43-2.38,8-0.7,2.22-2.05,3.84-4.54,3.92s-3.11-1.84-3.82-3.65c-0.08-.2-0.21-0.39-0.48-0.87l-3.32,3-1.73-3.46,3.78-.5c-0.55-.73-0.9-1.19-1.25-1.64a4.13,4.13,0,0,1,2.71-6.83,10.48,10.48,0,0,1,3.54.3c1.23,0.28,2.37.92,3.6,1.23A37.27,37.27,0,0,0,226.07,131.24Z" transform="translate(-7.48 66.52)" style="fill:#f9f8f8"/><path d="M216.44,21.15c2.86,0.23,5.53.42,8.2,0.67,3.34,0.32,5.23,2.36,5.08,5.42-0.12,2.56-1.88,4-5.15,4.1-0.24,0-.47.06-0.8,0.11a6.74,6.74,0,0,0-.25.85c-0.48,2.85-1.58,4-3.81,4a4.34,4.34,0,0,1-3.88-4.38C215.84,28.3,216.22,24.65,216.44,21.15Z" transform="translate(-7.48 66.52)" style="fill:#f9f8f8"/><path d="M62.16,291.87v4l-5.36-1.59c-0.06.69-.09,1.13-0.13,1.57-0.37,3.7-3.58,5.46-6.68,3.39a22.7,22.7,0,0,1-4.25-4.42,40.43,40.43,0,0,1-2.43-3.56c3-2.09,5.94-4.26,9.59-4.92,3.82-.69,5.39.93,5,4.74-0.06.54-.21,1.06-0.42,2.07Z" transform="translate(-7.48 66.52)" style="fill:#faf9f9"/><path d="M334.22-10.7c-1.42,2.94-2.75,5.91-4.29,8.76a10.12,10.12,0,0,1-2.55,3,3.15,3.15,0,0,1-4.35.06,3.51,3.51,0,0,1-.93-4.35c0.76-1.62.78-2.49-.73-3.76-2.32-2-.53-6.39,2.88-7.19a6.72,6.72,0,0,1,6.43,1.46A17.23,17.23,0,0,0,334.22-10.7Z" transform="translate(-7.48 66.52)" style="fill:#f9f8f8"/><path d="M357.69,96.91l1.16-1c2.14-1.77,4.38-1.71,5.84.15a4.33,4.33,0,0,1-.86,6.31c-1.36.94-2.92,1.6-4.34,2.46s-2.77,1.81-4.52,3c-1.58-3.49-3.39-7-4.71-10.61-0.94-2.6,0-4,2.18-4.69s3.85,0.25,4.78,2.7C357.39,95.68,357.48,96.15,357.69,96.91Z" transform="translate(-7.48 66.52)" style="fill:#f9f9f9"/><path d="M233.6,276.83l0.61-4.29,3.75,1-3.17,3.65h1.87c1.86,0,3.29.63,3.84,2.54a3.63,3.63,0,0,1-1.69,4.33c-2.91,1.89-5.89,3.67-9.06,5.63-1.17-3.37-2.32-6.39-3.27-9.48a3.76,3.76,0,0,1,1.57-4.43C229.89,274.5,231.65,274.79,233.6,276.83Z" transform="translate(-7.48 66.52)" style="fill:#f8f7f7"/><path d="M216.54,202.9c0.52,2.43,1.17,5,1.6,7.7a9.54,9.54,0,0,1,0,4.17c-1,3.18-4.29,3.87-6.51,1.41-1-1.09-1.82-1.72-3.4-1.43-1.8.34-3.67,0-4.34-2a4.5,4.5,0,0,1,1.71-5.3,10.84,10.84,0,0,1,2.53-1.29C211,205,213.85,203.94,216.54,202.9Z" transform="translate(-7.48 66.52)" style="fill:#faf9f9"/><path d="M93.8,437.08a3.59,3.59,0,0,0,.35.86c1.16,1.54,1.38,3.34,0,4.54a5.8,5.8,0,0,1-4.07,1.08,3.44,3.44,0,0,1-3-3.53c0-.94,0-1.89,0-2.84-1.34-.21-2.87-0.08-3.95-0.72a5.33,5.33,0,0,1-2.55-3.19c-0.23-1.9,1.83-1.81,3-1.7a26.42,26.42,0,0,1,4.84,1.37c0.33-1.82.91-3.91,3.3-4,1.36-.05,3.56.41,3.95,1.28,0.56,1.27-.17,3.11-0.39,5.14l2.52,0.42-0.37,2.54-3.35-1.68-0.58,0Z" transform="translate(-7.48 66.52)" style="fill:#f7f7f6"/><path d="M319.27,165.17l3,2.08c0.26-.77.4-1.3,0.62-1.79a4.66,4.66,0,0,1,4.39-3.08c2.14,0,3.13,1.37,3.73,3.09,0.9,2.53,1.66,5.11,2.53,7.82-3.2,1-6.31,2.22-9.53,2.91a4.39,4.39,0,0,1-3.65-1.35c-0.59-.76-0.14-2.44.06-3.67a9.68,9.68,0,0,1,1.15-2.33l-3.69-.22Z" transform="translate(-7.48 66.52)" style="fill:#f9f8f8"/><path d="M262.68,333.17c2.18,0.23,4.33.4,6.46,0.7a7.76,7.76,0,0,1,2.48.79c1.93,1,3.22,2.6,2.63,4.83s-2.38,3.06-4.62,2.95c-0.4,0-.8-0.06-1.34-0.11-0.05.7-.06,1.41-0.17,2.1-0.33,2.05-1.58,3.48-3.59,3.57a3.34,3.34,0,0,1-3.74-3.25,17.68,17.68,0,0,1,.18-4.48C261.4,337.94,262.07,335.66,262.68,333.17Z" transform="translate(-7.48 66.52)" style="fill:#f8f7f7"/><path d="M309.73,77.35l0.77,3.38-3.42.25,0.47-3c-1.26.17-2.4,0.42-3.55,0.46-2.81.1-4.11-1.65-2.82-4.15,1.67-3.22,3.72-6.25,5.71-9.53l5.86,5.08c1.54,1.33,3.19,2.77,2.34,5S312.18,77.56,309.73,77.35Z" transform="translate(-7.48 66.52)" style="fill:#f8f7f7"/><path d="M377.21,150.33c-1-3.45-2.08-6.69-2.94-10a2.24,2.24,0,0,1,1-1.77c2.45-1.46,5-2.73,7.5-4.16,1.5-.87,2.14-0.36,2.5,1.15,0.56,2.32,1.2,4.61,1.78,6.92a2.34,2.34,0,0,1-1.35,3.09C382.88,147,380.17,148.66,377.21,150.33Z" transform="translate(-7.48 66.52)" style="fill:#faf9f9"/><path d="M94.16,1.12c-2.59-1-5.84-2.18-9-3.5A5.7,5.7,0,0,1,82-8.5c0.38-2.08,1.67-2.66,4.5-2a4.84,4.84,0,0,1,.28-0.85c0.61-1.13,1.24-2.24,1.87-3.35,1.26,0.72,2.83,1.18,3.69,2.22a8.13,8.13,0,0,1,1.77,4.28C94.34-4.95,94.16-1.71,94.16,1.12Z" transform="translate(-7.48 66.52)" style="fill:#f8f7f7"/><path d="M167.8,136.22c-3.52-.91-6.66-1.64-9.73-2.58a2.36,2.36,0,0,1-1-1.84c-0.1-3.17,0-6.34,0-10.17,3.64,1,6.8,1.84,9.9,2.83a2.22,2.22,0,0,1,.85,1.73C167.85,129.29,167.8,132.39,167.8,136.22Z" transform="translate(-7.48 66.52)" style="fill:#fbfbfb"/><path d="M145.63-39.2L143-35.82c1.37,0.34,2.57.35,3.38,0.91A6.11,6.11,0,0,1,149-32c0.17,0.68-1.18,2.2-2.15,2.59a50.86,50.86,0,0,1-7.52,2.13,2.06,2.06,0,0,1-1.69-.79,55.58,55.58,0,0,1-3.39-5.72c-1.29-2.56.1-4.42,3-4.06a39.11,39.11,0,0,1,4.31,1l0.17-3.63Z" transform="translate(-7.48 66.52)" style="fill:#f8f7f7"/><path d="M106.63,165.64c-2.37-2.76-4.44-5.06-6.38-7.47-1.26-1.57-1.66-3.33.09-4.87s3.48-1.28,5.21,0c0.38,0.29.75,0.59,0.86,0.67,1.63-.37,3.13-1.16,4.4-0.89a3.73,3.73,0,0,1,2.3,6C111.43,161.41,109.06,163.24,106.63,165.64Z" transform="translate(-7.48 66.52)" style="fill:#f7f7f6"/><path d="M115.22,211.89c1.07,2.37,2.12,4.66,3.14,7,0.88,2,1.62,4-.23,6s-3.57.86-5.49-.19l0.14,3c-2.9-1.06-3-1.32-1.89-4.21-0.78-.58-1.61-1.15-2.4-1.79-2.75-2.23-2.25-5.55,1-7C111.4,213.84,113.28,212.84,115.22,211.89Z" transform="translate(-7.48 66.52)" style="fill:#f7f6f6"/><path d="M270.44,26.36c1,0.12,1.69.15,2.38,0.3,6.93,1.51,6.9,1.51,6.42,8.55-0.12,1.72,0,3.45,0,6.08-3.8-1.45-6.87-2.59-9.9-3.82a1.41,1.41,0,0,1-.61-1.19C269.23,33,269.84,29.75,270.44,26.36Z" transform="translate(-7.48 66.52)" style="fill:#f8f7f7"/><path d="M315.3,326.28c-0.49-3-1-5.51-1.21-8a3.26,3.26,0,0,1,1.43-2.57,74.79,74.79,0,0,1,7.48-3c1.16-.42,2-0.12,2.23,1.27,0.15,1,.35,2,0.51,3.05,0.86,5.48,1.84,4.29-3.84,6.68C319.87,324.59,317.81,325.32,315.3,326.28Z" transform="translate(-7.48 66.52)" style="fill:#f9f9f8"/><path d="M26.13,249.11c-0.77-.69-1.47-1.23-2.06-1.87a3.5,3.5,0,0,1-.5-4.59c1-1.51,2.48-2.38,4.31-1.69,2.35,0.89,4.62,2,7.07,3.07-0.77,2.73-1.42,5.33-2.24,7.89s-3,4.08-4.89,3.43-2.68-2.7-1.85-5.66Z" transform="translate(-7.48 66.52)" style="fill:#f7f7f6"/><path d="M72.67,52.76C69.54,52.32,67,52,64.4,51.55a2.27,2.27,0,0,1-1.55-1.24C62,47,61.27,43.56,60.37,39.59c3.1,0,5.77-.05,8.43,0a1.84,1.84,0,0,1,1.4,1C71.06,44.45,71.79,48.32,72.67,52.76Z" transform="translate(-7.48 66.52)" style="fill:#f8f7f7"/><path d="M44.87,129.74c2.27,2.77,4.61,5.55,6.85,8.43a4.18,4.18,0,0,1,.85,2.42,3.58,3.58,0,0,1-.91,2.44c-0.45.4-1.53,0.13-2.33,0.07a7.38,7.38,0,0,1-1.49-.5l0.78,3.33H46.31v-3.55l-1.91.28c-3.44.53-5-1-4.31-4.5a9.63,9.63,0,0,1,1.21-3.07C42.35,133.34,43.56,131.68,44.87,129.74Z" transform="translate(-7.48 66.52)" style="fill:#f8f7f7"/><path d="M293.75,279.69c-2.91-1.47-5.77-2.83-8.55-4.34-1.57-.85-2.7-2.14-1.89-4.09s2.58-2.27,4.57-2.1a3.69,3.69,0,0,0,2.57-.69c1.41-1.32,2.55-3,4.84-1.85,1.41,0.72,2.16,3.68,1.38,5.85C295.8,274.85,294.77,277.17,293.75,279.69Z" transform="translate(-7.48 66.52)" style="fill:#f7f7f6"/><path d="M94.8,295.63c3.32,0.46,6,.79,8.63,1.25a1.71,1.71,0,0,1,1.18,1.09c0.09,3.48.05,7,.05,10.71-3.17-.47-6.06-0.86-8.92-1.38a1.55,1.55,0,0,1-.9-1.17C94.77,302.8,94.8,299.48,94.8,295.63Z" transform="translate(-7.48 66.52)" style="fill:#fbfafa"/><path d="M351.29,371.54c2.49,3.46,4.71,6.26,6.57,9.28,0.63,1,.36,2.59.5,3.91-1.24-.22-2.49-0.43-3.72-0.68a5.3,5.3,0,0,1-1-.47v3.34c-3.48.92-.83-2.57-2.48-3.19a3.68,3.68,0,0,1-.59,0c-1.32,0-3.24.47-3.83-.2a4.55,4.55,0,0,1-.74-4.09C347.35,376.79,349.32,374.41,351.29,371.54Z" transform="translate(-7.48 66.52)" style="fill:#f6f6f5"/><path d="M193.42-17.29c-0.38-3.28-.7-6.28-1.07-9.28A1.94,1.94,0,0,1,194-29c2.7-.66,5.39-1.37,8.44-2.15,0.14,3.25.31,6.32,0.36,9.39a1.85,1.85,0,0,1-1,1.39C199.09-19.3,196.32-18.34,193.42-17.29Z" transform="translate(-7.48 66.52)" style="fill:#f7f7f6"/><path d="M178.09,80.9l-1.37,4-2.42-1.64,2.25-2.89a1.07,1.07,0,0,0-.26-0.4c-1.58-.51-3.82-0.92-3.42-2.89,0.27-1.33,2-2.72,3.45-3.37a54.76,54.76,0,0,1,7.52-2.28,70.62,70.62,0,0,1,1.6,7.15c0.38,3.12-2.55,5-5.39,3.54C179.49,81.83,179,81.46,178.09,80.9Z" transform="translate(-7.48 66.52)" style="fill:#f5f4f4"/><path d="M212.14,411.67c-1.41-.1-3.13.26-4.17-0.41-1.87-1.21-3-3.34-1.94-5.61,1.14-2.49,2.71-4.79,4.32-7.55,2.63,3.64,5.12,6.79,7.2,10.19,0.49,0.8,0,3.28-.65,3.5-1.31.48-3,0-4.5-.09Z" transform="translate(-7.48 66.52)" style="fill:#f6f6f5"/><path d="M175.42,256.94c-3.42,0-6.35.07-9.27-.06a2.36,2.36,0,0,1-1.7-1.27c-1.08-3-2-6-3.14-9.54,3.26,0.27,6.13.51,9,.78a1.08,1.08,0,0,1,.76.49C172.48,250.4,173.86,253.48,175.42,256.94Z" transform="translate(-7.48 66.52)" style="fill:#f5f4f4"/><path d="M261.41,174.41l-2.94-10.17,8.71-6.1c0.82,3.34,1.6,6.48,2.33,9.63a1.25,1.25,0,0,1-.33,1.07C266.73,170.64,264.23,172.4,261.41,174.41Z" transform="translate(-7.48 66.52)" style="fill:#f7f6f6"/><path d="M154.38,306.6a45,45,0,0,1,4.4,4.7c1.09,1.55.91,3.06-1.2,4a27.48,27.48,0,0,0-3.9,2.59c-1.69-2.87-3.41-5.78-5.11-8.72a5.31,5.31,0,0,1-.86-1.94,3.34,3.34,0,0,1,.38-2.4c0.37-.36,1.56,0,2.33.22a12.65,12.65,0,0,1,2.19,1.24l-1.33-3.63,3.83,1.94Z" transform="translate(-7.48 66.52)" style="fill:#f5f4f4"/><path d="M76.47,395.86l9.57-4.7,4.12,9.2c-2.36.86-4.6,1.81-6.93,2.44a2.81,2.81,0,0,1-2.35-.85C79.33,400.07,78,398,76.47,395.86Z" transform="translate(-7.48 66.52)" style="fill:#f8f7f7"/><path d="M329.38,233.91c-2.83,1.06-5.25,2.06-7.74,2.81a2.85,2.85,0,0,1-2.39-.59c-1.94-2-3.69-4.11-5.77-6.48,3-1,5.57-2.08,8.23-2.75A3.54,3.54,0,0,1,324.4,228C326.06,229.74,327.51,231.66,329.38,233.91Z" transform="translate(-7.48 66.52)" style="fill:#f6f6f5"/><path d="M37.08,413.12l-3.08-.6v-2L36.93,412c0.7-2.35,1.83-3.11,3.78-1.85a98,98,0,0,1,7.89,6.2l-0.35.76a60.78,60.78,0,0,1-6.4,1.57C38.39,419.12,36.33,416.71,37.08,413.12Z" transform="translate(-7.48 66.52)" style="fill:#f7f6f6"/><path d="M128.57,275.69c-2.88-2.6-5.36-4.81-7.81-7.05a2,2,0,0,1-.66-1c-0.21-1.11-.32-2.24-0.47-3.37l2.77-.17c0.36-.5.73-1.55,1.29-1.66a3,3,0,0,1,2.19.92C129.26,266.68,129.31,270.77,128.57,275.69Z" transform="translate(-7.48 66.52)" style="fill:#f4f3f2"/><path d="M72.41,205.9c-1.93-3-3.62-5.58-5.24-8.19a1.76,1.76,0,0,1,0-1.37c0.92-2.32,1.9-4.61,3-7.3,1.7,3.23,3.27,6.06,4.67,9a3.32,3.32,0,0,1-.15,2.23C74.09,202,73.34,203.63,72.41,205.9Z" transform="translate(-7.48 66.52)" style="fill:#f5f5f4"/><path d="M169.89,353.56c7,1.16,8.16,1.81,8.87,7.29l-8.06,1.28Z" transform="translate(-7.48 66.52)" style="fill:#f5f4f4"/><path d="M225.77,374.95c2.05,1.93,4.85,3.1,5.63,6.34L225,375.74Z" transform="translate(-7.48 66.52)" style="fill:#e3e2e1"/><path d="M41.89-49.57L41.66-50l0.59-.06Z" transform="translate(-7.48 66.52)" style="fill:#020202"/><path d="M93.8,437.08l-0.29-.41,0.58,0Z" transform="translate(-7.48 66.52)" style="fill:#020202"/></svg>