<svg id="Layer_1" data-name="Layer 1" xmlns="http://www.w3.org/2000/svg" viewBox="0 0 485.28 362.4"><title>dress</title><path d="M561.76,383.88H76.48V21.48H561.76v362.4Zm-45.63-.56,6.3,0.05,28.78,0h9v-9.67l0-51.24,0-74.46q0-9.58,0-19.16,0-26.84,0-53.67,0-27.44,0-54.87l0-13.34q0-31,.05-62.07c0-6.13,0-12.26.06-18.39,0-1,.06-2-1.43-1.68l-11.69.07a0.41,0.41,0,0,1-.34-0.16,1.55,1.55,0,0,0-.6-0.34q-10.45,0-20.9,0a1.53,1.53,0,0,0-.59.35l-1.22.17-6.47-.07-6.3,0-20.54-.07H476.79l-25.44,0H414.9l-11.91,0-23.2-.09-0.43.09,0,0h-47l-23,0-11-.13a2.71,2.71,0,0,0-.87-0.33q-11,0-22,0a2.62,2.62,0,0,0-.86.35l-11.49.13-22.85,0-11.76,0-19.57,0-9-.13a19.67,19.67,0,0,0-2.55-.34q-8.35,0-16.7,0a18.85,18.85,0,0,0-2.54.35l-10.49.12-22.48,0-10.61,0-21.1,0-10.28.09H81.89V60.82l-0.06.47c0,0.72-.09,1.43-0.09,2.15q0,97.72,0,195.45c0,4.51.1,9,.16,13.54l0,34.65,0,61v15.26h26.25l1.43,0h11.09l27.26,0h9.25l3.85,0h28.76l4.22,0,20.16,0h3.33l12.65,0,1.32,0h23.1l11.54,0,24.87,0h11.18l23.45,0,11.09,0h1l22.54,0,0.23,0.06,0.23,0,11.57-.05h24.37l10.66,0h1.92l25.32,0h11.74l26.65,0h10.66l25.87-.06h6.7Z" transform="translate(-76.48 -21.48)" style="fill:#fefdfd"/><path d="M551.21,383.4l-28.78,0-0.16-5.28,0.16-4.77,0.25-1.49,0-1.4,0.18-3.35,0-.48,0.34-2,0.08-1.42,0.38-1.95,0.1-1.9,0.81-5.79,0.12-1.89,0.41-2.42,0-1.38,0.54-4.83,2-8.08c1.21-4.33.43-8.54-1.12-12.57a51,51,0,0,1-3.75-16.31c0.1-.7.25-1.39,0.28-2.09,0.21-5.26.51-10.51,0.54-15.77,0-4.75-.25-9.51-0.39-14.27v-0.6l0-.82a8.88,8.88,0,0,1-.56-2.09c-0.16-8.59-.28-17.18-0.4-25.77,0.42-4.58,1-9.15,1.23-13.74,0.49-9.54.8-19.08,1.2-28.62,0.11-2.68.31-5.36,0.47-8h0l0-7.24c-0.08-1.43-.15-2.87-0.24-4.3-0.38-6.13-1-12.26-1.12-18.4-0.25-14-.26-27.93-0.33-41.9,0-2.12.16-4.25,0.25-6.37,3.68,2.16,7.32,4.41,11.06,6.45,2.08,1.13,4.39,1.82,6.5,2.89,2.6,1.32,5.07,2.89,7.67,4.21a8.77,8.77,0,0,0,2.67.42,33.53,33.53,0,0,1,.4,4.2c-0.23,8.52-.67,17-0.78,25.56-0.1,7.73.37,15.47,0.18,23.19-0.33,13.05-1.43,26.1.29,39.14,0,2.62.23,5.24,0.06,7.85-0.27,4.12-1,8.21-1.16,12.33-0.29,9.94-.34,19.9-0.43,29.85,0,1.72.28,3.44,0.44,5.17l0,2.39q0,5.83,0,11.67,0,7.39,0,14.78v0.91q0,1.46,0,2.93,0,0.94,0,1.87,0,1.22,0,2.45l0,5.75a11.91,11.91,0,0,0-.33,1.83c-0.38,14.53-.76,29.07-1.07,43.6-0.05,2.44.27,4.89,0.42,7.34l0.13,1,0.29,1.45Z" transform="translate(-76.48 -21.48)" style="fill:#096d44"/><path d="M209,24.85l19.57,0c0.17,5.19.36,10.38,0.5,15.57,0.37,14.29.77,28.59,1.07,42.88,0.24,11.82.52,23.64,0.44,35.46,0,4.68-1,9.35-1.49,14l0.63,11.54c-0.12,1.11-.2,2.23-0.37,3.33-0.71,4.41-1.9,8.79-2.08,13.22-0.33,8.05-.13,16.13-0.05,24.2,0.07,7,.45,14.06.35,21.09-0.12,9.18-1,18.37-.77,27.53,0.29,10.57-1.65,20.83-2.94,31.19-6.46,7.75-12.94,15.49-19.36,23.28-0.87,1.05-1.5,1.46-2.7.51s-2.39-1.56-3.59-2.33a22.62,22.62,0,0,1,.25-2.33c0.63-3,1.56-6.05,1.92-9.13,0.79-6.73,1.47-13.48,1.87-20.25,0.37-6.37.31-12.76,0.44-19.15l-0.07-.47,0-1.84,0.11-13.06,0-1.89v-0.5c0.12-5.18,0-10.38.42-15.54,0.54-7.06,1.62-14.09,2.16-21.15,0.36-4.6,0-9.25.29-13.85,0.53-7.93,1.38-15.85,2-23.77a80.62,80.62,0,0,0,.33-8.8c-0.14-4.93-.52-9.85-0.8-14.77a8.51,8.51,0,0,0,.22-1.61c-0.24-4.53-.53-9.06-0.77-13.59-0.17-3.25-.28-6.5-0.41-9.75C205.75,82,205.4,69.1,205,56.17c-0.18-5.66-.6-11.27,1-16.87C207.24,34.56,208,29.67,209,24.85Z" transform="translate(-76.48 -21.48)" style="fill:#cf3a31"/><path d="M509.43,383.32l-25.87.06c0-.64-0.05-1.28,0-1.91,0.61-6.75,1.24-13.49,1.85-20.24,0.47-5.16.84-10.33,1.39-15.48,0.45-4.18,1.25-8.33,1.61-12.52,0.49-5.69.61-11.42,1.08-17.12,0.69-8.37.28-16.62-2.46-24.6a74.75,74.75,0,0,1-3.85-28.24c0.42-8.53,1-17.06,1.18-25.6,0.45-18.69.72-37.38,1.08-56.08,0.07-3.42.24-6.84,0.36-10.26a74.22,74.22,0,0,0,5.25-6.27c6.83-10.18,13.52-20.45,20.28-30.67a12.06,12.06,0,0,1,1.45-1.54c-0.07,2.94-.14,5.87-0.2,8.81-0.21,10.51-.53,21-0.56,31.53,0,6.21.45,12.42,0.7,18.63l0,2v1.4a5.08,5.08,0,0,0-.35,1.12c-0.36,4.69-.72,9.37-1,14.06-0.13,2-.11,4-0.17,5.93l-0.12,1-0.13,1.92c-0.49,6.72-1.11,13.44-1.43,20.17-0.24,5.11-.17,10.25-0.08,15.37,0.14,7.83.41,15.67,0.62,23.5l0.06,5.77,0.06,1L510,291.71c0.21,4.9-.34,10,0.79,14.67,2.16,9,5.35,17.68,4.45,27.12-1.26,3.84-2.54,7.68-3.77,11.53a4.31,4.31,0,0,0,0,1.4l-1,5.76L510,369Z" transform="translate(-76.48 -21.48)" style="fill:#cbbb37"/><path d="M113.47,24.85l21.1,0c0,0.4,0,.8,0,1.2-0.28,21.58-.49,43.17-0.88,64.75q-0.38,21.09-1.22,42.18c-0.4,10.21-1.13,20.41-1.72,30.62l-1.05,26.88c0,0.56,0,1.12,0,1.67-1.46,12.18-2.8,24.37-4.46,36.52-0.73,5.34-2.11,10.58-3.19,15.87A15,15,0,0,0,120,246c-3.34,3.43-6.7,6.85-9.93,10.39-4.21,4.6-8.3,9.31-12.45,14q-4.35,4.88-8.72,9.75l1.07-6.22c0.55-1.62,1.22-3.21,1.63-4.87,1.45-6,2.81-12,4.21-18l0.95-4.41v0c0.85-4.75,1.83-9.49,2.53-14.27,0.87-6,1.5-12,2.23-18,0.94-7.19,2.05-14.36,2.77-21.57,1.15-11.59,2.05-23.21,3-34.82,1.22-14.31,2.69-28.61,3.55-42.94,0.82-13.7,1.08-27.44,1.46-41.16C112.76,57.59,113.08,41.22,113.47,24.85Z" transform="translate(-76.48 -21.48)" style="fill:#2f438e"/><path d="M472.89,383.37l-26.65,0c0.09-2.38.22-4.76,0.28-7.15,0.24-10.36.5-20.73,0.66-31.09,0.15-9.8.18-19.61,0.26-29.42l0.09-7.16,0.39-19.7-0.09-1.94c-0.36-7.86-.51-15.74-1.14-23.58-0.55-6.88-2-13.71-2.38-20.59-0.28-4.63.54-9.32,0.87-14a1.88,1.88,0,0,0,.35-0.31c7.16-10.23,14.3-20.48,21.49-30.69,1.5-2.12,3.23-4.07,4.86-6.1-0.22,6.61-.47,13.23-0.65,19.84q-0.63,22.88-1.21,45.77c-0.22,8.26-.08,16.43,3.25,24.25,1.17,2.75,1.5,5.86,2.21,8.8,0.06,3.25.22,6.5,0.15,9.74-0.16,7.46-.43,14.91-0.66,22.37-0.17,2.14-.43,4.28-0.49,6.43-0.33,11.8-.59,23.61-0.92,35.42C473.37,370.64,473.11,377,472.89,383.37Z" transform="translate(-76.48 -21.48)" style="fill:#cf3931"/><path d="M475.47,290.32c-0.71-2.94-1-6.05-2.21-8.8-3.33-7.83-3.47-16-3.25-24.25q0.61-22.88,1.21-45.77c0.18-6.62.43-13.23,0.65-19.84a17.85,17.85,0,0,0,.6-3q0.5-16.75.9-33.49c0.32-12.52.7-25,.94-37.56,0.14-7.17-.14-14.35.11-21.51,0.24-6.93,1-13.83,1.37-20.76,0.3-6.45.36-12.92,0.42-19.38,0-2.76-.21-5.51-0.33-8.27l0.9-22.8h13.46Q489.62,49.94,489,75a24.17,24.17,0,0,1-.34,2.6,0.5,0.5,0,0,0-.17.13,2.16,2.16,0,0,0,.14.37v1l-0.31,4.78-0.06.95a12.7,12.7,0,0,1-1.2,1.59c-0.44.44-1.14,1.14-1.53,1-2-.55-2.26,1.09-2.9,2.13a13.3,13.3,0,0,0-1,2.8L487,94.05a15,15,0,0,1,.22,2.12c-0.43,12.25-1,24.5-1.27,36.75-0.23,12.8-.09,25.61-0.1,38.42-0.12,3.42-.29,6.84-0.36,10.26-0.36,18.69-.62,37.39-1.08,56.08-0.21,8.54-.76,17.06-1.18,25.6A74.75,74.75,0,0,0,487,291.51c2.74,8,3.15,16.24,2.46,24.6-0.47,5.7-.58,11.42-1.08,17.12-0.36,4.19-1.17,8.34-1.61,12.52-0.55,5.15-.93,10.32-1.39,15.48-0.61,6.75-1.24,13.49-1.85,20.24-0.06.63,0,1.27,0,1.91H472.89c0.22-6.37.48-12.73,0.66-19.1,0.33-11.8.59-23.61,0.92-35.42,0.06-2.15.32-4.29,0.49-6.43l0.77-2.38c0.85,0,1.72.05,2.58,0s1.78-.25,2.71-0.38c-1.15-4.13-.53-5.52,2.38-5.75,0.71-2.73-1.73-2.18-2.9-2.7L480.06,309l-1.74,2.63,0.32-4.81c1.64-.24,1.75-1,0.74-2.5a18,18,0,0,1-2.53-5.33C476.14,296.14,475.91,293.2,475.47,290.32Z" transform="translate(-76.48 -21.48)" style="fill:#c4cdd5"/><path d="M240.29,24.91l22.85,0c0,3.84,0,7.67.06,11.51,0.25,14,.77,28,0.71,41.94,0,8.44-1.13,16.87-1.45,25.31-0.31,8-.35,16.11-0.29,24.17,0,4.54.5,9.09,0.77,13.63l0.36,11.12c-0.16,4.46-.34,8.92-0.46,13.38-0.2,7.66-.07,15.34-0.64,23-0.37,4.89-1.75,9.71-2.67,14.57l-0.14,2.7a10.88,10.88,0,0,0-1.55,1.76c-3.07,5.5-6,11.06-9.13,16.54-3.56,6.3-7.22,12.54-10.83,18.81l-0.18,0c0.18-2.29.53-4.58,0.51-6.87-0.06-5.55-.29-11.09-0.46-16.64a57.36,57.36,0,0,0,1.38-7.94c0.25-6.66.21-13.34,0.22-20,0-7.88-.09-15.76-0.07-23.63,0-6.22.15-12.43,0.2-18.65,0-3.69,0-7.38,0-11.08,0-4.05-.06-8.12.26-12.15,0.46-5.63,1.56-11.21,1.84-16.84,0.35-7.08.23-14.2,0.15-21.29Q241.51,67,241.1,46C241,38.94,240.57,31.93,240.29,24.91Z" transform="translate(-76.48 -21.48)" style="fill:#cbbb37"/><path d="M237.87,243.29c3.62-6.27,7.27-12.51,10.83-18.81,3.1-5.48,6.06-11,9.13-16.54a10.87,10.87,0,0,1,1.55-1.76,8.57,8.57,0,0,1,.45,1.82c0.14,4.84.32,9.68,0.31,14.53,0,8.35-.15,16.71-0.24,25.06L257.4,259l-0.15,1L257,263.41a7.16,7.16,0,0,0-.42,1.34,412.84,412.84,0,0,0-2.73,48.48c0.09,9.18.56,18.35,0.76,27.52a24.77,24.77,0,0,1-.69,4.43q-8.79,15-17.58,30c-1.6,2.73-3.27,5.43-4.91,8.14l-1.32,0-0.55-4.28,0.11-.94,0.27-2.93v-1.38c-0.07-7.18-.15-14.37-0.2-21.55q-0.13-19.41-.23-38.81c0-10.29,0-20.59,0-30.88,0.62-2.31,1.23-4.62,1.86-6.93,2.75-10.16,5.78-20.26,5.94-30.91l0.23-.54Z" transform="translate(-76.48 -21.48)" style="fill:#096d44"/><path d="M325.59,383.39l-23.45,0-0.07-10.05c0.11-3.16.38-6.32,0.31-9.47-0.34-14.17-.8-28.33-1.18-42.5-0.15-5.57-.19-11.14-0.29-16.72l0-.92a0.33,0.33,0,0,0,0-.43l2.75-35.11a10.93,10.93,0,0,0,1.82-1.73c2.92-4.44,5.76-8.94,8.66-13.4,3.27-5,6.53-10.1,9.88-15.09,1.59-2.36,3.39-4.57,5.09-6.84l0.4,1.1c-0.27,4.45-.52,8.89-0.81,13.34-0.53,8.17-1,16.35-1.65,24.51-0.23,2.91-.87,5.79-1.33,8.68a40.09,40.09,0,0,0-.35,4.75c0.18,4.62.55,9.24,0.75,13.86,0.11,2.6,0,5.21,0,7.82l0,2.87a0.31,0.31,0,0,0-.12.11,1.61,1.61,0,0,0,.05.31v5.78q0,3.91,0,7.82c0.07,9.5.12,19,.23,28.49,0.05,4.2.34,8.41,0.34,12.61,0,3.87-.25,7.74-0.39,11.61Z" transform="translate(-76.48 -21.48)" style="fill:#63365c"/><path d="M485.81,171.35c0-12.81-.13-25.62.1-38.42,0.22-12.25.84-24.5,1.27-36.75a15,15,0,0,0-.22-2.12l1.27-9.23,0.06-.95,0.31-4.78v-1l0-.5A24.17,24.17,0,0,0,489,75q0.65-25.09,1.26-50.19l20.54,0.07,0.13,5.69,0,22.53-0.06,5.3c-0.31,4.46.14,8.68,2.62,12.65A12,12,0,0,1,515.12,77c0.08,5.41-.24,10.83-0.4,16.24-0.29,9.74-.53,19.47-0.92,29.2-0.14,3.48-.67,6.94-1,10.41a12.05,12.05,0,0,0-1.45,1.54c-6.76,10.22-13.45,20.49-20.28,30.67A74.22,74.22,0,0,1,485.81,171.35Z" transform="translate(-76.48 -21.48)" style="fill:#096d44"/><path d="M379.79,24.72L403,24.81c0.1,1.51.28,3,.28,4.53,0.09,18.13.36,36.27,0.15,54.4-0.11,9.41-1.06,18.81-1.68,28.21-0.72,10.91-1.77,21.81-2.13,32.73-0.2,5.95.73,11.93,1.15,17.9-1.91,2.68-3.94,5.29-5.68,8.07-1.64,2.62-3.81,2.72-5.65.19-0.53-.72-1.64-1-2.5-1.5-0.6-.33-1.23-0.64-1.84-1l-2.79-3.47,3-9.64-0.61-.3-2.5,1.91-0.59-1.47a6,6,0,0,1-2.27.45,23.71,23.71,0,0,1-3.39-1.44l0.05-.49a4.3,4.3,0,0,0,1.38-.62,26,26,0,0,0,1.93-2.52c0-.92.49-3-0.3-4.06-2.11-3-.85-5.63,1.62-7.42,2-1.46-.08-3.39,1.22-4.69a1.15,1.15,0,0,0,.14-1.07,1.83,1.83,0,0,0-1.38-.52c-1.74.66-2.06-.23-2.25-1.68-0.17-1.29-1.05-2.68,1-3.21a0.91,0.91,0,0,0,.3-0.6c0.25-1.18.52-2.36,0.7-3.56a2.45,2.45,0,0,0-.15-1.48c-1.55-2.64-1.25-3.7,1.7-5.4L378.29,116a41.9,41.9,0,0,1,.28-6,117.65,117.65,0,0,0,1.83-23.84q-0.57-30.67-1.07-61.34l0,0A0.58,0.58,0,0,0,379.79,24.72Z" transform="translate(-76.48 -21.48)" style="fill:#ad416d"/><path d="M303.61,268.16l-2.75,35.11a0.32,0.32,0,0,0-.11.13,1.8,1.8,0,0,0,.13.3l0,0.92c-1.16.51-2.33,1-3.48,1.54-1,.47-1.93,1-2.91,1.49-1.59.77-3.2,1.52-4.81,2.28l0.13-.95,0.05-.9c0-.69,0-1.39.07-2.08q0.6-8.49,1.22-17a18.09,18.09,0,0,1-.27-2.81c0.79-14.5,1.89-29,2.38-43.5,0.76-22.58,1-45.18,1.7-67.76,0.26-8.6,1.13-17.18,1.72-25.76a14.92,14.92,0,0,0,.55-2.53c0.19-4.07.42-8.13,0.41-12.2-0.05-14.13-.43-28.26-0.25-42.39,0.17-13.06-.52-26.1,1.08-39.2,1.12-9.18-.12-18.64-0.3-28l0.13-.15,11,0.13c0.09,3,.33,6.06.24,9.08-0.17,6-.69,12.07-0.77,18.1-0.21,16.35-.26,32.71-0.38,49.07-0.05,6.93-.12,13.86-0.15,20.78,0,1.71.14,3.43,0.21,5.14a13.82,13.82,0,0,0-.67,2.75c-0.46,11.81-.93,23.61-1.27,35.42-0.42,14.29-.72,28.59-1.07,42.88-0.33,13.73-.6,27.47-1,41.2C304.29,255.58,303.9,261.87,303.61,268.16Z" transform="translate(-76.48 -21.48)" style="fill:#c4cdd7"/><path d="M343.83,24.83h24c0.12,4.07.34,8.13,0.36,12.2,0.12,19.72.33,39.43,0.22,59.15-0.07,13.49-.43,27-1,40.45-0.31,7.56-1.27,15.09-1.93,22.63l-8.2-4.07c0-.88,0-1.76-0.06-2.63-0.16-2.76-1.81-3.68-4.32-2.73a13.78,13.78,0,0,1-3.85.32l-6-3c0.18-6.23.43-12.46,0.53-18.69,0.21-14,.46-28,0.47-41.94C344.14,65.94,343.94,45.39,343.83,24.83Z" transform="translate(-76.48 -21.48)" style="fill:#2f438e"/><path d="M445.17,228.74c-0.33,4.66-1.14,9.35-.87,14,0.41,6.89,1.83,13.71,2.38,20.59,0.63,7.84.78,15.72,1.14,23.58h-2.89a50.15,50.15,0,0,0-1.93-5.38c-0.49-1-1.38-2.34-2.31-2.55-2.25-.51-2.36-1.89-2-3.78-2.91-.08-2.46-2.46-3.09-4.1-0.2-4.19-.3-8.39-0.65-12.57-0.29-3.44-.88-6.86-1.34-10.29-0.33-4.62-.95-9.24-0.91-13.85,0.06-8.14.56-16.27,0.79-24.41,0.25-8.94.27-17.89,0.64-26.83,0.26-6.3,1.24-12.57,1.37-18.86,0.16-7.48-.36-15-0.39-22.47,0-7.09.23-14.19,0.29-21.28,0-4.62,0-9.24,0-13.86a15.25,15.25,0,0,0,.61-2.78c0.31-9.08.53-18.17,0.84-27.25,0.21-6,.44-12,0.8-17.92,0.68-11.29,1.46-22.57,2.2-33.86h11.53c0,1.44-.07,2.87-0.14,4.31Q450,55,448.79,80.8c-0.06,1.39.08,2.79,0.13,4.19-0.26,5.74-.64,11.48-0.75,17.23-0.27,14-.35,28-0.62,42-0.19,10.14-.55,20.28-0.85,30.42-0.36,12.06-.74,24.12-1.09,36.18C445.44,216.77,445.32,222.76,445.17,228.74Z" transform="translate(-76.48 -21.48)" style="fill:#c6ced7"/><path d="M433.62,248.22c0.46,3.43,1.05,6.85,1.34,10.29,0.35,4.18.44,8.38,0.65,12.57,0,7.57-.05,15.14-0.12,22.72q-0.16,19.83-.37,39.66c0,4.14,0,8.28-.09,12.42q-0.25,18.74-.54,37.48l-25.32,0c0-1.2-.1-2.39-0.1-3.59q0-18.33,0-36.66l0.05-38.89c0.16-2.6.47-5.2,0.44-7.79-0.05-4.13-.34-8.25-0.53-12.37q0-.24,0-0.49l-0.36-9.3c0.92,0.46,1.86.88,2.75,1.38,2.85,1.58,3.61,1.39,5.32-1.31,1.34-2.12,2.71-4.23,4.08-6.34Z" transform="translate(-76.48 -21.48)" style="fill:#0b6d87"/><path d="M396.59,383.36H372.21l-0.6-22c0.64-8.47,1.37-16.94,1.87-25.42,0.27-4.65.15-9.33,0.21-14l-1-31.64a1,1,0,0,0,.25-0.4c0.13-8.06.38-16.12,0.3-24.18,0-4.26-.05-8.45,1.48-12.49,4.47,2.72,8.93,5.46,13.42,8.14,2.6,1.55,5.25,3,7.88,4.48l0.66,8.59c0,1.52,0,3,0,4.55,0.2,11.72.58,23.44,0.58,35.16,0,13.8-.38,27.6-0.53,41.41C396.61,364.82,396.63,374.09,396.59,383.36Z" transform="translate(-76.48 -21.48)" style="fill:#913459"/><path d="M81.83,61.3l0.06-.47a7.12,7.12,0,0,0,1.69-1.39c1.87-2.93,3.62-6,5.47-8.9,1.65-2.63,3.46-5.16,5.05-7.82,3-5,5.94-10.12,8.9-15.19,0,1.81,0,3.62-.07,5.43-0.27,10.21-.53,20.43-0.85,30.64-0.49,15.39-.74,30.81-1.63,46.18-0.81,13.85-2.4,27.65-3.54,41.48-0.81,9.86-1.45,19.73-2.17,29.59a8.88,8.88,0,0,0-.4,1.61c-0.37,5.88-.61,11.77-1.08,17.64s-1,11.9-1.83,17.8c-0.8,5.74-2,11.42-3.05,17.13-0.39,1.69-.75,3.38-1.17,5.07q-2,8.08-4,16.15l-0.5,1.86a18.93,18.93,0,0,1-.46-2.95q0-95.42,0-190.84A24.14,24.14,0,0,0,81.83,61.3Z" transform="translate(-76.48 -21.48)" style="fill:#63365c"/><path d="M237.87,243.29l-0.32.91-0.23.54c-0.16,10.66-3.18,20.76-5.94,30.91-0.63,2.31-1.24,4.62-1.86,6.93-2.15-.31-4.41-1-5.35,2a1.42,1.42,0,0,1-1,.8c-1.69-.64-2.54.25-3.46,1.47-0.32.42-1.29,0.34-2,.49,1-3.33,2.13-6.63,3-10,1.11-4.12,2-8.29,3.05-12.43,1.29-10.36,3.24-20.62,2.94-31.19-0.26-9.16.65-18.35,0.77-27.53,0.09-7-.29-14.06-0.35-21.09-0.08-8.07-.28-16.15.05-24.2,0.18-4.43,1.37-8.81,2.08-13.22,0.18-1.1.25-2.22,0.37-3.33l1.67,0c2.58,0,3.38-1.37,2.14-3.69a3.45,3.45,0,0,0-1.2-1.45c-2.62-1.38-3.3-3.68-3.24-6.38,0.52-4.68,1.46-9.35,1.49-14,0.07-11.82-.2-23.64-0.44-35.46C229.8,69,229.4,54.75,229,40.46c-0.14-5.19-.33-10.38-0.5-15.57l11.76,0c0.28,7,.66,14,0.81,21.05q0.43,21.08.64,42.17c0.07,7.1.19,14.21-.15,21.29-0.28,5.63-1.38,11.22-1.84,16.84-0.33,4-.22,8.1-0.26,12.15,0,3.69,0,7.38,0,11.08-0.05,6.22-.18,12.43-0.2,18.65,0,7.88.08,15.76,0.07,23.63,0,6.67,0,13.35-.22,20a57.36,57.36,0,0,1-1.38,7.94l-1.31,6.43c-2.6,0-4.36,4.31-3.07,7.73,2.86-.33,3.72.42,3.93,3.47,0.14,2,.27,3.91.4,5.87Z" transform="translate(-76.48 -21.48)" style="fill:#c6ced7"/><path d="M88.87,280.13q4.36-4.87,8.72-9.75c4.15-4.66,8.24-9.37,12.45-14,3.23-3.53,6.59-7,9.93-10.39a14.87,14.87,0,0,1,2.07-1.51c-0.37,1.78-.71,3.57-1.13,5.34-4.62,19.42-9.32,38.82-13.85,58.26-1.5,6.42-2.57,12.94-3.84,19.41q-0.14,4.17-.28,8.34l2.44,12.53,0.14,1.93,0.1,1.91,0.21,2.87,0.31,10.2,0.51,9a3.73,3.73,0,0,0-.22,1.29c0.53,2.59,1.13,5.16,1.71,7.73H89a3.35,3.35,0,0,0-.07-1c-1.55-4.06-3-8.14-4.74-12.13-0.38-.89-1.51-1.46-2.29-2.18q0-30.48,0-61a14.68,14.68,0,0,0,1.25-2.69C85.07,296.32,87,288.22,88.87,280.13Z" transform="translate(-76.48 -21.48)" style="fill:#913459"/><path d="M308.46,127c-0.07-1.71-.22-3.43-0.21-5.14,0-6.93.1-13.86,0.15-20.78,0.12-16.36.17-32.71,0.38-49.07,0.08-6,.6-12.07.77-18.1,0.09-3-.15-6.05-0.24-9.08l23,0c0.13,5.83.34,11.66,0.37,17.49,0.06,12.07.12,24.13,0,36.2-0.21,19.5-.56,39-0.88,58.5a7.39,7.39,0,0,1-.47,1.75c-4.51-2.47-9-5-13.54-7.39C314.76,129.8,311.58,128.47,308.46,127Z" transform="translate(-76.48 -21.48)" style="fill:#63365c"/><path d="M400.78,162.57c-0.42-6-1.35-12-1.15-17.9,0.36-10.92,1.41-21.82,2.13-32.73,0.62-9.4,1.57-18.8,1.68-28.21,0.21-18.13-.06-36.26-0.15-54.4,0-1.51-.18-3-0.28-4.53l11.91,0c0,4.24,0,8.48,0,12.71,0,8.32.15,16.64-.19,24.95-0.5,12.2-1.39,24.38-2.09,36.56-0.34,5.82-.73,11.64-0.9,17.46-0.27,9-.37,18-0.54,27.06,0,4-.18,8,0.14,11.9,0.48,5.95,1.72,11.83.67,17.86-0.95,5.46-1.81,11-2.27,16.48-1.4,16.68-3,33.35-2.13,50.15,0.49,9.07.42,18.17,0.6,27.26-1.23.4-2.22,0.55-2.65-1.18a9.28,9.28,0,0,0-1.68-3.29,19.81,19.81,0,0,0-2.7-2.46l-1.83,2.25-2.68-4.45c-0.11-2-.27-4-0.32-6-0.14-6-.47-11.93-0.28-17.89,0.16-5.31,1-10.6,1.35-15.91,0.38-6.1.52-12.22,0.76-18.33,1-.63,2-1.21,2.93-1.9s1.86-1.19,2.15-2c1.26-3.59,2.36-7.24,3.33-10.92a3,3,0,0,0-.81-2.46c-0.39-.36-1.53,0-2.29.17a8.57,8.57,0,0,0-1.8,1.07l-0.28-3.16c0-2.61.05-5.22,0-7.83-0.09-3.15-.29-6.29-0.45-9.43Z" transform="translate(-76.48 -21.48)" style="fill:#c5ced6"/><path d="M223.81,264.93c-1,4.15-1.95,8.31-3.05,12.43-0.9,3.36-2,6.66-3,10a22.79,22.79,0,0,0-.18,2.61c0.28,6.77.89,13.54,0.85,20.31-0.11,19-.49,38-0.76,57-0.07,5.35-.11,10.7-0.16,16.05h-3.33a2.27,2.27,0,0,0-.43-0.56q-9.74-6.51-19.51-13a4.72,4.72,0,0,0-1.36-.39q0.06-5.2.11-10.39,0-1.51,0-3l0-2.26,0.49-13,0-1.43-0.27-7.83-0.9-14.32-0.07-6.22a6.54,6.54,0,0,0,.3-1.4c0-8.16,3-15.58,5.63-23.09,1.2,0.77,2.47,1.45,3.59,2.33s1.83,0.54,2.7-.51C210.87,280.42,217.35,272.68,223.81,264.93Z" transform="translate(-76.48 -21.48)" style="fill:#cbbb37"/><path d="M411.2,143.6c0.17-9,.27-18,0.54-27.06,0.17-5.82.57-11.64,0.9-17.46,0.7-12.19,1.59-24.37,2.09-36.56,0.34-8.3.16-16.63,0.19-24.95,0-4.24,0-8.48,0-12.71h24.91c-0.74,11.29-1.52,22.57-2.2,33.86-0.36,6-.59,11.94-0.8,17.92-0.31,9.08-.53,18.17-0.84,27.25a15.27,15.27,0,0,1-.61,2.78,24,24,0,0,0-2.32,2.71c-6,9.43-11.87,18.9-17.83,28.33C413.94,139.71,412.54,141.64,411.2,143.6Z" transform="translate(-76.48 -21.48)" style="fill:#0b6d87"/><path d="M331.35,138.78a7.39,7.39,0,0,0,.47-1.75c0.32-19.5.67-39,.88-58.5,0.13-12.06.06-24.13,0-36.2,0-5.83-.24-11.66-0.37-17.49h11.5c0.11,20.55.3,41.1,0.3,61.65,0,14-.26,28-0.47,41.94-0.09,6.23-.35,12.46-0.53,18.69a4.43,4.43,0,0,0-.62,1.48c0,5,0,10,0,15L342,175.08q-0.26,5.72-.51,11.45-0.64,14.67-1.28,29.33a7,7,0,0,1-.95,2.34c-1.67,1.74-3.74,3.15-5.21,5s-2.83,2-4.63.81q0.67-23.43,1.34-46.85c0.29-9.72.7-19.44,0.94-29.16C331.8,144.95,331.48,141.86,331.35,138.78Zm7.06,5.95c-1.11,2.15-1.06,4,1.13,5.53Z" transform="translate(-76.48 -21.48)" style="fill:#c4cdd7"/><path d="M365.52,159.26c0.66-7.54,1.62-15.07,1.93-22.63,0.55-13.47.91-27,1-40.45,0.1-19.71-.11-39.43-0.22-59.15,0-4.07-.24-8.13-0.36-12.2h11.48q0.53,30.67,1.07,61.34A117.65,117.65,0,0,1,378.57,110a41.87,41.87,0,0,0-.28,6,13.44,13.44,0,0,0-.38,1.83c-0.47,6.93-1,13.86-1.34,20.8-0.28,5.1-.41,10.21-0.61,15.31l-0.05.49-0.25,9.12,0,1.86c0,2.56,0,5.12,0,7.67,0.05,11.72,1.4,23.46-.68,35.14l-7.59,8.5-1.69-.8-3.51,3.8c0.22-1,.37-2,0.66-2.94,0.72-2.39,1.5-4.76,2.25-7.13a33.24,33.24,0,0,1,1.15-4,10.55,10.55,0,0,0-.08-7.49,10.19,10.19,0,0,0-1.71-1.93c-0.13-3.09-.46-6.2-0.34-9.28C364.48,177.7,365,168.48,365.52,159.26Z" transform="translate(-76.48 -21.48)" style="fill:#c4cdd7"/><path d="M262.93,141.43c-0.27-4.54-.73-9.08-0.77-13.63-0.06-8.06,0-16.12.29-24.17,0.33-8.44,1.42-16.87,1.45-25.31,0.06-14-.46-28-0.71-41.94-0.07-3.84,0-7.67-.06-11.51l11.49-.13,0.15,0.16q0.07,14.75.14,29.49c0,5,.25,10.06,0,15.08-0.5,10.12-1.75,20.23-1.81,30.35-0.08,12.69,1,25.38,1.1,38.07,0.15,15.63.81,31.33-2.65,46.77-0.52,4.66-1.31,9.32-1.52,14-0.44,10.21-.59,20.43-0.85,30.65-2,.12-2.61-1-2.67-2.79-0.1-3.14-.32-6.27-0.6-9.4-0.24-2.78-1.49-5.82-.74-8.27,1-3.41-2.51-4.56-1.82-7.63l-3.84,2.25c0.93-4.85,2.31-9.67,2.67-14.57,0.57-7.63.44-15.32,0.64-23,0.12-4.46.3-8.92,0.46-13.38l1.88,1.43c0.31-3.86.62-7.49,0.84-11.12a2.87,2.87,0,0,0-.87-1.18C264.22,143.24,263.69,141.3,262.93,141.43Z" transform="translate(-76.48 -21.48)" style="fill:#c5cfd7"/><path d="M94.74,180.84c0.72-9.86,1.36-19.73,2.17-29.59,1.14-13.83,2.74-27.63,3.54-41.48,0.9-15.37,1.15-30.78,1.63-46.18,0.32-10.21.58-20.42,0.85-30.64,0-1.81,0-3.62.07-5.42l0.18-2.59,10.28-.09c-0.38,16.37-.71,32.73-1.16,49.1-0.38,13.73-.64,27.46-1.46,41.16-0.86,14.33-2.33,28.63-3.55,42.94-1,11.61-1.89,23.23-3,34.82-0.72,7.21-1.83,14.38-2.77,21.57L99.67,217a20.1,20.1,0,0,1-3-3.14,6.62,6.62,0,0,1-1.1-3.76c0.13-1.45,1.37-1.58,2.78-1.18,0.6,0.17,1.44-.56,2.79-1.15-3.25-1.26-2.93-3.46-2.73-5.32,0.26-2.43-2.54-4.26-1.12-6.8-2.72-1.54-1.55-4.4-2.44-6.61,1.33-.85,4.16-0.17,3.15-2.76-1.21-.38-2.79-0.48-2.95-1-0.25-.83.45-2,0.88-3.37Z" transform="translate(-76.48 -21.48)" style="fill:#c4cdd7"/><path d="M289.85,309l-0.13.95c0,0.79-.15,1.59-0.12,2.38,0.43,13.72.94,27.44,1.3,41.16,0.2,7.74.17,15.49,0.25,23.23L291,383.35l-24.87,0c-0.06-1.27-.19-2.53-0.16-3.8,0.1-3.67.43-7.34,0.37-11-0.14-9-.44-18-0.69-27.06-0.15-5.26-.35-10.51-0.53-15.77,1.63-2.12,3.38-4.16,4.88-6.36,6.48-9.53,12.88-19.13,19.35-28.67a10.74,10.74,0,0,1,1.89-1.72q-0.61,8.49-1.22,17c0,0.69-.05,1.39-0.07,2.08Z" transform="translate(-76.48 -21.48)" style="fill:#096d44"/><path d="M551.87,222.11c-1.72-13-.62-26.08-0.29-39.14,0.19-7.72-.28-15.46-0.18-23.19,0.11-8.52.55-17,.78-25.56a33.49,33.49,0,0,0-.4-4.21c-0.18-3.5-.58-7-0.48-10.5,0.32-11.79.9-23.57,1.24-35.36C553,69.83,551,55.71,548.22,41.69l0.2-2.44-1.21-14.32,11.69-.07c0.27,5,.51,10,0.81,15,0.1,1.69.36,3.37,0.55,5.05q0,31-.05,62.07a17.66,17.66,0,0,0-2.93.64c0.16,2.74-1.28,5.7,1,8.08-2,2.62-1.34,4.07,2,4.61q0,27.44,0,54.87,0,26.84,0,53.67l-7.18,2.54a20.93,20.93,0,0,0,0-3C552.74,226.33,552.28,224.22,551.87,222.11Z" transform="translate(-76.48 -21.48)" style="fill:#c4cdd6"/><path d="M130.79,163.57c0.59-10.21,1.32-20.4,1.72-30.62q0.82-21.08,1.22-42.18c0.39-21.58.6-43.16,0.88-64.75,0-.4,0-0.8,0-1.2l10.61,0c0,4.46-.07,8.93-0.13,13.39-0.13,8.75-.23,17.5-0.47,26.24-0.1,3.73-.51,7.45-0.79,11.17,0,4.64.08,9.27-.09,13.9-0.43,12.29-1.11,24.57-1.42,36.87-0.22,8.77-.11,17.51-0.83,26.3-1,12.25-.89,24.58-1.33,36.88-0.14,4-.51,7.91-0.77,11.87a1.78,1.78,0,0,1-.79-0.43c-1.57-3.6-1-7.48-.85-11.15,0.14-2.94.2-5.4-1.84-7.23,0.29-1,1-2.34.7-2.72-1.37-1.58-1-3.13-.73-4.91,0.31-2.23.95-5.05-.07-6.66-1.42-2.24-2.75-4.27-2.36-7.19l-0.94.2-0.2,3.34Z" transform="translate(-76.48 -21.48)" style="fill:#c4cdd7"/><path d="M167.66,24.86l10.49-.12,0.16,0.18c-0.5,4.67-1.37,9.34-1.41,14-0.06,6,.93,12,0.77,17.91-0.24,8.68-1.08,17.35-1.74,26-0.37,4.84-.28,9.83-1.52,14.46-2.82,10.6-3.06,21.29-2.19,32.06,1.21,14.89,2.13,29.78,1.33,44.73-0.14,2.7-.35,5.41-0.68,8.1-0.39,3.24-.94,6.46-1.42,9.69l-1.25,2.76c-2.81-1.54-5.52-3.14-8.71-1.35a0.35,0.35,0,0,0-.25-0.06,9.5,9.5,0,0,1,0-1.18q1-8.51,2.08-17a8,8,0,0,1,2.33.7,24.85,24.85,0,0,1,2.73,2.46l1.08-.52c0-3.63.07-7.26,0-10.88-0.06-2-.42-4-0.63-6-0.26-2.53,1.16-5.54-2.07-7.26a2.08,2.08,0,0,1-.16-1.27,7.13,7.13,0,0,0,.06-2.36c-0.69-1.79-.38-3,1-3.48,0.21-2.18.47-4,.53-5.74s-0.06-3.74-.16-5.61a1.57,1.57,0,0,0-.55-0.76c-0.86-.88-1.8-1.69-0.44-3a1.83,1.83,0,0,0-.48-1.6,40.5,40.5,0,0,0-4-1.87l-0.28.48-0.65-1.73,0.09-.6,0.17-1.38c1.27-7.83,2-15.72,3.31-23.56,1.67-9.89,1.42-20.11,2-30.18l0-1.93c-0.11-1.86-.29-3.72-0.32-5.58-0.11-6.63-.17-13.25-0.25-19.88Z" transform="translate(-76.48 -21.48)" style="fill:#c5ced6"/><path d="M360.18,383.38l-22.55,0-0.27-5.76,0.06-1.88a0.35,0.35,0,0,0-.08-0.44l0-1v-0.45l0.09-1.44,0-3.92,0.06-.92c0.15-6.54.38-13.07,0.43-19.61,0.09-12.68.08-25.36,0.12-38,0.34,0.77,1.15,1.69,1,2.28-1,3.17.82,4.22,2.89,4.7l1.32,3.28-2.09.26,0.17-2.58-0.89-.16a12.92,12.92,0,0,0-.15,3.35c0.07,0.36,1.43.74,2.11,0.62a4,4,0,0,0,2.5-1.28,15,15,0,0,0,1.75-4.35c0.07-.26-1.14-0.84-1.76-1.28h0c-0.42-.86-0.79-1.74-1.27-2.56s-1.78-1.44-.29-2.48a0.94,0.94,0,0,0,.2-0.8c-0.46-2.08-1-4.14-1.41-6.23-0.07-.39.37-0.88,0.79-1.77l2.55,2.49c-1.78,2-1.78,2,1.78,4.09,0.52,1.73.51,3.24,1.23,3.78a36.6,36.6,0,0,0,5.43,2.92c-0.17,2-.11,3.79-2,5.24-0.93.71-2.54,3.15,0.52,4.26a2.4,2.4,0,0,1,.64,1.42,23.78,23.78,0,0,1,.91,5.4c0.11,2.4-.66,3-2.54,3.24a17.44,17.44,0,0,1-2.91-.21,16.69,16.69,0,0,1,1.08,1.92,2.32,2.32,0,0,1,.27,1.57c-0.75.79-1.62,1.3-.52,2.52,0.63,0.69.83,1.76,1.45,2.47,1,1.18,2.19,2.21,3.34,3.35l1.82-.86c-0.13-.45-0.24-0.74-0.3-1-0.69-3.2.86-5.13,4.05-5.43a2.71,2.71,0,0,0,1.89-1.67c0.33-1.5.09-3.12,0.29-4.66a26.39,26.39,0,0,1,.91-3.51,12.48,12.48,0,0,1,.24,2.11c-0.5,9.47-1.08,18.94-1.56,28.41-0.37,7.31-.61,14.63-0.91,21.94l0.08,2.16Zm-3.92-37L356,346,354,347.11l0.87,1.41Z" transform="translate(-76.48 -21.48)" style="fill:#263874"/><path d="M265.08,325.76c0.18,5.26.38,10.51,0.53,15.77,0.26,9,.55,18,0.69,27.06,0.06,3.67-.27,7.34-0.37,11,0,1.26.1,2.53,0.16,3.8l-11.54,0c0-11.89,0-23.78,0-35.68a11.4,11.4,0,0,0-.57-2.49,24.77,24.77,0,0,0,.69-4.43c-0.2-9.18-.67-18.35-0.76-27.52a412.84,412.84,0,0,1,2.73-48.48,7.16,7.16,0,0,1,.42-1.34c0.91-.28,2.39-0.33,2.62-0.89,0.83-2,2.55-1.12,3.81-1.47a12,12,0,0,1,3.25-.06c0.72-1.53-2.18-3.63,1.21-3.86-0.29,5-.52,10-0.88,15-0.57,8-1.36,16.05-1.81,24.09-0.48,8.44-.74,16.89-1,25.33A18.59,18.59,0,0,0,265.08,325.76Z" transform="translate(-76.48 -21.48)" style="fill:#aab7b6"/><path d="M396.59,383.36c0-9.27,0-18.54.13-27.8,0.15-13.8.53-27.6,0.53-41.41,0-11.72-.38-23.44-0.58-35.16,0-1.52,0-3,0-4.55l1.89-1.37,4,4.56a4.31,4.31,0,0,0,2.08,1.17c0.53,0.23,1.43.75,1.39,1-0.37,2.4,1.72,2.72,3,3.73V284a2.47,2.47,0,0,0-.36.85c0,4.61-.05,9.22,0,13.83,0,1.83.29,3.66,0.44,5.49q0,19.44-.05,38.89a3,3,0,0,0-.48,1.05c0,2.11.14,4.22,0.05,6.32a74.23,74.23,0,0,1-.81,11.17c-0.43,2.19,0,4.09.09,6.13,0.1,5.18-.4,10.38-0.66,15.57Z" transform="translate(-76.48 -21.48)" style="fill:#c5ced6"/><path d="M448.93,85c0-1.4-.2-2.8-0.13-4.19Q450,55,451.2,29.15c0.07-1.44.09-2.87,0.14-4.31l25.44,0-0.9,22.8c-2.6,3.52-5.27,7-7.78,10.56-5.45,7.77-10.8,15.62-16.24,23.4A40.63,40.63,0,0,1,448.93,85Z" transform="translate(-76.48 -21.48)" style="fill:#cf3931"/><path d="M167.17,69l0,1.93c-1.89-.83-1.75,1.56-2.92,1.93a3.11,3.11,0,0,0,.3,1.8c1.08,1.55,1.4,2.72-1,3.21a1.81,1.81,0,0,0-.59.65c2.48,1.69,2.45,2.06-.47,5.42-2.36-1.72.07-2.3,1.18-3.45l-2.59-.59-1.21-2.5-1.4,2.27-1.1-.18c2.22-2,.21-2.63-0.58-3.48A30.68,30.68,0,0,0,153,72.72a5.68,5.68,0,0,0-2.27-1.28,25.57,25.57,0,0,0-4.09-.06l-2.83,4.3c0.27-3.72.68-7.44,0.79-11.17,0.24-8.74.34-17.49,0.47-26.24,0.07-4.46.09-8.93,0.13-13.39l22.48,0L166.6,43.53l-0.68-1.7-0.62-.24L164,44.43l-2.36-.74c1,2,1.47,3.85,2.57,5.17,2.29,2.75.54,6.1,1.7,9,0.39,1-.23,2.36-0.42,3.83-1.79.42-1.36,2.3-1,3.74S164.69,69,167.17,69Z" transform="translate(-76.48 -21.48)" style="fill:#ad416d"/><path d="M147.92,383.36l-27.26,0a8.74,8.74,0,0,1-.49-1.78c-0.37-6.11-.69-12.21-1-18.32l0-.9,0.1,0c0.94-1.56,1.89-3.11,2.82-4.68,3.59-6.1,7.15-12.21,10.77-18.29,0.84-1.41,2-1.67,3.67-1.06a51.09,51.09,0,0,0,6.66,1.51c0.34,1.62.75,3.23,1,4.86,0.81,5.07,1.56,10.15,2.34,15.22l0.28,3.89L147,365.7l0.91,13Z" transform="translate(-76.48 -21.48)" style="fill:#913459"/><path d="M217.48,383.32c0.05-5.35.09-10.7,0.16-16.05,0.26-19,.64-38,0.76-57,0-6.77-.57-13.54-0.85-20.31a22.79,22.79,0,0,1,.18-2.61c0.67-.15,1.65-0.07,2-0.49,0.92-1.22,1.77-2.1,3.46-1.47a1.42,1.42,0,0,0,1-.8c0.93-3,3.2-2.34,5.35-2,0,10.29,0,20.59,0,30.88q0.07,19.41.23,38.81c0,7.19.13,14.37,0.2,21.55l-2-4.37a3.92,3.92,0,0,1-2.42-5.08c1-2.43.55-4.14-1.44-5.79a4.87,4.87,0,0,1-.76,1.43,13.42,13.42,0,0,1-2,1.27,10.29,10.29,0,0,1-.87-1.89,30.65,30.65,0,0,1-.45-3.06l-1,.06c0.11,7.85-1.31,15.68-.33,23.89,3.68-2.71,6.43-.49,9.2.67l1.63-1.88,0.55,4.28Z" transform="translate(-76.48 -21.48)" style="fill:#a7b4b2"/><path d="M434.49,383.36q0.27-18.74.54-37.48c0.06-4.14.06-8.28,0.09-12.42a17.65,17.65,0,0,0,.37-2.52c0-5.1.23-10.22-.07-15.3-0.15-2.54,1-3.62,2.93-4.32a33.89,33.89,0,0,1,4.34-1.06,3.35,3.35,0,0,1,.61.28c3,0.41,3.83,2.59,4.14,5.17-0.08,9.81-.11,19.61-0.26,29.42-0.16,10.36-.43,20.73-0.66,31.09-0.05,2.38-.18,4.77-0.28,7.15H434.49Z" transform="translate(-76.48 -21.48)" style="fill:#c4cdd6"/><path d="M209,24.85c-1,4.82-1.72,9.71-3,14.45-1.55,5.61-1.13,11.22-1,16.87C205.4,69.1,205.75,82,206.13,95c0,4.23-.24,8.47,0,12.69a4.74,4.74,0,0,1-2.59,4.75l-7.22-2.5-1.19-2c-0.08-16-1.56-32,1-48,1.18-1,2.78-1.8,3.39-3.08,0.41-.86-0.38-2.52-1-3.58a9.25,9.25,0,0,0-2.44-2c0.29-2.36.54-4.72,0.89-7.07,1-6.44,1.95-12.87,2.92-19.3l0.12-.15Z" transform="translate(-76.48 -21.48)" style="fill:#c5ced6"/><path d="M550.81,279.7l0-2.39a18.89,18.89,0,0,0,.4-2.75c0-9.35,0-18.69,0-28,0-.72.28-1.88,0.72-2a3,3,0,0,1,2.47.3c3,2.34,3.85,2.92,5.87,3.25q0,37.23,0,74.46a3.49,3.49,0,0,0-.87,1.16c-0.46,2.53-.82,5.08-1.21,7.65l-2,.42c-2.21,4.13-.78,8.7-3.25,12.41a2,2,0,0,0,.06,1.11c0.41,3-.66,5.91-0.92,8.88a2.92,2.92,0,0,1-.9.35c0-2.68,0-5.18,0-7.68,0-8.07,0-16.15,0-24.22a15.62,15.62,0,0,0-.41-2.51l0-5.75c1.41-.82,1.37-1.63,0-2.45q0-.94,0-1.87c2.29-1,1.37-2,0-2.93v-0.91a9,9,0,0,0,1.09-2.78c0.08-2.65-.16-5.32-0.18-8,0-4.82,0-9.64-.08-14.47A3.1,3.1,0,0,0,550.81,279.7Z" transform="translate(-76.48 -21.48)" style="fill:#c5cfd7"/><path d="M184,383.34H161c-0.79-6.8-1.6-13.6-2.36-20.4-0.28-2.45-.44-4.92-0.66-7.38l-1.3-6.91a10.18,10.18,0,0,1,2.43.48c1.21,0.56,2.24,1.64,3.49,2a45.26,45.26,0,0,1,14,6.75c1.66,1.14,3.15,3.12,5.67,2.44l0.23,0.1Z" transform="translate(-76.48 -21.48)" style="fill:#0b6d87"/><path d="M253.92,345.18a11.4,11.4,0,0,1,.57,2.49c0,11.89,0,23.78,0,35.68h-23.1c1.64-2.71,3.3-5.41,4.91-8.14Q245.15,360.2,253.92,345.18Z" transform="translate(-76.48 -21.48)" style="fill:#cbbb37"/><path d="M103.19,24.94L103,27.53c-3,5.07-5.88,10.16-8.9,15.19-1.6,2.66-3.41,5.19-5.05,7.82-1.85,2.95-3.59,6-5.47,8.9a7.12,7.12,0,0,1-1.69,1.39c0-11.89,0-23.78,0-35.88h21.29Z" transform="translate(-76.48 -21.48)" style="fill:#2f438e"/><path d="M550.78,320.05a15.62,15.62,0,0,1,.41,2.51c0,8.07,0,16.15,0,24.22,0,2.5,0,5,0,7.68a2.92,2.92,0,0,0,.9-0.35c0.27-3,1.34-5.84.92-8.88a2,2,0,0,1-.06-1.11c2.48-3.7,1-8.28,3.25-12.41l2-.42c0.4-2.58.76-5.12,1.21-7.65a3.49,3.49,0,0,1,.87-1.16q0,25.62,0,51.24c-1-1.12-2.36-1-3.77-1.23a32.39,32.39,0,0,1-5.92-1.93l-0.75,2.26c-0.15-2.45-.47-4.9-0.42-7.34,0.3-14.54.69-29.07,1.07-43.6A11.91,11.91,0,0,1,550.78,320.05Z" transform="translate(-76.48 -21.48)" style="fill:#a5b4b1"/><path d="M510.95,53.14l0-22.53a7.71,7.71,0,0,1,5.64,1.33c1.42,1.1,3,.73,4.52-0.93-0.83-1.07-1.47-2.5-2.57-3.18a2.79,2.79,0,0,1-1.43-2.95l6.47,0.07v0.71c-0.08,2-.23,4-0.23,6,0,7.66,0,15.32.06,23L516.92,53l-2.43-3-2.23,3.43Z" transform="translate(-76.48 -21.48)" style="fill:#c5cfd7"/><path d="M158,355.56c0.22,2.46.38,4.93,0.66,7.38,0.76,6.8,1.57,13.6,2.36,20.4l-3.85,0a11.41,11.41,0,0,0-2.72-6.69c-0.36-.4-1.07-0.79-1.06-1.18,0.06-2.17-1.7-2.75-3.06-3.61s-2.28-.39-2.33,1.31-0.07,3.67-.1,5.51l-0.91-13-0.18-1.92-0.28-3.89c0.72-4.51,5.09-3.59,7.77-5.18a3,3,0,0,1,1.05.36C156.23,355.25,157.12,355.4,158,355.56Z" transform="translate(-76.48 -21.48)" style="fill:#a7b4b2"/><path d="M337.42,375.71l-0.06,1.88c-1.82.19-1.12,1.53-1.08,2.49s0.26,2.17.39,3.26l-11.09,0,0.61-8.63,1.49-3,1,2.59,1.15-.7V369c0.55-1.29,2.35-2.57-.53-3.88a1,1,0,0,1-.3-0.85c0.53-3.31-2.19-6-1.64-8.7L330.1,351a60.56,60.56,0,0,1,3.35,5.51,24.68,24.68,0,0,1,1.37,4.7,15.8,15.8,0,0,0,.49,2.68,35.74,35.74,0,0,0,2.17,3.64l-0.06.92c-1.43,1.32-1,2.62,0,3.92l-0.09,1.44a0.36,0.36,0,0,0-.12.13,1.86,1.86,0,0,0,.13.32l0,1a0.39,0.39,0,0,0-.11.15A2,2,0,0,0,337.42,375.71Z" transform="translate(-76.48 -21.48)" style="fill:#c5cfd7"/><path d="M193,359q-0.06,5.2-.11,10.39l1.15,14-4.22,0c-0.41-2.62-2-4.79-2.46-7.52-0.72-3.86-2.51-7.53-2.37-11.63,0.06-1.75-.27-3.36-2.38-3.79l-0.23-.1-0.39-1.84-0.71-16.8h0.28c0,2.32.14,4.64,0.09,7a3.56,3.56,0,0,0,1.94,3.51,8.91,8.91,0,0,1,4.08,4.06c0.71,1.59,2,3.63,4.54,3.21Z" transform="translate(-76.48 -21.48)" style="fill:#a19b98"/><path d="M119.15,363.25c0.34,6.11.66,12.21,1,18.32a8.74,8.74,0,0,0,.49,1.78H109.57l-2.92-9.05-0.51-9c1.4-.62,2.32-0.64,2.61,1.31a3.23,3.23,0,0,0,3.23,3,17.38,17.38,0,0,1,3.76.47c2.58,0.72,2.93.5,3-2.14C118.8,366.36,119,364.8,119.15,363.25Z" transform="translate(-76.48 -21.48)" style="fill:#a4a8a6"/><path d="M523.57,25.66V24.95l1.22-.17h22.09a0.41,0.41,0,0,0,.34.16l1.21,14.32-0.35,1.3-2.14-.36h0l-0.5-.48h0l-1.92-1h0c-1.58-2.17-3.44-3.93-6.24-4.33h0l-0.49-.48h0l-0.49-.48h0l-1-1h0l-1.43-1h0l-3.38-2.87h0l-1.45-1h0l-1-.5h0L527,26.73Z" transform="translate(-76.48 -21.48)" style="fill:#096d44"/><path d="M88.87,280.13c-1.91,8.09-3.8,16.19-5.76,24.27a14.68,14.68,0,0,1-1.25,2.69q0-17.33,0-34.65L84.74,277a5,5,0,0,0,.74-1.7c-0.23-2.59-.06-5.37-1-7.7a20,20,0,0,1-1.8-9.56l0.5-1.86c1.95,3.07.49,8,5.38,9.74L87,268.19l0.93,7.15,2-1.42Z" transform="translate(-76.48 -21.48)" style="fill:#a7b4b2"/><path d="M560.3,248c-2-.33-2.91-0.92-5.87-3.25a3,3,0,0,0-2.47-.3c-0.44.17-.72,1.33-0.72,2,0,9.35,0,18.69,0,28a18.89,18.89,0,0,1-.4,2.75c-0.15-1.72-.45-3.44-0.44-5.17,0.09-9.95.14-19.9,0.43-29.85,0.12-4.12.89-8.21,1.16-12.33,0.17-2.6,0-5.23-.06-7.85,0.41,2.11.87,4.21,1.21,6.33a20.93,20.93,0,0,1,0,3l7.18-2.54Q560.29,238.45,560.3,248Z" transform="translate(-76.48 -21.48)" style="fill:#a5b4b1"/><path d="M194,383.35l-1.15-14a4.69,4.69,0,0,1,1.36.39q9.78,6.47,19.51,13a2.27,2.27,0,0,1,.43.56Z" transform="translate(-76.48 -21.48)" style="fill:#cf3a31"/><path d="M360.55,382.83l-0.08-2.16,3.4-.88,0.45,0.66L365,377.8l-3.32-.27c2-.06,2.65-0.94,2.91-3,0.55-4.26.37-9.05,5.44-11.2a10.16,10.16,0,0,0,.33-1.09,6.18,6.18,0,0,1,1.24-.92l0.6,22-11.57.05Z" transform="translate(-76.48 -21.48)" style="fill:#c5ced6"/><path d="M82.69,258.09a20,20,0,0,0,1.8,9.56c0.93,2.33.76,5.11,1,7.7a5,5,0,0,1-.74,1.7l-2.83-4.61c-0.06-4.51-.16-9-0.16-13.54q0-97.72,0-195.45c0-.72.06-1.43,0.09-2.15a24.14,24.14,0,0,1,.37,3q0,95.42,0,190.84A18.93,18.93,0,0,0,82.69,258.09Z" transform="translate(-76.48 -21.48)" style="fill:#90768b"/><path d="M549.81,372.82l0.75-2.26a32.39,32.39,0,0,0,5.92,1.93c1.4,0.19,2.73.11,3.77,1.23,0,3.08,0,6.17,0,9.67h-9l-1-8.14-0.29-1.45Z" transform="translate(-76.48 -21.48)" style="fill:#c4cdd6"/><path d="M510,369l0.47-16.77h0.39c0,2.78-.12,5.57,0,8.35a3.34,3.34,0,0,0,1.27,2.5c4,1.86,5.24,5.44,5.26,9.22,0,3.15,1.38,5.53,2.46,8.52l2.36-2.7,0.16,5.28-6.3-.05c-0.45-1.56-1.61-3.37-1.17-4.6a4.4,4.4,0,0,0-.44-3.9,24.39,24.39,0,0,0-1.83-3.84A11.19,11.19,0,0,0,510,369Z" transform="translate(-76.48 -21.48)" style="fill:#a7b4b2"/><path d="M291,383.35l0.18-6.65c1-.71,2.84-0.5,2.6-2.61,0-.28,1.41-1,2.19-1,2-.06,4.09.15,6.14,0.26l0.07,10.05H291Z" transform="translate(-76.48 -21.48)" style="fill:#c5cfd7"/><path d="M147.9,378.7c0-1.84.05-3.67,0.1-5.51s0.9-2.21,2.33-1.31,3.11,1.44,3.06,3.61c0,0.38.7,0.78,1.06,1.18a11.41,11.41,0,0,1,2.72,6.69h-9.25Q147.91,381,147.9,378.7Z" transform="translate(-76.48 -21.48)" style="fill:#c5cfd7"/><path d="M81.89,368.06c0.78,0.72,1.91,1.29,2.29,2.18,1.7,4,3.2,8.07,4.74,12.13a3.35,3.35,0,0,1,.07,1h-7.1C81.89,378.17,81.89,373.12,81.89,368.06Z" transform="translate(-76.48 -21.48)" style="fill:#cf3a31"/><path d="M510,369a11.19,11.19,0,0,1,2.65,2,24.39,24.39,0,0,1,1.83,3.84,4.4,4.4,0,0,1,.44,3.9c-0.45,1.23.72,3,1.17,4.6h-6.7Z" transform="translate(-76.48 -21.48)" style="fill:#a19b98"/><path d="M182.56,360.39c2.11,0.43,2.44,2,2.38,3.79-0.14,4.1,1.64,7.78,2.37,11.63,0.51,2.72,2.06,4.9,2.46,7.52H184Z" transform="translate(-76.48 -21.48)" style="fill:#a5b4b1"/><path d="M517.09,24.88a2.79,2.79,0,0,0,1.43,2.95c1.1,0.68,1.75,2.11,2.57,3.18-1.52,1.66-3.1,2-4.52.93a7.71,7.71,0,0,0-5.64-1.33l-0.13-5.69Z" transform="translate(-76.48 -21.48)" style="fill:#a7b4b2"/><path d="M407.25,383.33c0.26-5.19.76-10.39,0.66-15.57,0-2-.52-3.94-0.09-6.13a74.23,74.23,0,0,0,.81-11.17c0.09-2.1-.07-4.22-0.05-6.32a3,3,0,0,1,.48-1.05q0,18.33,0,36.66c0,1.2.07,2.39,0.1,3.59h-1.92Z" transform="translate(-76.48 -21.48)" style="fill:#a5b4b1"/><path d="M560.26,120.32c-3.33-.54-4-2-2-4.61-2.27-2.39-.83-5.35-1-8.08a17.66,17.66,0,0,1,2.93-.64Q560.24,113.65,560.26,120.32Z" transform="translate(-76.48 -21.48)" style="fill:#a7b4b2"/><path d="M560.27,44.92c-0.19-1.68-.45-3.36-0.55-5.05-0.3-5-.55-10-0.81-15,1.49-.3,1.43.64,1.43,1.68C560.29,32.66,560.29,38.79,560.27,44.92Z" transform="translate(-76.48 -21.48)" style="fill:#63365c"/><path d="M274.64,24.74a2.62,2.62,0,0,1,.86-0.35q11,0,22,0a2.72,2.72,0,0,1,.87.33l-0.13.15-23.41,0Z" transform="translate(-76.48 -21.48)" style="fill:#c4cdd7"/><path d="M546.87,24.77H524.78a1.53,1.53,0,0,1,.59-0.35q10.45,0,20.9,0A1.55,1.55,0,0,1,546.87,24.77Z" transform="translate(-76.48 -21.48)" style="fill:#c5cfd7"/><path d="M178.15,24.73a18.85,18.85,0,0,1,2.54-.35q8.35,0,16.7,0a19.76,19.76,0,0,1,2.55.34l-0.12.15-21.5,0Z" transform="translate(-76.48 -21.48)" style="fill:#c5ced6"/><path d="M106.65,374.3l2.92,9.05-1.43,0c-0.58-2.58-1.17-5.15-1.71-7.73A3.73,3.73,0,0,1,106.65,374.3Z" transform="translate(-76.48 -21.48)" style="fill:#7a565f"/><path d="M336.68,383.35c-0.14-1.09-.34-2.17-0.39-3.26s-0.74-2.3,1.08-2.49l0.27,5.76h-1Z" transform="translate(-76.48 -21.48)" style="fill:#a6b2b1"/><path d="M360.55,382.83l0.09,0.58-0.23,0-0.23-.06Z" transform="translate(-76.48 -21.48)" style="fill:#a6b2b1"/><path d="M379.79,24.72a0.58,0.58,0,0,1-.43.09Z" transform="translate(-76.48 -21.48)" style="fill:#c5ced6"/><path d="M523.57,25.66L527,26.73l1.12,0.52h0l1,0.5h0l1.45,1h0l3.38,2.87h0l1.43,1h0l1,1h0l0.49,0.48h0l0.49,0.48h0l6.24,4.33h0l1.92,1h0l0.5,0.48h0l2.29,1.51c2.8,14,4.74,28.14,4.33,42.47-0.34,11.79-.92,23.57-1.24,35.36-0.1,3.49.31,7,.48,10.5a8.75,8.75,0,0,1-2.67-.42c-2.6-1.32-5.07-2.89-7.67-4.21-2.11-1.07-4.42-1.76-6.5-2.89-3.75-2-7.38-4.29-11.06-6.45,0-5.26-.2-10.55.2-15.79a178.94,178.94,0,0,0-.29-33.65l-0.4-12c0-7.66-.06-15.32-0.06-23C523.34,29.63,523.49,27.65,523.57,25.66Z" transform="translate(-76.48 -21.48)" style="fill:#63365c"/><path d="M510.15,285l-0.06-1q0-2.89-.06-5.77c-0.21-7.83-.48-15.66-0.62-23.5-0.09-5.12-.16-10.26.08-15.37,0.31-6.73.94-13.45,1.43-20.17l0.13-1.92,0.12-1c0.36-1.43,1.32-3,1-4.26-0.93-3.07,1.2-5.1,2-7.57a1.9,1.9,0,0,1,1.41-.6c1.28-.08,2.56,0,3.9,0v2.46l-2.72.57c1.56,1,2.57,1.56,3.51,2.23s1.85,1.47,2.74,2.18c-0.51.92-1.32,1.72-1.17,2.24,0.64,2.23.92,4.27-.51,6.35a2.28,2.28,0,0,0,.52,2c2.43,2.41,2.13,6.91-.8,8.48-1.63.87-2.59,1.76-2.46,3.82,0.14,2.3-.27,4.62-0.23,6.93,0,0.71.71,1.41,1.06,2.13,0.27,0.54.48,1.11,0.69,1.6l2.39-.22c0.13,8.59.24,17.18,0.4,25.77a8.88,8.88,0,0,0,.56,2.09l0,0.82V274l-0.77,1.78h-3.35l3.73,2.94a13.27,13.27,0,0,0-2.69,1.3,3.25,3.25,0,0,0-.39,1.6l1.79-.43c1.31,1.7,1.88,7.47.63,8l-0.94-1.21c-2.08.29-2.54,1.5-2.29,3.23a4,4,0,0,1-.26,1.63c-0.47,1.58-.14,2.75,1.66,3s2.06,1.16,2,2.77c0,2.53.26,5.05,0.41,7.58a51,51,0,0,0,3.75,16.31c1.55,4,2.33,8.24,1.12,12.57l-9.9-1.3c-0.76.09-1.46,1.8-2.59-.18,0.9-9.44-2.29-18.16-4.45-27.12-1.13-4.68-.58-9.77-0.79-14.67Z" transform="translate(-76.48 -21.48)" style="fill:#c4cdd6"/><path d="M523.79,66.62a178.94,178.94,0,0,1,.29,33.65c-0.4,5.24-.15,10.52-0.2,15.79-0.09,2.12-.26,4.25-0.25,6.37,0.07,14,.09,27.94.33,41.9,0.11,6.14.73,12.27,1.12,18.4,0.09,1.43.16,2.87,0.24,4.3l0,7.24h0l-1.71,1.37-5.92-2.55,0,1.09a16.31,16.31,0,0,1-2.54,1,11.16,11.16,0,0,1-2.38,0q0-.7,0-1.4l0-2c-0.25-6.21-.72-12.42-0.7-18.63,0-10.51.35-21,.56-31.53,0.06-2.94.13-5.87,0.2-8.81,0.35-3.47.88-6.93,1-10.41,0.39-9.73.62-19.47,0.92-29.2,0.16-5.42.48-10.83,0.4-16.24a12,12,0,0,0-1.61-5.91c-2.48-4-2.93-8.19-2.62-12.65,1.79,0.1,3.88-.62,4.79,1.84a2.44,2.44,0,0,0,.81.45c1.3,0.93,2.63,1.83,3.88,2.84S522.65,65.6,523.79,66.62Z" transform="translate(-76.48 -21.48)" style="fill:#c5cfd7"/><path d="M522.28,378.09l-2.36,2.7c-1.08-3-2.45-5.37-2.46-8.52,0-3.78-1.26-7.36-5.26-9.22a3.34,3.34,0,0,1-1.27-2.5c-0.15-2.77,0-5.56,0-8.35,0.19-3.43,2.69-2.17,3.82-2.15,1.31-1.14,2.15-2.49,3.06-2.55a55.71,55.71,0,0,1,7.41.4l0,1.38-0.41,2.42-0.12,1.89-0.81,5.79-0.1,1.9-0.38,1.95-0.08,1.42-0.34,2,0,0.48c-1.23,1.06-1.08,2.18-.18,3.35l0,1.4-0.25,1.49Z" transform="translate(-76.48 -21.48)" style="fill:#c5cfd7"/><path d="M512.69,195.23a11.16,11.16,0,0,0,2.38,0,16.31,16.31,0,0,0,2.54-1l0-1.09,5.92,2.55,1.71-1.37c-0.16,2.68-.35,5.36-0.47,8-0.41,9.54-.71,19.08-1.2,28.62-0.24,4.59-.81,9.16-1.23,13.74l-2.39.22c-0.21-.49-0.42-1.06-0.69-1.6-0.35-.72-1.05-1.41-1.06-2.13,0-2.31.37-4.64,0.23-6.93-0.13-2.06.83-2.95,2.46-3.82,2.94-1.57,3.23-6.07.8-8.48a2.28,2.28,0,0,1-.52-2c1.43-2.08,1.15-4.13.51-6.35-0.15-.52.66-1.32,1.17-2.24-0.88-.71-1.78-1.49-2.74-2.18s-1.95-1.24-3.51-2.23l2.72-.57v-2.46c-1.34,0-2.62-.06-3.9,0a1.9,1.9,0,0,0-1.41.6c-0.75,2.47-2.88,4.5-2,7.57,0.37,1.21-.6,2.83-1,4.26,0.05-2,0-4,.17-5.93,0.3-4.69.66-9.38,1-14.06A5.08,5.08,0,0,1,512.69,195.23Z" transform="translate(-76.48 -21.48)" style="fill:#a5b4b1"/><path d="M515.24,333.5c1.13,2,1.83.27,2.59,0.18l9.9,1.3-2,8.09-1.14-1.28c-1.7.57-3.31,1.65-4.78,1.48-3.44-.38-6.18.39-8.29,3.16a4.31,4.31,0,0,1,0-1.4C512.7,341.18,514,337.35,515.24,333.5Z" transform="translate(-76.48 -21.48)" style="fill:#a19b98"/><path d="M511.52,346.44c2.11-2.77,4.84-3.54,8.29-3.16,1.47,0.16,3.08-.92,4.78-1.48l1.14,1.28-0.54,4.83a55.71,55.71,0,0,0-7.41-.4c-0.92.06-1.75,1.4-3.06,2.55-1.14,0-3.63-1.28-3.82,2.15H510.5Z" transform="translate(-76.48 -21.48)" style="fill:#a5b4b1"/><path d="M522.87,306.1c-0.15-2.53-.44-5.06-0.41-7.58,0-1.61-.31-2.54-2-2.77s-2.13-1.4-1.66-3a4,4,0,0,0,.26-1.63c-0.25-1.73.2-2.93,2.29-3.23l0.94,1.21c1.25-.49.68-6.26-0.63-8l-1.79.43a3.25,3.25,0,0,1,.39-1.6,13.27,13.27,0,0,1,2.69-1.3l-3.73-2.94h3.35L523.3,274c0.14,4.76.42,9.51,0.39,14.27,0,5.26-.34,10.52-0.54,15.77C523.12,304.71,523,305.4,522.87,306.1Z" transform="translate(-76.48 -21.48)" style="fill:#a5b4b1"/><path d="M550.81,279.7a3.1,3.1,0,0,1,.83,1.22c0.07,4.82,0,9.64.08,14.47,0,2.66.26,5.32,0.18,8a9,9,0,0,1-1.09,2.78q0-7.39,0-14.78Q550.8,285.53,550.81,279.7Z" transform="translate(-76.48 -21.48)" style="fill:#a5b4b1"/><path d="M523.8,359.39l0.81-5.79Z" transform="translate(-76.48 -21.48)" style="fill:#a5b4b1"/><path d="M525.28,194.27l0-7.24Z" transform="translate(-76.48 -21.48)" style="fill:#a5b4b1"/><path d="M550.81,307.06c1.37,1,2.29,2,0,2.93Q550.81,308.52,550.81,307.06Z" transform="translate(-76.48 -21.48)" style="fill:#a5b4b1"/><path d="M522.71,370.44c-0.9-1.17-1.05-2.3.18-3.35Z" transform="translate(-76.48 -21.48)" style="fill:#a7b4b2"/><path d="M550.81,311.86c1.37,0.82,1.41,1.63,0,2.45v-2.45Z" transform="translate(-76.48 -21.48)" style="fill:#a5b4b1"/><path d="M524.74,351.71l0.41-2.42Z" transform="translate(-76.48 -21.48)" style="fill:#a5b4b1"/><path d="M523.33,363.23l0.38-1.95Z" transform="translate(-76.48 -21.48)" style="fill:#a5b4b1"/><path d="M522.91,366.6l0.34-2Z" transform="translate(-76.48 -21.48)" style="fill:#a5b4b1"/><path d="M522.44,373.33l0.25-1.49Z" transform="translate(-76.48 -21.48)" style="fill:#a7b4b2"/><path d="M549.94,373.81l0.29,1.45Z" transform="translate(-76.48 -21.48)" style="fill:#a5b4b1"/><path d="M523.3,273.37l0-.82Z" transform="translate(-76.48 -21.48)" style="fill:#a5b4b1"/><path d="M202.67,218.29l0,1.89c-0.76.75-1.54,1.48-2.27,2.25-0.57.61-1,1.77-1.61,1.83-2.48.25-5,.19-7.5,0.24a17.63,17.63,0,0,1-.07-2.62c0.78-6.56,1.8-13.09,2.36-19.66,1-11.5,1.7-23,2.51-34.54,0.43-6.2,1.12-12.4,1.14-18.59,0-8.44-.5-16.88-0.79-25.32,0.58-1.78-1.44-5.28,3-4.52,0.13,0,.29-0.41.49-0.47a4.55,4.55,0,0,1,2-.44c1.74,0.4,3.43,1,5.14,1.57,0.28,4.92.65,9.84,0.8,14.77a80.62,80.62,0,0,1-.33,8.8c-0.64,7.93-1.49,15.84-2,23.77-0.31,4.6.07,9.25-.29,13.85-0.55,7.06-1.62,14.09-2.16,21.15-0.4,5.16-.3,10.36-0.42,15.54v0.5Z" transform="translate(-76.48 -21.48)" style="fill:#c5ced6"/><path d="M198.16,286.4c-2.66,7.5-5.66,14.92-5.63,23.09a6.53,6.53,0,0,1-.3,1.4c-1,2.61-2.57,4.44-5.64,4.38a1.6,1.6,0,0,0-.87.28c-2,1.33-3.9,2.69-5.85,4a13.83,13.83,0,0,1-.18-1.64c0-6.69,1.7-13,4.06-19.22s4.43-12.27,4.71-18.89a9.76,9.76,0,0,0,.73-2.23c0.55-7.15,1.17-14.31,1.49-21.47,0.34-7.65.37-15.31,0.54-23,1.91-.45,2.86.59,3.78,2.31l1.11-3.84a8.6,8.6,0,0,1,1.52,2.75,1.89,1.89,0,0,0,1.19,1.07,2.12,2.12,0,0,0,1.31-1,2.53,2.53,0,0,0,0-1.23h2.36l0,1.84a0.52,0.52,0,0,0-.14.15,2.3,2.3,0,0,0,.21.32c-0.13,6.38-.07,12.78-0.44,19.15-0.39,6.76-1.08,13.52-1.87,20.25C200,278,199,281,198.4,284.07A22.62,22.62,0,0,0,198.16,286.4Z" transform="translate(-76.48 -21.48)" style="fill:#c6ced7"/><path d="M202.53,233.24h-2.36a2.53,2.53,0,0,1,0,1.23,2.12,2.12,0,0,1-1.31,1,1.89,1.89,0,0,1-1.19-1.07,8.6,8.6,0,0,0-1.52-2.75L195,235.47c-0.91-1.72-1.87-2.76-3.78-2.31l0-8.65c2.5-.05,5,0,7.5-0.24,0.59-.06,1-1.23,1.61-1.83,0.73-.78,1.51-1.5,2.27-2.25Z" transform="translate(-76.48 -21.48)" style="fill:#a7b3b2"/><path d="M207.09,119.9c-1.71-.54-3.4-1.17-5.14-1.57a4.55,4.55,0,0,0-2,.44c-0.2.06-.36,0.5-0.49,0.47-4.44-.77-2.42,2.74-3,4.52l-1.29-15.91,1.19,2,7.22,2.5a4.74,4.74,0,0,0,2.59-4.75c-0.24-4.22,0-8.46,0-12.69,0.13,3.25.24,6.5,0.41,9.75,0.24,4.53.53,9.06,0.77,13.59A8.51,8.51,0,0,1,207.09,119.9Z" transform="translate(-76.48 -21.48)" style="fill:#a7b3b2"/><path d="M229,132.83c-0.05,2.7.62,5,3.24,6.38a3.45,3.45,0,0,1,1.2,1.45c1.24,2.32.44,3.66-2.14,3.69l-1.67,0Z" transform="translate(-76.48 -21.48)" style="fill:#a7b3b2"/><path d="M202.67,218.29v0Z" transform="translate(-76.48 -21.48)" style="fill:#a7b3b2"/><path d="M202.64,235.54a2.3,2.3,0,0,1-.21-0.32,0.52,0.52,0,0,1,.14-0.15Z" transform="translate(-76.48 -21.48)" style="fill:#a7b3b2"/><path d="M510.15,285L510,291.71Z" transform="translate(-76.48 -21.48)" style="fill:#a5b4b1"/><path d="M510,278.27q0,2.89.06,5.77Q510.06,281.16,510,278.27Z" transform="translate(-76.48 -21.48)" style="fill:#a5b4b1"/><path d="M512.73,191.83l0,2Z" transform="translate(-76.48 -21.48)" style="fill:#a5b4b1"/><path d="M511,217.31l-0.13,1.92Z" transform="translate(-76.48 -21.48)" style="fill:#a5b4b1"/><path d="M103.22,327.52c1.27-6.47,2.34-13,3.84-19.41,4.53-19.44,9.23-38.84,13.85-58.26,0.42-1.77.75-3.56,1.13-5.34,1.08-5.29,2.47-10.53,3.19-15.87,1.66-12.15,3-24.34,4.46-36.52,0.07-.55,0-1.11,0-1.67l2.3-.73c0.17,0.57.65,1.28,0.46,1.68-0.77,1.66,0,2.53.81,2.87,0.33,3.06.56,5.71,1,8.32a1.75,1.75,0,0,0,1.51.75c3.45-1.11,3.17,1.13,3.1,3.28a3.41,3.41,0,0,0,.36,1.1l0,1L139,210.8c0,0.78,0,1.57-.13,2.34Q137,227.93,135,242.71c-0.24,1.25-.45,2.51-0.73,3.75q-7.19,31.21-14.39,62.43c-1.59,6.9-3.09,13.82-4.63,20.73a40.15,40.15,0,0,1-5.6,2.93,23.47,23.47,0,0,1-5.63.81,2.09,2.09,0,0,1-.63-1.32C103.27,330.54,103.27,329,103.22,327.52Z" transform="translate(-76.48 -21.48)" style="fill:#c4cdd6"/><path d="M94.74,180.84l1.17,1.07c-0.43,1.42-1.13,2.54-.88,3.37,0.16,0.53,1.74.64,2.95,1,1,2.59-1.82,1.92-3.15,2.76,0.89,2.21-.28,5.07,2.44,6.61-1.42,2.54,1.37,4.37,1.12,6.8-0.2,1.86-.51,4.05,2.73,5.32-1.35.59-2.19,1.32-2.79,1.15-1.41-.39-2.66-0.27-2.78,1.18a6.62,6.62,0,0,0,1.1,3.76,20.1,20.1,0,0,0,3,3.14l1.81-2.58c-0.73,6-1.36,12-2.23,18-0.69,4.78-1.67,9.51-2.53,14.27l-1.92-8.1c-1.71,1.32-3.09,3.75-5,.09a15.72,15.72,0,0,0,3.4-1.32A9.37,9.37,0,0,0,95,235a6.8,6.8,0,0,0-2-.49c-1.57.09-3.13,0.36-4.69,0.56,1-5.71,2.25-11.39,3.05-17.13,0.83-5.9,1.35-11.85,1.83-17.8s0.71-11.76,1.08-17.64A8.88,8.88,0,0,1,94.74,180.84Z" transform="translate(-76.48 -21.48)" style="fill:#a6b2b1"/><path d="M88.37,235c1.56-.2,3.12-0.47,4.69-0.56a6.8,6.8,0,0,1,2,.49,9.37,9.37,0,0,1-1.82,2.38,15.72,15.72,0,0,1-3.4,1.32c1.9,3.67,3.28,1.23,5-.09l1.92,8.1v0c-1.91,1.13-.75,2.92-0.95,4.41-1.4,6-2.76,12-4.21,18-0.4,1.66-1.08,3.25-1.63,4.87l-2,1.42L87,268.19l1.6-2.22c-4.89-1.77-3.44-6.67-5.38-9.74q2-8.07,4-16.15C87.62,238.4,88,236.71,88.37,235Z" transform="translate(-76.48 -21.48)" style="fill:#c5ced6"/><path d="M139.25,207.72a3.41,3.41,0,0,1-.36-1.1c0.07-2.15.35-4.39-3.1-3.28a1.75,1.75,0,0,1-1.51-.75c-0.4-2.61-.63-5.25-1-8.32-0.81-.34-1.58-1.21-0.81-2.87,0.19-.4-0.29-1.11-0.46-1.68l-2.3.73,1.05-26.88,1.5,1.18,0.2-3.34,0.94-.2c-0.4,2.92.94,4.95,2.36,7.19,1,1.61.37,4.43,0.07,6.66-0.24,1.78-.64,3.33.73,4.91,0.33,0.38-.41,1.69-0.7,2.72,2,1.82,2,4.29,1.84,7.23-0.17,3.67-.72,7.55.85,11.15a1.78,1.78,0,0,0,.79.43Z" transform="translate(-76.48 -21.48)" style="fill:#a7b4b2"/><path d="M95.78,251c0.2-1.5-1-3.28.95-4.41Z" transform="translate(-76.48 -21.48)" style="fill:#a6b2b1"/><path d="M448.93,85a40.63,40.63,0,0,0,2.94-3.38c5.44-7.78,10.79-15.63,16.24-23.4,2.51-3.58,5.18-7,7.78-10.56,0.12,2.76.36,5.51,0.33,8.27-0.06,6.46-.11,12.93-0.42,19.38-0.33,6.93-1.13,13.83-1.37,20.76-0.25,7.16,0,14.34-.11,21.51-0.24,12.52-.61,25-0.94,37.56q-0.43,16.75-.9,33.49a17.86,17.86,0,0,1-.6,3c-1.62,2-3.36,4-4.86,6.1-7.2,10.21-14.33,20.46-21.49,30.69a1.88,1.88,0,0,1-.35.31c0.15-6,.27-12,0.44-18,0.35-12.06.74-24.12,1.09-36.18,0.3-10.14.66-20.28,0.85-30.42,0.27-14,.35-28,0.62-42C448.28,96.48,448.67,90.74,448.93,85Z" transform="translate(-76.48 -21.48)" style="fill:#cbbb37"/><path d="M447.43,315.7c-0.31-2.58-1.11-4.75-4.14-5.17a3.35,3.35,0,0,0-.61-0.28,33.89,33.89,0,0,0-4.34,1.06c-1.95.7-3.09,1.79-2.93,4.32,0.31,5.08.11,10.2,0.07,15.3a17.65,17.65,0,0,1-.37,2.52q0.19-19.83.37-39.66c0.06-7.57.08-15.14,0.12-22.72,0.63,1.65.18,4,3.09,4.1-0.36,1.89-.25,3.26,2,3.78,0.93,0.21,1.82,1.54,2.31,2.55a50.15,50.15,0,0,1,1.93,5.38h2.89l0.09,1.94-4,5,2.31,1.35-3.24,3.7a4.84,4.84,0,0,0,.79.36,2.48,2.48,0,0,0,.7-0.07c2.54-.87,2.51-0.86,2.61,1.94,0.09,2.46.3,4.92,0.46,7.38Z" transform="translate(-76.48 -21.48)" style="fill:#a7b4b2"/><path d="M475.47,290.32c0.44,2.88.67,5.82,1.38,8.64a18,18,0,0,0,2.53,5.33c1,1.53.89,2.26-.74,2.5l-0.32,4.81,1.74-2.63,0.44,2.23c1.17,0.52,3.61,0,2.9,2.7-2.91.24-3.53,1.62-2.38,5.75-0.93.14-1.82,0.32-2.71,0.38s-1.73,0-2.58,0L475,322.43c0.23-7.46.5-14.91,0.66-22.37C475.69,296.81,475.53,293.57,475.47,290.32Z" transform="translate(-76.48 -21.48)" style="fill:#a7b3b2"/><path d="M447.53,308.54c-0.16-2.46-.38-4.92-0.46-7.38-0.1-2.8-.07-2.81-2.61-1.94a2.48,2.48,0,0,1-.7.07,4.84,4.84,0,0,1-.79-0.36l3.24-3.7-2.31-1.35,4-5Z" transform="translate(-76.48 -21.48)" style="fill:#a19b98"/><path d="M488.23,84.82L487,94.05l-5.33-1.68a13.3,13.3,0,0,1,1-2.8c0.63-1,.93-2.67,2.9-2.13,0.39,0.11,1.09-.59,1.53-1A12.7,12.7,0,0,0,488.23,84.82Z" transform="translate(-76.48 -21.48)" style="fill:#a5b4b1"/><path d="M488.6,79.09l-0.31,4.78Z" transform="translate(-76.48 -21.48)" style="fill:#a5b4b1"/><path d="M488.65,77.63l0,0.5a2.16,2.16,0,0,1-.14-0.37A0.5,0.5,0,0,1,488.65,77.63Z" transform="translate(-76.48 -21.48)" style="fill:#a5b4b1"/><path d="M259.52,203.47l3.84-2.25c-0.69,3.07,2.87,4.21,1.82,7.63-0.75,2.45.5,5.49,0.74,8.27,0.27,3.13.49,6.26,0.6,9.4,0.06,1.84.67,2.92,2.67,2.79l0.05,12-0.55-1.67c-4-.38-2.25,4-4.38,5.19l-1.43-.94-3,3.65c0.09-8.35.23-16.71,0.24-25.06,0-4.84-.17-9.68-0.31-14.53a8.57,8.57,0,0,0-.45-1.82Z" transform="translate(-76.48 -21.48)" style="fill:#a7b3b2"/><path d="M237.69,243.24c-0.13-2-.26-3.91-0.4-5.87-0.21-3-1.07-3.8-3.93-3.47-1.29-3.41.47-7.7,3.07-7.73l1.31-6.43c0.16,5.55.4,11.09,0.46,16.64C238.23,238.66,237.88,240.95,237.69,243.24Z" transform="translate(-76.48 -21.48)" style="fill:#a7b4b2"/><path d="M262.93,141.43c0.76-.13,1.29,1.82,2.21.25a2.87,2.87,0,0,1,.87,1.18c-0.21,3.63-.53,7.26-0.84,11.12l-1.88-1.43Z" transform="translate(-76.48 -21.48)" style="fill:#a7b4b2"/><path d="M229.58,379.08L227.95,381c-2.76-1.16-5.51-3.38-9.2-.67-1-8.21.43-16,.33-23.89l1-.06a30.65,30.65,0,0,0,.45,3.06,10.29,10.29,0,0,0,.87,1.89,13.42,13.42,0,0,0,2-1.27,4.87,4.87,0,0,0,.76-1.43c2,1.65,2.46,3.37,1.44,5.79a3.92,3.92,0,0,0,2.42,5.08l2,4.37v1.38l-0.27,2.93Z" transform="translate(-76.48 -21.48)" style="fill:#c5cfd7"/><path d="M259.91,247.58l3-3.65,1.43,0.94c2.13-1.15.4-5.57,4.38-5.19l0.55,1.67-1.34,15.78c-3.39.24-.49,2.33-1.21,3.86a12,12,0,0,0-3.25.06c-1.27.35-3-.52-3.81,1.47-0.23.56-1.72,0.61-2.62,0.89l0.24-3.41,0.15-1Z" transform="translate(-76.48 -21.48)" style="fill:#c5ced6"/><path d="M229.69,378.14l0.27-2.93Z" transform="translate(-76.48 -21.48)" style="fill:#a7b4b2"/><path d="M257.4,259l-0.15,1Z" transform="translate(-76.48 -21.48)" style="fill:#aab7b6"/><path d="M237.32,244.74l0.23-.54Z" transform="translate(-76.48 -21.48)" style="fill:#a7b4b2"/><path d="M331.35,138.78c0.14,3.08.45,6.17,0.37,9.25-0.24,9.72-.64,19.44-0.94,29.16q-0.7,23.43-1.34,46.85c-0.11.82-.29,1.65-0.33,2.47-0.07,1.53,0,3.06-.07,4.59-1.7,2.28-3.5,4.49-5.09,6.85-3.36,5-6.61,10-9.88,15.09-2.89,4.46-5.73,9-8.66,13.4a10.93,10.93,0,0,1-1.82,1.73c0.29-6.29.68-12.58,0.86-18.88,0.38-13.73.65-27.47,1-41.2,0.34-14.29.65-28.59,1.07-42.88,0.34-11.81.81-23.62,1.27-35.42a13.82,13.82,0,0,1,.67-2.75c3.12,1.44,6.3,2.77,9.35,4.36C322.37,133.76,326.84,136.31,331.35,138.78Z" transform="translate(-76.48 -21.48)" style="fill:#2f438e"/><path d="M337.47,367.55a35.75,35.75,0,0,1-2.17-3.64,15.8,15.8,0,0,1-.49-2.68,24.68,24.68,0,0,0-1.37-4.7A60.56,60.56,0,0,0,330.1,351l-2.72,4.58c-0.55,2.74,2.17,5.4,1.64,8.7a1,1,0,0,0,.3.85c2.88,1.31,1.08,2.59.53,3.88v4.65l-1.15.7-1-2.59-1.49,3c0.14-3.87.38-7.74,0.39-11.61,0-4.2-.29-8.41-0.34-12.61-0.11-9.5-.16-19-0.23-28.49q0-3.91,0-7.82l6.63-1.7-0.27-.52c0.78-.54,1.57-1.07,2.34-1.63s1.76-.92,1.78-1.41a14.12,14.12,0,0,0-.56-5.37c-0.23-.61-2.19-0.68-3.38-0.8-0.83-.08-2.29-0.06-2.45.34-0.8,1.92-2.58,1.52-4,2,0-2.61.09-5.22,0-7.82-0.19-4.62-.57-9.24-0.75-13.86a40.09,40.09,0,0,1,.35-4.75l2.5,0.72,0.77,2.21,0.67,0.07c0.43-2.32.87-4.63,3.18-6,1.1,1.9,2.26,3.26,4.33,1.56a2,2,0,0,0,.35.13,7,7,0,0,0-.23,1.4c0.22,5.87.47,11.73,0.71,17.6L338,309.9c0,12.68,0,25.36-.12,38C337.85,354.48,337.62,361,337.47,367.55Z" transform="translate(-76.48 -21.48)" style="fill:#a6b2b1"/><path d="M302.07,373.31c-2-.1-4.1-0.32-6.14-0.26-0.78,0-2.22.76-2.19,1,0.24,2.11-1.61,1.9-2.6,2.61-0.07-7.74,0-15.49-.25-23.23-0.36-13.72-.87-27.44-1.3-41.16,0-.79.08-1.58,0.12-2.38,1.6-.76,3.21-1.5,4.81-2.28,1-.48,1.92-1,2.91-1.49,1.14-.54,2.32-1,3.48-1.54,0.09,5.57.14,11.15,0.29,16.72,0.38,14.17.84,28.33,1.18,42.5C302.45,367,302.18,370.16,302.07,373.31Z" transform="translate(-76.48 -21.48)" style="fill:#a6b2b1"/><path d="M337.12,277.3c-2.08,1.71-3.23.34-4.33-1.56-2.31,1.36-2.75,3.67-3.18,6l-0.67-.07-0.77-2.21-2.5-.72c0.46-2.89,1.1-5.77,1.33-8.68,0.64-8.16,1.12-16.34,1.65-24.51,0.29-4.44.54-8.89,0.81-13.34,1.92-.62,3.88-1.14,5.74-1.89,2.42-1,4.07-.43,5.16,1.93l0.16-.08,0.31,1.52c-0.76,5.89-1.75,11.76-2.22,17.68C337.91,260,337.59,268.65,337.12,277.3Z" transform="translate(-76.48 -21.48)" style="fill:#c4cdd7"/><path d="M340.36,232.25c-1.1-2.36-2.74-2.9-5.16-1.93-1.87.75-3.83,1.27-5.74,1.89l-0.4-1.1c0-1.53,0-3.06.07-4.59,0-.83.21-1.65,0.33-2.47,1.81,1.22,3.16,1.07,4.63-.82s3.54-3.28,5.21-5a7,7,0,0,0,.95-2.34Q340.3,224.05,340.36,232.25Z" transform="translate(-76.48 -21.48)" style="fill:#a6b2b1"/><path d="M326.07,305.16c1.39-.5,3.16-0.1,4-2,0.17-.4,1.62-0.42,2.45-0.34,1.19,0.11,3.15.18,3.38,0.8a14.12,14.12,0,0,1,.56,5.37c0,0.49-1.15,1-1.78,1.41s-1.56,1.09-2.34,1.63l0.27,0.52-6.63,1.7q0-2.89,0-5.78A0.38,0.38,0,0,0,326,308Z" transform="translate(-76.48 -21.48)" style="fill:#c5cfd7"/><path d="M326,308a0.38,0.38,0,0,1-.07.42,1.65,1.65,0,0,1-.05-0.31A0.31,0.31,0,0,1,326,308Z" transform="translate(-76.48 -21.48)" style="fill:#a6b2b1"/><path d="M300.87,303.71a1.8,1.8,0,0,1-.13-0.3,0.32,0.32,0,0,1,.11-0.13A0.33,0.33,0,0,1,300.87,303.71Z" transform="translate(-76.48 -21.48)" style="fill:#a6b2b1"/><path d="M523.79,66.62c-1.14-1-2.23-2.1-3.42-3.05s-2.57-1.9-3.88-2.84a2.44,2.44,0,0,1-.81-0.45c-0.91-2.46-3-1.74-4.79-1.84l0.06-5.3,1.31,0.32L514.49,50l2.43,3,6.48,1.58Z" transform="translate(-76.48 -21.48)" style="fill:#a7b4b2"/><path d="M376,153.93c0.2-5.1.33-10.21,0.61-15.31,0.38-6.94.87-13.87,1.34-20.8a13.44,13.44,0,0,1,.38-1.83l3.64,1.11c-2.94,1.7-3.25,2.76-1.7,5.4a2.45,2.45,0,0,1,.15,1.48c-0.18,1.19-.45,2.38-0.7,3.56a0.91,0.91,0,0,1-.3.6c-2.1.53-1.21,1.92-1,3.21,0.19,1.45.51,2.34,2.25,1.68a1.83,1.83,0,0,1,1.38.52,1.15,1.15,0,0,1-.14,1.07c-1.31,1.31.78,3.24-1.22,4.69-2.47,1.79-3.73,4.47-1.62,7.42,0.79,1.1.26,3.14,0.3,4.06a26,26,0,0,1-1.93,2.52A4.3,4.3,0,0,1,376,153.93Z" transform="translate(-76.48 -21.48)" style="fill:#913459"/><path d="M375.66,163.54l0.25-9.12a23.67,23.67,0,0,0,3.39,1.44,6,6,0,0,0,2.27-.45l0.59,1.47,2.5-1.91,0.61,0.3-3,9.64,2.79,3.47c-0.88-.49-1.74-1-2.63-1.47C380.21,165.78,377.93,164.66,375.66,163.54Z" transform="translate(-76.48 -21.48)" style="fill:#913459"/><path d="M375.66,163.54c2.27,1.13,4.54,2.24,6.8,3.38,0.9,0.45,1.76,1,2.63,1.47,0.61,0.32,1.24.62,1.84,1,0.86,0.47,2,.77,2.5,1.5,1.84,2.53,4,2.42,5.65-.19,1.74-2.78,3.78-5.39,5.68-8.07l0.14,1c-2.08,3.38-4.17,6.76-6.23,10.15-0.81,1.34-1.71,1.68-3.12.73-2.18-1.46-4.41-2.85-6.7-4.14-3-1.7-6.15-3.27-9.23-4.9Z" transform="translate(-76.48 -21.48)" style="fill:#63365c"/><path d="M267.9,257.13l1.34-15.78q0-6-.05-12c0.27-10.22.41-20.44,0.85-30.65,0.2-4.68,1-9.33,1.52-14A8.89,8.89,0,0,0,273.5,183C280.35,172.7,287.13,162.31,294,152a20.39,20.39,0,0,1,2.73-2.8c-0.59,8.59-1.46,17.17-1.72,25.76-0.69,22.58-.93,45.18-1.7,67.76-0.49,14.51-1.59,29-2.38,43.5a18.09,18.09,0,0,0,.27,2.81,10.67,10.67,0,0,0-1.89,1.72c-6.47,9.54-12.87,19.13-19.35,28.67-1.5,2.21-3.24,4.25-4.88,6.36a18.59,18.59,0,0,1-.84-4.16c0.23-8.45.49-16.9,1-25.33,0.46-8,1.24-16.06,1.81-24.09C267.38,267.16,267.61,262.14,267.9,257.13Z" transform="translate(-76.48 -21.48)" style="fill:#63365c"/><path d="M296.72,149.18A20.39,20.39,0,0,0,294,152c-6.85,10.34-13.63,20.73-20.48,31.07a8.89,8.89,0,0,1-1.94,1.62c3.46-15.44,2.8-31.14,2.65-46.77-0.12-12.69-1.17-25.39-1.1-38.07,0.06-10.12,1.31-20.23,1.81-30.35,0.25-5,0-10.05,0-15.08q-0.07-14.75-.14-29.49l23.41,0c0.18,9.34,1.42,18.8.3,28-1.6,13.1-.91,26.14-1.08,39.2-0.18,14.13.2,28.26,0.25,42.39,0,4.07-.22,8.14-0.41,12.2A14.92,14.92,0,0,1,296.72,149.18Z" transform="translate(-76.48 -21.48)" style="fill:#096d44"/><path d="M289.85,309l0.05-.9Z" transform="translate(-76.48 -21.48)" style="fill:#a6b2b1"/><path d="M340.36,232.25q-0.06-8.2-.12-16.39,0.64-14.67,1.27-29.33,0.25-5.72.51-11.45c0.6,1.11,1.82,2.31,1.68,3.32-0.41,2.82-.78,5.19,3.17,5.22a4.66,4.66,0,0,1,.35.55c0.71,0.58,1.44,1.13,1.83,1.43,1.07-1,1.76-1.58,2.41-2.22a1.2,1.2,0,0,0,.45-0.76c-0.34-1.54-.7-3.08-1.16-4.59-0.29-.94-0.93-1.79-1.14-2.74a26.24,26.24,0,0,1-.91-5.63c0-3.39-1.87-5.55-4.24-7.63l-2,1.54c0-5,0-10,0-15a4.43,4.43,0,0,1,.62-1.48l6,3,8.23,5,8.2,4.07c-0.49,9.22-1,18.44-1.42,27.67-0.13,3.08.21,6.19,0.34,9.28l0.64,13.43c-0.76,2.38-1.53,4.75-2.25,7.13-0.29,1-.44,2-0.66,2.94,0,3.37-.13,6.74,0,10.1,0.15,3.53.54,7.05,0.83,10.57l-0.17,3.34a41.15,41.15,0,0,1-5.22-2.31c-4.17-2.55-8.21-5.32-12.34-7.94-1.43-.91-2.79-2.28-4.75-1.31Z" transform="translate(-76.48 -21.48)" style="fill:#913459"/><path d="M357.32,155.19l-8.23-5a13.78,13.78,0,0,0,3.85-.32c2.51-.95,4.17,0,4.32,2.73C357.31,153.43,357.31,154.31,357.32,155.19Z" transform="translate(-76.48 -21.48)" style="fill:#263874"/><path d="M411.2,143.6c1.34-2,2.75-3.89,4-5.9,6-9.44,11.86-18.9,17.83-28.33a24,24,0,0,1,2.32-2.71c0,4.62.09,9.24,0,13.86-0.07,7.09-.32,14.19-0.29,21.28,0,7.49.54,15,.39,22.47-0.13,6.29-1.11,12.56-1.37,18.86-0.37,8.94-.39,17.88-0.64,26.83-0.23,8.14-.73,16.27-0.79,24.41,0,4.61.59,9.23,0.91,13.85L420.81,268c-1.37,2.11-2.74,4.21-4.08,6.34-1.71,2.7-2.47,2.89-5.32,1.31-0.9-.5-1.84-0.92-2.75-1.38l-0.45-7c-0.18-9.09-.1-18.19-0.6-27.26-0.91-16.8.74-33.47,2.13-50.15,0.46-5.52,1.32-11,2.27-16.48,1-6-.19-11.91-0.67-17.86C411,151.55,411.23,147.57,411.2,143.6Z" transform="translate(-76.48 -21.48)" style="fill:#cf3931"/><path d="M408.21,267.25l0.45,7,0.36,9.3c-1.26-1-3.35-1.33-3-3.73,0-.27-0.85-0.79-1.39-1a4.31,4.31,0,0,1-2.08-1.17l-4-4.56-1.89,1.37L396,265.84l0.63-7.72,2.68,4.45,1.83-2.25a19.81,19.81,0,0,1,2.7,2.46,9.28,9.28,0,0,1,1.68,3.29C406,267.8,407,267.65,408.21,267.25Z" transform="translate(-76.48 -21.48)" style="fill:#a7b4b2"/><path d="M409.11,304.2c-0.15-1.83-.41-3.66-0.44-5.49-0.07-4.61,0-9.22,0-13.83A2.47,2.47,0,0,1,409,284c0.19,4.12.47,8.25,0.53,12.37C409.58,299,409.27,301.6,409.11,304.2Z" transform="translate(-76.48 -21.48)" style="fill:#a5b4b1"/><path d="M396.66,258.12L396,265.84c-2.63-1.49-5.29-2.93-7.88-4.48-4.49-2.68-8.95-5.42-13.42-8.14l-0.18-1.34a62.43,62.43,0,0,0,.46-6.66c-0.26-7.71-.67-15.42-1-23.13l1-13.88c2.08-11.68.73-23.42,0.68-35.14,0-2.56,0-5.12,0-7.67,3.08,1.63,6.19,3.19,9.23,4.9,2.29,1.28,4.52,2.67,6.7,4.14,1.41,0.95,2.31.62,3.12-.73,2.06-3.39,4.15-6.77,6.23-10.15,0.15,3.14.36,6.29,0.45,9.43,0.08,2.61,0,5.22,0,7.83q-0.63,3.74-1.26,7.48l-2,11.73c-0.24,6.11-.38,12.23-0.76,18.33-0.33,5.31-1.19,10.6-1.35,15.91-0.18,6,.14,11.92.28,17.89C396.39,254.15,396.55,256.13,396.66,258.12Z" transform="translate(-76.48 -21.48)" style="fill:#0c6d87"/><path d="M371.61,361.33a6.18,6.18,0,0,0-1.24.92,10.16,10.16,0,0,1-.33,1.09c-5.08,2.15-4.89,6.95-5.44,11.2-0.26,2-.87,2.92-2.91,3L365,377.8l-0.69,2.65-0.45-.66-3.4.88c0.3-7.31.55-14.63,0.91-21.94,0.47-9.47,1.05-18.94,1.56-28.41a12.52,12.52,0,0,0-.24-2.11l0.35-5.75a8.57,8.57,0,0,0,1.57-.4c2.38-1.11,3.16-.66,3.24,1.93,0,0.72.1,1.44,0.16,2.15,1.27-2,2.69-2.77,4.82-1.77l0.85-2.44c-0.06,4.66.07,9.34-.21,14C373,344.39,372.25,352.86,371.61,361.33Z" transform="translate(-76.48 -21.48)" style="fill:#a6b2b1"/><path d="M374.55,251.88l0.18,1.34c-1.54,4-1.53,8.23-1.48,12.49,0.09,8.06-.17,16.12-0.3,24.18a1,1,0,0,1-.25.4c-0.66-.06-1.59-0.42-1.94-0.11-1.5,1.29-2.83,2.78-4.3,4.28l0.77,1.74-0.31.52a25.21,25.21,0,0,0-2.45-1,9.28,9.28,0,0,0-1.83-.17c0.07-2.29.2-4.59,0.19-6.88,0-3.62-.12-7.24-0.19-10.87L363,266.74a21.58,21.58,0,0,0,2.31-2.42c0.63-.89.89-2.73,1.52-2.83,2.16-.33,1.12-2,1.46-2.67a13,13,0,0,0,2.4-1.79C372.09,255.39,373.29,253.61,374.55,251.88Z" transform="translate(-76.48 -21.48)" style="fill:#a6b2b1"/><path d="M362.64,295.57a9.28,9.28,0,0,1,1.83.17,25.21,25.21,0,0,1,2.45,1l0.31-.52-0.77-1.74c1.47-1.49,2.8-3,4.3-4.28,0.35-.3,1.28.06,1.94,0.11l1,31.64-0.85,2.44c-2.13-1-3.56-.22-4.82,1.77-0.05-.72-0.14-1.43-0.16-2.15-0.08-2.59-.86-3-3.24-1.93a8.56,8.56,0,0,1-1.57.4c0-1.65-.09-3.3-0.11-4.94Q362.78,306.54,362.64,295.57Z" transform="translate(-76.48 -21.48)" style="fill:#c5ced6"/><path d="M119.15,363.25c-0.14,1.56-.35,3.11-0.39,4.67-0.08,2.64-.42,2.86-3,2.14a17.38,17.38,0,0,0-3.76-.47,3.23,3.23,0,0,1-3.23-3c-0.29-2-1.21-1.94-2.61-1.31l-0.31-10.2c1-1.41,2.44.18,3-.18,2.29-1.43,4.09.12,6,.63,3.68,1,3.7,1.22,3.89,5a8.89,8.89,0,0,0,.46,1.77Z" transform="translate(-76.48 -21.48)" style="fill:#c5cfd7"/><path d="M105.38,348.39l-2.44-12.53c1.43-.28,3-1.12,4.25-0.74,3,0.91,5,.46,6.47-2.38,0.21-.41,1.06-0.48,1.62-0.71,0.17,1.41.31,2.83,0.51,4.24q1.21,8.21,2.45,16.41a7.54,7.54,0,0,1-1.12-1.29c-0.69-1.28-1-3.48-2-3.76-2.63-.78-5.54-1.71-8.2.33A4.46,4.46,0,0,1,105.38,348.39Z" transform="translate(-76.48 -21.48)" style="fill:#a19b98"/><path d="M105.38,348.39A4.46,4.46,0,0,0,107,348c2.66-2,5.56-1.12,8.2-.33,0.94,0.28,1.27,2.48,2,3.76a7.54,7.54,0,0,0,1.12,1.29l1,9.65-0.1,0a8.88,8.88,0,0,1-.46-1.77c-0.19-3.82-.21-4.05-3.89-5-1.89-.51-3.69-2.06-6-0.63-0.58.36-2-1.23-3,.18l-0.21-2.87-0.1-1.91Z" transform="translate(-76.48 -21.48)" style="fill:#a7b4b2"/><path d="M115.29,332c-0.56.23-1.41,0.31-1.62,0.71-1.46,2.84-3.51,3.29-6.47,2.38-1.23-.38-2.83.46-4.25,0.74q0.14-4.17.28-8.34c0,1.51.05,3,.18,4.52a2.09,2.09,0,0,0,.63,1.32,23.47,23.47,0,0,0,5.63-.81,40.14,40.14,0,0,0,5.6-2.93Z" transform="translate(-76.48 -21.48)" style="fill:#a7b4b2"/><path d="M105.52,350.32l0.1,1.91Z" transform="translate(-76.48 -21.48)" style="fill:#a19b98"/><path d="M398.17,200l2-11.73q0.63-3.74,1.26-7.48l0.28,3.16a8.57,8.57,0,0,1,1.8-1.07c0.76-.2,1.91-0.53,2.29-0.17a3,3,0,0,1,.81,2.46c-1,3.68-2.07,7.33-3.33,10.92-0.29.82-1.36,1.42-2.15,2S399.15,199.4,398.17,200Z" transform="translate(-76.48 -21.48)" style="fill:#a7b4b2"/><path d="M192.15,359.39c-2.55.42-3.82-1.62-4.54-3.21a8.91,8.91,0,0,0-4.08-4.06,3.56,3.56,0,0,1-1.94-3.51c0.05-2.32-.05-4.64-0.09-7,0.21-3.4.2-3.33,3.51-3.18a3.8,3.8,0,0,0,2.21-1c0.73-.58,1.19-1.48,1.88-2.13,1.59-1.5,2.8-1.13,3.46,1l0.9,2.92,0,1.43a5.62,5.62,0,0,0-.82,1.84C192.44,348.14,192.31,353.76,192.15,359.39Z" transform="translate(-76.48 -21.48)" style="fill:#c5cfd7"/><path d="M192.29,317.1l0.9,14.32a10.42,10.42,0,0,1-1.74-1.19c-2-2.08-2.39-2-4,.52-1.17,1.89-2.53,3.61-5.09,3.78-0.46,0-.87.89-1.3,1.36l-0.9-12c2.85,0.09,5.38-.44,7.4-2.8A36.79,36.79,0,0,1,192.29,317.1Z" transform="translate(-76.48 -21.48)" style="fill:#a19b98"/><path d="M192.29,317.1a36.79,36.79,0,0,0-4.67,4c-2,2.37-4.55,2.89-7.4,2.8l-0.34-4.29c1.95-1.35,3.89-2.71,5.85-4a1.6,1.6,0,0,1,.87-0.28c3.07,0.06,4.65-1.77,5.64-4.38Q192.26,314,192.29,317.1Z" transform="translate(-76.48 -21.48)" style="fill:#a7b3b2"/><path d="M181.12,335.88c0.43-.48.84-1.33,1.3-1.36,2.56-.17,3.91-1.89,5.09-3.78,1.57-2.52,1.93-2.6,4-.52a10.42,10.42,0,0,0,1.74,1.19l0.27,7.83-0.9-2.92c-0.66-2.11-1.87-2.48-3.46-1-0.69.65-1.15,1.55-1.88,2.13a3.8,3.8,0,0,1-2.21,1c-3.3-.14-3.3-0.21-3.51,3.18h-0.28Z" transform="translate(-76.48 -21.48)" style="fill:#a7b4b2"/><path d="M192.15,359.39c0.16-5.63.29-11.25,0.51-16.87a5.62,5.62,0,0,1,.82-1.84l-0.49,13q0,1.13,0,2.26,0,1.51,0,3Z" transform="translate(-76.48 -21.48)" style="fill:#a7b4b2"/><path d="M193,356q0-1.13,0-2.26Q193,354.84,193,356Z" transform="translate(-76.48 -21.48)" style="fill:#a19b98"/><path d="M342.49,163.55l2-1.54c2.37,2.08,4.23,4.24,4.24,7.63a26.24,26.24,0,0,0,.91,5.63c0.22,1,.85,1.8,1.14,2.74,0.47,1.51.83,3,1.16,4.59a1.2,1.2,0,0,1-.45.76c-0.65.64-1.34,1.25-2.41,2.22-0.39-.3-1.12-0.84-1.83-1.43a4.66,4.66,0,0,0-.35-0.55c-3.94,0-3.58-2.4-3.17-5.22,0.15-1-1.08-2.2-1.68-3.32Z" transform="translate(-76.48 -21.48)" style="fill:#ad416d"/><path d="M338.41,144.73l1.13,5.53C337.35,148.77,337.3,146.87,338.41,144.73Z" transform="translate(-76.48 -21.48)" style="fill:#aab7b6"/><path d="M374.95,208.21l-1,13.88c-0.12-.36-0.26-0.73-0.36-1.1-0.21-.71-0.39-1.43-0.59-2.15l-2.18.91c-0.72.3-1.42,0.65-2.16,0.89-1.81.6-2.84,2.18-2.36,3.71,0.69,2.2-.3,3.7-2.58,4a8.93,8.93,0,0,0-1.28.4l1.77,1.34c-3.5,3.06.5,4.1,1.38,5.2L363,240.38c-0.29-3.52-.68-7-0.83-10.57-0.14-3.36,0-6.73,0-10.1l3.51-3.8,1.69,0.8Z" transform="translate(-76.48 -21.48)" style="fill:#a7b4b2"/><path d="M365.08,209.64l-0.64-13.43a10.19,10.19,0,0,1,1.71,1.93,10.55,10.55,0,0,1,.08,7.49A33.24,33.24,0,0,0,365.08,209.64Z" transform="translate(-76.48 -21.48)" style="fill:#a7b4b2"/><path d="M548.22,41.69l-2.29-1.51,2.14,0.36,0.35-1.3Z" transform="translate(-76.48 -21.48)" style="fill:#5d797a"/><path d="M139.25,207.72l0.1-6.22c0.26-4,.63-7.91.77-11.87,0.44-12.3.33-24.63,1.33-36.88,0.72-8.79.6-17.53,0.83-26.3,0.32-12.29,1-24.58,1.42-36.87,0.16-4.63.06-9.27,0.09-13.9l2.83-4.3a25.57,25.57,0,0,1,4.09.06A5.68,5.68,0,0,1,153,72.72,30.68,30.68,0,0,1,156.81,76c0.79,0.85,2.79,1.53.58,3.48l1.1,0.18,1.4-2.27,1.21,2.5,2.59,0.59c-1.11,1.15-3.54,1.72-1.18,3.45,2.91-3.36,2.95-3.73.47-5.42a1.81,1.81,0,0,1,.59-0.65c2.36-.49,2-1.65,1-3.21a3.11,3.11,0,0,1-.3-1.8c1.17-.38,1-2.76,2.92-1.93-0.58,10.07-.33,20.29-2,30.18-1.32,7.84-2,15.73-3.31,23.56L161.67,126l-0.09.6-0.08,3.8,1.45,12c-0.07,7.38-.22,14.77-0.19,22.15,0,3.48.36,7,.56,10.44q-1,8.51-2.08,17a9.59,9.59,0,0,0,0,1.18l0.08,0.68,0.13,1.31,1.18,6.78,0.26,3.3c-0.25,2.94-.37,5.9-0.78,8.81-1.18,8.36-2.47,16.7-3.72,25.05l-1.64,17.54-0.24.9a19,19,0,0,1-2.23-1.18q-9.66-6.84-19.28-13.74,1.95-14.78,3.88-29.56c0.1-.77.09-1.56,0.13-2.34l0.21-2.11Zm10.8-136.11L148,75.8l4.71-.95Zm6.52,6.77-0.19-.69-1.51.3,0.31,1Z" transform="translate(-76.48 -21.48)" style="fill:#913459"/><path d="M195.12,107.85l1.29,15.91c0.29,8.44.8,16.88,0.79,25.32,0,6.2-.7,12.4-1.14,18.59-0.8,11.52-1.52,23-2.51,34.54-0.56,6.57-1.59,13.11-2.36,19.66a17.63,17.63,0,0,0,.07,2.62l0,8.65c-0.17,7.66-.2,15.32-0.54,23-0.32,7.17-.95,14.32-1.49,21.47a9.75,9.75,0,0,1-.73,2.23l-22.58-14a4.64,4.64,0,0,1,0-.72c1.12-10.45,2.16-20.91,3.42-31.35,0.69-5.76,1.91-11.46,2.58-17.22,0.47-4,.42-8.1.61-12.15L172,200.49A1,1,0,0,0,172,200l-0.53-8.15c0.48-3.23,1-6.45,1.42-9.69,0.32-2.69.53-5.39,0.68-8.1,0.8-14.94-.12-29.83-1.33-44.73-0.87-10.77-.63-21.45,2.19-32.06,1.23-4.63,1.14-9.62,1.52-14.46,0.67-8.67,1.5-17.33,1.74-26,0.17-6-.83-11.94-0.77-17.91,0-4.68.91-9.35,1.41-14l21.5,0c-1,6.43-2,12.86-2.92,19.3-0.35,2.35-.59,4.71-0.89,7.07l0.07,8.65C193.56,75.83,195,91.86,195.12,107.85Z" transform="translate(-76.48 -21.48)" style="fill:#0c6d87"/><path d="M163.33,175c-0.2-3.48-.55-7-0.56-10.44,0-7.38.11-14.76,0.19-22.15,1.13-.6,2.5-3.75,2-5-1.06-2.39-2.27-4.71-3.42-7.06l0.08-3.8,0.65,1.73,0.28-.48a40.5,40.5,0,0,1,4,1.87,1.83,1.83,0,0,1,.48,1.6c-1.36,1.29-.43,2.09.44,3a1.57,1.57,0,0,1,.55.76c0.1,1.87.22,3.74,0.16,5.61s-0.32,3.57-.53,5.74c-1.38.43-1.69,1.69-1,3.48a7.13,7.13,0,0,1-.06,2.36,2.08,2.08,0,0,0,.16,1.27c3.23,1.73,1.8,4.73,2.07,7.26,0.21,2,.57,4,0.63,6,0.1,3.63,0,7.26,0,10.88l-1.08.52a24.85,24.85,0,0,0-2.73-2.46A8,8,0,0,0,163.33,175Z" transform="translate(-76.48 -21.48)" style="fill:#a7b4b2"/><path d="M167.17,69c-2.48,0-2.39-2.09-2.72-3.55s-0.75-3.32,1-3.74c0.19-1.46.81-2.85,0.42-3.83-1.16-2.91.59-6.26-1.7-9-1.1-1.32-1.6-3.15-2.57-5.17L164,44.43l1.3-2.84,0.62,0.24,0.68,1.7c0.08,6.63.14,13.25,0.25,19.88C166.88,65.27,167.06,67.13,167.17,69Z" transform="translate(-76.48 -21.48)" style="fill:#913459"/><path d="M171.45,191.89L172,200l-10.51-4.81-0.13-1.31,0.16-.61c3.19-1.8,5.89-.19,8.71,1.35Z" transform="translate(-76.48 -21.48)" style="fill:#a7b4b2"/><path d="M161.67,126l0.17-1.38Z" transform="translate(-76.48 -21.48)" style="fill:#a7b4b2"/><path d="M161.5,193.31l-0.16.61-0.08-.68A0.35,0.35,0,0,1,161.5,193.31Z" transform="translate(-76.48 -21.48)" style="fill:#a19b98"/><path d="M362.64,295.57q0.15,11,.3,21.93c0,1.65.07,3.3,0.11,4.94l-0.35,5.75a26.3,26.3,0,0,0-.91,3.51c-0.19,1.55,0,3.16-.29,4.66a2.71,2.71,0,0,1-1.89,1.67c-3.2.3-4.74,2.23-4.05,5.43,0.07,0.3.17,0.6,0.3,1l-1.82.86c-1.15-1.14-2.33-2.17-3.34-3.35-0.61-.71-0.82-1.78-1.45-2.47-1.11-1.22-.23-1.74.52-2.52a2.32,2.32,0,0,0-.27-1.57,16.69,16.69,0,0,0-1.08-1.92,17.44,17.44,0,0,0,2.91.21c1.87-.23,2.64-0.84,2.54-3.24a23.78,23.78,0,0,0-.91-5.4,2.4,2.4,0,0,0-.64-1.42c-3.05-1.11-1.45-3.55-.52-4.26,1.9-1.45,1.84-3.2,2-5.24a36.6,36.6,0,0,1-5.43-2.92c-0.72-.54-0.71-2.05-1.23-3.78-3.56-2.07-3.56-2.07-1.78-4.09l-2.55-2.49c-0.41.89-.86,1.38-0.79,1.77,0.4,2.09.95,4.15,1.41,6.23a0.94,0.94,0,0,1-.2.8c-1.49,1-.18,1.68.29,2.48s0.85,1.71,1.27,2.56l-0.21.2a0.26,0.26,0,0,0,.12,0,0.68,0.68,0,0,0,.08-0.17c0.62,0.43,1.83,1,1.76,1.28a15,15,0,0,1-1.75,4.35,4,4,0,0,1-2.5,1.28c-0.68.12-2-.27-2.11-0.62a12.92,12.92,0,0,1,.15-3.35l0.89,0.16-0.17,2.58,2.09-.26-1.32-3.28c-2.07-.48-3.91-1.54-2.89-4.7,0.19-.6-0.61-1.51-1-2.28q0-6.73-.07-13.47c1.45-.91,4-0.64,3.61-3.55a2.52,2.52,0,0,1,1.24-.93,9.28,9.28,0,0,0,1.21-.31c0.4-2.56,2.46-3.28,4.4-4.21a2.68,2.68,0,0,0,.75-1.35c1.24-3,3.94-4.3,6.41-5.92a5.16,5.16,0,0,0,1.45-1.42,4.07,4.07,0,0,1,5.6-.92c0.07,3.62.18,7.24,0.19,10.87C362.84,291,362.71,293.28,362.64,295.57Z" transform="translate(-76.48 -21.48)" style="fill:#2f438e"/><path d="M356.26,346.39l-1.39,2.14L354,347.11,356,346Z" transform="translate(-76.48 -21.48)" style="fill:#2f438e"/><path d="M337.45,372.38c-1-1.3-1.47-2.6,0-3.92Z" transform="translate(-76.48 -21.48)" style="fill:#a6b2b1"/><path d="M337.36,374.26a1.86,1.86,0,0,1-.13-0.32,0.36,0.36,0,0,1,.12-0.13v0.45Z" transform="translate(-76.48 -21.48)" style="fill:#a6b2b1"/><path d="M337.42,375.71a2,2,0,0,1-.19-0.29,0.39,0.39,0,0,1,.11-0.15A0.35,0.35,0,0,1,337.42,375.71Z" transform="translate(-76.48 -21.48)" style="fill:#a6b2b1"/><path d="M135,242.71q9.64,6.87,19.28,13.74a19,19,0,0,0,2.23,1.18c-1.26,7.14-2.53,14.28-3.77,21.42-2,11.48-4.24,22.87-8.31,33.86-1.17,3.17-1.52,6.65-2.25,10l-0.33,9.16,0.32,0.52,0,0,1,7.18a51.09,51.09,0,0,1-6.66-1.51c-1.69-.61-2.83-0.36-3.67,1.06-3.62,6.08-7.18,12.19-10.77,18.29-0.92,1.57-1.88,3.12-2.82,4.68l-1-9.65q-1.23-8.21-2.45-16.41c-0.21-1.41-.34-2.82-0.51-4.24l0-2.41c1.54-6.91,3-13.83,4.63-20.73q7.17-31.22,14.39-62.43C134.57,245.22,134.77,244,135,242.71Z" transform="translate(-76.48 -21.48)" style="fill:#0b6d87"/><path d="M143.19,339.8l-1-7.18c2.7,0,5.4-.15,8.09-0.07,1.94,0.06,3-.64,3.17-2.63,0.12,0.69.25,1.38,0.36,2.07l2.38,14,0.53,2.69,1.3,6.91c-0.88-.16-1.77-0.3-2.64-0.49a3,3,0,0,0-1.05-.36c-2.68,1.59-7.05.68-7.77,5.18-0.77-5.08-1.53-10.15-2.34-15.22C143.94,343,143.53,341.42,143.19,339.8Z" transform="translate(-76.48 -21.48)" style="fill:#a19b98"/><path d="M146.81,363.78L147,365.7Z" transform="translate(-76.48 -21.48)" style="fill:#a19b98"/><path d="M196.08,59.89L196,51.24a9.25,9.25,0,0,1,2.44,2c0.64,1.07,1.43,2.72,1,3.58C198.86,58.08,197.26,58.89,196.08,59.89Z" transform="translate(-76.48 -21.48)" style="fill:#a7b4b2"/><path d="M156.69,348.65L156.16,346c3.35,1.46,6.73,2.83,10,4.39,3.49,1.65,6.91,3.47,10.34,5.24,1.81,0.93,3.6,1.91,5.4,2.87l0.39,1.84c-2.52.69-4-1.29-5.67-2.44a45.26,45.26,0,0,0-14-6.75c-1.25-.33-2.28-1.41-3.49-2A10.18,10.18,0,0,0,156.69,348.65Z" transform="translate(-76.48 -21.48)" style="fill:#693041"/><path d="M181.94,358.45c-1.8-1-3.59-1.93-5.4-2.87-3.44-1.77-6.85-3.58-10.34-5.24-3.3-1.56-6.69-2.94-10-4.39l-2.38-14c-0.12-.69-0.24-1.38-0.36-2.07s0-1.64,0-2.46l0.24-1.19a84,84,0,0,1,4.2-19.54,168.2,168.2,0,0,0,5.65-22.43c1.2-6.08,1.62-12.33,2.38-18.5l22.58,14c-0.28,6.62-2.4,12.78-4.71,18.89s-4,12.54-4.06,19.22a13.83,13.83,0,0,0,.18,1.64l0.35,4.29,0.9,12,0.11,5.77Z" transform="translate(-76.48 -21.48)" style="fill:#cf3931"/><path d="M543.54,38.75l-6.24-4.33C540.1,34.82,542,36.57,543.54,38.75Z" transform="translate(-76.48 -21.48)" style="fill:#5d797a"/><path d="M533.93,31.55l-3.38-2.87Z" transform="translate(-76.48 -21.48)" style="fill:#5d797a"/><path d="M545.45,39.73l-1.92-1Z" transform="translate(-76.48 -21.48)" style="fill:#5d797a"/><path d="M530.56,28.69l-1.45-1Z" transform="translate(-76.48 -21.48)" style="fill:#5d797a"/><path d="M535.36,32.53l-1.43-1Z" transform="translate(-76.48 -21.48)" style="fill:#5d797a"/><path d="M536.33,33.47l-1-1Z" transform="translate(-76.48 -21.48)" style="fill:#5d797a"/><path d="M528.17,27.25L527,26.73Z" transform="translate(-76.48 -21.48)" style="fill:#5d797a"/><path d="M529.12,27.73l-1-.5Z" transform="translate(-76.48 -21.48)" style="fill:#5d797a"/><path d="M536.82,33.95l-0.49-.48Z" transform="translate(-76.48 -21.48)" style="fill:#5d797a"/><path d="M537.3,34.42l-0.49-.48Z" transform="translate(-76.48 -21.48)" style="fill:#5d797a"/><path d="M545.93,40.19l-0.5-.48Z" transform="translate(-76.48 -21.48)" style="fill:#5d797a"/><path d="M139.24,208.69L139,210.8Z" transform="translate(-76.48 -21.48)" style="fill:#a7b4b2"/><path d="M337.12,277.3c0.48-8.64.8-17.3,1.49-25.93,0.47-5.91,1.46-11.79,2.22-17.68a19.93,19.93,0,0,1,3,1.27c3.42,2.12,6.77,4.34,10.15,6.51,1.87,1.2,4,2.11,5.56,3.62a3.86,3.86,0,0,0,3.51,1.36l-0.53,18.84c-1.13.29-2.2,0.51-1.69,2.19a2.11,2.11,0,0,1-.94,1.54c-2.25-.41-3.42,1.4-5,2.29-2.29,1.27-4.51,2.66-6.82,3.9-1.21.65-2.56,1.07-3.82,1.64-0.74.34-1.42,0.82-2.16,1.16a15.61,15.61,0,0,1-3.2,1.27,9.24,9.24,0,0,1-1-2s-0.26.11-.39,0.17A2,2,0,0,1,337.12,277.3Z" transform="translate(-76.48 -21.48)" style="fill:#2f438e"/><path d="M337.47,277.43c0.14-.06.39-0.18,0.39-0.17a9.24,9.24,0,0,0,1,2,15.61,15.61,0,0,0,3.2-1.27c0.74-.35,1.42-0.83,2.16-1.16,1.26-.57,2.6-1,3.82-1.64,2.31-1.24,4.53-2.63,6.82-3.9,1.6-.89,2.77-2.69,5-2.29a2.11,2.11,0,0,0,.94-1.54c-0.51-1.68.57-1.91,1.69-2.19l0.49,1.46-0.41,11.08a4.07,4.07,0,0,0-5.6.92,5.16,5.16,0,0,1-1.45,1.42c-2.47,1.62-5.17,3-6.41,5.92a2.68,2.68,0,0,1-.75,1.35c-1.94.93-4,1.65-4.4,4.21a9.28,9.28,0,0,1-1.21.31,2.52,2.52,0,0,0-1.24.93c0.43,2.91-2.16,2.64-3.61,3.55-0.24-5.87-.49-11.73-0.71-17.6A7,7,0,0,1,337.47,277.43Z" transform="translate(-76.48 -21.48)" style="fill:#263874"/><path d="M363.09,246.44a3.86,3.86,0,0,1-3.51-1.36c-1.56-1.51-3.69-2.42-5.56-3.62-3.39-2.17-6.74-4.39-10.15-6.51a19.93,19.93,0,0,0-3-1.27l-0.31-1.52c2-1,3.33.4,4.75,1.31,4.13,2.62,8.17,5.39,12.34,7.94a41.13,41.13,0,0,0,5.22,2.31Z" transform="translate(-76.48 -21.48)" style="fill:#63365c"/><path d="M363.09,246.44l-0.26-2.72,0.17-3.34,2.61-5.09c-0.88-1.1-4.88-2.14-1.38-5.2l-1.77-1.34a8.93,8.93,0,0,1,1.28-.4c2.29-.28,3.27-1.79,2.58-4-0.48-1.53.55-3.11,2.36-3.71,0.74-.24,1.44-0.59,2.16-0.89l2.18-.91c0.2,0.72.39,1.43,0.59,2.15,0.11,0.37.24,0.73,0.36,1.1,0.35,7.71.77,15.42,1,23.13a62.43,62.43,0,0,1-.46,6.66c-1.26,1.73-2.46,3.5-3.81,5.16a13,13,0,0,1-2.4,1.79c-0.35.69,0.7,2.34-1.46,2.67-0.63.1-.89,1.93-1.52,2.83a21.58,21.58,0,0,1-2.31,2.42l-0.49-1.46Z" transform="translate(-76.48 -21.48)" style="fill:#c5cfd7"/><path d="M165.88,265.8c-0.76,6.17-1.18,12.41-2.38,18.5a168.2,168.2,0,0,1-5.65,22.43,84,84,0,0,0-4.2,19.54l-0.45.44-6.56.1a1.79,1.79,0,0,0-.45.13c-3.2,1-3.94.43-3.93-2.87,0-.4,0-0.79-0.06-1.19,0.73-3.34,1.07-6.82,2.25-10,4.07-11,6.31-22.38,8.31-33.86,1.24-7.14,2.52-14.28,3.77-21.42l0.24-.9a5.45,5.45,0,0,1,1.06-1.77c0.68-.5,2.13-1.14,2.32-0.92,1.73,2,2.94.39,4.4-.33s1.68-1.68.92-2.68c-1.64-2.17-3.23-4.59-5.42-6.05a2.94,2.94,0,0,1-1.5-2.94c0-1-.1-1.9-0.15-2.86,1.25-8.35,2.54-16.69,3.72-25.05,0.41-2.92.53-5.88,0.78-8.81a4.43,4.43,0,0,0,1.82-.31c2.47-1.81,5.06-1.56,7.73-.64-0.18,4.05-.14,8.13-0.61,12.15-0.67,5.76-1.89,11.46-2.58,17.22-1.25,10.44-2.3,20.9-3.42,31.35A4.64,4.64,0,0,0,165.88,265.8Z" transform="translate(-76.48 -21.48)" style="fill:#c5ced6"/><path d="M158.4,239.18c0,1,.11,1.9.15,2.86A2.94,2.94,0,0,0,160,245c2.18,1.46,3.78,3.88,5.42,6.05,0.76,1,.41,2-0.92,2.68s-2.67,2.32-4.4.33c-0.19-.22-1.64.42-2.32,0.92a5.45,5.45,0,0,0-1.06,1.77Z" transform="translate(-76.48 -21.48)" style="fill:#a7b3b2"/><path d="M161.47,195.23L172,200a1,1,0,0,1,.05.44c-1.37.33-2.72,0.75-4.1,1-1.75.27-3.52,0.38-5.29,0.55Z" transform="translate(-76.48 -21.48)" style="fill:#a19b98"/><path d="M162.64,202c1.76-.18,3.54-0.28,5.29-0.55,1.38-.22,2.73-0.64,4.1-1l0.42,3.88c-2.67-.92-5.25-1.17-7.73.64a4.43,4.43,0,0,1-1.82.31Z" transform="translate(-76.48 -21.48)" style="fill:#a7b4b2"/><path d="M161.51,130.44c1.15,2.35,2.36,4.67,3.42,7.06,0.54,1.21-.83,4.36-2,5Z" transform="translate(-76.48 -21.48)" style="fill:#a19b98"/><path d="M150.05,71.61l2.63,3.24L148,75.8Z" transform="translate(-76.48 -21.48)" style="fill:#ad416d"/><path d="M156.57,78.39l-1.38.56-0.31-1,1.51-.3Z" transform="translate(-76.48 -21.48)" style="fill:#ad416d"/><path d="M344.8,314.76a0.68,0.68,0,0,1-.08.17,0.26,0.26,0,0,1-.12,0l0.21-.2h0Z" transform="translate(-76.48 -21.48)" style="fill:#263874"/><path d="M142.19,322.9c0,0.4.06,0.79,0.06,1.19,0,3.3.74,3.85,3.93,2.87a1.79,1.79,0,0,1,.45-0.13l6.56-.1,0.21,0.74q0,1.23,0,2.46c-0.14,2-1.23,2.69-3.17,2.63-2.69-.08-5.39,0-8.09.07l0,0-0.32-.52Z" transform="translate(-76.48 -21.48)" style="fill:#a7b4b2"/><path d="M141.87,332.06l0.32,0.52Z" transform="translate(-76.48 -21.48)" style="fill:#a19b98"/><path d="M153.41,327.46l-0.21-.74,0.45-.44Z" transform="translate(-76.48 -21.48)" style="fill:#a19b98"/></svg>