<svg id="Layer_1" data-name="Layer 1" xmlns="http://www.w3.org/2000/svg" viewBox="0 0 374.4 498.72"><title>dress6</title><path d="M131.8-76.52H336.28c0.32,5.26.47,10.53,1,15.77,1,9.66,1.84,19.36,3.46,28.93S344.57-12.93,347-3.61c2.59,10,5.78,19.86,8.57,29.81C358.23,35.77,362.13,44.67,369,52a72.12,72.12,0,0,1,10.73,14.63,20.35,20.35,0,0,0,3.06,4.56c2.94,3,6.09,5.77,9.16,8.64q0,12.3,0,24.61c-3.3,3-6.68,5.83-9.87,8.9-3.84,3.7-7.2,8-11.32,11.31-10.08,8.19-20.52,15.92-30.72,24-4.24,3.34-8.26,7-12.27,10.58-0.74.66-.81,2-1.49,2.8-1.56,1.8-3.3,3.43-5,5.13-3.39.21-6.77,0.52-10.16,0.61-4.83.13-9.66,0.1-14.49,0.14-2.68.11-5.36,0.27-8,.32-5.56.11-11.11,0.16-16.67,0.23-6.37.19-12.74,0.35-19.11,0.59-5.18.2-10.35,0.52-15.53,0.78l-19.05.87a6.3,6.3,0,0,0-1.59-.39c-4.94.11-9.89,0.27-14.83,0.42-4.94-.33-9.88-0.59-14.8-1.05-1.15-.11-2.85-0.63-3.23-1.46-1.87-4-3.93-8.1-4.92-12.39-2.56-11.1-4.54-22.32-6.83-33.48-4.12-20.06-8.37-40.1-12.44-60.18-3.51-17.33-6.71-34.73-10.25-52.05-4.57-22.32-9.38-44.59-14-66.9C134-63.33,133-69.94,131.8-76.52Z" transform="translate(-19.48 76.52)" style="fill:#ed9724"/><path d="M218.3,170.69l19.05-.87a32.4,32.4,0,0,1-2.7,4.11q-13.09,14.65-26.31,29.19c-2.94,3.23-6.12,6.24-9.19,9.35v-4.21c-3.68,2.11-7,3.9-10.15,5.84q-30.27,18.38-60.52,36.81c-23.93,14.53-48,28.92-71.8,43.6-12.56,7.74-24.81,16-37.2,24q0-7.44,0-14.88c1-.59,2.08-1.11,3-1.78,12.77-8.92,25.43-18,38.33-26.74,7.41-5,15.2-9.46,22.83-14.14,1.52-.93,2.4-1.93,2.21-4-0.68-7.31-1.06-14.65-1.61-22a41.72,41.72,0,0,0-.83-4.34c-3.94,2.63-7.41,4.88-10.81,7.22Q46,256.09,19.48,274.36q0-8.88,0-17.76a19,19,0,0,0,2.22-1.16c5.37-3.75,10.61-7.69,16.08-11.28Q58.72,230.44,79.85,217a3.84,3.84,0,0,0,2-4.1c-0.55-6.44-.93-12.89-1.39-19.34-0.18-2.65-.38-5.29-0.59-8.37-1.08.61-1.85,1-2.53,1.44-4.85,3.38-9.66,6.81-14.52,10.17C54,202.9,45.25,209,36.38,215c-5.56,3.74-11.26,7.27-16.9,10.9q0-8.64,0-17.28c5.09-3.42,10.14-6.91,15.27-10.25,6.83-4.44,13.83-8.62,20.57-13.2,10.11-6.86,20.06-14,30.07-21,0.65-.45,1.21-1,2-1.72a6.62,6.62,0,0,0-1.05-.4c-7-.81-14.09-1.65-21.14-2.38-3.22-.33-6.46-0.44-9.69-0.61-2.05-.11-3.44-0.76-3.66-3.15-0.2-2.21-.94-4.38-1.13-6.6a52,52,0,0,1,.24-5.56,7.76,7.76,0,0,0-.24-3,21.09,21.09,0,0,0-2-3.28c0.39,6.62-1.5,13.68,2,20.11-1.8.61-3.51,0.86-4.84,1.72a57.26,57.26,0,0,0-5.22,4.35c-4.85,4-9.69,8.07-14.59,12-2.15,1.74-4.41,3.35-6.62,5V161.08l4.34-3.72c-2.74-.53-2.91-0.85-2.77-3.21a70.76,70.76,0,0,0,.24-9.2c-0.12-1.7-1.18-3.33-1.82-5v-35c0.52-1.3,1.07-2.59,1.55-3.9a53.81,53.81,0,0,0,2.75-7.87c0.67-3.36.73-6.83,1.06-10.25,0.21-2.18-.15-4.66.8-6.45,1.15-2.18.85-4.29,1.21-6.43a2.33,2.33,0,0,1,1.43-1.59c1.85-.31,2.08-1.31,1.89-2.91a5.55,5.55,0,0,1,.75-2.13,7,7,0,0,1-1-2.52,24.64,24.64,0,0,1,.76-4.33,3.83,3.83,0,0,1,1,1.41,38.27,38.27,0,0,1,.71,4.67c0.33,2.8.58,5.6,1,8.39a3.9,3.9,0,0,0,1.15,1.37c-0.86,2,.13,6.05,2.54,8.6a9.57,9.57,0,0,0,.62-3.19c0-.84-0.22-1.69-0.18-2.53,0.17-3.55.5-7.1,0.57-10.65,0.05-2.58-.33-5.16-0.31-7.74,0-4.21.2-8.43,0.36-12.64,0.09-2.19-.42-4.83.62-6.46a10,10,0,0,0,1.6-5.92c-0.09-4.48-.39-9-0.5-13.44,0-1.85.23-3.71,0.22-5.57s-0.37-3.5-.25-5.23c0.13-2,.62-3.94,1-5.91C44.07-.76,47.46-3,50.46-5.68c13.13-11.75,26-23.77,39.24-35.43,13.57-12,27.41-23.62,41.14-35.41h1c1.19,6.58,2.25,13.19,3.6,19.74,4.62,22.31,9.44,44.58,14,66.9,3.55,17.32,6.75,34.72,10.25,52.05,4.06,20.08,8.31,40.11,12.44,60.18,2.29,11.16,4.28,22.38,6.83,33.48,1,4.29,3,8.36,4.92,12.39,0.38,0.83,2.08,1.35,3.23,1.46,4.92,0.46,9.87.72,14.8,1.05l-1.29,17.84,0.84,0.3ZM25.15,147.51c-0.15,1.28-.32,2.24-0.37,3.22-0.32,6.4-.66,12.8-0.88,19.21a5.51,5.51,0,0,0,1,2.09,5.31,5.31,0,0,0,1.37-1.58c1-3.34,1.83-6.71,2.7-10.08,1.16-4.49-1-8.32-2.57-12.23A4.09,4.09,0,0,0,25.15,147.51Zm10.37-10.58c-1-1.81-1.91-3.58-3-5.26A5.87,5.87,0,0,0,31,130.45c-0.29.74-1,1.67-.81,2.19,1.34,3.16.55,6.29,0.24,9.45a5.54,5.54,0,0,0,.33,1.6Zm-2.33,16.35-1.71-7.94C29.61,147.24,30.26,151.89,33.19,153.28Z" transform="translate(-19.48 76.52)" style="fill:#5b5ba8"/><path d="M19.48,318.52c12.39-8,24.64-16.27,37.2-24,23.84-14.69,47.87-29.07,71.8-43.6Q158.76,232.53,189,214.1c3.19-1.94,6.47-3.73,10.15-5.84,0,1.65,0,2.93,0,4.21a28.37,28.37,0,0,0-.61,3.28c-0.46,6.45-.9,12.9-1.28,19.36s-0.67,12.75-1,19.12c-0.12,1.58-.26,3.16-0.35,4.75q-0.59,10.1-1.15,20.2a10.22,10.22,0,0,0-.27,1.4c-0.43,7.55-.87,15.1-1.25,22.65-0.32,6.2-.57,12.4-0.85,18.6L191.46,346c-0.21,3.63-.38,7.25-0.62,10.88-0.29,4.33-.64,8.65-1,13l-2.29,1.27c-7.21,4-14.36,8.21-21.65,12.11-9,4.8-18.09,9.35-27.12,14-12.54,6.53-24.26,14.38-35.79,22.52a11.8,11.8,0,0,0-1.6,1.67c-1,.05-1.91.16-2.86,0.16H22.35c-1,0-1.91.06-2.87,0.1Q19.48,370.12,19.48,318.52Z" transform="translate(-19.48 76.52)" style="fill:#ed9724"/><path d="M391.95,79.85c-3.07-2.87-6.22-5.65-9.16-8.64a20.35,20.35,0,0,1-3.06-4.56A72.12,72.12,0,0,0,369,52c-6.86-7.35-10.76-16.26-13.45-25.82-2.79-10-6-19.8-8.57-29.81-2.41-9.32-4.63-18.73-6.24-28.21s-2.46-19.27-3.46-28.93c-0.54-5.24-.68-10.51-1-15.77H392c0,0.79.13,1.59,0.13,2.38q0,75.68,0,151.36C392.09,78.1,392,79,391.95,79.85Z" transform="translate(-19.48 76.52)" style="fill:#5c5ca8"/><path d="M130.84-76.52C117.12-64.73,103.27-53.08,89.7-41.11,76.49-29.46,63.59-17.44,50.46-5.68c-3,2.68-6.39,4.93-9.61,7.37L36.54,3.6C37.17,2,37.52,1,38,0c2.12-4.72,3.45-9.6,2.63-14.8-1-6.08-2-12.14-3.16-18.19-0.39-2.09-.15-3.74,1.81-4.92,1.15-.7,2.2-1.57,3.29-2.36a29.22,29.22,0,0,0,3.79-2.43Q60.43-55,74.45-67.5c3.32-3,6.55-6,9.83-9h46.56Z" transform="translate(-19.48 76.52)" style="fill:#ed9724"/><path d="M42.53-40.25c-1.09.79-2.14,1.66-3.29,2.36-2,1.19-2.2,2.83-1.81,4.92,1.13,6,2.21,12.11,3.16,18.19C41.41-9.57,40.08-4.69,38,0c-0.44,1-.79,2-1.41,3.58l4.31-1.91c-0.33,2-.82,3.93-1,5.91-0.12,1.73.24,3.48,0.25,5.23s-0.27,3.72-.22,5.57c0.12,4.48.42,9,.5,13.44a10,10,0,0,1-1.6,5.92c-1,1.63-.54,4.26-0.62,6.46-0.16,4.21-.33,8.42-0.36,12.64,0,2.58.36,5.17,0.31,7.74-0.07,3.55-.4,7.1-0.57,10.65,0,0.84.21,1.69,0.18,2.53A9.57,9.57,0,0,1,37.14,81c-2.41-2.55-3.4-6.64-2.54-8.6A3.9,3.9,0,0,1,33.45,71c-0.4-2.79-.65-5.59-1-8.39a38.27,38.27,0,0,0-.71-4.67,3.83,3.83,0,0,0-1-1.41,24.64,24.64,0,0,0-.76,4.33,7,7,0,0,0,1,2.52,5.55,5.55,0,0,0-.75,2.13c0.19,1.6,0,2.6-1.89,2.91A2.33,2.33,0,0,0,26.85,70c-0.36,2.14-.06,4.26-1.21,6.43-0.95,1.79-.59,4.27-0.8,6.45-0.33,3.42-.39,6.9-1.06,10.25A53.81,53.81,0,0,1,21,101c-0.48,1.31-1,2.6-1.55,3.9q0-36.72,0-73.44c1,0.76,1.73,1,2-.73,0.3-2.19.47-4.53,1.4-6.46a11.49,11.49,0,0,0,.7-6.93c-0.11-.79-0.11-1.59-0.16-2.38,3.9-2.28,3.87-6.41,4.67-10.12a5.8,5.8,0,0,0-.48-1.54,12.11,12.11,0,0,1-.39-4C27.52-2.25,28.81-3.7,29-5.29c0.35-3.31-.13-6.74.43-10s-1.62-7.1,1.37-10.11a1.52,1.52,0,0,0,.07-0.93c-0.08-1.68-.18-3.35-0.28-5.15L24.25-27.4a11.42,11.42,0,0,1,.28-2.33c0.9-2.7,1.24-5.33-.32-7.76a10.73,10.73,0,0,0,.9-3c0-4.26-.26-8.52-0.41-12.78a29.06,29.06,0,0,0,3.13-2.54,4.74,4.74,0,0,0,1.41-2.55c0.26-3.45.39-6.93,0.37-10.39,0-2.6-.34-5.19-0.52-7.79h6.24c0,0.8.09,1.59,0.08,2.39,0,2.35,0,4.72-.18,7.06C35-65,34.54-63,34.17-61l0.66,0.31,6.75-3.75c0,0.63,0,1.27.08,1.9,0.26,4.78,1,9.61.6,14.34C42-45.46,42.66-42.9,42.53-40.25Z" transform="translate(-19.48 76.52)" style="fill:#322864"/><path d="M19.48,274.36q26.58-18.26,53.16-36.5c3.41-2.34,6.87-4.59,10.81-7.22a41.72,41.72,0,0,1,.83,4.34c0.55,7.33.93,14.67,1.61,22,0.2,2.1-.68,3.09-2.21,4-7.63,4.68-15.42,9.13-22.83,14.14C48,283.85,35.3,292.94,22.52,301.86c-1,.67-2,1.19-3,1.78Q19.48,289,19.48,274.36Z" transform="translate(-19.48 76.52)" style="fill:#312864"/><path d="M19.48,225.88c5.64-3.62,11.34-7.15,16.9-10.9,8.87-6,17.66-12.09,26.47-18.17,4.86-3.36,9.67-6.79,14.52-10.17,0.68-.48,1.45-0.83,2.53-1.44,0.22,3.08.41,5.72,0.59,8.37,0.45,6.45.84,12.9,1.39,19.34a3.84,3.84,0,0,1-2,4.1q-21.1,13.48-42.07,27.15c-5.47,3.59-10.71,7.53-16.08,11.28a19,19,0,0,1-2.22,1.16Q19.48,241.24,19.48,225.88Z" transform="translate(-19.48 76.52)" style="fill:#312864"/><path d="M19.48,180.76c2.21-1.67,4.48-3.27,6.62-5,4.89-4,9.74-8,14.59-12a57.26,57.26,0,0,1,5.22-4.35c1.33-.86,3-1.11,4.84-1.72-3.52-6.44-1.64-13.49-2-20.11a21.09,21.09,0,0,1,2,3.28,7.76,7.76,0,0,1,.24,3,52,52,0,0,0-.24,5.56c0.19,2.21.93,4.38,1.13,6.6,0.22,2.39,1.61,3,3.66,3.15,3.23,0.17,6.47.28,9.69,0.61,7.05,0.72,14.09,1.57,21.14,2.38a6.62,6.62,0,0,1,1.05.4c-0.79.68-1.34,1.27-2,1.72-10,7-20,14.11-30.07,21-6.74,4.57-13.74,8.75-20.57,13.2-5.14,3.34-10.19,6.83-15.27,10.25V180.76Z" transform="translate(-19.48 76.52)" style="fill:#312864"/><path d="M391.95,79.85c0.05-.88.15-1.75,0.15-2.63q0-75.68,0-151.36c0-.8-0.09-1.59-0.13-2.38h1.92V422.2q-186.12,0-372.24,0a10.42,10.42,0,0,1-2.16-.46c1,0,1.91-.1,2.87-0.1H98.56c1,0,1.91-.1,2.86-0.16,0.64,0,1.27.12,1.91,0.12h82.31c0.64,0,1.27-.08,1.91-0.12l0.88,0.12h24.82l1,0,0.58-.26v0l14.65,0.16c0.79,0,1.59.14,2.38,0.14H392.14v-3.29q0-74.84,0-149.68c0-1-.06-2.08-0.09-3.11,0-.4,0-0.8,0-1.2q0-47.91,0-95.81c0-.63-0.09-1.27-0.14-1.9,0.06-1.75.18-3.5,0.18-5.25q0-17.71-.12-35.42l0-21.5Q392,92.16,391.95,79.85Z" transform="translate(-19.48 76.52)" style="fill:#f2eceb"/><path d="M42.53-40.25c0.13-2.65-.51-5.21-0.27-8,0.41-4.73-.34-9.55-0.6-14.34,0-.63-0.05-1.27-0.08-1.9,0.78-.55,1.6-1,2.32-1.66,4-3.45,8-6.94,12.05-10.41H84.28c-3.27,3-6.5,6.07-9.83,9Q60.43-55,46.32-42.68A29.22,29.22,0,0,1,42.53-40.25Z" transform="translate(-19.48 76.52)" style="fill:#5c5ca7"/><path d="M24.25-27.39l6.32-4.08c0.1,1.8.2,3.48,0.28,5.15a1.52,1.52,0,0,1-.07.93c-3,3-.79,6.75-1.37,10.11S29.34-8.6,29-5.29c-0.17,1.59-1.46,3-1.78,4.64a12.11,12.11,0,0,0,.39,4,5.8,5.8,0,0,1,.48,1.54c-0.8,3.71-.77,7.83-4.67,10.12l-3.92,2.11q0-19.92,0-39.84Z" transform="translate(-19.48 76.52)" style="fill:#eb9625"/><path d="M29.08-76.52c0.19,2.6.51,5.19,0.52,7.79,0,3.46-.1,6.94-0.37,10.39a4.74,4.74,0,0,1-1.41,2.55,29.06,29.06,0,0,1-3.13,2.54l-5.22,4.09V-76.52h9.6Z" transform="translate(-19.48 76.52)" style="fill:#ec9625"/><path d="M56-76.52c-4,3.47-8,7-12.05,10.41-0.72.62-1.54,1.11-2.32,1.66L34.83-60.7,34.17-61c0.36-2,.87-4,1.05-6.07,0.21-2.34.15-4.71,0.18-7.06,0-.79-0.05-1.59-0.08-2.39H56Z" transform="translate(-19.48 76.52)" style="fill:#eb9626"/><path d="M19.48-49.16l5.22-4.09c0.15,4.26.36,8.52,0.41,12.78a10.73,10.73,0,0,1-.9,3c1.56,2.43,1.22,5.07.32,7.76a11.42,11.42,0,0,0-.28,2.33l-4.77,4.64Q19.48-36,19.48-49.16Z" transform="translate(-19.48 76.52)" style="fill:#5c5ca7"/><path d="M19.48,17.08L23.4,15c0,0.79,0,1.59.16,2.38a11.49,11.49,0,0,1-.7,6.93c-0.93,1.93-1.11,4.27-1.4,6.46-0.24,1.76-.94,1.49-2,0.73V17.08Z" transform="translate(-19.48 76.52)" style="fill:#5d5ca7"/><path d="M19.48,140c0.64,1.66,1.69,3.29,1.82,5a70.76,70.76,0,0,1-.24,9.2c-0.14,2.35,0,2.68,2.77,3.21l-4.34,3.72Q19.48,150.52,19.48,140Z" transform="translate(-19.48 76.52)" style="fill:#342b67"/><path d="M392,104.46q0,10.75,0,21.5c-1.9,1.44-3.86,2.81-5.7,4.32-9.8,8-19.44,16.27-29.43,24-4.66,3.62-8.23,8.17-12.34,12.26a3.59,3.59,0,0,0-.45,1.18,11.44,11.44,0,0,0,1.73.36c4.22,0.18,8.44.43,12.67,0.48,8.78,0.11,17.56-.07,26.33.25,2.83,0.1,5.11-.32,7.14-2.22,0,0.63.14,1.27,0.14,1.9q0,47.91,0,95.81c0,0.4,0,.8,0,1.2-5.73,6.68-12.64,11.84-20,16.57-6.29,4-12.64,8.25-18,13.39-15,14.43-29.63,29.35-44.33,44.14-9.46,9.52-18.8,19.15-28.21,28.72s-18.63,18.88-27.91,28.36c-8,8.22-16,16.5-24,24.75l-14.65-.16a16.36,16.36,0,0,1,1.15-2c2.63-3.42,5.19-6.9,8-10.19,5.94-7,11.72-14.17,18.07-20.78,8.13-8.47,16.91-16.31,25.14-24.69,6.89-7,13.35-14.43,20.08-21.59,4.65-4.94,9.5-9.7,14.15-14.64,8.92-9.49,17.59-19.23,26.71-28.53,7.16-7.3,14.79-14.13,22.29-21.09,1.75-1.62,2.21-3,1.3-5.4-2.59-6.79-4.9-13.69-7.18-20.59-1.64-4.94-1.95-5.21-5.76-1.72-8,7.35-16.1,14.63-23.68,22.41-8.86,9.09-17.2,18.68-25.77,28.05-6.15,6.72-12.19,13.54-18.48,20.13-7.28,7.64-14.9,14.95-22.11,22.64-6.66,7.11-13,14.53-19.45,21.83q-10.32,11.68-20.58,23.4c-5.69,6.48-11.23,13.11-17.13,19.39-2.37,2.52-4.21,4.83-3.76,8.5a27.65,27.65,0,0,1-.27,5c-0.64,0-1.27.12-1.91,0.12H103.33c-0.64,0-1.27-.08-1.91-0.12a11.8,11.8,0,0,1,1.6-1.67c11.53-8.15,23.25-16,35.79-22.52,9-4.7,18.14-9.25,27.12-14,7.29-3.9,14.44-8.06,21.65-12.11l2.29-1.27c-0.06,2.68-.08,5.37-0.19,8.05-0.13,3.35-.34,6.7-0.53,10.45a10.39,10.39,0,0,0,1.36-.94c4.23-4.47,8.63-8.79,12.63-13.46,8.83-10.31,17.21-21,26.23-31.16,10-11.22,20.51-22,30.77-32.95,5.89-6.31,11.69-12.71,17.6-19,4.65-4.95,9.86-9.45,14-14.76,7.4-9.42,15.8-17.82,24.46-26q9.06-8.55,18.54-16.65c2.81-2.41,3-2.23,1.76-5.7-2.63-7.37-5.26-14.75-7.81-22.15-1-2.82-1.67-3.17-3.95-1.13-8.16,7.3-16.47,14.45-24.3,22.09-6.91,6.74-13.24,14.06-19.86,21.1-6.24,6.64-12.6,13.16-18.76,19.87q-14.35,15.62-28.49,31.44c-8.35,9.36-16.49,18.9-24.81,28.27-5.62,6.33-11.4,12.52-17.11,18.78l0.91-24.16a12.72,12.72,0,0,0,1.48-1.2c6.34-6.88,12.93-13.54,18.92-20.7q22.7-27.13,47-52.82c7.32-7.71,14.73-15.32,22.07-23,4.52-4.74,8.78-9.74,13.49-14.29,9.86-9.55,19.93-18.88,29.93-28.3q3.66-3.45,7.35-6.87c2.14-2,4.31-3.93,6.46-5.9l0-.66-6.48-.32-11.16-.61c1.67-1.7,3.4-3.34,5-5.13,0.68-.78.75-2.14,1.49-2.8,4-3.61,8-7.23,12.27-10.58,10.19-8,20.64-15.78,30.72-24,4.12-3.34,7.48-7.61,11.32-11.31C385.31,110.29,388.69,107.42,392,104.46Z" transform="translate(-19.48 76.52)" style="fill:#5c5ba7"/><path d="M321.37,167.15l11.16,0.61,6.48,0.32,0,0.66c-2.15,2-4.32,3.92-6.46,5.9q-3.69,3.41-7.35,6.87c-10,9.42-20.06,18.75-29.93,28.3-4.7,4.55-9,9.55-13.49,14.29-7.33,7.69-14.75,15.31-22.07,23q-24.35,25.65-47,52.82c-6,7.16-12.59,13.82-18.92,20.7a12.72,12.72,0,0,1-1.48,1.2c0.28-6.2.54-12.4,0.85-18.6,0.39-7.55.82-15.1,1.25-22.65a10.22,10.22,0,0,1,.27-1.4A10.89,10.89,0,0,0,196.2,278q9.47-10.5,18.91-21c5-5.59,10.1-11.12,15.05-16.77,7.79-8.89,15.37-18,23.26-26.76,6.76-7.55,13.85-14.8,20.76-22.22,2.49-2.68,4.8-5.54,7.31-8.21,3.54-3.78,7.17-7.48,10.81-11.16,1.39-1.4,2.93-2.65,4.41-4,4.83,0,9.67,0,14.5-.14C314.6,167.67,318,167.36,321.37,167.15Z" transform="translate(-19.48 76.52)" style="fill:#312864"/><path d="M196.25,254.23c0.33-6.37.63-12.75,1-19.12s0.82-12.91,1.28-19.36a28.37,28.37,0,0,1,.61-3.28c3.07-3.11,6.25-6.13,9.19-9.35q13.24-14.52,26.31-29.19a32.4,32.4,0,0,0,2.7-4.11c5.18-.26,10.35-0.58,15.53-0.78,6.37-.25,12.74-0.4,19.11-0.59,1.69,1,.06,1.69-0.35,2.15-2.94,3.26-6.09,6.34-9,9.63-9.35,10.59-18.56,21.31-27.94,31.87-7.54,8.48-15.24,16.81-22.89,25.19Q204.06,245.78,196.25,254.23Z" transform="translate(-19.48 76.52)" style="fill:#312864"/><path d="M196.25,254.23q7.79-8.47,15.57-16.94c7.65-8.38,15.35-16.71,22.89-25.19,9.38-10.56,18.59-21.28,27.94-31.87,2.91-3.29,6.06-6.37,9-9.63,0.41-.46,2-1.16.35-2.15,5.56-.07,11.12-0.12,16.67-0.23,2.68-.05,5.36-0.21,8-0.32-1.47,1.32-3,2.56-4.41,4-3.65,3.68-7.27,7.39-10.81,11.16-2.51,2.67-4.81,5.53-7.31,8.21-6.9,7.42-14,14.68-20.76,22.22-7.89,8.8-15.47,17.87-23.26,26.76-4.95,5.65-10,11.18-15.05,16.77q-9.45,10.52-18.91,21a10.89,10.89,0,0,1-1.45,1.15q0.57-10.1,1.15-20.2C196,257.39,196.13,255.81,196.25,254.23Z" transform="translate(-19.48 76.52)" style="fill:#5c5ba7"/><path d="M218.3,170.69l-16.88,18.17-0.84-.3,1.29-17.84c4.94-.15,9.88-0.3,14.83-0.42A6.3,6.3,0,0,1,218.3,170.69Z" transform="translate(-19.48 76.52)" style="fill:#322965"/><path d="M25.15,147.51a4.09,4.09,0,0,1,1.21.61c1.62,3.92,3.74,7.74,2.57,12.23-0.87,3.37-1.73,6.74-2.7,10.08A5.31,5.31,0,0,1,24.85,172a5.51,5.51,0,0,1-1-2.09c0.23-6.4.56-12.81,0.88-19.21C24.83,149.75,25,148.79,25.15,147.51Z" transform="translate(-19.48 76.52)" style="fill:#332a66"/><path d="M35.52,136.93l-4.79,6.76a5.54,5.54,0,0,1-.33-1.6c0.31-3.16,1.1-6.29-.24-9.45-0.22-.52.51-1.45,0.81-2.19a5.87,5.87,0,0,1,1.58,1.22C33.61,133.35,34.51,135.12,35.52,136.93Z" transform="translate(-19.48 76.52)" style="fill:#322965"/><path d="M33.19,153.28c-2.93-1.39-3.58-6-1.71-7.94Z" transform="translate(-19.48 76.52)" style="fill:#342b67"/><path d="M191.46,346c5.71-6.25,11.49-12.45,17.11-18.78,8.32-9.38,16.46-18.92,24.81-28.27q14.12-15.83,28.49-31.44c6.16-6.71,12.52-13.23,18.76-19.87,6.62-7,12.95-14.36,19.86-21.1,7.83-7.64,16.14-14.79,24.3-22.09,2.28-2,3-1.69,3.95,1.13,2.55,7.4,5.17,14.77,7.81,22.15,1.24,3.47,1,3.3-1.76,5.7q-9.46,8.11-18.54,16.65c-8.66,8.18-17.07,16.58-24.46,26-4.17,5.32-9.38,9.81-14,14.76-5.91,6.29-11.71,12.69-17.6,19-10.26,11-20.78,21.73-30.77,32.95-9,10.14-17.4,20.85-26.23,31.16-4,4.67-8.4,9-12.63,13.46a10.39,10.39,0,0,1-1.36.94c0.19-3.75.4-7.1,0.53-10.45,0.11-2.68.13-5.37,0.19-8.05,0.32-4.33.67-8.65,1-13C191.08,353.23,191.25,349.61,191.46,346Z" transform="translate(-19.48 76.52)" style="fill:#312864"/><path d="M229.52,421.47c8-8.25,16-16.53,24-24.75,9.28-9.48,18.61-18.9,27.91-28.36s18.75-19.21,28.21-28.72C324.38,324.85,339,309.93,354,295.5c5.36-5.14,11.71-9.37,18-13.39,7.39-4.73,14.31-9.89,20-16.57,0,1,.09,2.08.09,3.11q0,74.84,0,149.68v3.29H231.9C231.11,421.61,230.31,421.52,229.52,421.47Z" transform="translate(-19.48 76.52)" style="fill:#ee9724"/><path d="M187.55,421.46a27.65,27.65,0,0,0,.27-5c-0.45-3.67,1.39-6,3.76-8.5,5.9-6.28,11.44-12.91,17.13-19.39q10.28-11.71,20.58-23.4c6.45-7.31,12.79-14.72,19.45-21.83,7.21-7.7,14.83-15,22.11-22.64,6.28-6.59,12.33-13.41,18.48-20.13,8.57-9.37,16.92-19,25.77-28.05,7.58-7.78,15.67-15.06,23.68-22.41,3.81-3.5,4.13-3.22,5.76,1.72,2.29,6.9,4.59,13.8,7.18,20.59,0.91,2.38.45,3.78-1.3,5.4-7.5,7-15.14,13.79-22.29,21.09-9.12,9.3-17.78,19-26.71,28.53-4.65,4.94-9.5,9.7-14.15,14.64-6.73,7.16-13.19,14.59-20.08,21.59-8.23,8.38-17,16.22-25.14,24.69-6.35,6.61-12.14,13.77-18.07,20.78-2.79,3.29-5.35,6.77-8,10.19a16.36,16.36,0,0,0-1.15,2v0l-0.58.26-1,0c-4.53-.08-9.07-0.22-13.6-0.22-3.74,0-7.48.15-11.22,0.24Z" transform="translate(-19.48 76.52)" style="fill:#312864"/><path d="M392,166.63c-2,1.9-4.31,2.32-7.14,2.22-8.77-.32-17.55-0.14-26.33-0.25-4.22-.05-8.45-0.29-12.67-0.48a11.44,11.44,0,0,1-1.73-.36,3.59,3.59,0,0,1,.45-1.18c4.11-4.09,7.68-8.63,12.34-12.26,10-7.78,19.63-16,29.43-24,1.84-1.51,3.8-2.88,5.7-4.32q0.06,17.71.12,35.42C392.14,163.13,392,164.88,392,166.63Z" transform="translate(-19.48 76.52)" style="fill:#ec9725"/><path d="M188.43,421.58c3.74-.09,7.48-0.24,11.22-0.24,4.54,0,9.07.14,13.6,0.22H188.43Z" transform="translate(-19.48 76.52)" style="fill:#5c5ba7"/><path d="M214.3,421.54l0.58-.26Z" transform="translate(-19.48 76.52)" style="fill:#5c5ba7"/></svg>